<svg xmlns="http://www.w3.org/2000/svg" xmlns:xlink="http://www.w3.org/1999/xlink" width="15.333" height="16" viewBox="0 0 15.333 16"><defs><style>.a{fill:#fff;stroke:#333;}.b{clip-path:url(#a);}.c{fill:#333;}</style><clipPath id="a"><rect class="a" width="15.333" height="16" transform="translate(1186 50)"/></clipPath></defs><g class="b" transform="translate(-1186 -50)"><g transform="translate(1186.327 50)"><path class="c" d="M7.436,7.986a3.963,3.963,0,0,0,3.933-3.993,3.933,3.933,0,1,0-7.865,0A3.966,3.966,0,0,0,7.436,7.986Zm0-7.31A3.291,3.291,0,0,1,10.7,3.993a3.266,3.266,0,1,1-6.532,0A3.3,3.3,0,0,1,7.436.677Zm0,0" transform="translate(-0.17)"/><path class="c" d="M7.121,13.477a7.622,7.622,0,0,0-5.144,1.9A6.365,6.365,0,0,0-.152,20.154a.364.364,0,0,0,.383.338h13.78a.364.364,0,0,0,.383-.338,6.358,6.358,0,0,0-2.128-4.775,7.625,7.625,0,0,0-5.145-1.9Zm-6.5,6.338a5.722,5.722,0,0,1,1.9-3.963,6.819,6.819,0,0,1,4.6-1.7,6.818,6.818,0,0,1,4.6,1.7,5.707,5.707,0,0,1,1.9,3.963Zm0,0" transform="translate(0.152 -4.492)"/></g></g></svg>