<svg xmlns="http://www.w3.org/2000/svg" xmlns:xlink="http://www.w3.org/1999/xlink" width="70" height="70" viewBox="0 0 70 70"><defs><style>.a{fill:#fff;stroke:#707070;}.b{clip-path:url(#a);}.c{fill:#434343;}.d{fill:#f4db27;}.e{fill:#3ea36e;}.f{fill:#fcdb1a;}</style><clipPath id="a"><rect class="a" width="70" height="70" transform="translate(473 3908)"/></clipPath></defs><g class="b" transform="translate(-473 -3908)"><g transform="translate(474.542 3908)"><path class="c" d="M58.049,57.59a30.453,30.453,0,0,0,0-42.963,30.29,30.29,0,0,0-33.484-6.4,40.3,40.3,0,0,0-2.6-4.816l-.637-.943L20.9,1.86,19.647,0l-1.2,1.886-.408.637-.586.892a41,41,0,0,0-3.415,6.676,45.9,45.9,0,0,0-2.6,8.74,15.484,15.484,0,0,0-4.2,2.268C4.791,22.985,1.605,26.655.484,33.382L.357,34.1,0,36.236,2.09,35.8l.714-.127c.025,0,1.631-.306,3.568-.586,0,.331-.025.688-.025,1.019a30.247,30.247,0,0,0,8.664,21.278,16.1,16.1,0,0,1-9.378,8.282l-1.478.51s-2.8.994-2.8,1.376c0,.433,2.88,1.452,2.88,1.452l1.5.433a15.739,15.739,0,0,0,4.077.535,11.066,11.066,0,0,0,5.351-1.223,12.152,12.152,0,0,1,4.51-.688h.051a10.6,10.6,0,0,1,4.383.612h.025l.051.025.025.025A11.028,11.028,0,0,0,29.636,70a15.739,15.739,0,0,0,4.077-.535l1.5-.433s2.981-1.045,2.956-1.351-2.039-1.172-2.039-1.172h.51A30.2,30.2,0,0,0,58.049,57.59Z"/><path class="c" d="M36.618,64.98a28.841,28.841,0,0,1-28.8-28.9A28.808,28.808,0,1,1,57,56.52a28.541,28.541,0,0,1-20.386,8.46Z"/><path class="d" d="M64.954,36.083A28.324,28.324,0,1,1,36.618,7.7,28.374,28.374,0,0,1,64.954,36.083Z"/><path class="c" d="M19.494,58.711a28.171,28.171,0,0,0,11.314,5.173V8.307A28.171,28.171,0,0,0,19.494,13.48Z"/><path class="e" d="M19.545,58.762a28.06,28.06,0,0,0,11.187,5.122V8.333a27.9,27.9,0,0,0-11.187,5.122Z"/><path class="c" d="M1.809,34.35l.127-.714C2.981,27.394,5.912,24,8.154,22.246a12.062,12.062,0,0,1,4.765-2.319h.1l2.344.051h.51l-.025.51L15.162,33l-.025.331-.331.1-1.427.484-.357.127-.2-.331c-.051-.076-.382-.484-2.472-.484a51.965,51.965,0,0,0-7.874.943l-.663.178Z"/><path class="e" d="M13,20.437s-8.613,1.5-10.6,13.3c0,0,9.785-1.988,10.855-.229l1.427-.484.688-12.512Z"/><path class="c" d="M29.61,68.5a9.519,9.519,0,0,1-4.689-1.07L24.9,67.4l-.025-.025s-1.223-.815-5.147-.841h-.051a13.116,13.116,0,0,0-5.147.841,9.519,9.519,0,0,1-4.689,1.07,14.964,14.964,0,0,1-3.695-.459l-1.5-.433,1.478-.51a17.416,17.416,0,0,0,10.55-9.836c.076-.255,1.656-6.192-1.376-14.015a50.85,50.85,0,0,1-3.058-16.92,41.27,41.27,0,0,1,3.185-15.646,39.938,39.938,0,0,1,3.262-6.4l.586-.917.408-.612.408.612.637.943a37.576,37.576,0,0,1,3.262,6.4A41.381,41.381,0,0,1,27.164,26.3a50.85,50.85,0,0,1-3.058,16.92c-3.032,7.849-1.452,13.76-1.376,14.015A17.6,17.6,0,0,0,33.28,67.07l1.478.51-1.5.433a13.24,13.24,0,0,1-3.644.484Z"/><path class="d" d="M19.7,3.593l.637.943A42.5,42.5,0,0,1,26.705,26.3,49.931,49.931,0,0,1,23.673,43.04c-3.185,8.256-1.4,14.347-1.4,14.347A17.78,17.78,0,0,0,33.153,67.528s-4.638,1.351-8-.586c0,0-1.2-.917-5.428-.917a13.293,13.293,0,0,0-5.428.892c-3.389,1.911-8,.586-8,.586A17.939,17.939,0,0,0,17.175,57.361s1.809-6.09-1.376-14.347a49.931,49.931,0,0,1-3.032-16.742A42.642,42.642,0,0,1,19.137,4.485Z"/><path class="e" d="M19.7,3.593l-.586.917A42.53,42.53,0,0,0,12.741,26.3,49.931,49.931,0,0,0,15.774,43.04C18.959,51.3,17.15,57.386,17.15,57.386A17.78,17.78,0,0,1,6.269,67.528s4.638,1.325,8-.586A12.77,12.77,0,0,1,19.7,66.05Z"/><path class="c" d="M42.454,63.884a28.171,28.171,0,0,0,11.314-5.173V13.48A28.171,28.171,0,0,0,42.454,8.307Z"/><path class="e" d="M42.5,63.884a28.059,28.059,0,0,0,11.187-5.122V13.455A28.059,28.059,0,0,0,42.5,8.333V63.884Z"/><path class="f" d="M41.918,30.324l-2.574,7.364,6.371-.1-2.6-7.492Z"/><path class="f" d="M41.562,46.684l-2.574,7.364,6.371-.1-2.6-7.492Z"/><path class="c" d="M19.647,3.644V66.05h.076V3.618L19.7,3.568Z"/><path class="c" d="M18.194,10.677a.791.791,0,1,1-.79-.841A.822.822,0,0,1,18.194,10.677Z"/><path class="c" d="M42.53,11.594s-8.537-.28-8.537,6.676S42.53,25.1,42.53,25.1s9.046.51,9.046-5.53h-5.4s.229,2.727-3.236,2.752c0,0-3.007.229-2.981-4,0-1.2.382-3.95,2.956-4,0,0,3.211-.28,3.211,2.574l5.453.025C51.576,16.946,52.035,11.569,42.53,11.594Z"/><path class="c" d="M47.142,42.1h4.536L44.7,28.387H40.135L33.127,42.1h4.536l1.1-2.5h7.262Zm-7.11-5.351,2.293-5.224.076-.1.076.1,2.293,5.224Z"/><path class="c" d="M47.142,58.635h4.536L44.7,44.9H40.135L33.127,58.635h4.536l1.1-2.523h7.262Zm-7.11-5.377,2.293-5.224.076-.1.076.1,2.293,5.224Z"/></g></g></svg>