<svg xmlns="http://www.w3.org/2000/svg" xmlns:xlink="http://www.w3.org/1999/xlink" width="70" height="70" viewBox="0 0 70 70"><defs><style>.a,.f{fill:#fff;}.a{stroke:#707070;}.b{clip-path:url(#a);}.c{fill:#ededed;}.d{fill:#df1216;}.e{fill:#e00914;}</style><clipPath id="a"><rect class="a" width="70" height="70" transform="translate(816 3908)"/></clipPath></defs><g class="b" transform="translate(-816 -3908)"><g transform="translate(818.233 3905.714)"><path class="c" d="M2.126,23.985v1.966c.064.16.085,1.923.1,2.276.043.737.1,1.485.182,2.2.16,1.453.353,2.81.6,4.231a53.9,53.9,0,0,0,4.85,14.423,51.17,51.17,0,0,0,4.124,6.677L14.6,59.124c.246.31.994,1.079,1.143,1.282l1.143,1.25c.406.4.8.8,1.207,1.207l1.538,1.442c.726.566,1.506,1.293,2.308,1.912a42.2,42.2,0,0,0,9.947,5.716,6.616,6.616,0,0,1,.865.353h.128c.139-.118,3.056-1.368,3.312-1.485a30.178,30.178,0,0,0,3.152-1.667c1.036-.62,1.976-1.239,2.906-1.9L46.549,63.7a4.1,4.1,0,0,1,.321-.3c.1-.085.2-.192.3-.288.118-.118.214-.171.331-.288l2.212-2.276,3.429-4.135c1.132-1.6,1.859-2.65,2.885-4.359a52.118,52.118,0,0,0,7.1-21.827c.075-.748.128-1.474.171-2.244.011-.139.043-2.19.107-2.329v-2.1c-.075-.16-.075-1.827-.085-2.169-.139-2.222-.342-4.092-.588-6.293-.118-1.015-.726-5.8-1.3-6.7a5.356,5.356,0,0,0-.47-.673l-1.774.673a40.369,40.369,0,0,1-5.566,1.827,25.479,25.479,0,0,1-9.049.15A15.554,15.554,0,0,1,38.3,8.024L36.677,6.571c-.1-.1-.182-.214-.3-.321a28.936,28.936,0,0,1-2.959-3.237c-.171-.235-.363-.481-.524-.726h-.032l-.556.694c-.192.224-.481.63-.694.855l-3.8,3.729a2.238,2.238,0,0,0-.182.15,4.307,4.307,0,0,1-.342.278,16.612,16.612,0,0,1-6.4,2.4,22.558,22.558,0,0,1-9.081-.267A39.971,39.971,0,0,1,7.97,8.953c-.609-.2-1.229-.438-1.87-.652a17.4,17.4,0,0,0-1.934-.577c-.107.641-.267,1.282-.385,1.912-.374,1.987-.705,3.878-.983,5.9-.31,2.233-.47,4.028-.609,6.261C2.2,22.126,2.179,23.857,2.126,23.985Z"/><path class="d" d="M17.19,11.72c-4.274,0-7.051-.919-10.833-2.286a10.825,10.825,0,0,0-1.41-.459c-.064.545-.235,1.229-.342,1.784-.118.62-.224,1.218-.331,1.838A74.712,74.712,0,0,0,3.109,24.306a52.05,52.05,0,0,0,.812,9.957A54.636,54.636,0,0,0,7.137,45.192c.47,1.132.951,2.179,1.474,3.237s1.1,2.073,1.677,3.034a38.908,38.908,0,0,0,2.853,4.22c.919,1.132,1.763,2.372,2.756,3.429.053.064.075.107.128.16l.566.62c.1.118.192.192.278.31a41.3,41.3,0,0,0,4.209,4.049l1.293,1.068a41.494,41.494,0,0,0,9.69,5.63c.15.064.278.107.427.171.2.085.235.139.438.053.545-.235,1.079-.491,1.624-.737a31.732,31.732,0,0,0,4.69-2.382c.481-.31.983-.6,1.432-.919,1.058-.748,1.688-1.186,2.714-2,.673-.534.994-.833,1.592-1.357l.641-.545a3.743,3.743,0,0,1,.3-.288L49.7,59.06l1.88-2.244c.694-.833,1.346-1.795,2-2.746A50.216,50.216,0,0,0,59.8,41.421,54.065,54.065,0,0,0,62.425,25.15a72.536,72.536,0,0,0-.556-9.006c-.139-1.261-.3-2.521-.491-3.761A19.063,19.063,0,0,0,60.6,8.91c-.374.107-2.158.8-2.639.994a23.5,23.5,0,0,1-9.316,1.784,21.385,21.385,0,0,1-9.69-2.094,8.686,8.686,0,0,1-2.137-1.538c-.139-.15-.235-.192-.4-.363-.246-.246-.385-.342-.748-.737-.246-.267-.481-.491-.726-.748l-.737-.737a20.342,20.342,0,0,1-1.368-1.581L29.989,6.88c-.128.128-.235.235-.363.353A14.367,14.367,0,0,1,26.709,9.5,21.3,21.3,0,0,1,17.19,11.72Z"/><path class="e" d="M29.615,10.2V67.415a11.7,11.7,0,0,0,1.506.769c.214.1,1.517.652,1.635.662s2.917-1.261,3.205-1.41l-.011-57.244c-.1-.1-.118-.118-.2-.192-.288-.235-1.229-1.165-1.4-1.346L33.216,7.447c-.128-.128-.214-.31-.385-.4L31.688,8.28c-.652.684-1.165,1.111-1.827,1.709A.79.79,0,0,0,29.615,10.2Z"/><path class="f" d="M35.962,67.436l1.667-.94A37.887,37.887,0,0,0,42.3,63.227V13.109c-.524-.171-1.122-.3-1.774-.513a14.43,14.43,0,0,1-4.241-2.147,2.2,2.2,0,0,0-.331-.246Z"/><path class="f" d="M23.269,13.109V63.226c.321.353,2.692,2.009,3.024,2.222l2.457,1.5a8.615,8.615,0,0,0,.865.47L29.626,10.2l-.652.481c-.214.16-.47.31-.716.459a16.685,16.685,0,0,1-3.205,1.442C24.466,12.778,23.857,12.917,23.269,13.109Z"/><path class="e" d="M42.3,63.226a1.869,1.869,0,0,1,.2-.171l1.068-.919c.577-.47,1.571-1.421,2.083-1.912.128-.128.256-.3.385-.406.075-.064.139-.107.2-.171s.128-.139.2-.214l.385-.417c.192-.214.524-.513.769-.823.2-.256.417-.459.726-.855a3.692,3.692,0,0,1,.374-.427.721.721,0,0,1-.043-.342V16.538c0-.844-.053-1.859.011-2.682-1.143-.064-2.179-.075-3.323-.214q-.785-.1-1.538-.224c-.5-.085-.994-.224-1.485-.31Z"/><path class="e" d="M16.923,13.878V56.987a3.251,3.251,0,0,0,.353.427c.118.139.235.288.374.427l.748.833c.385.449,2.35,2.415,2.735,2.735l2.137,1.827V13.12c-.481.085-.972.235-1.474.321s-1,.182-1.528.246C19.124,13.814,18.077,13.835,16.923,13.878Z"/><path class="f" d="M10.577,47.468c.1.3,1.229,2.3,1.389,2.564a46.653,46.653,0,0,0,3.184,4.754c.3.385.577.737.876,1.122.192.246.705.9.9,1.079V13.878a31.76,31.76,0,0,1-3.344-.224,23.9,23.9,0,0,1-2.991-.6Z"/><path class="f" d="M48.643,13.857c-.053.823-.011,1.838-.011,2.682V56.592a.622.622,0,0,0,.043.342c.406-.524.9-1.047,1.335-1.624.15-.192.278-.353.427-.556A46.386,46.386,0,0,0,53.59,50c.235-.417.481-.812.705-1.25a10.958,10.958,0,0,0,.673-1.314V13.162c-.47.075-.962.214-1.453.3s-1.026.171-1.538.224C50.855,13.814,49.8,13.835,48.643,13.857Z"/><path class="e" d="M54.979,13.152V47.425c.171-.246.705-1.41.865-1.763.278-.609.534-1.2.791-1.827A50.5,50.5,0,0,0,59.85,31.3a54.9,54.9,0,0,0,.31-10.011,94.623,94.623,0,0,0-1.079-9.466l-3.045,1.036C55.737,12.949,55.288,13.034,54.979,13.152Z"/><path class="e" d="M10.577,47.468l.011-34.4c-1.368-.331-2.628-.823-3.921-1.218-.107.224-.331,1.848-.4,2.222a57.731,57.731,0,0,0-.609,17.169,48.808,48.808,0,0,0,1.88,8.675A54.032,54.032,0,0,0,9.7,45.694,18.321,18.321,0,0,0,10.577,47.468Z"/><path class="e" d="M26.368,40.823h3.451a3.655,3.655,0,0,0,.278-.673c.085-.235.171-.459.256-.694s.16-.459.256-.694.182-.481.256-.705h4.274c.107.224.662,1.741.791,2.073a3.654,3.654,0,0,0,.288.684h3.5c-.043-.139-.107-.256-.15-.4L38.6,37.991c-.053-.139-.107-.256-.16-.406l-.491-1.218c-.246-.652-.556-1.378-.812-2.019-.053-.128-.107-.278-.16-.406-.192-.449-.459-1.218-.652-1.613-.053-.118-.118-.278-.16-.406l-1.624-4.038c-.267-.032-2.4,0-2.938,0-.31,0-.171-.053-.427.566L30.8,29.4c-.246.641-.491,1.271-.737,1.9s-.5,1.261-.737,1.9L27.115,38.9c-.128.331-.256.63-.374.951-.064.171-.118.31-.192.47l-.182.5ZM31.9,35.2c0-.085.438-1.229.513-1.432.16-.449.374-.994.524-1.432l1.079,2.874Z"/><path class="e" d="M44.85,55.8h.929l.3-.021c.1-.011.192-.011.288-.021.192-.021.385-.053.566-.085,3.088-.855,3.494-2.585,3.494-5.075V42.671H47.158V48.75a28.92,28.92,0,0,1-.1,2.938,1.29,1.29,0,0,1-.588.929,2.626,2.626,0,0,1-2.682-.224,1.7,1.7,0,0,1-.171-.2,1.524,1.524,0,0,1-.246-.513,6.782,6.782,0,0,1-.107-1.432V42.66h-3.28l.021,7.927a5.752,5.752,0,0,0,.491,2.842,3.713,3.713,0,0,0,1.3,1.506,3.545,3.545,0,0,0,.726.406,5.96,5.96,0,0,0,2.094.438h.139A.128.128,0,0,1,44.85,55.8Z"/><path class="e" d="M14.5,22.639v.577c.011.021.043.566.043.641a7.87,7.87,0,0,0,.353,1.741,6.1,6.1,0,0,0,.427.972,5.711,5.711,0,0,0,2.051,2.137c.075.043.128.085.214.128a5.424,5.424,0,0,0,.737.321,6.268,6.268,0,0,0,1.132.278,5.754,5.754,0,0,0,4.818-1.314,3.714,3.714,0,0,0,.481-.556c.053-.075.107-.139.15-.2a6.189,6.189,0,0,0,.5-.9l.2-.491a9.956,9.956,0,0,0,.321-1.1,3.251,3.251,0,0,1-.4-.118l-1.186-.363c-.267-.075-.513-.171-.791-.246a6.217,6.217,0,0,0-.8-.224,4.376,4.376,0,0,1-.791,1.966,2.135,2.135,0,0,1-2.009.673,2.17,2.17,0,0,1-1.079-.47,3.747,3.747,0,0,1-1.068-2.906c-.032-1.571.1-3.237,1.6-3.91a2.435,2.435,0,0,1,2.618.459l.15.192a3.686,3.686,0,0,1,.491,1.261,3.068,3.068,0,0,0,.406-.085c.662-.15,1.346-.331,2.019-.481l.8-.192a7.193,7.193,0,0,0-.256-.887,5.226,5.226,0,0,0-.566-1.175,3.965,3.965,0,0,0-.246-.342l-.192-.246a.25.25,0,0,0-.075-.075,5.961,5.961,0,0,0-.972-.759l-.374-.214c-.107-.053-.278-.128-.406-.182a5.589,5.589,0,0,0-1.4-.342c-.064-.011-.513-.043-.524-.053h-.694c-.011,0-.609.064-.673.075a5.8,5.8,0,0,0-1.774.534,5.317,5.317,0,0,0-1.143.759.466.466,0,0,1-.107.085l-.385.374A5.936,5.936,0,0,0,14.9,20.043a7.531,7.531,0,0,0-.31,1.218c-.032.2-.075.459-.085.673A5,5,0,0,1,14.5,22.639Z"/><path class="f" d="M26.966,40.406h2.6l.994-2.756h4.85L36.453,40.4h2.639l-4.84-12.083H31.667l-4.7,12.094Zm4.338-4.8,1.624-4.444c.064.075.363.951.427,1.111.107.278,1.218,3.205,1.25,3.333Z"/><path class="f" d="M42.853,50.47V43.077H40.406v7.511a4.51,4.51,0,0,0,.085,1.068,3.666,3.666,0,0,0,.962,2.436,3.77,3.77,0,0,0,.972.748,5.857,5.857,0,0,0,2.853.545,5.794,5.794,0,0,0,2.842-.577c1.731-.972,1.88-1.763,1.9-4.22V43.077H47.553v7.511a4.7,4.7,0,0,1-.107,1.293,1.683,1.683,0,0,1-1,1.218,3.66,3.66,0,0,1-1.955.118,1.98,1.98,0,0,1-1.581-1.763A6.2,6.2,0,0,1,42.853,50.47Z"/><path class="f" d="M25.449,25.16l-2.361-.694a2.3,2.3,0,0,0-.075.256,3.27,3.27,0,0,1-.962,1.677,2.605,2.605,0,0,1-2.361.524,2.679,2.679,0,0,1-1.72-1.3,7.578,7.578,0,0,1-.2-5.139,2.718,2.718,0,0,1,1.453-1.56,2.785,2.785,0,0,1,3.3.737,2.869,2.869,0,0,1,.278.47,2.783,2.783,0,0,1,.107.267c.021.075.053.2.085.288.267,0,1.944-.491,2.4-.556a5.148,5.148,0,0,0-.8-1.763A4.687,4.687,0,0,0,21.229,16.6a5.438,5.438,0,0,0-5.3,2.318c-1.389,2.126-1.41,6.015.139,8.056a5.09,5.09,0,0,0,3.141,2,5.821,5.821,0,0,0,4.22-.694,4.726,4.726,0,0,0,1.7-2.158A6.344,6.344,0,0,0,25.449,25.16Z"/></g></g></svg>