<svg width="19" height="21" viewBox="0 0 19 21" fill="none" xmlns="http://www.w3.org/2000/svg">
<path d="M1 0.9375H2.82884C3.56367 0.9375 3.93108 0.9375 4.19929 1.14132C4.20622 1.14659 4.21309 1.15195 4.21988 1.1574C4.48267 1.36816 4.57178 1.72461 4.75 2.4375L4.95429 3.25468C5.1132 3.89032 5.19266 4.20814 5.3433 4.46103C5.59915 4.89054 6.00658 5.20865 6.48532 5.35269C6.7672 5.4375 7.0948 5.4375 7.75 5.4375V5.4375" stroke="#222222" stroke-linecap="round"/>
<path d="M16.75 15.5625H4.99477C4.6749 15.5625 4.51496 15.5625 4.39611 15.5329C3.92192 15.415 3.60238 14.9717 3.64047 14.4845C3.65002 14.3625 3.70059 14.2107 3.80174 13.9073V13.9073C3.914 13.5705 3.97013 13.4021 4.04494 13.2593C4.3371 12.7017 4.87478 12.3141 5.4962 12.2133C5.65532 12.1875 5.83281 12.1875 6.18779 12.1875H12.25" stroke="#222222" stroke-linecap="round" stroke-linejoin="round"/>
<path d="M14.3889 12.1875H7.19425C6.21658 12.1875 5.3822 11.4807 5.22147 10.5163L4.6661 7.1841C4.51372 6.2698 5.21878 5.4375 6.14569 5.4375H17.382C18.1253 5.4375 18.6088 6.21981 18.2764 6.88471L16.1778 11.0819C15.839 11.7595 15.1465 12.1875 14.3889 12.1875Z" stroke="#222222" stroke-linecap="round"/>
<circle cx="15.625" cy="18.9375" r="1.125" fill="#222222"/>
<circle cx="6.625" cy="18.9375" r="1.125" fill="#222222"/>
</svg>
