<svg xmlns="http://www.w3.org/2000/svg" xmlns:xlink="http://www.w3.org/1999/xlink" width="21.083" height="22" viewBox="0 0 21.083 22"><defs><style>.a{fill:#fff;stroke:#707070;}.b{clip-path:url(#a);}.c{fill:#333;}</style><clipPath id="a"><rect class="a" width="21.083" height="22"/></clipPath></defs><g class="b"><path class="c" d="M15.4,5.606H12.316V4.341a4.341,4.341,0,0,0-8.682,0V5.606H.293a.5.5,0,0,0-.5.5V19.5a2.5,2.5,0,0,0,2.5,2.5H13.406a2.5,2.5,0,0,0,2.5-2.5V6.107a.506.506,0,0,0-.5-.5ZM4.629,4.336a3.341,3.341,0,1,1,6.682,0V5.6H4.629ZM14.9,19.5A1.5,1.5,0,0,1,13.4,21H2.289a1.5,1.5,0,0,1-1.5-1.5V6.607H3.629V8.642a.5.5,0,1,0,1,0V6.607h6.687V8.642a.5.5,0,1,0,1,0V6.607H14.9Zm0,0" transform="translate(2.692 0)"/></g></svg>