<svg xmlns="http://www.w3.org/2000/svg" width="62.831" height="30.499" viewBox="0 0 62.831 30.499"><defs><style>.a{fill:#0093cc;}</style></defs><path class="a" d="M67,240.221l-.081-.476-.05-.031L66.8,239.6l-.031-.244-.131-.131-.019-.113V239l.1-.62.113-1.026.244-.57.063-.15.313-.457.144-.326.313-.294.113-.1.081-.063.031-.031h.131l.05-.05.244-.019.457.1.225-.031.15-.081.426-.063.081-.081.063-.063.144-.163.1-.05.357-.019.019.031.1.031.1.019.081.031.081.019.081.031h.181l.081-.019.344-.113.194.063.113.031.113.05.113.063.131.063.113.1.131.081.113.1.131.1.113.194.05.1.063.225.182.62.1.144.019.063.357.426.031.063.019.05.031.063.019.063.019.063v.175l.1.194.131.113.081.05.081.05.081.05.081.05.081.05.1.05.1.05.113.031.05.05.031.05.019.063-.019.05-.225.426.05.144.019.031.113.294-.063.507.225.163.063.344.031.113.05.1.031.113.05.1.019.182-.031.144-.081.081-.131.05-.031.144.081.307.019.1.081.1.031.182.194.325.194.344.182.325.194.325.194.344.182.325.194.325.181.325.194.325.181.325.182.325.181.325.163.307.181.325.163.307.163.307.144.407.019.063.019.063.019.063.019.063v.081l.019.063.019.063.019.063.063.131.081.081.1.05.1.031.144.063.144.063.144.063.163.063.144.05.163.05.163.031.163.031.081-.019.081-.031.063-.031.1-.031.307-.194.1-.031.081-.05.081-.031.081-.031.081-.031.081-.05.1-.019.1-.031.144-.05.144-.019h.344l.163.019h.163l.163-.019.144-.063.163-.194.031-.194.063-.1.113-.019.213.019.244.181.163.144.113.131.081.144.019.182v.213l-.019.275-.031.344-.263,1.058-.125.369.194.294.357.476.344.469.344.469.325.476.325.488.325.469.307.476.313.488.325.476.313.469.325.469.325.469.344.457.344.476.357.438.357.457.05.063.063.081.063.081.081.1.063.081.063.081.063.081.063.081.081.1.1.113.1.1.113.1.1.113.113.081.131.1.113.081.225.163.232.144.213.113.225.1.232.1.225.113.244.131.232.163.57.438,1.239.914.1.05.081.05.1.05.1.05.081.05.1.05.081.031.1.05.1.063.113.05.113.05.113.05.131.031.144.019.144.019h.163l.225.144.063.313-.15.131-.213.113-.225.081-.275.063-.307.05-.325.031-.344.019h-.7l-.357-.019-.325-.019-.325-.019-.294-.031-.263-.019-.225-.031-.182-.019-.313-.063-.307-.05-.313-.031-.294-.019h-.576l-.275.019h-.782l-.225-.019-.225-.019-.194-.05-.182-.081-.163-.081-.144-.131-.063-.113-.05-.1-.031-.081-.019-.081-.019-.081v-.344l-.019-.081.019-.113v-.113l.019-.131v-.119l.019-.113.019-.1.031-.113.031-.1-.019-.244-.05-.081-.05-.081-.031-.063-.05-.063-.05-.063-.05-.063-.063-.063-.063-.063-.144-.213-.213-.244-.275-.275-.307-.294-.325-.275-.307-.263L85,259.147l-.194-.182-.325-.194-.294-.213-.294-.213-.275-.213-.263-.225-.244-.225-.225-.225-.225-.244-.213-.244-.213-.244-.213-.263-.194-.263-.182-.275-.194-.275-.194-.294-.182-.294-.031-.163-.131-.225-.063-.113-.144-.031-.05.063-.325.557-.344.57-.344.557-.325.57-.344.57-.357.551-.344.57-.376.557-.357.551-.376.538-.388.538-.407.52-.407.507-.426.507-.426.488-.457.457-.275.244-.275.194-.307.163-.325.144-.344.113-.344.081-.376.063-.376.05-.394.031-.407.019h-.407l-.426-.019h-.438l-.438-.019-.457-.019-.457-.019-.313-.05-.294-.1-.244-.113-.213-.163-.182-.181-.163-.194-.131-.225-.113-.263-.1-.263-.081-.294-.063-.294-.05-.307-.05-.325-.05-.325-.031-.325-.05-.344-.019-.031-.031-.1-.063-.144-.05-.181-.081-.225-.081-.244-.1-.275-.081-.294-.1-.294-.1-.294-.081-.294-.081-.275-.081-.244-.063-.232-.05-.194-.031-.144-.081-.357-.1-.263-.063-.163-.081-.063-.063.019-.05.1-.05.181-.031.263-.1.263-.113.275-.1.263-.1.275-.113.263-.113.275-.113.263-.131.263-.144.225-.144.263-.163.263-.163.294-.181.294-.181.313-.194.307-.182.313-.213.307-.194.313-.194.294-.194.294-.213.275-.194.263-.213.232-.194.213-.163.144-.1.131-.113.131-.144.1-.213.081-.232.063-.275.05-.307.05-.325.019-.344.019h-1.07l-.344-.019-.344-.019H56.72l-.313-.019h-.275l-.244-.019-.225-.05-.244-.1-.213-.1-.213-.131-.194-.131-.163-.163L54.5,263.2l-.344-.438-.357-.488-.357-.519-.357-.551-.376-.57-.376-.6-.376-.6-.357-.62-.357-.62-.325-.638-.325-.6-.307-.6-.275-.588-.244-.57-.225-.538-.194-.507-.031-.063-.031-.1-.063-.081-.063-.05-.1-.031-.1.031-.131.1-.144.194-.325.57-.275.394-.325.388-.376.407-.388.394-.407.388-.438.407-.438.388-.426.394-.426.388-.407.388-.394.376-.344.376-.307.376-.244.375-.194.357-.131.344.113,1.271.031.081.019.1.019.081v.3l-.019.081v.1l-.031.225-.1.181-.131.144-.181.113-.194.063-.244.05-.263.019h-.275l-.294-.019L41,263.622l-.313-.031-.294-.031-.294-.031-.275-.031-.263-.019h-.244l-.845.081-.307.081-.294.063-.275.05-.275.05-.263.031-.275.019-.244.019H36.01l-.263-.031-.263-.019-.263-.05-.263-.031-.275-.063-.294-.063-.294-.063-.307-.1-.1-.1-.063-.1-.05-.081v-.081l.019-.063.05-.081.063-.081.113-.081.144-.113-.019-.063-.388-.063-.113-.031-.081-.031-.081-.031-.113-.063-.05-.05-.05-.063-.031-.063-.019-.063L33,262.089l.019-.081.031-.063.063-.081.275-.144.469-.113.507-.163.519-.194.551-.244.588-.294.588-.325.6-.357.6-.388.6-.426.6-.457.588-.469.57-.52.551-.519.519-.557.507-.588.457-.588.1-.181.113-.181.113-.182.113-.182.1-.182.113-.181.113-.181.113-.182.113-.182.113-.181.113-.182.113-.181.1-.182.113-.182.1-.181.1-.182.1-.181.1-.181.1-.182.113-.181.1-.182.1-.194.113-.194.1-.181.113-.194.1-.181.113-.194.113-.182.1-.181.113-.163.113-.181.113-.163.063-.232-.094-.244-.113-.275-.1-.294-.113-.307-.063-.294-.05-.307.019-.294.063-.263.031-.113.263-.457.031-.05.063-.063.05-.05.05-.05.1-.019h.1l.1.05.063.131.113-.031.113-.031.1-.05.113-.05.1-.063.113-.063.1-.05.113-.063.081-.019.1-.019.081-.031.081-.019.081-.019h.181l.081.019.081.063.1.05.1.031.113.031.113.031.131.019.131.019.144.019.182-.019.181-.019.194-.05.194-.05.213-.063.213-.063.213-.063.213-.081.194-.081.194-.081.182-.1.182-.081.144-.081.144-.081.113-.081.081-.063.081-.294.081-.275.113-.294.1-.275.113-.294.113-.275.113-.294.113-.275.1-.275.113-.294.1-.275.081-.294.081-.275.05-.294.05-.275.031-.294-.131-.181v-.488l-.05-.113-.376-.263-.081-.1-.063-.063-.019-.081.019-.081.031-.081.05-.081.063-.063.05-.063.05-.063.063-.063.063-.063.063-.081.063-.063.063-.063.063-.081.05-.063.063-.063.275-.263-.019-.263-.031-.1-.063-.131.325-.964-.131-.081-.113-.113-.081-.113-.019-.131.019-.438.031-.113.081-.144.632-.651.144-.063.194-.194.081-.081.144-.081.113-.063.113-.163.144-.194.1-.031.1-.031.1-.019.1-.019h.507l.294-.019.144-.081.05-.031.407.131.275.031.376-.194.344-.063.163.019.394.081.144.1.113.063.031.063.519.05.357.275.263.063.357.344.063.144.081.063.144.225.031.063.081.1.019.031.013.1.131.357.019.751v.181l.063.225.063.263.031.05-.1.181v.357l.113.426-.05.244v1.014l.031.407-.063.1-.05-.05-.063-.081-.144-.019-.019.244.081.131.313.426.019.031.031.031-.131.344v.194l.263.031.131.131-.131.182-.081.081.019.144.263.113.05.131v.063l-.081.144-.163.307-.031.031v.05l.131.081.832.751.182.225.05.131.144.181.113.194.081.113.144.263.131.263.163.263.144.275.144.263.163.275.144.275.144.275.144.294.144.275.131.275.144.275.113.275.113.275.113.275.1.263v.031l.1.081h.05l.031-.031.063-.263.063-.263.1-.244.1-.263.113-.263.113-.263.131-.244.144-.263.144-.263.163-.263.163-.263.163-.244.163-.263.182-.263.163-.263.182-.263.144-.1.05-.113.019-.1v-.113l-.019-.113L67,244.12l-.031-.113-.05-.113-.031-.1-.019-.1.05-.063.063-.05.05-.05.063-.05.063-.05.063-.05.063-.05.063-.063-.019-.1.031-.031-.031-.1-.05-.081-.063-.1-.05-.081-.05-.081-.05-.081.1-.163.488-.244.019-.131.019-.131v-.113l-.019-.1-.031-.113-.05-.1-.05-.1-.081-.1-.294-.638ZM54.273,244l.144-.063.144-.05.144-.063.144-.081.144-.063.131-.063.144-.063.144-.063.113-.063.081-.081.05-.063.019-.063-.019-.063-.019-.063-.031-.05-.031-.05-.063-.081-.063-.1-.063-.1-.081-.1-.081-.081-.1-.063-.1-.063-.113-.031-.144-.019-.113-.019h-.081l-.05.019-.031.031-.031.05-.013.063-.031.1-.05.144-.063.163-.05.182-.05.181-.063.163-.05.163-.031.131-.031.113v.113l.05.063.1.031Zm17.5,11.535.05.263.1.144.113.05.144-.019.144-.063.144-.1.144-.113.113-.113,3.912-3.912.131-.144.081-.113.063-.081v-.063l-.031-.063-.081-.063-.144-.063-.182-.063-3.423-1.252.081.457.113.388.1.344.113.294.113.244.081.225.081.182.05.163.019.163-.019.131-.081.131-.113.131-.194.15-.244.163-.325.182-.407.194H72.3l-.163.163L72,253.69l-.1.275-.063.325-.05.325-.019.344v.576Zm.7-10.571.194.144.275.213.344.263.394.263.388.263.376.244.325.181.244.131.131.031.063-.019.031-.063.031-.131-.1-.213-.1-.213-.1-.225-.1-.225-.1-.225-.081-.213-.1-.225-.1-.225-.1-.213-.1-.213-.1-.194-.1-.181-.1-.182-.1-.182-.1-.144-.1-.131-.063-.113-.081-.1-.081-.081-.1-.031-.1-.019-.113.019-.131.05-.088.069-.131.113-.1.144-.081.163-.081.194-.063.194-.081.194-.063.213-.1.182-.031.081-.019.063v.05l.019.05.05.05.05.05.081.063ZM56.82,255.78l.163.131h.131l.113-.113.063-.194.031-.131.031-.144.031-.144.019-.163.019-.182.013-.182v-.194l.019-.194v-1.108l.019-.163v-.15l.081-.213.05-.163.019-.163v-.131l-.031-.131-.05-.131-.05-.113-.063-.131-.081-.181-.081-.182-.063-.194-.05-.194-.05-.182-.05-.194-.031-.194-.031-.194-.031-.182-.031-.194-.019-.181-.019-.163-.019-.163-.019-.163-.019-.144-.013-.144-.019-.113-.019-.1-.031-.081-.031-.063-.05-.031h-.063l-.1.031-.113.05-.131.081-.163.081-.181.1-.194.1-.213.113-.213.113-.225.113-.213.113-.225.113-.213.113-.194.1-.194.1-.163.081-.144.063-.131.063-.1.031-.1.081.019.131.063.131.05.081Z" transform="translate(-33 -233.8)"/></svg>