<svg xmlns="http://www.w3.org/2000/svg" width="62.85" height="78.273" viewBox="0 0 62.85 78.273"><defs><style>.a{fill:#1f1f1f;stroke:#1f1f1f;}</style></defs><g transform="translate(0.5 0.5)"><path class="a" d="M110.634,66.8,106.21,16.972a2.13,2.13,0,0,0-2.117-1.944h-9.1a15.267,15.267,0,0,0-30.53,0h-9.1a2.118,2.118,0,0,0-2.117,1.944L48.816,66.8c0,.063-.016.126-.016.19,0,5.673,5.2,10.287,11.6,10.287H99.051c6.4,0,11.6-4.614,11.6-10.287A.768.768,0,0,0,110.634,66.8ZM79.725,4.267a11.01,11.01,0,0,1,11,10.761h-22A11.01,11.01,0,0,1,79.725,4.267Zm19.326,68.74H60.4c-4.014,0-7.269-2.655-7.332-5.926L57.3,19.31h7.143v6.479a2.133,2.133,0,0,0,4.267,0V19.31H90.723v6.479a2.133,2.133,0,1,0,4.267,0V19.31h7.143l4.251,47.77C106.32,70.352,103.049,73.006,99.051,73.006Z" transform="translate(-48.8)"/></g></svg>