<svg width="18" height="18" viewBox="0 0 18 18" fill="none" xmlns="http://www.w3.org/2000/svg">
<g clip-path="url(#clip0)">
<path d="M9.0029 4.37854C6.45065 4.37854 4.3844 6.44704 4.3844 8.99704C4.3844 11.5493 6.4529 13.6155 9.0029 13.6155C11.5551 13.6155 13.6214 11.547 13.6214 8.99704C13.6214 6.44479 11.5529 4.37854 9.0029 4.37854V4.37854ZM9.0029 11.9948C7.34615 11.9948 6.00515 10.653 6.00515 8.99704C6.00515 7.34104 7.3469 5.99929 9.0029 5.99929C10.6589 5.99929 12.0006 7.34104 12.0006 8.99704C12.0014 10.653 10.6596 11.9948 9.0029 11.9948V11.9948Z" fill="#333333"/>
<path d="M12.711 0.0570283C11.055 -0.0202217 6.9533 -0.0164717 5.2958 0.0570283C3.8393 0.125278 2.55455 0.477028 1.5188 1.51278C-0.212202 3.24378 0.00904838 5.57628 0.00904838 8.99703C0.00904838 12.498 -0.185952 14.7765 1.5188 16.4813C3.25655 18.2183 5.6228 17.991 9.00305 17.991C12.471 17.991 13.668 17.9933 14.8943 17.5185C16.5615 16.8713 17.82 15.381 17.943 12.7043C18.021 11.0475 18.0165 6.94653 17.943 5.28903C17.7945 2.12928 16.0988 0.213028 12.711 0.0570283V0.0570283ZM15.3323 15.336C14.1975 16.4708 12.6233 16.3695 8.9813 16.3695C5.2313 16.3695 3.72755 16.425 2.6303 15.3248C1.36655 14.067 1.5953 12.0473 1.5953 8.98503C1.5953 4.84128 1.17005 1.85703 5.3288 1.64403C6.2843 1.61028 6.56555 1.59903 8.9708 1.59903L9.00455 1.62153C13.0013 1.62153 16.137 1.20303 16.3253 5.36103C16.368 6.30978 16.3778 6.59478 16.3778 8.99628C16.377 12.7028 16.4475 14.2155 15.3323 15.336V15.336Z" fill="#333333"/>
<path d="M13.8045 5.27544C14.4005 5.27544 14.8837 4.79224 14.8837 4.19619C14.8837 3.60014 14.4005 3.11694 13.8045 3.11694C13.2084 3.11694 12.7252 3.60014 12.7252 4.19619C12.7252 4.79224 13.2084 5.27544 13.8045 5.27544Z" fill="#333333"/>
</g>
<defs>
<clipPath id="clip0">
<rect width="18" height="18" fill="white"/>
</clipPath>
</defs>
</svg>
