<svg xmlns="http://www.w3.org/2000/svg" width="70" height="33.978" viewBox="0 0 70 33.978"><defs><style>.a{fill:#0093cc;}</style></defs><path class="a" d="M70.876,240.954l-.091-.53-.056-.035-.07-.125-.035-.272-.146-.146-.021-.125v-.126l.112-.69.126-1.144.272-.635.07-.167.349-.509.16-.363.349-.328.126-.112.091-.07.035-.035h.146l.056-.056.272-.021.509.112.251-.035.167-.091.474-.07.091-.091.07-.07.16-.181.112-.056.4-.021.021.035.112.035.112.021.091.035.091.021.091.035h.2l.091-.021.384-.126.216.07.126.035.126.056.126.07.146.07.126.112.146.091.126.112.146.112.126.216.056.112.07.251.2.69.112.16.021.07.4.474.035.07.021.056.035.07.021.07.021.07v.2l.112.216.146.125.091.056.091.056.091.056.091.056.091.056.112.056.112.056.126.035.056.056.035.056.021.07-.021.056-.251.474.056.16.021.035.126.328-.07.565.251.181.07.384.035.125.056.112.035.125.056.112.021.2-.035.16-.091.091-.146.056-.035.16.091.342.021.112.091.112.035.2.216.363.216.383.2.363.216.363.216.383.2.363.216.363.2.363.216.363.2.363.2.363.2.363.181.342.2.363.181.342.181.342.16.453.021.07.021.07.021.07.021.07v.091l.021.07.021.07.021.07.07.146.091.091.112.056.112.035.16.07.16.07.16.07.181.07.16.056.181.056.181.035.181.035.091-.021.091-.035.07-.035.112-.035.342-.216.112-.035.091-.056.091-.035.091-.035.091-.035.091-.056.112-.021.112-.035.16-.056.16-.021h.384l.181.021H87.8l.181-.021.16-.07.181-.216.035-.216.07-.112.126-.021.237.021.272.2.181.16.126.146.091.16.021.2v.237l-.021.307-.035.383-.293,1.178-.139.411.216.328.4.53.384.523.383.523.363.53.363.544.363.523.342.53.349.544.363.53.349.523.363.523.363.523.383.509.384.53.4.488.4.509.056.07.07.091.07.091.091.112.07.091.07.091.07.091.07.091.091.112.112.126.112.112.126.112.112.125.126.091.146.112.125.091.251.181.258.16.237.125.251.112.258.112.251.125.272.146.258.181.635.488,1.381,1.018.112.056.091.056.112.056.112.056.091.056.112.056.091.035.112.056.112.07.126.056.126.056.126.056.146.035.16.021.16.021h.181l.251.16.07.349-.167.146-.237.126-.251.091-.307.07-.342.056-.363.035-.383.021h-.781l-.4-.021-.363-.021-.363-.021-.328-.035-.293-.021-.251-.035-.2-.021-.349-.07-.342-.056-.349-.035-.328-.021h-.641l-.307.021h-.872l-.251-.021-.251-.021-.216-.056-.2-.091-.181-.091-.16-.146-.07-.125-.056-.112-.035-.091-.021-.091-.021-.091v-.383l-.021-.091.021-.126v-.126l.021-.146V265.4l.021-.126.021-.112.035-.126.035-.112-.021-.272-.056-.091-.056-.091-.035-.07-.056-.07-.056-.07-.056-.07-.07-.07-.07-.07-.16-.237-.237-.272-.307-.307-.342-.328-.363-.307-.342-.293-.293-.272-.216-.2-.363-.216-.328-.237-.328-.237-.307-.237-.293-.251-.272-.251-.251-.251-.251-.272-.237-.272-.237-.272-.237-.293-.216-.293-.2-.307-.216-.307-.216-.328-.2-.328-.035-.181-.146-.251-.07-.126-.16-.035-.056.07-.363.621-.384.635-.383.621-.363.635-.384.635-.4.614-.384.635-.418.621-.4.614-.418.6-.432.6-.453.579-.453.565-.474.565-.474.544-.509.509-.307.272-.307.216-.342.181-.363.16-.384.125-.384.091-.418.07-.418.056-.439.035-.453.021h-.453l-.474-.021h-.488l-.488-.021-.509-.021-.509-.021-.349-.056L72,267.527l-.272-.125-.237-.181-.2-.2-.181-.216-.146-.251-.126-.293-.112-.293-.091-.328-.07-.328-.056-.342-.056-.363-.056-.363-.035-.363L70.3,263.5l-.021-.035-.035-.112-.07-.16-.056-.2-.091-.251-.091-.272-.112-.307-.091-.328-.112-.328-.112-.328-.091-.328-.091-.307-.091-.272-.07-.258-.056-.216-.035-.16-.091-.4-.112-.293-.07-.181-.091-.07-.07.021-.056.112-.056.2-.035.293-.112.293-.126.307-.112.293-.112.307-.126.293-.126.307-.126.293-.146.293-.16.251-.16.293-.181.293-.181.328-.2.328-.2.349-.216.342-.2.349-.237.342-.216.349-.216.328-.216.328-.237.307-.216.293-.237.258-.216.237-.181.16-.112.146-.126.146-.16.112-.237.091-.258.07-.307.056-.342.056-.363.021-.383.021H60.563l-.384-.021-.384-.021h-.37l-.349-.021h-.307l-.272-.021-.251-.056-.272-.112-.237-.112-.237-.146-.216-.146-.181-.181-.146-.16-.384-.488-.4-.544-.4-.579-.4-.614-.418-.635-.418-.669-.418-.669-.4-.69-.4-.69-.363-.711-.363-.669-.342-.669-.307-.655-.272-.635-.251-.6-.216-.565-.035-.07-.035-.112-.07-.091-.07-.056-.112-.035-.112.035-.146.112-.16.216-.363.635-.307.439-.363.432-.418.453-.432.439-.453.432-.488.453-.488.432-.474.439-.474.432-.453.432-.439.418-.384.418-.342.418-.272.418-.216.4-.146.384.126,1.415.035.091.021.112.021.091v.335l-.021.091v.112l-.035.251-.112.2-.146.16-.2.125-.216.07-.272.056-.293.021h-.307l-.328-.021-.328-.035-.349-.035-.328-.035-.328-.035-.307-.035-.293-.021h-.272l-.941.091-.342.091-.328.07-.307.056-.307.056-.293.035-.307.021-.272.021h-.586l-.293-.035-.293-.021-.293-.056-.293-.035-.307-.07-.328-.07-.328-.07-.342-.112-.112-.112-.07-.112-.056-.091v-.091l.021-.07.056-.091.07-.091.126-.091.16-.125-.021-.07-.432-.07-.126-.035-.091-.035-.091-.035-.126-.07-.056-.056-.056-.07-.035-.07-.021-.07-.021-.07.021-.091.035-.07.07-.091.307-.16.523-.126.565-.181.579-.216.614-.272.655-.328.655-.363.669-.4.669-.432.669-.474.669-.509.655-.523.635-.579.614-.579.579-.621.565-.655.509-.655.112-.2.126-.2.126-.2.126-.2.112-.2.126-.2.126-.2.126-.2.126-.2.126-.2.126-.2.126-.2.112-.2.126-.2.112-.2.112-.2.112-.2.112-.2.112-.2.126-.2.112-.2.112-.216.126-.216.112-.2.126-.216.112-.2.126-.216.126-.2.112-.2.126-.181.126-.2.126-.181.07-.258-.1-.272-.126-.307-.112-.328L46.695,250l-.07-.328-.056-.342.021-.328.07-.293.035-.125.293-.509.035-.056.07-.07.056-.056.056-.056.112-.021h.112l.112.056.07.146.126-.035.126-.035.112-.056.126-.056.112-.07.126-.07.112-.056.126-.07.091-.021.112-.021.091-.035.091-.021.091-.021h.2l.091.021.091.07.112.056.112.035.126.035.126.035.146.021.146.021.16.021.2-.021.2-.021.216-.056.216-.056.237-.07.237-.07.237-.07.237-.091.216-.091.216-.091.2-.112.2-.091.16-.091.16-.091.126-.091.091-.07.091-.328.091-.307.126-.328.112-.307.126-.328.126-.307.126-.328.126-.307.112-.307.126-.328.112-.307.091-.328.091-.307.056-.328.056-.307.035-.328-.146-.2v-.544l-.056-.125-.418-.293-.091-.112-.07-.07-.021-.091.021-.091.035-.091.056-.091.07-.07.056-.07.056-.07.07-.07.07-.07.07-.091.07-.07.07-.07.07-.091.056-.07.07-.07.307-.293-.021-.293L55.4,238.3l-.07-.146.363-1.074-.146-.091-.126-.126-.091-.125-.021-.146.021-.488.035-.126.091-.16.7-.725.16-.07.216-.216.091-.091.16-.091.126-.07.126-.181.16-.216.112-.035.112-.035.112-.021.112-.021h.565l.328-.021.16-.091.056-.035.453.146.307.035.418-.216.384-.07.181.021.439.091.16.112.126.07.035.07.579.056.4.307.293.07.4.384.07.16.091.07.16.251.035.07.091.112.021.035.014.112.146.4.021.837v.2l.07.251.07.293.035.056-.112.2v.4l.126.474-.056.272v1.13l.035.453-.07.112-.056-.056-.07-.091-.16-.021-.021.272.091.146.349.474.021.035.035.035-.146.384v.216l.293.035.146.146-.146.2-.091.091.021.16.293.125.056.146v.07l-.091.16-.181.342-.035.035v.056l.146.091.927.837.2.251.056.146.16.2.126.216.091.126.16.293.146.293.181.293.16.307.16.293.181.307.16.307.16.307.16.328.16.307.146.307.16.307.126.307.126.307.126.307.112.293v.035l.112.091h.056l.035-.035.07-.293.07-.293.112-.272.112-.293.126-.293.126-.293.146-.272.16-.293.16-.293.181-.293.181-.293.181-.272.181-.293.2-.293.181-.293.2-.293.16-.112.056-.125.021-.112v-.126l-.021-.125-.035-.126-.035-.125-.056-.126-.035-.112-.021-.112.056-.07.07-.056.056-.056.07-.056.07-.056.07-.056.07-.056.07-.07-.021-.112.035-.035-.035-.112L71.19,244l-.07-.112-.056-.091-.056-.091-.056-.091.112-.181.544-.272.021-.146.021-.146v-.126l-.021-.112-.035-.126-.056-.112-.056-.112-.091-.112-.328-.711ZM56.7,245.165l.16-.07.16-.056.16-.07.16-.091.16-.07.146-.07.16-.07.16-.07.126-.07.091-.091.056-.07.021-.07-.021-.07-.021-.07-.035-.056-.035-.056-.07-.091-.07-.112-.07-.112-.091-.112-.091-.091-.112-.07-.112-.07-.126-.035-.16-.021-.126-.021h-.091l-.056.021-.035.035-.035.056-.014.07-.035.112-.056.16-.07.181-.056.2-.056.2-.07.181-.056.181-.035.146-.035.126v.125l.056.07.112.035Zm19.5,12.851.056.293.112.16.126.056.16-.021.16-.07.16-.112.16-.126.125-.125,4.358-4.358.146-.16.091-.126.07-.091v-.07l-.035-.07-.091-.07-.16-.07-.2-.07-3.814-1.395.091.509.126.432.112.383.126.328.126.272.091.251.091.2.056.181.021.181-.021.146-.091.146-.126.146-.216.167-.272.181-.363.2-.453.216h-.126l-.181.181-.16.237-.112.307-.07.363-.056.363-.021.384v.641Zm.781-11.777.216.16.307.237.383.293.439.293.432.293.418.272.363.2.272.146.146.035.07-.021.035-.07.035-.146-.112-.237-.112-.237-.112-.251-.112-.251-.112-.251-.091-.237-.112-.251-.112-.251-.112-.237L79,245.493l-.112-.216-.112-.2-.112-.2-.112-.2-.112-.16-.112-.146-.07-.126-.091-.112-.091-.091L77.968,244l-.112-.021-.126.021-.146.056-.1.077-.146.126-.112.16-.091.181-.091.216-.07.216-.091.216-.07.237-.112.2-.035.091-.021.07v.056l.021.056.056.056.056.056.091.07ZM59.538,258.288l.181.146h.146l.126-.125.07-.216.035-.146.035-.16.035-.16.021-.181.021-.2.014-.2v-.216l.021-.216v-1.234l.021-.181v-.167l.091-.237.056-.181.021-.181v-.146l-.035-.146-.056-.146-.056-.126-.07-.146-.091-.2-.091-.2-.07-.216-.056-.216-.056-.2-.056-.216-.035-.216-.035-.216-.035-.2-.035-.216-.021-.2-.021-.181-.021-.181-.021-.181-.021-.16-.014-.16-.021-.126L59.5,250.3l-.035-.091-.035-.07-.056-.035H59.3l-.112.035-.126.056-.146.091-.181.091-.2.112-.216.112-.237.126-.237.125-.251.126-.237.126-.251.126-.237.125-.216.112-.216.112-.181.091-.16.07-.146.07-.112.035-.112.091.021.146.07.146.056.091Z" transform="translate(-33 -233.8)"/></svg>