<svg xmlns="http://www.w3.org/2000/svg" width="37.496" height="30" viewBox="0 0 37.496 30"><g transform="translate(-551 -50)"><path d="M18.751,22.5H7.5V13.125H3.751v15A1.873,1.873,0,0,0,5.626,30h15A1.873,1.873,0,0,0,22.5,28.125v-15h-3.75ZM37.184,8.332l-5-7.5A1.885,1.885,0,0,0,30.622,0H6.88A1.867,1.867,0,0,0,5.321.832l-5,7.5A1.875,1.875,0,0,0,1.881,11.25H35.626A1.879,1.879,0,0,0,37.184,8.332ZM30,29.062a.94.94,0,0,0,.938.938h1.875a.94.94,0,0,0,.938-.937V13.125H30Z" transform="translate(550.996 50)" fill="#fff"/></g></svg>