<svg xmlns="http://www.w3.org/2000/svg" width="45.802" height="30" viewBox="0 0 45.802 30"><g transform="translate(-672 -51.576)"><path d="M48.876,16.35a2.868,2.868,0,0,1,2.2.951,2.865,2.865,0,0,1,.951,2.2V43.2a3.253,3.253,0,0,1-3.146,3.146H9.367a2.864,2.864,0,0,1-2.2-.951,2.863,2.863,0,0,1-.951-2.2V19.5a2.864,2.864,0,0,1,.951-2.2,2.867,2.867,0,0,1,2.2-.951H48.876ZM9.367,18.837q-.366,0-.439.22a.633.633,0,0,0-.22.439v4.39H49.534V19.5a.633.633,0,0,0-.22-.439q-.074-.22-.439-.22ZM48.876,43.862q.365,0,.439-.22a.632.632,0,0,0,.22-.439V31.35H8.708V43.2a.633.633,0,0,0,.22.439q.072.22.439.22H48.876ZM11.2,41.374V38.813h5.049v2.561Zm7.537,0V38.813H26.2v2.561Z" transform="translate(665.779 35.226)" fill="#fff"/></g></svg>