<svg xmlns="http://www.w3.org/2000/svg" xmlns:xlink="http://www.w3.org/1999/xlink" width="185.858" height="46.657" viewBox="0 0 185.858 46.657"><defs><clipPath id="a"><rect width="185.858" height="46.657" fill="none"/></clipPath></defs><g clip-path="url(#a)"><path d="M480.8,41.035a2.145,2.145,0,0,0-1.584-.57c-2.175,0-.865-.225-1.95-1.709-1.364,0-3.248-1.294-5.47-2.7-2.1-1.328-2.543-7.372-2.482-10.916.076-4.54,1.4-9.33,2.5-13.538.2-.779.012-2.51.24-3.231.267-.844,1.892-1.447,2.058-2.258.911-4.449,1.989-6.933,3.8-5.869.6.354.535,1.3,1.185,2.3-.618.889-2.463,4.664-2.754,4.917a17.261,17.261,0,0,0-2.262,10.054c.4,7.64-1.162,10.7,1.942,14.9,2.289,3.1.212,2.815,3.038,2.921.4.015.509.645,1,.651,2.972.037,4.827-.247,6.543-3.889.412-.873.2-2.383,2.035-3.219.273-.125.038-.884.006-1.389q.455.127.656-.379a3.217,3.217,0,0,0,.19-1.263c-.087-3.034.216-5.961-.313-8.153-.741-3.073-1.183-4.024-2.592-4.268a10.488,10.488,0,0,1-1.189-.19c-1.293-.338-1.066-.209-1.377-.209-1.556,0-2.454.148-2.531,2.415l-.1,2.946c2.238,4.781,1.874-2.291,5.045-.158-.085.957.908,1.419,1.151,2.5.312,1.393.032,3.726-.618,4.238-1.347,1.061-1.162,3.75-2.215,4.188-1.5.623-5.812-1.61-5.685-2.241a13.766,13.766,0,0,0-.31-4.147A12.814,12.814,0,0,0,477.7,19.3a9.4,9.4,0,0,1-.056-2.022,13.855,13.855,0,0,1,1.425-4.675c1.271-2.653,1.964-3.652,2-3.778.4.168.892-.484,1.55-1.178s.871-.787,1.156-.787c.233,0,.744-.169,1.014,0,.233,1.18,1.043.972,2.184.974.285,0,.575.757,1.114.673s.154.55.632.71c.985,1.034,3.909.809,4.048,3.483.075,1.441.586,1.859.481,3.038-.056.631.851,1.3.822,1.641.473.8.732,2.075.566,5.053-.024.433-.491.743-.439,1.131.9,6.788-.084,10.068-3.2,11.945a8.375,8.375,0,0,0-1.391,2.537c-.549,1.7-7.6,5.677-8.809,3" transform="translate(-325.171 0)" fill="#fca01e" fill-rule="evenodd"/><path d="M432.275,9.415c-.72-.649-1.2-1.586-1.95-2.326a14.078,14.078,0,0,0-2.834-2.141c-2.4-1.252-.485.162-1.711,2.023,1.806,2.758,1.165,2.5,3.065,4.515.84.646,1.522,1.7,2.321,2.279s1.715.685,2.082,1.319c.353.613-.161,1.167.783,1.837.9.639,1.133,3.068,2.987,2.326a8.88,8.88,0,0,0,2.081-2.07c.267-.306.948-.122,1.086-.561.267-.846.311-.369.235-1.284-.127-1.523-.61-4.257-1.111-3.96-.575.342-1.673.035-2.58.022A3.711,3.711,0,0,1,433.809,9.8c-.571-.675-1.014.156-1.534-.385" transform="translate(-295.01 -3.099)" fill="#fca01e" fill-rule="evenodd"/><path d="M446.006,115.606c.855.386-4.2,1.413-4.412,1.238-1.033,1.116-2.41,1.8-2.494,2.57-.1.9-1.477.646-1.251,1.764.108.528-1.6.527-2.576.744-2.47.563-1.99-1.341-.227-3.183.408-.426,2.274-2.268,2.652-2.709,1.212-1.412,1.133-2.646,1.673-3.041,2.529-1.03,4.722-6.114,6.635,2.616" transform="translate(-300.408 -76.62)" fill="#fca01e" fill-rule="evenodd"/><path d="M555.881,64.234c.558,1.109,2.026-1.085,3.052-.4,2.707-.257,2.242.753,2.955.219a10.926,10.926,0,0,1,3.074,1.431c2.275,1.148,1.6-.048,2.3-.251,1.853-.322,2.677-.2,2.924-.685.332-.7-.338-1.487-2.058-2.5-.9.76-1.874.66-2.1-.063-.87-.712-2.058,1.91-1.588-.459-.517-1.058-1-.854-1.486-.972-1.669.4-1.989-.048-2.117-.611-.465-.735.044-2.091-1.62-2.1-.47-1.1-1.408-3.025-2.377-2.583-3.093,1.44-2.007,7.827-.959,8.967" transform="translate(-384.41 -38.248)" fill="#fca01e" fill-rule="evenodd"/><path d="M550.174,104.551c-.979,2.954-1.537,3.79-1.726,5.565-.2.877,3.2,1.671,3.935,1.832.4.132,1.076-.959,1.537-.551.38.336-.091,1.133.208,1.784.5,1.084,1.676,2.123,1.825,2.577,1,3.056,1.459,3.948,4.456,2.7.677-1.343,1.419-1.68-.466-2.487-.856-.367-1.264-1.309-1.6-1.611.052-2.632-1.277-2.834-2.247-4.555-.986-.706-1.531-4.312-2.872-4.489-1.054.043-2.857-1.332-3.046-.76" transform="translate(-379.997 -72.344)" fill="#fca01e" fill-rule="evenodd"/><path d="M19.071,56.716q.029.569.029.9,0,1.673-.914,1.673a.745.745,0,0,1-.257-.033,39.258,39.258,0,0,1-7.185-.273,41.516,41.516,0,0,0-4.884-.4,14.234,14.234,0,0,0-5.4.9C-.3,58.752.112,55.595.112,53.743q0-.669.071-1.957t.072-1.958V48.623a9.169,9.169,0,0,0,.8-4.284q0-.535-.114-2.175v-1.64a9.951,9.951,0,0,1,.085-1.573c1.192,0,.749-4.492.8-5.789Q3,30.42,4.8,31.154l-.229,5.254H4.339l-.554,6.774L3.2,47.953c-.778.391-.857,2.955-.857,3.949,0,1.5-.485,4.667.239,5.291,1.561-.268,4.338-.1,8.136-.65l3.415-.5Zm-.733-20.9s0,.007,0,.011-.009.031-.013.046-.012.047-.018.071l0,.01,0,.015-.008.039h0l0,.013c0,.011,0,.021-.006.033-.009.047-.017.1-.024.146a.1.1,0,0,1,0,.01c0,.008,0,.016,0,.024s0,.012,0,.018c-.005.039-.01.078-.014.118,0,.007,0,.014,0,.021-.023.229-.033.471-.036.705v.006c0,.113,0,.224,0,.33v.014s0,.01,0,.015h0c0,.05,0,.1,0,.146,0,.007,0,.014,0,.021s0,.012,0,.018v.076s0,.007,0,.012,0,.017,0,.025,0,.018,0,.026,0,.031,0,.046V37.9c0,.01,0,.02,0,.029V38c0,.007,0,.013,0,.02s0,.007,0,.01,0,.02,0,.029v0c0,.023,0,.045,0,.067v.012c0,.008,0,.017,0,.024v0c0,.006,0,.012,0,.018V40.6c-.812,0-1.132,4.982-1.132,5.9l-.566,2.7a4.147,4.147,0,0,1-.808.889,3.581,3.581,0,0,0-1,2.049,2.817,2.817,0,0,1-1.1.215q-1.348,0-1.671-.781a5.89,5.89,0,0,1-.323-.512c-.566-1.075-.794-1.292-.674-2.444a10.825,10.825,0,0,0-.674-2.83A5.6,5.6,0,0,1,9.946,44.1v-.562H9.7V42.3q0-.674-.081-2.034t-.081-2.035q0-3.019,1.267-4.1,1.024,0,1.131.755a7.1,7.1,0,0,0-.162,1.671,11.657,11.657,0,0,1-.175,2.83h-.229q.566,6.225.566,8.489a3.932,3.932,0,0,1,.485,1.105q.27.808.808.808a1.547,1.547,0,0,0,.674-.189q1.32-1.051,1.967-4.1l.647-4.5c.069-1.96.7-4,.7-5.363a6.65,6.65,0,0,0-.377-1.617,3.348,3.348,0,0,1-.189-.97,1.8,1.8,0,0,1,.593-1.293q-.135-.835.593-.97a1.813,1.813,0,0,1,1.051,1.886c0,.288-.009.53-.027.728q-.108,1.159-.108,1.267v.16l0,0a1.4,1.4,0,0,1,.275-.162h.007l.016-.007h0l.017-.006h0l.056-.02h0c.032-.01.064-.018.095-.024h0l.02,0h0a.831.831,0,0,1,.095-.01h.038c1.413,0,2.846-.525,4.021-.525h2.042a5.7,5.7,0,0,1,1.739.452,5.744,5.744,0,0,0,1.675.452c2.276,0,4.6-.642,7.027-.642.255,0,.415.35.479,1.055L20.827,51.13l.351.379H25.1c2.425,0,9.947-1.761,11.074.2.168.293.351.5.351.729q0,1.05-.8,1.05A2.006,2.006,0,0,1,35,53.055a3.479,3.479,0,0,0-.766-.5h-2.68l-1.883.671H23.125a9.754,9.754,0,0,0-1.532.233,6.155,6.155,0,0,1-1.053.146q-2.042,0-2.042-1.575a2.223,2.223,0,0,1,.67-1.634,8.891,8.891,0,0,0,1.213-.992c1.56-1.6,3.578-4.655,5.617-5.528a3.632,3.632,0,0,0,.7-.365,5.072,5.072,0,0,0,.99-1.488,5.788,5.788,0,0,1,1.133-1.648q.559-.511,1.229-1.153a7.615,7.615,0,0,0,.734-1.4,2.306,2.306,0,0,1,.925-1.138,9.728,9.728,0,0,0-1.867.263c-1.669.357-2.086.355-3.463-.613A2.025,2.025,0,0,0,25.2,35.9a4.226,4.226,0,0,0-1.356.525,2.5,2.5,0,0,1-3.063-.073,2.8,2.8,0,0,0-1.293-.6H18.358Zm.019-.061q-.006.016-.01.032l0,.007-.007.022ZM97.133,46.346l.006-.017q.081-.22.153-.429v0l.035-.1.03-.092a.147.147,0,0,0,.006-.016l.022-.068q.029-.088.055-.174l.006-.018.022-.073.012-.041c.006-.02.012-.04.018-.06l.012-.043c.028-.1.053-.2.076-.289h0l0-.007c.01-.043.02-.084.029-.125,0-.017.008-.034.011-.051v0c0-.021.009-.041.012-.062v0l.01-.051.007-.039.006-.038.006-.037c0-.014,0-.027.006-.04s0-.028.005-.042,0-.019,0-.029,0-.028,0-.042,0-.02,0-.029,0-.032,0-.047,0-.012,0-.018c0-.021,0-.043,0-.063v-.974h.533c.127-1.752,1.7-3.309,1.7-4.983V37.6c1.814-1.24,1.438-3.669,3.267-4.582l1.456-.744.746.773V43.819h.533c.379.813,1.35,1.413,1.35,2.348a1.951,1.951,0,0,1-.071.572,2.378,2.378,0,0,0-1.349,2.491q0,.315.035.9t.036.9a3.8,3.8,0,0,1-.319,1.661q.178.115.994.487.568.258.568.544a1.011,1.011,0,0,1-.284.6c-2.251-.943-4.407,2.5-3.835-2.663h.533a17.633,17.633,0,0,0,.319-2.377c0-.917.482-1.9-.086-2-.45-.439-1.713-.177-2.257-.177a4.025,4.025,0,0,0-1.492.372q-1.313.544-1.634.63a2.889,2.889,0,0,1-.6,1.074,9.371,9.371,0,0,0-1.243,3.537,1.765,1.765,0,0,1-1.243,1.432H94.294l0,0c-.052.022-.1.042-.153.059l0,0a1.591,1.591,0,0,1-.193.052h0l-.039.007h-.005l-.064.009h-.007l-.057.006h-.02l-.028,0h-.047c-1.2,0-.988-3.584-.843-4.553.023-.156.071-.306.092-.458l.063-.459c.223-1.625-.978-3.789-.818-4.954a7.583,7.583,0,0,0-.332-3.465,3.162,3.162,0,0,0-.9-.172q-1.182,0-1.462,2.062l-.14,1.017q-.092.673-.139,1.017a3.356,3.356,0,0,1-1.135,2.491c1.456,1.946-.481,3.806-2.745,1.6a2.331,2.331,0,0,1,.025-.4q.031-.229.14-.7t.14-.7c.2-1.43-1.054-3.873-.8-5.7-.261-.1-.487-.612-.7-1.546-.191-.842-1-2.022-1.626-2.022-.718.411-.27,2.273-1.171,2.508a11.62,11.62,0,0,1-.064,2.177,21.668,21.668,0,0,1-1.109,3.909c-.386,1.08-.8,2.708-1.279,4.475-.148.541.088.943-.075,1.5-.1.335-.589.824-.692,1.159a28.092,28.092,0,0,1-2.338,5.836c-1.726,2.754-5.678,2.87-5.346.437.057-.419,1.778-.669,2.7-.753,3.01-.276,4.324-8.425,4.576-10.261a5.508,5.508,0,0,0,.034-.673,3.055,3.055,0,0,1,.114-1.045,15.914,15.914,0,0,0,1.592-5.613l.271-1.976a18.942,18.942,0,0,1,.763-3.637,3.9,3.9,0,0,0,.661-1.6,6.816,6.816,0,0,1,.658-1.8,1.741,1.741,0,0,1,1.586-.859c.405,2.233,1.331,5.31,1.966,7.5.321.515.6,1.057.929,1.575.413.649,1.1,2.259,1.5,2.45.273,1.23,1.072-3.03,1.138-3.509,1.145-3.173.4-2.159.593-3.895q.035-.258.066-.8t.07-.83a2.924,2.924,0,0,1,.1-.487,1.712,1.712,0,0,1,.833-.287c2.331-.228,1.115,5.378,2.5,5.556l-.173,1.26q-.1.744.779.744a1.09,1.09,0,0,1-.014.315,5.159,5.159,0,0,1-.147.644,5.2,5.2,0,0,0-.147.644c-.1.753,1.751,5.154,1.3,6.1l.512,2.573c.329-.6.747-1.452,1.149-2.352l.053-.118,0,0,.05-.114.008-.018c.015-.033.029-.068.044-.1q.129-.3.252-.595l.04-.1.009-.023,0-.007c.127-.311.248-.619.357-.915M70.09,46.51c-.313,2.532-.712,1.831-1.449,3.821-.2.546-.381.843-.527.893v.72l-.2-.149a35.229,35.229,0,0,1-2.654,2.531,5.478,5.478,0,0,1-3.331,1.24,3.657,3.657,0,0,0-1.016-.223c-2.9-.391-5.244-12.9-2.371-14.093a1.32,1.32,0,0,0,.79-1.365,1.942,1.942,0,0,0,.734-1.141.96.96,0,0,1,.96-.744q.932-2.01,3.868-2.283a3.727,3.727,0,0,1,1.694.893c1.824,1.67,2.442,2.26,2.795,4.392a6.557,6.557,0,0,1,.113.968q0,1.339-1.242,1.34-.367,0-1.059-.05t-1.058-.049q-1.129,0-2.146.049l-3.585.174v.4q-.509,0-.706.744a8.3,8.3,0,0,0-.2,1.141l-.17-.149v4.714h.17a5.9,5.9,0,0,0,1.524,3.8,2.355,2.355,0,0,0,1.214.4c.376,0,.7-.29,1.214-.422.963-.246,4.012-5.121,4.037-5.508q.141-.7.311-1.415a1.808,1.808,0,0,1,.932-.868ZM40.367,44.724a1.425,1.425,0,0,0,.667,1.291c.617,3.2,6.538,9.479,9.079,10.538,1.453.605,2.4.262,2.847.518a1.94,1.94,0,0,1,1.052.212,3.281,3.281,0,0,0,.975.293.962.962,0,0,0,.692-.3V55.821a.532.532,0,0,1-.128.02.558.558,0,0,1-.333-.111c-.411-.3-.41-1.493-.41-2.007a13.49,13.49,0,0,0-.077-1.453q-.232-2.139-.231-2.34a5.283,5.283,0,0,1,.769-2.825V46.076a14.426,14.426,0,0,1,.273-3.995h.393a1.054,1.054,0,0,0,.026-.283,4.2,4.2,0,0,0-.039-.474,4.174,4.174,0,0,1-.039-.454.709.709,0,0,1,.642-.787v-.545c-.123-.127-.246-.241-.368-.346.1-.988-.432-1.67.532-2.439.542-.432.007-.861.144-1.284.127-.39.581-.685.708-1.076.582-.976,1.073-2.123,1.751-3.155.406-.619,1.019-1.137,1.368-1.722-4.45,0-3.7,1.4-5.223,4.972a5.009,5.009,0,0,1-.324,1.723c-.075.3.164.61.074.934-.074.263-1.146.826-1.244,1.1-1.2-.109-2.469.244-3.932.244-2.244-.042-4.656,1.467-6.489,2.663-1.647,1.067-3.154,1.446-3.154,3.571m92.1,9.379a5.078,5.078,0,0,1-2.532.854,32.456,32.456,0,0,1-4.127.05c-.286-.03-.206-.269-.489-.312-2.334-.35-4.561-1.071-5.286-1.835a16.068,16.068,0,0,0-1.992-1.953,5.71,5.71,0,0,1-1.724-2.386,4.2,4.2,0,0,0-1.873-2.278v-.326q0-.976-1.133-1.112a2.069,2.069,0,0,0-1.431,1.41,8.81,8.81,0,0,0-.328,2.115,4.009,4.009,0,0,1-.477,1.816v3.77c-.675,5.451-1.434,2.273-2.11.757l.083-4.717a1.849,1.849,0,0,0,.775-1.735q0-.3-.045-.867c-.148-1.892.639-3.237.76-5.559.335-.185,1.55-5.2,1.55-5.368a2.285,2.285,0,0,0-.06-.488,6.224,6.224,0,0,1-.149-.814.887.887,0,0,1,.149-.515q.686,0,.537-.787a1.182,1.182,0,0,1-.089-.353q0-.162.522-.326a.9.9,0,0,0,.641-.488c.8,1.308,3.6.239,4.8,1.166l5.664.3v.19l3.07.488a2.078,2.078,0,0,1-.417,1.464,6.322,6.322,0,0,0-1.073.868q-.895.27-1.073.352c-.407.217-2.027,1.232-2.027,1.514a12.944,12.944,0,0,0-3.607,1.162c-1.789.831-2.892,1.315-3.309,1.46a1.131,1.131,0,0,1,.089.434,2.781,2.781,0,0,1-.164.755,2.848,2.848,0,0,0-.164.732,43.75,43.75,0,0,0,3.93,6.065,12.3,12.3,0,0,1,2.166,1.979,8.269,8.269,0,0,0,4.981,1.729,12.3,12.3,0,0,0,3.125-.488c.244-.076.32-.412.542-.464l2.14-.494c.421.2.809,1.908.156,2.236M121.841,35.967q-.895,0-1.61-.054l-2.5-.189a6.748,6.748,0,0,0-3.339.732,25.665,25.665,0,0,0-1.073,2.332,1.451,1.451,0,0,0,1.252.7,9.053,9.053,0,0,0,2.147-.678,4.147,4.147,0,0,1,1.4-.353.576.576,0,0,1,.328.081l2.176-.94a1.768,1.768,0,0,0,1.222-1.636M42.8,45.35a.882.882,0,0,0,.052-.242,2.777,2.777,0,0,0-.064-.484,2.745,2.745,0,0,1-.064-.484q0-.665.872-.666a.365.365,0,0,1-.026-.141q0-.322.718-.908.359-.262,1.051-.807a10.9,10.9,0,0,1,3.54-1.251A24.253,24.253,0,0,1,51.652,40a6.414,6.414,0,0,1,1.052.081q.1.041.2.414t.411.373h.205c0,3.154-.59,5.173-.59,8.171V52.25c-1.1.108-.821.626-.487,1.251a1.025,1.025,0,0,1,.154.444q0,.242-.308.323a1.089,1.089,0,0,1-.667.161,1.658,1.658,0,0,1-1.077-.283,11.961,11.961,0,0,0-1-.787c-2.54-1.519-6.13-4.471-6.13-7.122,0-.411.034-.888-.615-.888m59.969-4.165q0-.316.053-.9t.053-.873a3.851,3.851,0,0,0-.035-.573l-.923.286a.627.627,0,0,0-.426.573,7.989,7.989,0,0,1-1.243,2.549h-.32v2.721q.24,0,.728.028t.728.029a3.729,3.729,0,0,0,1.385-.219c0-.389-.194-1.213.533-1.213.774,0-.533-1.875-.533-2.405M66.843,39.34H66.42q-.226-.075-.226-.4c.019-.182.028-.314.028-.4q-.9-.645-1.129-.769a1.9,1.9,0,0,0-.847-.273,1,1,0,0,0-.452.1c-.985,1.737-2.089,1.057-2.089,3.176a2.055,2.055,0,0,0,.226.769l2.428.2q.9.075,1.073.074a1.2,1.2,0,0,0,1.27-.893,5.853,5.853,0,0,0,.141-1.588" transform="translate(0 -20.452)" fill="#fff" fill-rule="evenodd"/></g></svg>