<svg xmlns="http://www.w3.org/2000/svg" width="14.998" height="14.998" viewBox="0 0 14.998 14.998"><g transform="translate(-7.5 -7.5)"><g transform="translate(7.5 7.5)"><path d="M14.953,4.407a5.506,5.506,0,0,0-.349-1.82,3.675,3.675,0,0,0-.865-1.328A3.676,3.676,0,0,0,12.411.393a5.5,5.5,0,0,0-1.82-.348C9.791.009,9.536,0,7.5,0S5.207.009,4.407.045a5.506,5.506,0,0,0-1.82.349,3.675,3.675,0,0,0-1.328.865A3.676,3.676,0,0,0,.393,2.587a5.505,5.505,0,0,0-.348,1.82C.008,5.207,0,5.462,0,7.5s.009,2.292.045,3.092a5.5,5.5,0,0,0,.349,1.82,3.675,3.675,0,0,0,.865,1.328,3.674,3.674,0,0,0,1.328.865,5.5,5.5,0,0,0,1.82.349c.8.037,1.055.045,3.092.045s2.292-.009,3.092-.045a5.5,5.5,0,0,0,1.82-.349A3.834,3.834,0,0,0,14.6,12.411a5.5,5.5,0,0,0,.349-1.82c.036-.8.045-1.055.045-3.092s-.009-2.292-.045-3.092ZM13.6,10.529a4.149,4.149,0,0,1-.258,1.392,2.483,2.483,0,0,1-1.423,1.423,4.149,4.149,0,0,1-1.392.258c-.791.036-1.028.044-3.03.044s-2.24-.008-3.03-.044a4.151,4.151,0,0,1-1.392-.258,2.324,2.324,0,0,1-.862-.561,2.323,2.323,0,0,1-.561-.862,4.149,4.149,0,0,1-.258-1.392C1.359,9.739,1.351,9.5,1.351,7.5s.008-2.24.044-3.03a4.152,4.152,0,0,1,.258-1.392,2.325,2.325,0,0,1,.561-.862,2.322,2.322,0,0,1,.862-.561,4.148,4.148,0,0,1,1.392-.258c.791-.036,1.028-.044,3.03-.044h0c2,0,2.24.008,3.03.044a4.15,4.15,0,0,1,1.392.258,2.325,2.325,0,0,1,.862.561,2.322,2.322,0,0,1,.561.862A4.145,4.145,0,0,1,13.6,4.469c.036.791.044,1.028.044,3.03s-.008,2.24-.044,3.03Zm0,0" transform="translate(0 0)" fill="#434343"/><path d="M128.39,124.539a3.851,3.851,0,1,0,3.851,3.851A3.851,3.851,0,0,0,128.39,124.539Zm0,6.351a2.5,2.5,0,1,1,2.5-2.5A2.5,2.5,0,0,1,128.39,130.89Zm0,0" transform="translate(-120.891 -120.891)" fill="#434343"/><path d="M363.729,89.525a.9.9,0,1,1-.9-.9A.9.9,0,0,1,363.729,89.525Zm0,0" transform="translate(-351.327 -86.029)" fill="#434343"/></g></g></svg>