<svg xmlns="http://www.w3.org/2000/svg" width="60.727" height="16.921" viewBox="0 0 60.727 16.921"><g transform="translate(-0.438)"><g transform="translate(0.439 0)"><path d="M16.94,0a8.461,8.461,0,1,0,0,16.921,8.854,8.854,0,0,0,5.535-2.056v2.056h3V8.54A8.711,8.711,0,0,0,16.94,0Zm0,14.075A5.6,5.6,0,0,1,11.4,8.54a5.535,5.535,0,1,1,11.07,0A5.712,5.712,0,0,1,16.94,14.075Z" transform="translate(4.726 0)" fill="#434343" fill-rule="evenodd"/><path d="M8.64,16.921a7.861,7.861,0,0,0,5.219-1.9,13.657,13.657,0,0,1-1.581-2.53A4.8,4.8,0,0,1,8.64,14.075,5.6,5.6,0,0,1,3.1,8.54,5.6,5.6,0,0,1,8.64,3a5.759,5.759,0,0,1,3.637,1.423A13.657,13.657,0,0,1,13.858,1.9,7.861,7.861,0,0,0,8.64,0a8.461,8.461,0,1,0,0,16.921Z" transform="translate(-0.1 0)" fill="#434343" fill-rule="evenodd"/><path d="M44.563,9.963a5.38,5.38,0,0,0,.158-1.581A8.335,8.335,0,0,0,36.34,0a8.461,8.461,0,1,0,6.326,14.075l-1.9-2.214H40.61a5.25,5.25,0,0,1-4.27,2.214A5.789,5.789,0,0,1,30.8,9.963H44.563ZM36.182,2.847a5.742,5.742,0,0,1,5.377,4.27H30.647A6.09,6.09,0,0,1,36.182,2.847Z" transform="translate(16.005 0)" fill="#434343" fill-rule="evenodd"/><path d="M28.24,16.921a7.861,7.861,0,0,0,5.219-1.9,13.657,13.657,0,0,1-1.581-2.53,5.01,5.01,0,0,1-3.637,1.423A5.6,5.6,0,0,1,22.7,8.382,5.6,5.6,0,0,1,28.24,2.847,5.759,5.759,0,0,1,31.877,4.27a13.657,13.657,0,0,1,1.581-2.53A8.628,8.628,0,0,0,28.24,0a8.461,8.461,0,1,0,0,16.921Z" transform="translate(11.296 0)" fill="#434343" fill-rule="evenodd"/></g></g></svg>