<svg xmlns="http://www.w3.org/2000/svg" xmlns:xlink="http://www.w3.org/1999/xlink" width="43.445" height="43.597" viewBox="0 0 43.445 43.597"><defs><clipPath id="a"><rect width="43.445" height="43.597" fill="#434343"/></clipPath></defs><path d="M120.594,250.776l.785-.005-.2.774-.781.006Z" transform="translate(-107.371 -223.648)" fill="#434343"/><g clip-path="url(#a)"><path d="M134.037,234.5a1.577,1.577,0,0,1-.53-.081,1.212,1.212,0,0,1-.416-.241,1.1,1.1,0,0,1-.274-.381,1.25,1.25,0,0,1-.1-.5,1.616,1.616,0,0,1,.117-.609,1.691,1.691,0,0,1,.341-.538,1.752,1.752,0,0,1,.542-.386,1.719,1.719,0,0,1,.72-.151,1.261,1.261,0,0,1,.715.185,1.075,1.075,0,0,1,.415.509l-.663.361a.67.67,0,0,0-.22-.262.587.587,0,0,0-.342-.091.719.719,0,0,0-.324.078.85.85,0,0,0-.26.2,1,1,0,0,0-.174.292.923.923,0,0,0-.063.347.557.557,0,0,0,.159.417.546.546,0,0,0,.4.15.673.673,0,0,0,.32-.076,1.165,1.165,0,0,0,.272-.21l.522.456a1.618,1.618,0,0,1-.481.378,1.465,1.465,0,0,1-.677.149" transform="translate(-118.362 -206.565)" fill="#434343"/><path d="M159.443,234.362a1.476,1.476,0,0,1-.542-.091,1.259,1.259,0,0,1-.42-.259,1.148,1.148,0,0,1-.272-.393,1.265,1.265,0,0,1-.1-.493,1.575,1.575,0,0,1,.119-.613,1.655,1.655,0,0,1,.339-.523,1.707,1.707,0,0,1,.521-.366,1.6,1.6,0,0,1,.663-.141,1.468,1.468,0,0,1,.541.091,1.255,1.255,0,0,1,.42.259,1.155,1.155,0,0,1,.272.392,1.273,1.273,0,0,1,.1.493,1.582,1.582,0,0,1-.119.613,1.641,1.641,0,0,1-.339.523,1.7,1.7,0,0,1-.521.367,1.591,1.591,0,0,1-.663.141m.063-.69a.692.692,0,0,0,.329-.082.8.8,0,0,0,.249-.21,1.015,1.015,0,0,0,.158-.287.9.9,0,0,0,.055-.312.752.752,0,0,0-.041-.244.557.557,0,0,0-.117-.195.524.524,0,0,0-.19-.128.69.69,0,0,0-.259-.044.674.674,0,0,0-.326.081.828.828,0,0,0-.249.21.988.988,0,0,0-.16.287.9.9,0,0,0-.055.311.74.74,0,0,0,.041.244.555.555,0,0,0,.118.2.523.523,0,0,0,.19.127.684.684,0,0,0,.259.044" transform="translate(-141.009 -206.445)" fill="#434343"/><path d="M185.077,231.665l.777-.006.376,1.071.936-1.08.864-.006-.726,2.78-.773.006.413-1.6-.987,1.093h-.016l-.416-1.075-.413,1.588-.761.005Z" transform="translate(-164.412 -206.589)" fill="#434343"/><path d="M214.714,250.119l.785-.005-.205.774-.78.005Z" transform="translate(-191.311 -223.062)" fill="#434343"/><path d="M224.227,231.266l.753,0,.451,2.791-.809.006-.07-.5-1.07.008-.33.5-.836.006Zm.258,1.7-.1-.8-.514.8Z" transform="translate(-198.27 -206.248)" fill="#434343"/><path d="M252.417,231.3l1.046-.007a1.931,1.931,0,0,1,.583.071.912.912,0,0,1,.373.212.678.678,0,0,1,.164.254.926.926,0,0,1,.053.311.964.964,0,0,1-.2.61,1.14,1.14,0,0,1-.627.379l.435.932-.848.006-.374-.838-.341,0-.22.842-.773.005Zm.863,1.326a.74.74,0,0,0,.415-.107.323.323,0,0,0,.153-.284.273.273,0,0,0-.072-.187.476.476,0,0,0-.342-.093l-.416,0-.177.671Z" transform="translate(-224.468 -206.279)" fill="#434343"/><path d="M66.179,182.936l1.212-.008.586,1.672,1.46-1.685,1.348-.009-1.134,4.335-1.206.008.645-2.49-1.541,1.7h-.025l-.648-1.678-.645,2.478-1.187.008Z" transform="translate(-58.01 -163.122)" fill="#434343"/><path d="M120.185,186.495a2.3,2.3,0,0,1-.845-.143,1.986,1.986,0,0,1-.655-.4,1.8,1.8,0,0,1-.424-.613,1.972,1.972,0,0,1-.154-.769,2.462,2.462,0,0,1,.185-.957,2.572,2.572,0,0,1,.529-.817,2.651,2.651,0,0,1,.812-.571,2.487,2.487,0,0,1,1.034-.22,2.309,2.309,0,0,1,.845.143,1.976,1.976,0,0,1,.655.4,1.8,1.8,0,0,1,.425.613,1.981,1.981,0,0,1,.154.769,2.47,2.47,0,0,1-.185.957,2.568,2.568,0,0,1-.529.816,2.641,2.641,0,0,1-.812.571,2.487,2.487,0,0,1-1.034.22m.1-1.077a1.07,1.07,0,0,0,.512-.127,1.242,1.242,0,0,0,.388-.327,1.582,1.582,0,0,0,.246-.447,1.423,1.423,0,0,0,.086-.486,1.144,1.144,0,0,0-.064-.38.861.861,0,0,0-.183-.305.814.814,0,0,0-.3-.2,1.071,1.071,0,0,0-.4-.068,1.053,1.053,0,0,0-.51.127,1.29,1.29,0,0,0-.388.327,1.541,1.541,0,0,0-.249.447,1.413,1.413,0,0,0-.086.486,1.16,1.16,0,0,0,.064.38.871.871,0,0,0,.183.3.811.811,0,0,0,.3.2,1.067,1.067,0,0,0,.4.068" transform="translate(-105.332 -162.317)" fill="#434343"/><path d="M162.167,182.326l1.119-.008,1.135,2.4.633-2.409,1.194-.008-1.134,4.336-1.051.007-1.185-2.484-.651,2.5-1.193.008Z" transform="translate(-143.616 -162.581)" fill="#434343"/><path d="M206.822,182.174l1.4-.009a2.969,2.969,0,0,1,1.04.148,1.824,1.824,0,0,1,.658.4,1.713,1.713,0,0,1,.478,1.264,2.373,2.373,0,0,1-.173.922,2.4,2.4,0,0,1-.527.789,2.558,2.558,0,0,1-.948.6,3.852,3.852,0,0,1-1.316.213l-1.744.012Zm.746,3.26a2.117,2.117,0,0,0,.7-.116,1.388,1.388,0,0,0,.536-.331,1.282,1.282,0,0,0,.365-.905.955.955,0,0,0-.058-.343.709.709,0,0,0-.162-.249.854.854,0,0,0-.329-.193,1.607,1.607,0,0,0-.52-.068l-.346,0-.579,2.2Z" transform="translate(-183.442 -162.461)" fill="#434343"/><path d="M248.639,181.523l1.175-.008.7,4.354-1.262.008-.11-.772-1.669.011-.514.776-1.3.009Zm.4,2.65-.163-1.242-.8,1.248Z" transform="translate(-219.087 -161.882)" fill="#434343"/><path d="M298.583,184.111l-.889-2.647,1.292-.008.437,1.617,1.294-1.629,1.435-.01-2.4,2.8-.4,1.549-1.206.008Z" transform="translate(-265.495 -161.811)" fill="#434343"/><path d="M118.336,136.019a2.445,2.445,0,0,1-.826-.131,1.881,1.881,0,0,1-.647-.379,1.721,1.721,0,0,1-.425-.6,1.949,1.949,0,0,1-.153-.782,2.511,2.511,0,0,1,.187-.949,2.632,2.632,0,0,1,.537-.836,2.676,2.676,0,0,1,1.974-.829,1.961,1.961,0,0,1,1.113.295,1.674,1.674,0,0,1,.645.8l-1.038.558a1.036,1.036,0,0,0-.341-.41.911.911,0,0,0-.532-.144,1.112,1.112,0,0,0-.507.118,1.319,1.319,0,0,0-.407.316,1.562,1.562,0,0,0-.275.455,1.456,1.456,0,0,0-.1.541.87.87,0,0,0,.245.652.856.856,0,0,0,.622.237,1.059,1.059,0,0,0,.5-.115,1.816,1.816,0,0,0,.426-.325l.811.716a2.539,2.539,0,0,1-.754.586,2.287,2.287,0,0,1-1.057.227" transform="translate(-103.709 -117.292)" fill="#434343"/><path d="M160.966,134.871l-.876-2.651,1.292,0,.429,1.619,1.3-1.622,1.434,0L162.135,135l-.412,1.546-1.206,0Z" transform="translate(-142.774 -117.912)" fill="#434343"/><path d="M194.134,132.185l1.8,0a2.8,2.8,0,0,1,.745.082,1.35,1.35,0,0,1,.483.228.828.828,0,0,1,.26.333,1.076,1.076,0,0,1-.178,1.1,1.345,1.345,0,0,1-.714.4,1.1,1.1,0,0,1,.474.318.814.814,0,0,1,.183.547,1.175,1.175,0,0,1-.117.52,1.121,1.121,0,0,1-.361.418,1.909,1.909,0,0,1-.615.279,3.314,3.314,0,0,1-.872.1l-2.244,0Zm1.524,1.723a.849.849,0,0,0,.488-.118.367.367,0,0,0,.167-.319.271.271,0,0,0-.121-.233.706.706,0,0,0-.4-.085h-.748l-.2.755Zm-.344,1.633a.832.832,0,0,0,.492-.126.387.387,0,0,0,.176-.328q0-.337-.533-.337l-.829,0-.215.792Z" transform="translate(-172.106 -117.885)" fill="#434343"/><path d="M234.947,132.089l3.469-.006-.276,1.021-2.275,0-.178.656,2.065,0-.251.947-2.065,0-.184.687,2.313,0-.27,1.021-3.5.006Z" transform="translate(-208.505 -117.797)" fill="#434343"/><path d="M273.166,132.048l1.633,0a3.013,3.013,0,0,1,.909.116,1.413,1.413,0,0,1,.581.333,1.068,1.068,0,0,1,.253.4,1.44,1.44,0,0,1,.081.485,1.5,1.5,0,0,1-.312.95,1.776,1.776,0,0,1-.98.586l.67,1.458-1.323,0-.577-1.31h-.532l-.35,1.311-1.206,0Zm1.336,2.075a1.15,1.15,0,0,0,.649-.163.506.506,0,0,0,.241-.442.425.425,0,0,0-.112-.292.742.742,0,0,0-.532-.149h-.65l-.283,1.045Z" transform="translate(-242.59 -117.763)" fill="#434343"/><path d="M41.6,302.413H1.84A1.842,1.842,0,0,0,0,304.253v7.209a1.842,1.842,0,0,0,1.84,1.84H41.6a1.842,1.842,0,0,0,1.84-1.84v-7.209a1.842,1.842,0,0,0-1.84-1.84m1.533,9.049a1.533,1.533,0,0,1-1.533,1.533H1.84a1.533,1.533,0,0,1-1.533-1.533v-7.209A1.533,1.533,0,0,1,1.84,302.72H41.6a1.533,1.533,0,0,1,1.533,1.533Z" transform="translate(0 -269.704)" fill="#434343"/><path d="M43.612,35.848H37.125l.086-.091a16.1,16.1,0,1,0-23.455,0l.086.091H7.355l-.016-.026a21.266,21.266,0,1,1,36.288,0Zm-6.237-.108h6.176a21.158,21.158,0,1,0-36.135,0h6.176a16.211,16.211,0,1,1,23.783,0" transform="translate(-3.761 -3.085)" fill="#434343"/><path d="M22.4,0A21.643,21.643,0,0,0,3.8,32.709h.5a21.212,21.212,0,1,1,36.2,0H41A21.643,21.643,0,0,0,22.4,0" transform="translate(-0.675 0)" fill="#434343"/><path d="M14.21,36.294a16.156,16.156,0,1,1,23.433,0h6.348a21.212,21.212,0,1,0-36.128,0Z" transform="translate(-4.205 -3.531)" fill="#434343"/><path d="M174.56,345.4h-.008c-.074.168-.16.4-.233.56l-.219.509h.526l-.034-.509c-.012-.16-.022-.391-.032-.56" transform="translate(-155.269 -308.044)" fill="#434343"/><path d="M211.348,345.441c-.366,0-.66.37-.754.863-.1.509.059.863.425.863h.008c.366,0,.648-.354.746-.867.093-.488-.055-.859-.425-.859" transform="translate(-187.79 -308.078)" fill="#434343"/><path d="M318.928,345.4h-.008c-.074.168-.16.4-.233.56l-.219.509h.526l-.033-.509c-.012-.16-.022-.391-.032-.56" transform="translate(-284.023 -308.044)" fill="#434343"/><path d="M143.78,345.481a1.25,1.25,0,0,0-.235.017l-.323,1.7a.9.9,0,0,0,.158.009.992.992,0,0,0,1.031-.9c.106-.556-.177-.817-.631-.817" transform="translate(-127.731 -308.114)" fill="#434343"/><path d="M42.034,302.913H2.536a1.779,1.779,0,0,0-1.779,1.779V311.8a1.779,1.779,0,0,0,1.779,1.779h39.5a1.779,1.779,0,0,0,1.779-1.779v-7.111a1.779,1.779,0,0,0-1.779-1.779M7.95,307.6H7.213l-.418,2.2H6.033l.419-2.2H5.728l.122-.64H8.072Zm.9,2.2H8.091l.541-2.836h.762Zm3-2.214H10.769l-.087.454H11.7l-.117.614H10.565l-.1.522h1.141l-.119.623h-1.9l.54-2.836h1.843Zm2.709,2.214h-.8l-.3-.943a9.56,9.56,0,0,1-.281-1.023h-.017c-.052.383-.124.808-.212,1.267l-.133.7h-.694l.54-2.836h.9l.284.871a6.951,6.951,0,0,1,.257.993h.013a10.964,10.964,0,0,1,.168-1.191l.128-.673H15.1Zm3.6-1.486a1.765,1.765,0,0,1-.715,1.17,2.482,2.482,0,0,1-1.4.349,4.451,4.451,0,0,1-.748-.05L15.829,307a5.874,5.874,0,0,1,.917-.063,1.683,1.683,0,0,1,1.112.282,1.04,1.04,0,0,1,.306,1.09m1.923,1.486-.056-.657H19.3l-.285.657h-.787l1.365-2.836H20.6l.305,2.836Zm5.381-1.448a1.707,1.707,0,0,1-1.7,1.494h0c-.879,0-1.238-.661-1.088-1.448a1.75,1.75,0,0,1,1.692-1.481,1.083,1.083,0,0,1,1.1,1.435m2.583-.766H26.99l-.1.522h1l-.117.614h-1l-.205,1.077h-.762l.541-2.836h1.822Zm1.022,2.214h-.762l.54-2.836h.762Zm3.163-2.155a1.221,1.221,0,0,0-.507-.1.96.96,0,0,0-.971.833.625.625,0,0,0,.67.833,1.715,1.715,0,0,0,.52-.08l-.008.593a2,2,0,0,1-.734.118c-1.06,0-1.4-.661-1.258-1.414a1.834,1.834,0,0,1,1.865-1.507,1.609,1.609,0,0,1,.684.122Zm.313,2.155.54-2.836h.762l-.54,2.836Zm3.152,0-.056-.657h-.732l-.285.657h-.787l1.365-2.836h1.01l.305,2.836Zm3.245,0H37.094l.541-2.836H38.4l-.419,2.2h1.09Z" transform="translate(-0.675 -270.15)" fill="#434343"/></g></svg>