<svg xmlns="http://www.w3.org/2000/svg" xmlns:xlink="http://www.w3.org/1999/xlink" width="122.052" height="30.64" viewBox="0 0 122.052 30.64"><defs><clipPath id="a"><rect width="122.052" height="30.64" fill="none"/></clipPath></defs><g clip-path="url(#a)"><path d="M476.856,26.948a1.408,1.408,0,0,0-1.04-.374c-1.428,0-.568-.148-1.281-1.122-.9,0-2.133-.85-3.592-1.772-1.378-.872-1.67-4.841-1.63-7.169a39.065,39.065,0,0,1,1.639-8.891c.133-.512.008-1.648.157-2.122.175-.554,1.242-.95,1.351-1.483.6-2.922,1.306-4.553,2.5-3.854.4.232.351.853.778,1.509-.406.583-1.617,3.063-1.808,3.229a11.335,11.335,0,0,0-1.485,6.6c.261,5.017-.763,7.026,1.276,9.786,1.5,2.035.139,1.849,1.995,1.918.265.01.334.424.66.428,1.952.024,3.17-.162,4.3-2.554.27-.574.134-1.565,1.336-2.114.179-.082.025-.58,0-.912q.3.083.431-.249a2.114,2.114,0,0,0,.124-.83,30.634,30.634,0,0,0-.206-5.354c-.487-2.018-.777-2.643-1.7-2.8a6.889,6.889,0,0,1-.781-.125c-.849-.222-.7-.137-.9-.137-1.022,0-1.612.1-1.662,1.586l-.066,1.934c1.47,3.14,1.23-1.5,3.313-.1-.056.629.6.932.756,1.644.2.915.021,2.447-.406,2.783-.885.7-.763,2.463-1.455,2.75-.982.409-3.816-1.057-3.733-1.472a9.04,9.04,0,0,0-.2-2.723,8.416,8.416,0,0,0-.692-2.283,6.176,6.176,0,0,1-.037-1.328,9.1,9.1,0,0,1,.936-3.07c.835-1.742,1.29-2.4,1.314-2.481.263.111.586-.318,1.018-.774s.572-.517.759-.517c.153,0,.488-.111.666,0,.153.775.685.638,1.434.639.187,0,.378.5.732.442s.1.361.415.466c.647.679,2.567.531,2.658,2.287.049.946.385,1.221.316,2-.037.415.559.856.539,1.077.311.526.481,1.363.372,3.318-.016.285-.323.488-.289.743.592,4.458-.055,6.612-2.1,7.844a5.5,5.5,0,0,0-.913,1.666c-.361,1.119-4.99,3.728-5.785,1.968" transform="translate(-374.654 0)" fill="#fca01e" fill-rule="evenodd"/><path d="M430.046,7.718c-.473-.426-.787-1.042-1.281-1.527A9.246,9.246,0,0,0,426.9,4.785c-1.575-.822-.318.106-1.124,1.328,1.186,1.811.765,1.644,2.013,2.965.552.424,1,1.116,1.524,1.5s1.126.45,1.367.866-.106.767.514,1.207c.591.419.744,2.015,1.962,1.527a5.831,5.831,0,0,0,1.367-1.359c.175-.2.622-.08.713-.369.175-.556.2-.243.154-.843-.083-1-.4-2.8-.729-2.6-.377.224-1.1.023-1.694.015a2.437,2.437,0,0,1-1.918-1.047c-.375-.444-.666.1-1.007-.253" transform="translate(-339.904 -3.571)" fill="#fca01e" fill-rule="evenodd"/><path d="M441.737,113.882c.561.254-2.757.928-2.9.813-.678.733-1.583,1.183-1.638,1.688-.064.589-.97.424-.822,1.159.071.347-1.048.346-1.692.489-1.622.369-1.307-.881-.149-2.09.268-.28,1.493-1.49,1.741-1.779.8-.927.744-1.738,1.1-2,1.661-.677,3.1-4.015,4.357,1.718" transform="translate(-346.123 -88.279)" fill="#fca01e" fill-rule="evenodd"/><path d="M555.512,61.133c.366.728,1.33-.713,2-.262,1.778-.169,1.472.494,1.941.144a7.175,7.175,0,0,1,2.019.939c1.494.754,1.051-.032,1.51-.165,1.217-.212,1.758-.129,1.92-.45.218-.457-.222-.976-1.351-1.639-.592.5-1.231.433-1.378-.041-.572-.467-1.352,1.255-1.043-.3-.339-.695-.654-.561-.976-.638-1.1.26-1.306-.031-1.391-.4-.305-.483.029-1.373-1.064-1.379-.309-.721-.925-1.986-1.561-1.7-2.031.946-1.318,5.14-.63,5.889" transform="translate(-442.908 -44.068)" fill="#fca01e" fill-rule="evenodd"/><path d="M549.578,104.5a17.829,17.829,0,0,0-1.134,3.654c-.13.576,2.1,1.1,2.584,1.2.266.087.707-.629,1.009-.362.25.221-.059.744.136,1.171.326.712,1.1,1.394,1.2,1.692.657,2.007.958,2.593,2.926,1.771.444-.882.932-1.1-.306-1.633-.562-.241-.83-.86-1.052-1.058.034-1.728-.839-1.861-1.476-2.991-.647-.464-1.006-2.832-1.886-2.948-.692.028-1.876-.875-2-.5" transform="translate(-437.823 -83.353)" fill="#fca01e" fill-rule="evenodd"/><path d="M12.524,47.379q.019.374.019.593,0,1.1-.6,1.1a.489.489,0,0,1-.169-.022,25.781,25.781,0,0,1-4.718-.179,27.263,27.263,0,0,0-3.207-.264A9.347,9.347,0,0,0,.3,49.2c-.5-.484-.229-2.557-.229-3.773q0-.44.047-1.285t.047-1.286v-.791a6.021,6.021,0,0,0,.525-2.813q0-.352-.075-1.428V36.746a6.535,6.535,0,0,1,.056-1.033c.783,0,.492-2.95.525-3.8q.768-1.8,1.951-1.318L3,34.043H2.85l-.364,4.449L2.1,41.625c-.511.257-.563,1.94-.563,2.593,0,.982-.318,3.065.157,3.475,1.025-.176,2.848-.064,5.343-.427l2.243-.326Zm-.481-13.723,0,.007c0,.01-.006.02-.008.03s-.008.031-.011.047v.006l0,.01-.005.025h0l0,.009c0,.007,0,.014,0,.022-.006.031-.011.063-.016.1v.007l0,.016s0,.008,0,.012c0,.025-.006.051-.009.077l0,.014c-.015.15-.022.309-.023.463h0c0,.074,0,.147,0,.217v.009s0,.007,0,.01h0c0,.033,0,.065,0,.1,0,0,0,.009,0,.014s0,.008,0,.012v.05s0,0,0,.008,0,.011,0,.016,0,.011,0,.017,0,.02,0,.03v.045c0,.006,0,.013,0,.019v.044s0,.009,0,.013,0,0,0,.007,0,.013,0,.019h0c0,.015,0,.03,0,.044v.008c0,.005,0,.011,0,.016v0s0,.008,0,.012V36.8c-.533,0-.743,3.272-.743,3.875l-.372,1.77a2.724,2.724,0,0,1-.531.584,2.352,2.352,0,0,0-.655,1.345,1.85,1.85,0,0,1-.725.141q-.885,0-1.1-.513a3.867,3.867,0,0,1-.212-.336c-.372-.706-.521-.849-.443-1.6A7.109,7.109,0,0,0,6.744,40.2a3.675,3.675,0,0,1-.212-1.106v-.369H6.372V37.91q0-.442-.053-1.336t-.053-1.336a3.439,3.439,0,0,1,.832-2.69q.672,0,.743.5a4.662,4.662,0,0,0-.106,1.1A7.655,7.655,0,0,1,7.62,36H7.47q.372,4.088.372,5.575a2.582,2.582,0,0,1,.319.726q.177.531.531.531a1.016,1.016,0,0,0,.443-.124,4.613,4.613,0,0,0,1.292-2.69l.425-2.955c.046-1.287.46-2.627.46-3.522a4.367,4.367,0,0,0-.248-1.062,2.2,2.2,0,0,1-.124-.637,1.184,1.184,0,0,1,.389-.849q-.088-.549.389-.637a1.19,1.19,0,0,1,.69,1.239c0,.189-.006.348-.018.478q-.071.761-.071.832v.105h0A.919.919,0,0,1,12.5,32.9h0l.011,0h0l.011,0h0l.037-.013h0c.021-.006.042-.012.062-.016h0l.013,0h0a.546.546,0,0,1,.062-.007h.025c.928,0,1.869-.345,2.641-.345h1.341a3.745,3.745,0,0,1,1.142.3,3.772,3.772,0,0,0,1.1.3c1.495,0,3.021-.422,4.614-.422.168,0,.272.23.314.693L13.677,43.711l.231.249h2.578c1.593,0,6.532-1.156,7.272.134.11.193.231.326.231.479q0,.689-.524.69a1.317,1.317,0,0,1-.482-.287,2.285,2.285,0,0,0-.5-.326H20.72l-1.237.441h-4.3a6.405,6.405,0,0,0-1.006.153,4.042,4.042,0,0,1-.692.1q-1.341,0-1.341-1.034a1.46,1.46,0,0,1,.44-1.073,5.839,5.839,0,0,0,.8-.651c1.024-1.051,2.35-3.057,3.689-3.63a2.385,2.385,0,0,0,.461-.24,3.331,3.331,0,0,0,.65-.977,3.8,3.8,0,0,1,.744-1.082q.367-.336.807-.757a5,5,0,0,0,.482-.92,1.514,1.514,0,0,1,.607-.747A6.389,6.389,0,0,0,19.6,34.4a2.164,2.164,0,0,1-2.274-.4,1.33,1.33,0,0,0-.776-.287,2.775,2.775,0,0,0-.891.345,1.645,1.645,0,0,1-2.012-.048,1.839,1.839,0,0,0-.849-.392h-.741Zm.013-.04-.007.021v0l0,.015Zm51.731,6.954,0-.011q.053-.144.1-.282h0l.023-.069.02-.06,0-.011.014-.044q.019-.058.036-.114l0-.012.015-.048.008-.027.011-.039.008-.028c.019-.066.035-.129.05-.19h0v0c.007-.028.013-.055.019-.082,0-.011.005-.023.007-.034v0c0-.014.006-.027.008-.041v0l.006-.033,0-.026,0-.025,0-.024,0-.026,0-.028c0-.006,0-.013,0-.019s0-.019,0-.028,0-.013,0-.019,0-.021,0-.031,0-.008,0-.012,0-.028,0-.042v-.639h.35c.084-1.15,1.119-2.173,1.119-3.272v-.414c1.191-.815.944-2.41,2.146-3.009l.956-.489.49.507v7.071h.35c.249.534.886.928.886,1.542a1.281,1.281,0,0,1-.047.376,1.561,1.561,0,0,0-.886,1.636q0,.207.023.592t.023.592a2.494,2.494,0,0,1-.21,1.091q.117.075.653.32.373.169.373.357a.664.664,0,0,1-.187.395c-1.478-.619-2.894,1.642-2.519-1.749h.35a11.579,11.579,0,0,0,.21-1.561c0-.6.316-1.25-.057-1.313-.3-.288-1.125-.116-1.482-.116a2.643,2.643,0,0,0-.98.244q-.863.357-1.073.413a1.9,1.9,0,0,1-.4.705,6.154,6.154,0,0,0-.816,2.323,1.159,1.159,0,0,1-.816.94h-.7c-.034.015-.067.028-.1.039h0a1.046,1.046,0,0,1-.127.034h0l-.026,0h0l-.042.006h0l-.037,0h-.062c-.788,0-.649-2.354-.554-2.99.015-.1.047-.2.061-.3l.041-.3c.146-1.067-.642-2.488-.537-3.253a4.98,4.98,0,0,0-.218-2.276,2.076,2.076,0,0,0-.589-.113q-.776,0-.96,1.354l-.092.668q-.061.442-.091.668a2.2,2.2,0,0,1-.745,1.636c.956,1.278-.316,2.5-1.8,1.053a1.531,1.531,0,0,1,.017-.263q.021-.15.092-.461t.092-.461c.129-.939-.692-2.543-.528-3.742-.172-.063-.32-.4-.459-1.016-.125-.553-.657-1.328-1.068-1.328-.472.27-.177,1.493-.769,1.647a7.631,7.631,0,0,1-.042,1.429,14.229,14.229,0,0,1-.728,2.567c-.254.709-.523,1.778-.84,2.939-.1.355.057.619-.049.984-.064.22-.387.541-.455.761a18.448,18.448,0,0,1-1.535,3.833c-1.134,1.809-3.728,1.885-3.511.287.037-.275,1.168-.439,1.771-.495,1.977-.181,2.839-5.533,3-6.738a3.617,3.617,0,0,0,.022-.442,2.006,2.006,0,0,1,.075-.687,10.451,10.451,0,0,0,1.045-3.686l.178-1.3a12.439,12.439,0,0,1,.5-2.388,2.558,2.558,0,0,0,.434-1.053,4.476,4.476,0,0,1,.432-1.185,1.143,1.143,0,0,1,1.041-.564c.266,1.466.874,3.487,1.291,4.927.211.338.394.694.61,1.034.271.426.722,1.483.987,1.609.179.808.7-1.99.747-2.3.752-2.083.261-1.418.389-2.558q.023-.169.044-.526t.046-.545a1.92,1.92,0,0,1,.063-.32,1.124,1.124,0,0,1,.547-.188c1.531-.15.732,3.532,1.639,3.648L61,36.182q-.067.489.511.489a.716.716,0,0,1-.009.207,3.388,3.388,0,0,1-.1.423,3.413,3.413,0,0,0-.1.423c-.068.495,1.15,3.385.852,4.005l.336,1.69c.216-.395.491-.953.755-1.545l.035-.077v0l.033-.075.005-.011.029-.066q.085-.2.166-.391l.026-.063.006-.015,0,0c.084-.2.163-.407.235-.6m-17.759.108c-.205,1.663-.467,1.2-.952,2.509-.133.359-.25.554-.346.587v.473l-.13-.1a23.137,23.137,0,0,1-1.743,1.662,3.6,3.6,0,0,1-2.188.815A2.4,2.4,0,0,0,40,46.477c-1.9-.257-3.444-8.471-1.557-9.255a.867.867,0,0,0,.519-.9,1.276,1.276,0,0,0,.482-.749.63.63,0,0,1,.63-.489,2.82,2.82,0,0,1,2.54-1.5,2.448,2.448,0,0,1,1.112.586c1.2,1.1,1.6,1.484,1.835,2.884a4.305,4.305,0,0,1,.074.636q0,.879-.816.88-.241,0-.7-.033t-.7-.032q-.742,0-1.409.032l-2.354.114v.261q-.334,0-.464.489a5.453,5.453,0,0,0-.129.749l-.111-.1v3.1h.111a3.871,3.871,0,0,0,1,2.493,1.546,1.546,0,0,0,.8.261c.247,0,.458-.19.8-.277.633-.162,2.635-3.363,2.651-3.617q.093-.457.2-.929a1.188,1.188,0,0,1,.612-.57ZM26.509,39.5a.936.936,0,0,0,.438.848c.405,2.1,4.294,6.225,5.962,6.92.954.4,1.578.172,1.87.34a1.274,1.274,0,0,1,.691.139,2.155,2.155,0,0,0,.64.192.632.632,0,0,0,.454-.2v-.954a.349.349,0,0,1-.084.013.366.366,0,0,1-.219-.073c-.27-.195-.269-.98-.269-1.318a8.86,8.86,0,0,0-.05-.954q-.152-1.4-.152-1.537a3.469,3.469,0,0,1,.505-1.855v-.676a9.473,9.473,0,0,1,.18-2.623h.258a.692.692,0,0,0,.017-.186,2.757,2.757,0,0,0-.025-.311,2.742,2.742,0,0,1-.025-.3.466.466,0,0,1,.421-.517V36.1c-.081-.083-.162-.159-.242-.227.066-.649-.283-1.1.35-1.6.356-.283,0-.566.095-.843.084-.256.381-.45.465-.706.382-.641.7-1.394,1.15-2.072.267-.407.669-.746.9-1.131-2.923,0-2.429.919-3.43,3.265a3.289,3.289,0,0,1-.213,1.131c-.049.194.108.4.049.614-.048.173-.753.542-.817.722-.79-.071-1.621.16-2.582.16-1.473-.027-3.058.963-4.261,1.749-1.081.7-2.071.949-2.071,2.345m60.485,6.159a3.334,3.334,0,0,1-1.663.561,21.313,21.313,0,0,1-2.71.033c-.188-.02-.135-.177-.321-.2a7.331,7.331,0,0,1-3.472-1.205,10.552,10.552,0,0,0-1.308-1.282A3.75,3.75,0,0,1,76.388,42a2.755,2.755,0,0,0-1.23-1.5v-.214q0-.641-.744-.73a1.359,1.359,0,0,0-.94.926,5.786,5.786,0,0,0-.215,1.389,2.633,2.633,0,0,1-.313,1.193v2.476c-.443,3.58-.942,1.493-1.386.5l.055-3.1a1.214,1.214,0,0,0,.509-1.14q0-.2-.029-.57c-.1-1.242.42-2.126.5-3.651a21.6,21.6,0,0,0,1.018-3.525,1.5,1.5,0,0,0-.039-.321,4.087,4.087,0,0,1-.1-.534.582.582,0,0,1,.1-.338q.45,0,.353-.517a.776.776,0,0,1-.059-.232q0-.106.342-.214a.591.591,0,0,0,.421-.32c.525.859,2.364.157,3.152.766l3.72.2v.125l2.016.32a1.365,1.365,0,0,1-.274.961,4.152,4.152,0,0,0-.7.57q-.588.178-.7.231c-.267.143-1.331.809-1.331.994a8.5,8.5,0,0,0-2.369.763c-1.175.546-1.9.863-2.173.959a.743.743,0,0,1,.059.285,1.826,1.826,0,0,1-.108.5,1.87,1.87,0,0,0-.107.481,28.731,28.731,0,0,0,2.581,3.983,8.079,8.079,0,0,1,1.423,1.3,5.43,5.43,0,0,0,3.271,1.135,8.076,8.076,0,0,0,2.052-.321c.16-.05.21-.271.356-.3l1.405-.325c.277.135.531,1.253.1,1.468m-6.981-11.91q-.588,0-1.057-.035l-1.644-.124a4.432,4.432,0,0,0-2.193.48,16.852,16.852,0,0,0-.7,1.532.953.953,0,0,0,.822.463,5.945,5.945,0,0,0,1.41-.445,2.723,2.723,0,0,1,.92-.232.378.378,0,0,1,.215.053l1.429-.617a1.161,1.161,0,0,0,.8-1.074m-51.9,6.162a.579.579,0,0,0,.034-.159,1.824,1.824,0,0,0-.042-.318,1.8,1.8,0,0,1-.042-.318q0-.437.573-.437a.239.239,0,0,1-.017-.093q0-.212.472-.6.236-.172.69-.53a7.157,7.157,0,0,1,2.325-.821A15.927,15.927,0,0,1,33.92,36.4a4.212,4.212,0,0,1,.691.053q.067.027.135.272t.27.245h.135c0,2.071-.387,3.4-.387,5.366v2.107c-.723.071-.539.411-.32.821a.673.673,0,0,1,.1.292q0,.159-.2.212a.715.715,0,0,1-.438.106,1.089,1.089,0,0,1-.707-.186,7.856,7.856,0,0,0-.657-.517c-1.668-1-4.025-2.936-4.025-4.677,0-.27.022-.583-.4-.583m39.381-2.735q0-.207.035-.592t.035-.573a2.529,2.529,0,0,0-.023-.376l-.606.188a.412.412,0,0,0-.28.376,5.246,5.246,0,0,1-.816,1.674h-.21v1.787q.158,0,.478.019t.478.019a2.449,2.449,0,0,0,.909-.144c0-.255-.127-.8.35-.8.508,0-.35-1.232-.35-1.58M43.9,35.968h-.278q-.149-.049-.148-.261c.012-.12.018-.206.018-.261q-.593-.424-.741-.505a1.247,1.247,0,0,0-.556-.179.654.654,0,0,0-.3.065c-.647,1.14-1.372.694-1.372,2.086a1.35,1.35,0,0,0,.148.505l1.594.13q.593.049.7.049a.789.789,0,0,0,.834-.587,3.844,3.844,0,0,0,.093-1.043" transform="translate(0 -23.564)" fill="#0093cc" fill-rule="evenodd"/></g></svg>