<svg xmlns="http://www.w3.org/2000/svg" width="28.1" height="22.6" viewBox="0 0 28.1 22.6"><defs><style>.a{fill:#434343;}</style></defs><g transform="translate(-16 -31)"><path class="a" d="M42.2,50H17.8a1.8,1.8,0,1,0,0,3.6H42.3a1.793,1.793,0,0,0,1.8-1.8A1.95,1.95,0,0,0,42.2,50Z"/><path class="a" d="M42.2,40.5H17.8a1.8,1.8,0,1,0,0,3.6H42.3a1.793,1.793,0,0,0,1.8-1.8A1.95,1.95,0,0,0,42.2,40.5Z"/><path class="a" d="M42.2,31H17.8a1.8,1.8,0,1,0,0,3.6H42.3a1.793,1.793,0,0,0,1.8-1.8A1.95,1.95,0,0,0,42.2,31Z"/></g></svg>