<svg xmlns="http://www.w3.org/2000/svg" xmlns:xlink="http://www.w3.org/1999/xlink" width="21.083" height="22" viewBox="0 0 21.083 22"><defs><style>.a{fill:#fff;stroke:#333;}.b{clip-path:url(#a);}.c{fill:#333;}</style><clipPath id="a"><rect class="a" width="21.083" height="22"/></clipPath></defs><g class="b"><g transform="translate(0.45)"><path class="c" d="M8.911,10.981a5.449,5.449,0,0,0,5.407-5.491,5.408,5.408,0,1,0-10.815,0A5.454,5.454,0,0,0,8.911,10.981Zm0-10.051A4.526,4.526,0,0,1,13.4,5.491a4.491,4.491,0,1,1-8.982,0A4.533,4.533,0,0,1,8.911.931Zm0,0" transform="translate(1.08)"/><path class="c" d="M9.848,13.477a10.48,10.48,0,0,0-7.074,2.61,8.752,8.752,0,0,0-2.927,6.57.5.5,0,0,0,.526.465H19.322a.5.5,0,0,0,.526-.465,8.743,8.743,0,0,0-2.926-6.566,10.484,10.484,0,0,0-7.074-2.615ZM.912,22.192a7.868,7.868,0,0,1,2.611-5.449,9.376,9.376,0,0,1,6.321-2.331,9.375,9.375,0,0,1,6.321,2.331,7.846,7.846,0,0,1,2.611,5.449Zm0,0" transform="translate(0.152 -1.123)"/></g></g></svg>