<svg xmlns="http://www.w3.org/2000/svg" width="15.459" height="19.871" viewBox="0 0 15.459 19.871"><defs><style>.a{fill:#434343;}</style></defs><path class="a" d="M114.292,1268.425c-1.21-.093-1.718-.693-2.667-1.269-.521,2.736-1.158,5.358-3.046,6.728-.583-4.135.856-7.24,1.523-10.536-1.138-1.917.137-5.775,2.539-4.824,2.956,1.169-2.559,7.127,1.143,7.871,3.865.777,5.443-6.707,3.046-9.141-3.463-3.514-10.081-.079-9.267,4.951.2,1.23,1.469,1.6.508,3.3-2.217-.49-2.878-2.239-2.793-4.569a7.46,7.46,0,0,1,6.729-6.856c4.174-.467,8.091,1.533,8.632,5.46C121.248,1263.971,118.755,1268.77,114.292,1268.425Z" transform="translate(-105.271 -1254.013)"/></svg>