<svg xmlns="http://www.w3.org/2000/svg" xmlns:xlink="http://www.w3.org/1999/xlink" width="70" height="70" viewBox="0 0 70 70"><defs><style>.a,.e{fill:#fff;}.a{stroke:#707070;}.b{clip-path:url(#a);}.c{fill:#112d43;}.d{fill:#3d9cd7;}</style><clipPath id="a"><rect class="a" width="70" height="70" transform="translate(313 3908)"/></clipPath></defs><g class="b" transform="translate(-313 -3908)"><g transform="translate(319.183 3908)"><path class="c" d="M28.807,70l-1.378-1.358c-3.236-3.216-7.831-4.914-13.285-4.914H14a27.648,27.648,0,0,1-7.272-1.059C.879,60.91,0,57.574,0,55.756V0H57.634V55.8c0,7.831-13.9,7.931-14.044,7.931h-.08c-5.354,0-10.088,1.738-13.325,4.914L28.807,70Z"/><path class="d" d="M1.958,1.958v53.8c0,2.837,2.917,4.3,5.354,5.034a26.843,26.843,0,0,0,6.712.979h.14c6.013,0,11.067,1.9,14.683,5.494,3.6-3.536,8.79-5.474,14.683-5.474h.08c.12,0,12.086-.18,12.086-5.973V1.958Z"/><path class="e" d="M9.569,17.38V59.452a25.188,25.188,0,0,0,4.455.459h.14a26.653,26.653,0,0,1,3.116.18V17.38Z"/><path class="e" d="M24.971,17.38V62.309h0a19.61,19.61,0,0,1,3.876,2.6,19.715,19.715,0,0,1,3.816-2.517V17.38Z"/><path class="e" d="M40.354,17.38V60.131a27.691,27.691,0,0,1,3.176-.18h.08a26.133,26.133,0,0,0,4.435-.479V17.38Z"/><path class="e" d="M10.928,10.228v.02l2.517,2.877h-2.1l-1.9-2.537H7.471v2.537H5.753V6.013H9.489c2.158,0,3.256.819,3.256,2.217A2.013,2.013,0,0,1,10.928,10.228Zm-1.5-2.937H7.451V9.429h1.9c1.119,0,1.6-.34,1.6-1.1C10.967,7.631,10.528,7.292,9.429,7.292Z"/><path class="e" d="M20.636,11.687H16.241l-.7,1.438H13.7L17.52,6.013h1.9l3.836,7.112H21.316Zm-2.5-3.836-1.259,2.577h3.156L18.8,7.851l-.3-.7h-.02Z"/><path class="e" d="M29.946,7.611a7.358,7.358,0,0,0-2.2-.34c-2.058,0-2.777.7-2.777,2.257,0,1.658.739,2.317,2.817,2.317a5.933,5.933,0,0,0,2.158-.4l.22,1.259a6.667,6.667,0,0,1-2.577.539c-2.957,0-4.395-1.378-4.395-3.716,0-2.178,1.378-3.676,4.555-3.676a8.145,8.145,0,0,1,2.4.38Z"/><path class="e" d="M31.484,6.013h1.738v7.112H31.484Z"/><path class="e" d="M41.752,13.125,37.138,8.73,36.6,8.191h-.02l.02.759v4.175H35.04V6.013h1.438l4.315,4.235.539.539.02-.02-.02-.759v-4h1.558v7.112H41.752Z"/><path class="e" d="M51.761,12.825a9.116,9.116,0,0,1-2.917.459c-3.276,0-4.655-1.418-4.655-3.676,0-2.277,1.4-3.716,4.655-3.716a9.091,9.091,0,0,1,2.757.4l-.18,1.378a8.283,8.283,0,0,0-2.5-.38c-2.138,0-2.937.659-2.937,2.3,0,1.6.719,2.317,2.8,2.317a5.445,5.445,0,0,0,1.478-.18v-2.3h1.478v3.4Z"/></g></g></svg>