<svg width="7" height="11" viewBox="0 0 7 11" fill="none" xmlns="http://www.w3.org/2000/svg">
<path d="M6.40939 6.1947L1.88905 10.7811C1.60151 11.0729 1.1353 11.0729 0.847888 10.7811C0.560456 10.4894 0.560456 10.0164 0.847888 9.72479L4.84769 5.66657L0.848004 1.60849C0.560572 1.31673 0.560572 0.843769 0.848004 0.55213C1.13544 0.260374 1.60162 0.260374 1.88917 0.55213L6.40951 5.13855C6.55322 5.28444 6.625 5.47545 6.625 5.66654C6.625 5.85773 6.55308 6.04888 6.40939 6.1947Z" fill="#434343"/>
<path d="M6.40208 6.19471L1.88174 10.7811C1.59419 11.073 1.12798 11.073 0.840574 10.7811C0.553142 10.4894 0.553142 10.0164 0.840574 9.7248L4.84037 5.66657L0.84069 1.60849C0.553258 1.31674 0.553258 0.843776 0.84069 0.552137C1.12812 0.260381 1.59431 0.260381 1.88186 0.552137L6.40219 5.13856C6.54591 5.28445 6.61769 5.47545 6.61769 5.66655C6.61769 5.85774 6.54577 6.04889 6.40208 6.19471Z" fill="#434343"/>
</svg>
