<svg xmlns="http://www.w3.org/2000/svg" xmlns:xlink="http://www.w3.org/1999/xlink" width="16.771" height="17.5" viewBox="0 0 16.771 17.5"><defs><style>.a{fill:#fff;stroke:#707070;}.b{clip-path:url(#a);}.c{fill:#333;}</style><clipPath id="a"><rect class="a" width="16.771" height="17.5" transform="translate(1241 50)"/></clipPath></defs><g transform="translate(-1)"><g class="b" transform="translate(-1240 -50)"><path class="c" d="M13.222,12.635a7.71,7.71,0,1,0-.611.6l3.423,3.423a.423.423,0,0,0,.305.125.442.442,0,0,0,.305-.125.429.429,0,0,0,0-.606ZM.86,7.591A6.712,6.712,0,1,1,7.572,14.3,6.718,6.718,0,0,1,.86,7.591Zm0,0" transform="translate(1241 50.346)"/></g></g></svg>