<svg width="201" height="25" viewBox="0 0 201 25" fill="none" xmlns="http://www.w3.org/2000/svg">
<g clip-path="url(#clip0_2_41)">
<path d="M10.9192 5.55754L9.29952 6.63162C8.93235 6.05855 8.61321 5.65019 8.32839 5.39625C7.74159 4.86093 6.99695 4.5967 6.11504 4.5967C5.1645 4.5967 4.40269 4.90897 3.83305 5.52322C3.30802 6.07913 3.04379 6.73799 3.04379 7.47235C3.04379 8.2719 3.43156 8.94105 4.20366 9.46265C4.53995 9.68913 4.84536 9.87444 5.11989 10.0014C5.38755 10.1352 6.15278 10.4715 7.42246 11.0274C8.93578 11.6932 9.99613 12.4138 10.5932 13.1619C11.2795 13.9957 11.6158 14.9943 11.6158 16.1508C11.6158 17.8631 10.9707 19.2975 9.68042 20.423C8.58233 21.3839 7.26118 21.854 5.72041 21.854C4.17964 21.854 3.01977 21.4319 2.02805 20.5912C1.03633 19.7573 0.356885 18.5837 0.00686646 17.0567L2.02119 16.5008C2.1962 17.3312 2.45357 17.9798 2.75897 18.4121C3.48646 19.4142 4.50564 19.9186 5.80963 19.9186C6.87684 19.9186 7.77248 19.5274 8.49997 18.7828C9.18285 18.0793 9.52944 17.2386 9.52944 16.2571C9.52944 15.1384 9.00784 14.2703 7.9921 13.6286C7.52198 13.3163 6.42731 12.7844 4.7081 12.026C3.33891 11.3878 2.37807 10.7358 1.82902 10.0392C1.25595 9.31166 0.967702 8.44691 0.967702 7.44833C0.967702 5.8801 1.56822 4.64474 2.80702 3.73195C3.78158 3.03191 4.8934 2.66817 6.14249 2.66817C8.22544 2.66817 9.81769 3.63587 10.9261 5.5644" fill="#231F20"/>
<path d="M15.5724 2.68189L20.3594 16.5385L25.994 2.6613L31.3198 16.5385L36.5976 2.68189H38.7903L31.2512 21.7579L25.9563 7.92188L20.2805 21.7648L13.3796 2.68189H15.5724Z" fill="#231F20"/>
<path d="M43.8484 2.6613H41.7689V21.8506H43.8484V2.6613Z" fill="#231F20"/>
<path d="M58.5732 5.55754L56.9467 6.63162C56.5829 6.05855 56.2638 5.65019 55.9893 5.39625C55.3888 4.86093 54.6544 4.5967 53.7622 4.5967C52.8151 4.5967 52.0601 4.90897 51.4905 5.52322C50.962 6.07913 50.6978 6.73799 50.6978 7.47235C50.6978 8.2719 51.0856 8.94105 51.8577 9.46265C52.1974 9.68913 52.4959 9.87444 52.7705 10.0014C53.0381 10.1352 53.8068 10.4715 55.0696 11.0274C56.5795 11.6932 57.6467 12.4138 58.2438 13.1619C58.9267 13.9957 59.2664 14.9943 59.2664 16.1508C59.2664 17.8631 58.6213 19.2975 57.3242 20.423C56.2329 21.3839 54.9083 21.854 53.3779 21.854C51.8474 21.854 50.6772 21.4319 49.6786 20.5912C48.6835 19.7573 48.0109 18.5837 47.654 17.0567L49.6649 16.5008C49.8434 17.3312 50.1042 17.9798 50.413 18.4121C51.1302 19.4142 52.1528 19.9186 53.4534 19.9186C54.524 19.9186 55.4196 19.5274 56.1437 18.7828C56.8437 18.0793 57.1766 17.2386 57.1766 16.2571C57.1766 15.1384 56.6584 14.2703 55.6358 13.6286C55.176 13.3163 54.071 12.7844 52.3587 12.026C50.9964 11.3878 50.0287 10.7358 49.4796 10.0392C48.8962 9.31166 48.6046 8.44691 48.6046 7.44833C48.6046 5.8801 49.2291 4.64474 50.4576 3.73195C51.4253 3.03191 52.5406 2.66817 53.7931 2.66817C55.876 2.66817 57.4648 3.63587 58.5767 5.5644" fill="#231F20"/>
<path d="M72.9549 5.55754L71.3249 6.63162C70.9646 6.05855 70.6386 5.65019 70.3572 5.39625C69.7773 4.86093 69.0326 4.5967 68.1541 4.5967C67.2002 4.5967 66.4384 4.90897 65.8619 5.52322C65.3437 6.07913 65.0795 6.73799 65.0795 7.47235C65.0795 8.2719 65.4638 8.94105 66.2325 9.46265C66.5688 9.68913 66.8845 9.87444 67.1487 10.0014C67.4129 10.1352 68.1782 10.4715 69.4513 11.0274C70.9612 11.6932 72.0181 12.4138 72.6289 13.1619C73.3049 13.9957 73.6446 14.9943 73.6446 16.1508C73.6446 17.8631 73.0029 19.2975 71.7058 20.423C70.6146 21.3839 69.29 21.854 67.7492 21.854C66.2084 21.854 65.052 21.4319 64.0569 20.5912C63.0548 19.7573 62.3926 18.5837 62.0357 17.0567L64.0466 16.5008C64.225 17.3312 64.4721 17.9798 64.7912 18.4121C65.5256 19.4142 66.5344 19.9186 67.8316 19.9186C68.9057 19.9186 69.7944 19.5274 70.5219 18.7828C71.2082 18.0793 71.5582 17.2386 71.5582 16.2571C71.5582 15.1384 71.0401 14.2703 70.0209 13.6286C69.5508 13.3163 68.4561 12.7844 66.73 12.026C65.3643 11.3878 64.4035 10.7358 63.8544 10.0392C63.2779 9.31166 62.9896 8.44691 62.9896 7.44833C62.9896 5.8801 63.5936 4.64474 64.8324 3.73195C65.8104 3.03191 66.9256 2.66817 68.1713 2.66817C70.2611 2.66817 71.8431 3.63587 72.9515 5.5644" fill="#231F20"/>
<path d="M76.9733 21.7648V2.6613H84.358C86.1527 2.6613 87.4841 3.11427 88.3866 3.99618C89.2788 4.87809 89.7386 6.10315 89.7386 7.65422C89.7386 8.62191 89.5739 9.39401 89.2548 10.022C88.9254 10.6397 88.3935 11.151 87.6385 11.5833C88.867 11.8304 89.7592 12.2182 90.298 12.7707C91.1216 13.6148 91.5368 14.809 91.5368 16.3566C91.5368 17.9043 91.022 19.1534 89.9788 20.1314C88.8087 21.2295 87.1341 21.7682 84.9413 21.7682H76.9767L76.9733 21.7648ZM81.9456 10.1798H82.8515C83.603 10.1798 84.1967 10.0289 84.581 9.72001C84.9928 9.38372 85.1918 8.92732 85.1918 8.33366C85.1918 7.74 84.9928 7.25272 84.605 6.93702C84.1967 6.61445 83.6133 6.46003 82.8515 6.46003H81.9456V10.1798ZM81.9456 17.9077H83.0471C84.1521 17.9077 84.9619 17.7876 85.4938 17.5646C85.7992 17.4136 86.0497 17.1974 86.2213 16.8885C86.4135 16.5866 86.4924 16.2537 86.4924 15.8694C86.4924 15.1076 86.1938 14.5585 85.5556 14.2222C85.2742 14.0815 84.9722 13.9923 84.6462 13.9443C84.3271 13.8962 83.7643 13.8722 82.9682 13.8722H81.9421V17.9043L81.9456 17.9077Z" fill="#231F20"/>
<path d="M104.577 13.9443L110.582 21.7648H104.395L99.6627 14.4281V21.7648H94.6938V2.6613H102.425C103.492 2.6613 104.402 2.80886 105.157 3.07995C105.912 3.34418 106.57 3.7594 107.113 4.34276C108.204 5.50606 108.746 6.91643 108.746 8.57387C108.746 9.41804 108.598 10.2073 108.283 10.9657C107.96 11.7275 107.545 12.3314 107.017 12.8084C106.419 13.3129 105.599 13.7006 104.577 13.9443ZM99.6627 11.2299H100.582C101.529 11.2299 102.236 11.0446 102.72 10.7117C102.981 10.5161 103.194 10.2416 103.372 9.89502C103.551 9.55187 103.633 9.20871 103.633 8.85526C103.633 8.50181 103.551 8.16209 103.372 7.81207C103.19 7.46548 102.978 7.18409 102.72 6.99879C102.233 6.6625 101.529 6.48749 100.582 6.48749H99.6627V11.2299Z" fill="#231F20"/>
<path d="M124.284 18.4396H117.424L116.117 21.7648H110.867L118.21 2.6613H123.622L130.821 21.7648H125.513L124.284 18.4396ZM122.949 14.6615L120.88 8.57387L118.807 14.6615H122.946H122.949Z" fill="#231F20"/>
<path d="M133.017 21.7648V2.6613H137.99L147.131 14.356V2.6613H152.097V21.7648H147.131L137.99 10.07V21.7648H133.017Z" fill="#231F20"/>
<path d="M156.105 21.7648V2.6613H163.442C165.823 2.6613 167.916 3.52262 169.728 5.20065C170.754 6.15463 171.537 7.27674 172.099 8.56358C172.6 9.77149 172.858 10.9794 172.858 12.2148C172.858 14.0266 172.34 15.7355 171.324 17.3381C170.291 18.9303 168.946 20.1314 167.299 20.9035C166.056 21.48 164.766 21.7682 163.442 21.7682H156.105V21.7648ZM161.067 17.5851H162.196C163.147 17.5851 163.925 17.4479 164.574 17.2008C165.216 16.94 165.779 16.5419 166.273 15.986C167.192 14.9463 167.659 13.6972 167.659 12.2148C167.659 10.7323 167.192 9.49696 166.273 8.46749C165.775 7.90472 165.216 7.4998 164.574 7.24243C163.925 6.99536 163.143 6.86153 162.196 6.86153H161.067V17.5851Z" fill="#231F20"/>
<path d="M10.9192 5.55754L9.29952 6.63162C8.93235 6.05855 8.61321 5.65019 8.32839 5.39625C7.74159 4.86093 6.99695 4.5967 6.11504 4.5967C5.1645 4.5967 4.40269 4.90897 3.83305 5.52322C3.30802 6.07913 3.04379 6.73799 3.04379 7.47235C3.04379 8.2719 3.43156 8.94105 4.20366 9.46265C4.53995 9.68913 4.84536 9.87444 5.11989 10.0014C5.38755 10.1352 6.15278 10.4715 7.42246 11.0274C8.93578 11.6932 9.99613 12.4138 10.5932 13.1619C11.2795 13.9957 11.6158 14.9943 11.6158 16.1508C11.6158 17.8631 10.9707 19.2975 9.68042 20.423C8.58233 21.3839 7.26118 21.854 5.72041 21.854C4.17964 21.854 3.01977 21.4319 2.02805 20.5912C1.03633 19.7573 0.356885 18.5837 0.00686646 17.0567L2.02119 16.5008C2.1962 17.3312 2.45357 17.9798 2.75897 18.4121C3.48646 19.4142 4.50564 19.9186 5.80963 19.9186C6.87684 19.9186 7.77248 19.5274 8.49997 18.7828C9.18285 18.0793 9.52944 17.2386 9.52944 16.2571C9.52944 15.1384 9.00784 14.2703 7.9921 13.6286C7.52198 13.3163 6.42731 12.7844 4.7081 12.026C3.33891 11.3878 2.37807 10.7358 1.82902 10.0392C1.25595 9.31166 0.967702 8.44691 0.967702 7.44833C0.967702 5.8801 1.56822 4.64474 2.80702 3.73195C3.78158 3.03191 4.8934 2.66817 6.14249 2.66817C8.22544 2.66817 9.81769 3.63587 10.9261 5.5644" fill="#231F20"/>
<path d="M15.5724 2.68189L20.3594 16.5385L25.994 2.6613L31.3198 16.5385L36.5976 2.68189H38.7903L31.2512 21.7579L25.9563 7.92188L20.2805 21.7648L13.3796 2.68189H15.5724Z" fill="#231F20"/>
<path d="M43.8484 2.6613H41.7689V21.8506H43.8484V2.6613Z" fill="#231F20"/>
<path d="M58.5732 5.55754L56.9467 6.63162C56.5829 6.05855 56.2638 5.65019 55.9893 5.39625C55.3888 4.86093 54.6544 4.5967 53.7622 4.5967C52.8151 4.5967 52.0601 4.90897 51.4905 5.52322C50.962 6.07913 50.6978 6.73799 50.6978 7.47235C50.6978 8.2719 51.0856 8.94105 51.8577 9.46265C52.1974 9.68913 52.4959 9.87444 52.7705 10.0014C53.0381 10.1352 53.8068 10.4715 55.0696 11.0274C56.5795 11.6932 57.6467 12.4138 58.2438 13.1619C58.9267 13.9957 59.2664 14.9943 59.2664 16.1508C59.2664 17.8631 58.6213 19.2975 57.3242 20.423C56.2329 21.3839 54.9083 21.854 53.3779 21.854C51.8474 21.854 50.6772 21.4319 49.6786 20.5912C48.6835 19.7573 48.0109 18.5837 47.654 17.0567L49.6649 16.5008C49.8434 17.3312 50.1042 17.9798 50.413 18.4121C51.1302 19.4142 52.1528 19.9186 53.4534 19.9186C54.524 19.9186 55.4196 19.5274 56.1437 18.7828C56.8437 18.0793 57.1766 17.2386 57.1766 16.2571C57.1766 15.1384 56.6584 14.2703 55.6358 13.6286C55.176 13.3163 54.071 12.7844 52.3587 12.026C50.9964 11.3878 50.0287 10.7358 49.4796 10.0392C48.8962 9.31166 48.6046 8.44691 48.6046 7.44833C48.6046 5.8801 49.2291 4.64474 50.4576 3.73195C51.4253 3.03191 52.5406 2.66817 53.7931 2.66817C55.876 2.66817 57.4648 3.63587 58.5767 5.5644" fill="#231F20"/>
<path d="M72.9549 5.55754L71.3249 6.63162C70.9646 6.05855 70.6386 5.65019 70.3572 5.39625C69.7773 4.86093 69.0326 4.5967 68.1541 4.5967C67.2002 4.5967 66.4384 4.90897 65.8619 5.52322C65.3437 6.07913 65.0795 6.73799 65.0795 7.47235C65.0795 8.2719 65.4638 8.94105 66.2325 9.46265C66.5688 9.68913 66.8845 9.87444 67.1487 10.0014C67.4129 10.1352 68.1782 10.4715 69.4513 11.0274C70.9612 11.6932 72.0181 12.4138 72.6289 13.1619C73.3049 13.9957 73.6446 14.9943 73.6446 16.1508C73.6446 17.8631 73.0029 19.2975 71.7058 20.423C70.6146 21.3839 69.29 21.854 67.7492 21.854C66.2084 21.854 65.052 21.4319 64.0569 20.5912C63.0548 19.7573 62.3926 18.5837 62.0357 17.0567L64.0466 16.5008C64.225 17.3312 64.4721 17.9798 64.7912 18.4121C65.5256 19.4142 66.5344 19.9186 67.8316 19.9186C68.9057 19.9186 69.7944 19.5274 70.5219 18.7828C71.2082 18.0793 71.5582 17.2386 71.5582 16.2571C71.5582 15.1384 71.0401 14.2703 70.0209 13.6286C69.5508 13.3163 68.4561 12.7844 66.73 12.026C65.3643 11.3878 64.4035 10.7358 63.8544 10.0392C63.2779 9.31166 62.9896 8.44691 62.9896 7.44833C62.9896 5.8801 63.5936 4.64474 64.8324 3.73195C65.8104 3.03191 66.9256 2.66817 68.1713 2.66817C70.2611 2.66817 71.8431 3.63587 72.9515 5.5644" fill="#231F20"/>
<path d="M76.9733 21.7648V2.6613H84.358C86.1527 2.6613 87.4841 3.11427 88.3866 3.99618C89.2788 4.87809 89.7386 6.10315 89.7386 7.65422C89.7386 8.62191 89.5739 9.39401 89.2548 10.022C88.9254 10.6397 88.3935 11.151 87.6385 11.5833C88.867 11.8304 89.7592 12.2182 90.298 12.7707C91.1216 13.6148 91.5368 14.809 91.5368 16.3566C91.5368 17.9043 91.022 19.1534 89.9788 20.1314C88.8087 21.2295 87.1341 21.7682 84.9413 21.7682H76.9767L76.9733 21.7648ZM81.9456 10.1798H82.8515C83.603 10.1798 84.1967 10.0289 84.581 9.72001C84.9928 9.38372 85.1918 8.92732 85.1918 8.33366C85.1918 7.74 84.9928 7.25272 84.605 6.93702C84.1967 6.61445 83.6133 6.46003 82.8515 6.46003H81.9456V10.1798ZM81.9456 17.9077H83.0471C84.1521 17.9077 84.9619 17.7876 85.4938 17.5646C85.7992 17.4136 86.0497 17.1974 86.2213 16.8885C86.4135 16.5866 86.4924 16.2537 86.4924 15.8694C86.4924 15.1076 86.1938 14.5585 85.5556 14.2222C85.2742 14.0815 84.9722 13.9923 84.6462 13.9443C84.3271 13.8962 83.7643 13.8722 82.9682 13.8722H81.9421V17.9043L81.9456 17.9077Z" fill="#231F20"/>
<path d="M104.577 13.9443L110.582 21.7648H104.395L99.6627 14.4281V21.7648H94.6938V2.6613H102.425C103.492 2.6613 104.402 2.80886 105.157 3.07995C105.912 3.34418 106.57 3.7594 107.113 4.34276C108.204 5.50606 108.746 6.91643 108.746 8.57387C108.746 9.41804 108.598 10.2073 108.283 10.9657C107.96 11.7275 107.545 12.3314 107.017 12.8084C106.419 13.3129 105.599 13.7006 104.577 13.9443ZM99.6627 11.2299H100.582C101.529 11.2299 102.236 11.0446 102.72 10.7117C102.981 10.5161 103.194 10.2416 103.372 9.89502C103.551 9.55187 103.633 9.20871 103.633 8.85526C103.633 8.50181 103.551 8.16209 103.372 7.81207C103.19 7.46548 102.978 7.18409 102.72 6.99879C102.233 6.6625 101.529 6.48749 100.582 6.48749H99.6627V11.2299Z" fill="#231F20"/>
<path d="M124.284 18.4396H117.424L116.117 21.7648H110.867L118.21 2.6613H123.622L130.821 21.7648H125.513L124.284 18.4396ZM122.949 14.6615L120.88 8.57387L118.807 14.6615H122.946H122.949Z" fill="#231F20"/>
<path d="M133.017 21.7648V2.6613H137.99L147.131 14.356V2.6613H152.097V21.7648H147.131L137.99 10.07V21.7648H133.017Z" fill="#231F20"/>
<path d="M156.105 21.7648V2.6613H163.442C165.823 2.6613 167.916 3.52262 169.728 5.20065C170.754 6.15463 171.537 7.27674 172.099 8.56358C172.6 9.77149 172.858 10.9794 172.858 12.2148C172.858 14.0266 172.34 15.7355 171.324 17.3381C170.291 18.9303 168.946 20.1314 167.299 20.9035C166.056 21.48 164.766 21.7682 163.442 21.7682H156.105V21.7648ZM161.067 17.5851H162.196C163.147 17.5851 163.925 17.4479 164.574 17.2008C165.216 16.94 165.779 16.5419 166.273 15.986C167.192 14.9463 167.659 13.6972 167.659 12.2148C167.659 10.7323 167.192 9.49696 166.273 8.46749C165.775 7.90472 165.216 7.4998 164.574 7.24243C163.925 6.99536 163.143 6.86153 162.196 6.86153H161.067V17.5851Z" fill="#231F20"/>
<path d="M194.182 6.93359L194.188 2.19118H183.695V6.93359L178.956 6.91986V17.4136H183.695V22.156H194.178V17.4239L198.92 17.4307V6.93702H194.188L194.182 6.93359Z" fill="#C32026"/>
<path d="M200.993 4.44914H196.659V0.0979309H181.203V4.44914H176.862V19.898H181.2V24.2321H196.652V19.898H200.997V4.44914H200.993ZM193.615 16.8679V21.2157H184.237V16.8679H179.899V7.48264H184.24V3.13143H193.626V7.48264H197.967V16.8645H193.619L193.615 16.8679Z" fill="#231F20"/>
<path d="M195.105 10.2828H190.829V6.00365H187.037V10.2828H182.758V14.0747H187.037V18.3504H190.829V14.0747H195.105V10.2828Z" fill="#231F20"/>
</g>
<defs>
<clipPath id="clip0_2_41">
<rect width="201" height="24.1341" fill="white" transform="translate(0 0.0979309)"/>
</clipPath>
</defs>
</svg>
