<svg width="54" height="54" viewBox="0 0 54 54" fill="none" xmlns="http://www.w3.org/2000/svg">
<g clip-path="url(#clip0_6_40)">
<path d="M47.9746 36.3315H45.4143V33.7257C45.4143 33.283 45.0555 32.9243 44.6128 32.9243C44.1701 32.9243 43.8114 33.283 43.8114 33.7257V36.3315H41.4228C40.9801 36.3315 40.6213 36.6902 40.6213 37.1329C40.6213 37.5756 40.9801 37.9343 41.4228 37.9343H43.8114V40.2771C43.8114 40.7198 44.1701 41.0785 44.6128 41.0785C45.0555 41.0785 45.4143 40.7198 45.4143 40.2771V37.9343H47.9746C48.4173 37.9343 48.776 37.5756 48.776 37.1329C48.776 36.6902 48.4173 36.3315 47.9746 36.3315Z" fill="white"/>
<path d="M19.2343 29.9202H4.80857C4.36586 29.9202 4.00714 30.2789 4.00714 30.7216C4.00714 31.1643 4.36586 31.523 4.80857 31.523H19.2343C19.677 31.523 20.0357 31.1643 20.0357 30.7216C20.0357 30.2789 19.677 29.9202 19.2343 29.9202Z" fill="white"/>
<path d="M13.8914 32.5916H4.80857C4.36586 32.5916 4.00714 32.9503 4.00714 33.393C4.00714 33.8357 4.36586 34.1944 4.80857 34.1944H13.8914C14.3341 34.1944 14.6929 33.8357 14.6929 33.393C14.6929 32.9503 14.3341 32.5916 13.8914 32.5916Z" fill="white"/>
<path d="M47.5514 29.0931V24.0429V17.0972V13.4853C47.5514 11.7846 46.4523 10.6858 44.7514 10.6858H3.33431C1.69523 10.6858 0 11.733 0 13.4853V17.0972V24.0429V37.272C0 38.9544 1.65163 40.6058 3.33431 40.6058H37.1039C38.4573 43.446 41.3484 45.4185 44.6987 45.4185C49.3398 45.4185 53.1155 41.6428 53.1155 37.0017C53.1155 33.3632 50.7905 30.2655 47.5514 29.0931ZM45.9486 22.4401H1.60286V18.7001H45.9486V22.4401ZM1.60286 13.4853C1.60286 12.7462 2.50157 12.2886 3.33431 12.2886H44.7514C45.557 12.2886 45.9486 12.68 45.9486 13.4853V17.0972H1.60286V13.4853ZM3.33431 39.0029C2.52535 39.0029 1.60286 38.0807 1.60286 37.272V24.0429H45.9486V28.6879C45.5395 28.6266 45.1244 28.5846 44.6987 28.5846C40.0576 28.5846 36.2816 32.3606 36.2816 37.0017C36.2816 37.6923 36.3745 38.3601 36.532 39.0029H3.33431ZM44.6987 43.8157C40.9412 43.8157 37.8844 40.7589 37.8844 37.0017C37.8844 33.2442 40.9412 30.1875 44.6987 30.1875C48.4559 30.1875 51.5127 33.2442 51.5127 37.0017C51.5127 40.7589 48.4559 43.8157 44.6987 43.8157Z" fill="white"/>
</g>
<defs>
<clipPath id="clip0_6_40">
<rect width="53.4286" height="53.4286" fill="white"/>
</clipPath>
</defs>
</svg>
