<svg width="54" height="54" viewBox="0 0 54 54" fill="none" xmlns="http://www.w3.org/2000/svg">
<path d="M49.5159 21.3715H48.0857V13.5565C48.0857 13.1673 47.8608 12.9884 47.5618 12.8637C47.3594 12.8156 47.4064 12.8229 47.2436 12.8229H43.8114V7.52496C43.8114 7.08407 43.4394 6.59467 42.9985 6.59205L34.0654 6.41151C34.0639 6.41151 34.0628 6.41151 34.0612 6.41151C34.0362 6.41151 33.8943 6.423 33.8698 6.42508L30.6421 2.99657C30.4188 2.75604 30.0724 2.70752 29.764 2.82646L20.0926 6.58996C4.10208 6.51794 4.03374 6.54872 3.89601 6.5952L3.83076 6.61342C0.952728 7.12949 0.534286 9.11788 0.534286 10.2548V42.7127C0.534286 43.1551 0.870822 43.2772 1.31327 43.2772H47.529C47.9714 43.2772 48.0857 43.1551 48.0857 42.7127V33.1258H49.5159C51.3911 33.1258 52.8943 31.5 52.8943 29.5533V25.1569C52.8943 23.2107 51.3911 21.3715 49.5159 21.3715ZM42.2086 8.32222V12.8229H39.4923L35.4857 8.37854L42.2086 8.32222ZM29.8349 4.73663L37.3092 12.8229H8.96076L29.8349 4.73663ZM4.09898 8.19592C4.14018 8.18865 4.17671 8.18133 4.20904 8.17455C4.61237 8.16151 7.13773 8.24865 15.9999 8.28413L4.52421 12.8229H3.98417C3.98731 12.8229 3.25582 12.7353 2.73505 12.2339C2.35106 11.8629 2.13714 11.182 2.13714 10.4072V10.2548C2.13714 10.235 2.12148 10.2162 2.12046 10.1969C2.1413 9.05842 2.74392 8.43854 4.09898 8.19592ZM46.4829 41.6744H2.13714V13.6807C2.67143 14.19 3.7285 14.4258 3.96749 14.4258C3.9988 14.4258 3.98833 14.4258 3.9988 14.4258H39.1364C39.138 14.4258 39.1401 14.4258 39.1417 14.4258H39.1448H46.4829V21.3715H38.0386C36.1639 21.3715 34.7286 23.2107 34.7286 25.1569V29.5533C34.7286 31.5 36.1639 33.1258 38.0386 33.1258H46.4829V41.6744ZM51.2914 29.5533C51.2914 30.6161 50.5072 31.5229 49.5159 31.5229H38.0386C37.0473 31.5229 36.3314 30.6161 36.3314 29.5533V25.1569C36.3314 24.0946 37.0473 22.9744 38.0386 22.9744H49.5159C50.5072 22.9744 51.2914 24.0946 51.2914 25.1569V29.5533Z" fill="white"/>
<path d="M40.5561 25.9412C39.774 25.9412 39.1417 26.5746 39.1417 27.3551C39.1417 28.1362 39.774 28.7697 40.5561 28.7697C41.3367 28.7697 41.9707 28.1362 41.9707 27.3551C41.9707 26.5746 41.3367 25.9412 40.5561 25.9412Z" fill="white"/>
</svg>
