<svg width="54" height="54" viewBox="0 0 54 54" fill="none" xmlns="http://www.w3.org/2000/svg">
<path d="M52.6725 29.1884L47.1223 19.6026C46.9796 19.3527 46.6558 19.2342 46.3681 19.2342H36.3314V7.78152C36.3314 6.36828 35.1689 5.34277 33.5671 5.34277H3.50677C2.06564 5.34277 0.534271 6.19742 0.534271 7.78152V39.2238C0.534271 40.5814 1.89451 42.7428 3.50677 42.7428H8.08079C8.3023 46.0607 11.0648 48.694 14.4377 48.694C17.8106 48.694 20.5731 46.0607 20.7946 42.7428H33.5671C33.6211 42.7428 33.6762 42.7331 33.7304 42.7287C33.9407 46.0575 36.7081 48.7034 40.0891 48.7034C43.6025 48.7034 46.4607 45.8478 46.4667 42.3355C46.565 42.3382 46.6728 42.3486 46.768 42.3486C51.5745 42.3486 52.6999 39.2418 52.743 39.1009C52.7662 39.0249 52.8943 38.9459 52.8943 38.8666V29.5857C52.8943 29.4464 52.7417 29.3094 52.6725 29.1884ZM14.4377 47.0912C11.8044 47.0912 9.66201 44.9488 9.66201 42.3155C9.66201 39.6819 11.8044 37.5395 14.4377 37.5395C17.0711 37.5395 19.2134 39.6819 19.2134 42.3155C19.2134 44.9488 17.0711 47.0912 14.4377 47.0912ZM20.703 41.1399C20.1492 38.1831 17.5529 35.9366 14.4377 35.9366C11.3225 35.9366 8.72621 38.1831 8.17237 41.1399H3.50677C3.0351 41.1399 2.13713 39.9944 2.13713 39.2238V7.78152C2.13713 7.21122 2.95448 6.94563 3.50677 6.94563H33.5671C33.6861 6.94563 34.7286 6.96909 34.7286 7.78152V38.4685C34.7286 38.5781 34.7507 38.6827 34.7906 38.7779C34.3323 39.4601 34.0028 40.2354 33.8355 41.069C33.7369 41.1118 33.6438 41.1399 33.5671 41.1399H20.703ZM40.0891 47.1006C37.4556 47.1006 35.313 44.9582 35.313 42.3248C35.313 39.6912 37.4556 37.5489 40.0891 37.5489C42.7222 37.5489 44.8643 39.6912 44.8643 42.3248C44.8643 44.9582 42.7222 47.1006 40.0891 47.1006ZM51.2914 38.7171C50.7571 39.1567 49.9596 40.9041 46.3727 40.7272C45.661 37.982 43.1117 35.946 40.1473 35.946C38.7417 35.946 37.3869 36.4085 36.3314 37.1818V20.8371H45.9027L51.2914 29.7984V38.7171Z" fill="white"/>
<path d="M25.5826 17.9291L16.219 27.294L11.8174 22.8953C11.5043 22.5827 10.9969 22.5822 10.6839 22.8958C10.3711 23.2089 10.3711 23.7163 10.6844 24.0291L15.6529 28.9942C15.8092 29.1505 16.0142 29.2287 16.2193 29.2287C16.4243 29.2287 16.6296 29.1505 16.7859 28.9939L26.7158 19.0624C27.0289 18.7494 27.0289 18.2419 26.7158 17.9291C26.4028 17.6161 25.8951 17.6161 25.5826 17.9291Z" fill="white"/>
</svg>
