<svg width="43" height="43" viewBox="0 0 43 43" fill="none" xmlns="http://www.w3.org/2000/svg">
<g clip-path="url(#clip0_6_58)">
<path d="M40.0873 42.0245L35.2512 32.1936C35.1435 31.9743 34.9201 31.8355 34.676 31.8355H30.7749C30.4209 31.8355 30.1337 32.1225 30.1337 32.4766C30.1337 32.8308 30.4209 33.1178 30.7749 33.1178H34.2769L38.4823 41.6663H4.29138L8.89794 32.6647L12.6458 32.7333C12.9911 32.7373 13.292 32.458 13.2987 32.1039C13.3049 31.7499 13.0232 31.4575 12.6692 31.4513L8.52099 31.3755C8.28266 31.3686 8.05019 31.5066 7.9387 31.7244L2.67266 42.0155C2.5708 42.2142 2.57999 42.4515 2.69646 42.642C2.81294 42.8324 3.01994 42.9486 3.24327 42.9486H39.5121C39.7338 42.9486 39.9395 42.8343 40.0564 42.6464C40.1733 42.4584 40.1849 42.2232 40.0873 42.0245Z" fill="white"/>
<path d="M21.6194 18.9254C24.2703 18.9254 26.4271 16.7685 26.4271 14.1173C26.4271 11.4661 24.2703 9.30933 21.6194 9.30933C18.968 9.30933 16.8112 11.4661 16.8112 14.1173C16.8112 16.7685 18.968 18.9254 21.6194 18.9254ZM21.6194 10.5916C23.5632 10.5916 25.1448 12.1732 25.1448 14.1173C25.1448 16.0614 23.5632 17.6432 21.6194 17.6432C19.6751 17.6432 18.0935 16.0614 18.0935 14.1173C18.0935 12.1732 19.6751 10.5916 21.6194 10.5916Z" fill="white"/>
<path d="M20.8926 34.6748C20.8947 34.6767 20.8977 34.6773 20.8997 34.6792C20.9106 34.6934 20.9147 34.7107 20.9273 34.7243C21.0537 34.8604 21.2249 34.929 21.3969 34.929C21.5534 34.929 21.7099 34.899 21.8335 34.7842C22.1348 34.5041 29.2467 27.8967 31.9257 23.3029C35.1476 17.778 35.7533 12.1351 33.6308 7.31645C31.5796 2.65961 27.8767 0.633301 21.6235 0.633301C21.6218 0.633301 21.6206 0.633301 21.6194 0.633301C21.5434 0.633301 21.4716 0.643303 21.404 0.659588C21.3364 0.643303 21.2646 0.633301 21.1886 0.633301C21.1873 0.633301 21.1861 0.633301 21.1844 0.633301C14.9312 0.633301 11.2283 2.65961 9.17717 7.31645C7.05508 12.1353 7.66074 17.7248 10.8823 23.2494C13.5617 27.8435 20.5946 34.3981 20.8926 34.6748ZM10.3509 7.75306C12.1946 3.56623 15.4371 1.7912 21.1928 1.7553C21.2984 1.75466 21.396 1.73111 21.4833 1.69208C21.5258 1.69811 21.5701 1.70166 21.6152 1.70187C27.3708 1.73778 30.6133 3.53952 32.457 7.72635C33.8387 10.8626 34.6756 15.9892 30.8178 22.6035C28.606 26.3963 23.0118 31.8632 21.4023 33.3998C19.9155 31.9857 14.2378 26.4714 11.9901 22.6166C8.1328 16.0026 8.96974 10.8893 10.3509 7.75306Z" fill="white"/>
</g>
<defs>
<clipPath id="clip0_6_58">
<rect width="42.7429" height="42.7429" fill="white" transform="translate(0 0.205811)"/>
</clipPath>
</defs>
</svg>
