<svg xmlns="http://www.w3.org/2000/svg" xmlns:xlink="http://www.w3.org/1999/xlink" width="70" height="70" viewBox="0 0 70 70"><defs><style>.a{fill:#fff;stroke:#707070;}.b{clip-path:url(#a);}.c{fill:#1e398d;}</style><clipPath id="a"><rect class="a" width="70" height="70" transform="translate(646 3908)"/></clipPath></defs><g class="b" transform="translate(-646 -3908)"><g transform="translate(650.272 3908)"><path class="c" d="M61.375,5.143S49.058,7.992,44.126,0h0a16.476,16.476,0,0,1-13.4,7.438A16.507,16.507,0,0,1,17.329,0h0C12.4,7.992.079,5.143.079,5.143-1.714,56.575,30.7,70,30.7,70h.053S63.2,56.575,61.375,5.143ZM30.754,67.02H30.7s-25.426-10-28.222-51.643L30.727,43.862,58.975,15.377C56.179,57.05,30.754,67.02,30.754,67.02ZM59.213,7.86l-28.485,28.8L2.242,7.86h0S11.9,9.6,17.355,3.376c3.983,4.009,7.965,6.383,13.372,6.383h.026c5.407,0,9.363-2.374,13.372-6.383,5.433,6.2,15.087,4.457,15.087,4.484Z"/><path class="c" d="M15.456,13.953H29.013V11.368H9.39L29.066,32.653v-3.8Z"/><path class="c" d="M39.537,25.32l12.95-13.979H31.835V32.389l2.638-2.532V18.674H42.28l-4.695,4.959ZM34.472,13.953H46.447L44.02,16.564H34.472V13.953Z"/><path class="c" d="M26.824,58.79a63.407,63.407,0,0,1-15.3-21.971L8.493,34.868C14.216,50.72,23.606,59.687,29.145,63.7V46.1l-2.321-2.453Z"/><path class="c" d="M45.6,48.5s2.427-4.246.87-6.277c0,0-1.266-1.794-3.482.026a46.161,46.161,0,0,0-6.066,6.356s-.95,1.5-1.978,1.4c0,0-1-.237-.448-1.609a35.241,35.241,0,0,1,9.1-9.812l.053-2.743a39.409,39.409,0,0,0-10.735,11s-1.345,2.585-.4,4.721a2.526,2.526,0,0,0,3.139,1.187s.712-.026,2.506-2.216l4.853-5.7s1.4-1.319,1.583.422a6.462,6.462,0,0,1-1.451,3.218s-5.381,8.15-11.13,11.605v2.928C32.02,62.984,42.913,54.412,45.6,48.5Z"/></g></g></svg>