<svg xmlns="http://www.w3.org/2000/svg" width="19.2" height="19.2" viewBox="0 0 19.2 19.2"><defs><style>.a{fill:#434343;}</style></defs><g transform="translate(-202.4 -638.884)"><path class="a" d="M37.4,1264.846l-.007.06c-1.759-.877-1.943-.994-2.17-.653-.158.236-.617.771-.756.93s-.279.168-.516.06a6.494,6.494,0,0,1-1.923-1.188A7.278,7.278,0,0,1,30.7,1262.4c-.234-.405.256-.463.7-1.307a.442.442,0,0,0-.02-.42c-.06-.12-.538-1.3-.738-1.764s-.389-.408-.537-.408a1.191,1.191,0,0,0-1.1.275c-1.291,1.419-.965,2.883.139,4.44,2.172,2.841,3.328,3.364,5.443,4.091a3.32,3.32,0,0,0,1.5.1,2.461,2.461,0,0,0,1.613-1.141,1.98,1.98,0,0,0,.144-1.14C37.8,1265.014,37.645,1264.954,37.4,1264.846Z" transform="translate(179 -614.963)"/><path class="a" d="M41,1262.893a7.964,7.964,0,0,1-12.009,6.8l-.288-.171-3,.78.8-2.916-.191-.3a7.934,7.934,0,0,1,12.357-9.788A7.83,7.83,0,0,1,41,1262.893Zm-1.185-6.733a9.6,9.6,0,0,0-16.335,6.755,9.469,9.469,0,0,0,1.276,4.756L23.4,1272.6l5.068-1.322a9.576,9.576,0,0,0,14.132-8.359,9.433,9.433,0,0,0-2.8-6.728Z" transform="translate(179 -614.517)"/></g></svg>