<?xml version="1.0" encoding="utf-8"?>
<!-- Generator: Adobe Illustrator 26.3.1, SVG Export Plug-In . SVG Version: 6.00 Build 0)  -->
<svg version="1.1" id="Capa_1" xmlns="http://www.w3.org/2000/svg" xmlns:xlink="http://www.w3.org/1999/xlink" x="0px" y="0px"
	 viewBox="0 0 129.6 67.47" style="enable-background:new 0 0 129.6 67.47;" xml:space="preserve">
<style type="text/css">
	.st0{fill:#FFFFFF;}
	.st1{fill:#3C3C3B;}
	.st2{fill:#3C3C3B;stroke:#3C3C3B;stroke-miterlimit:10;}
</style>
<g>
	<path class="st0" d="M1.7,14.68c-0.94,0-1.7,0.76-1.7,1.7v11.27c0,0.94,0.76,1.7,1.7,1.7h97.33v-0.18H1.7
		c-0.84,0-1.52-0.68-1.52-1.52V16.38c0-0.84,0.68-1.52,1.52-1.52h4.93c0.84,0,1.52,0.68,1.52,1.52l0,6.27h4.78v-0.18h-4.6v-6.09
		c0-0.94-0.76-1.7-1.7-1.7H4.22V1.82c0-0.84,0.68-1.52,1.52-1.52h35.87V0.11H5.74c-0.94,0-1.7,0.76-1.7,1.7v12.86H1.7z"/>
	<g>
		<path class="st1" d="M99.14,29.47H1.7c-1,0-1.82-0.81-1.82-1.81V16.38c0-1,0.81-1.82,1.82-1.82h2.22V1.82c0-1,0.81-1.82,1.81-1.82
			h35.98v0.41H5.74c-0.78,0-1.41,0.63-1.41,1.41v12.75h2.3c1,0,1.82,0.81,1.82,1.82v5.97h4.6v0.41H8.04l0-6.38
			c0-0.78-0.63-1.41-1.41-1.41H1.7c-0.78,0-1.41,0.63-1.41,1.41v11.27c0,0.78,0.63,1.41,1.41,1.41h97.44V29.47z"/>
	</g>
	<path class="st0" d="M97.6,58.42h30.18c0.94,0,1.7-0.76,1.7-1.7V45.45c0-0.94-0.76-1.7-1.7-1.7h-2.33V30.88
		c0-0.94-0.76-1.7-1.7-1.7H62.63v0.18h61.11c0.84,0,1.52,0.68,1.52,1.52v12.86h-2.41c-0.94,0-1.7,0.76-1.7,1.7v6.09h-4.6v0.18h4.78
		l0-6.27c0-0.84,0.68-1.52,1.52-1.52h4.93c0.84,0,1.52,0.68,1.52,1.52v11.27c0,0.84-0.68,1.52-1.52,1.52H97.6V58.42z"/>
	<g>
		<path class="st1" d="M127.78,58.53H97.49v-0.41h30.29c0.78,0,1.41-0.63,1.41-1.41V45.45c0-0.78-0.63-1.41-1.41-1.41h-4.93
			c-0.78,0-1.41,0.63-1.41,1.41l0,6.38h-5.01v-0.41h4.6v-5.97c0-1,0.81-1.82,1.81-1.82h2.3V30.88c0-0.78-0.63-1.41-1.41-1.41H62.52
			v-0.41h61.22c1,0,1.82,0.81,1.82,1.82v12.75h2.22c1,0,1.81,0.81,1.81,1.82v11.27C129.6,57.72,128.78,58.53,127.78,58.53z"/>
	</g>
	<path class="st1" d="M118.98,11.29c1.46,0,2.69,0.51,3.7,1.53c1.01,1.02,1.52,2.24,1.52,3.68c0,1.43-0.51,2.66-1.53,3.69
		c-1.02,1.02-2.25,1.54-3.7,1.54c-1.45,0-2.68-0.51-3.7-1.54c-1.02-1.02-1.53-2.25-1.53-3.69c0-1.43,0.51-2.66,1.53-3.68
		C116.3,11.8,117.53,11.29,118.98,11.29 M118.98,20.08c0.97,0,1.77-0.35,2.42-1.04c0.64-0.69,0.97-1.54,0.97-2.55
		c0-1.01-0.32-1.86-0.97-2.54c-0.64-0.69-1.45-1.03-2.42-1.03c-0.96,0-1.77,0.35-2.42,1.03c-0.65,0.69-0.98,1.54-0.98,2.54
		c0,1,0.32,1.85,0.97,2.55C117.19,19.73,118,20.08,118.98,20.08"/>
	<path class="st1" d="M118.98,11.63c-1.37,0-2.5,0.47-3.46,1.42c-0.96,0.96-1.43,2.08-1.43,3.43s0.47,2.48,1.43,3.44
		c0.96,0.96,2.09,1.43,3.46,1.43c1.37,0,2.49-0.47,3.45-1.43c0.96-0.97,1.42-2.09,1.42-3.44c0-1.35-0.46-2.47-1.42-3.43
		C121.48,12.1,120.35,11.63,118.98,11.63 M118.98,20.43c-1.07,0-1.97-0.39-2.68-1.16c-0.7-0.76-1.06-1.7-1.06-2.79
		c0-1.09,0.36-2.02,1.07-2.78c0.72-0.76,1.61-1.14,2.67-1.14c1.06,0,1.96,0.38,2.67,1.14c0.7,0.75,1.06,1.68,1.06,2.78
		c0,1.1-0.36,2.04-1.06,2.79C120.94,20.04,120.04,20.43,118.98,20.43"/>
	<path class="st1" d="M38.96,51.24c-0.78,0-1.58-0.16-2.41-0.49c-0.82-0.33-1.53-0.76-2.11-1.28l1.1-1.34
		c1.1,0.99,2.25,1.48,3.44,1.48c0.78,0,1.4-0.19,1.86-0.58c0.46-0.39,0.69-0.91,0.69-1.58c0-0.49-0.2-0.92-0.59-1.29
		c-0.39-0.36-1.08-0.74-2.07-1.12c-1.67-0.65-2.74-1.3-3.21-1.95c-0.47-0.65-0.71-1.4-0.71-2.26c0-1.01,0.41-1.86,1.22-2.54
		c0.82-0.68,1.83-1.02,3.05-1.02c1.33,0,2.59,0.38,3.78,1.15l-0.86,1.47c-1.03-0.66-2.02-0.99-2.99-0.99
		c-0.71,0-1.28,0.18-1.73,0.53c-0.45,0.35-0.67,0.81-0.67,1.37c0,0.56,0.18,1.02,0.54,1.38c0.36,0.35,0.98,0.7,1.84,1.05
		c1.81,0.73,2.95,1.4,3.44,2.01c0.48,0.62,0.73,1.34,0.73,2.17c0,1.15-0.42,2.07-1.25,2.77C41.2,50.89,40.17,51.24,38.96,51.24"/>
	<path class="st1" d="M34.76,49.44c0.53,0.44,1.16,0.81,1.88,1.1c0.79,0.32,1.57,0.48,2.32,0.48c1.15,0,2.14-0.33,2.93-0.99
		c0.79-0.66,1.17-1.5,1.17-2.6c0-0.78-0.23-1.46-0.68-2.03c-0.46-0.58-1.58-1.24-3.35-1.94c-0.9-0.36-1.53-0.72-1.91-1.09
		c-0.41-0.4-0.61-0.91-0.61-1.54c0-0.63,0.25-1.15,0.76-1.55c0.49-0.38,1.11-0.58,1.87-0.58c0.95,0,1.93,0.3,2.92,0.91l0.64-1.09
		c-1.09-0.67-2.26-1-3.48-1c-1.15,0-2.13,0.32-2.9,0.97c-0.77,0.64-1.14,1.41-1.14,2.37c0,0.8,0.22,1.52,0.67,2.12
		c0.44,0.61,1.49,1.24,3.11,1.87c1.02,0.4,1.72,0.78,2.14,1.16c0.44,0.41,0.66,0.89,0.66,1.45c0,0.73-0.26,1.32-0.76,1.75
		c-0.5,0.42-1.17,0.64-2,0.64c-1.18,0-2.32-0.47-3.41-1.39L34.76,49.44z"/>
	<path class="st1" d="M55.02,37.28c1.93,0,3.58,0.68,4.93,2.05c1.35,1.36,2.03,3.01,2.03,4.93c0,1.25-0.31,2.42-0.93,3.5
		c-0.62,1.08-1.47,1.93-2.54,2.55c-1.07,0.62-2.24,0.93-3.5,0.93c-1.93,0-3.57-0.68-4.92-2.05c-1.36-1.36-2.03-3.01-2.03-4.94
		c0-1.25,0.31-2.41,0.92-3.49c0.62-1.08,1.46-1.93,2.54-2.55C52.61,37.59,53.77,37.28,55.02,37.28 M55.02,49.56
		c1.46,0,2.68-0.51,3.67-1.54c0.99-1.03,1.48-2.29,1.48-3.77c0-1.48-0.49-2.74-1.47-3.76c-0.98-1.03-2.21-1.54-3.68-1.54
		c-1.45,0-2.67,0.51-3.66,1.54c-0.99,1.03-1.49,2.28-1.49,3.76c0,1.48,0.5,2.74,1.49,3.77C52.35,49.05,53.57,49.56,55.02,49.56"/>
	<path class="st1" d="M55.02,37.5c-1.21,0-2.34,0.3-3.38,0.9c-1.04,0.6-1.86,1.43-2.45,2.47c-0.59,1.04-0.9,2.18-0.9,3.38
		c0,1.86,0.66,3.46,1.97,4.78c1.3,1.31,2.91,1.98,4.76,1.98c1.21,0,2.35-0.3,3.38-0.9c1.03-0.6,1.86-1.43,2.46-2.47
		c0.6-1.04,0.9-2.18,0.9-3.38c0-1.85-0.66-3.45-1.97-4.77C58.49,38.17,56.89,37.5,55.02,37.5 M55.02,49.79
		c-1.51,0-2.8-0.54-3.83-1.61c-1.03-1.07-1.55-2.39-1.55-3.92c0-1.54,0.52-2.86,1.55-3.92c1.03-1.07,2.32-1.61,3.83-1.61
		c1.53,0,2.82,0.54,3.84,1.61c1.02,1.06,1.54,2.38,1.54,3.92c0,1.54-0.52,2.86-1.55,3.92C57.83,49.25,56.54,49.79,55.02,49.79"/>
	<polygon class="st1" points="75.39,50.94 67.74,50.94 67.74,37.57 69.46,37.57 69.46,49.31 75.39,49.31 	"/>
	<polygon class="st1" points="67.96,50.72 75.16,50.72 75.16,49.54 69.24,49.54 69.24,37.8 67.96,37.8 	"/>
	<path class="st1" d="M86.04,37.28c1.93,0,3.58,0.68,4.93,2.05c1.35,1.36,2.03,3.01,2.03,4.93c0,1.25-0.31,2.42-0.93,3.5
		c-0.62,1.08-1.47,1.93-2.54,2.55c-1.07,0.62-2.24,0.93-3.5,0.93c-1.93,0-3.57-0.68-4.92-2.05c-1.36-1.36-2.03-3.01-2.03-4.94
		c0-1.25,0.31-2.41,0.92-3.49c0.62-1.08,1.46-1.93,2.54-2.55C83.63,37.59,84.79,37.28,86.04,37.28 M86.04,49.56
		c1.46,0,2.68-0.51,3.67-1.54c0.99-1.03,1.48-2.29,1.48-3.77c0-1.48-0.49-2.74-1.47-3.76c-0.98-1.03-2.21-1.54-3.68-1.54
		c-1.45,0-2.67,0.51-3.66,1.54c-0.99,1.03-1.49,2.28-1.49,3.76c0,1.48,0.5,2.74,1.49,3.77C83.37,49.05,84.59,49.56,86.04,49.56"/>
	<path class="st1" d="M86.04,37.5c-1.21,0-2.34,0.3-3.38,0.9c-1.04,0.6-1.86,1.43-2.45,2.47c-0.59,1.04-0.9,2.18-0.9,3.38
		c0,1.86,0.66,3.46,1.97,4.78c1.3,1.31,2.91,1.98,4.76,1.98c1.21,0,2.35-0.3,3.38-0.9c1.03-0.6,1.86-1.43,2.46-2.47
		c0.6-1.04,0.9-2.18,0.9-3.38c0-1.85-0.66-3.45-1.97-4.77C89.51,38.17,87.91,37.5,86.04,37.5 M86.04,49.79
		c-1.51,0-2.8-0.54-3.83-1.61c-1.03-1.07-1.55-2.39-1.55-3.92c0-1.54,0.52-2.86,1.55-3.92c1.03-1.07,2.32-1.61,3.83-1.61
		c1.53,0,2.82,0.54,3.84,1.61c1.02,1.06,1.54,2.38,1.54,3.92c0,1.54-0.52,2.86-1.55,3.92C88.85,49.25,87.56,49.79,86.04,49.79"/>
	<path class="st1" d="M102.12,51.24c-0.78,0-1.58-0.16-2.41-0.49c-0.82-0.33-1.53-0.76-2.11-1.28l1.1-1.34
		c1.1,0.99,2.25,1.48,3.44,1.48c0.78,0,1.4-0.19,1.86-0.58c0.46-0.39,0.69-0.91,0.69-1.58c0-0.49-0.2-0.92-0.59-1.29
		c-0.39-0.36-1.08-0.74-2.07-1.12c-1.67-0.65-2.74-1.3-3.21-1.95c-0.47-0.65-0.71-1.4-0.71-2.26c0-1.01,0.41-1.86,1.22-2.54
		c0.82-0.68,1.83-1.02,3.05-1.02c1.33,0,2.59,0.38,3.78,1.15l-0.86,1.47c-1.03-0.66-2.02-0.99-2.99-0.99
		c-0.71,0-1.28,0.18-1.73,0.53c-0.45,0.35-0.67,0.81-0.67,1.37c0,0.56,0.18,1.02,0.54,1.38c0.36,0.35,0.98,0.7,1.84,1.05
		c1.81,0.73,2.95,1.4,3.44,2.01c0.48,0.62,0.73,1.34,0.73,2.17c0,1.15-0.42,2.07-1.25,2.77C104.36,50.89,103.33,51.24,102.12,51.24"
		/>
	<path class="st1" d="M97.92,49.44c0.53,0.44,1.16,0.81,1.88,1.1c0.79,0.32,1.57,0.48,2.32,0.48c1.15,0,2.14-0.33,2.93-0.99
		c0.79-0.66,1.17-1.5,1.17-2.6c0-0.78-0.23-1.46-0.68-2.03c-0.46-0.58-1.58-1.24-3.35-1.94c-0.9-0.36-1.53-0.72-1.91-1.09
		c-0.41-0.4-0.61-0.91-0.61-1.54c0-0.63,0.25-1.15,0.76-1.55c0.49-0.38,1.12-0.58,1.87-0.58c0.95,0,1.93,0.3,2.92,0.91l0.64-1.09
		c-1.09-0.67-2.26-1-3.48-1c-1.15,0-2.13,0.32-2.9,0.97c-0.77,0.64-1.14,1.41-1.14,2.37c0,0.8,0.22,1.52,0.67,2.12
		c0.44,0.61,1.49,1.24,3.11,1.87c1.02,0.4,1.72,0.78,2.14,1.16c0.44,0.41,0.66,0.89,0.66,1.45c0,0.73-0.26,1.32-0.76,1.75
		c-0.5,0.42-1.17,0.64-2,0.64c-1.18,0-2.32-0.47-3.41-1.39L97.92,49.44z"/>
	<path class="st1" d="M25.23,17.97c0,1.28-0.28,2.26-0.84,2.92c-0.56,0.67-1.38,1-2.46,1c-1.46,0-2.61-0.64-3.44-1.91l1.29-1.04
		c0.59,0.89,1.26,1.33,2.02,1.33c0.57,0,1-0.2,1.28-0.61c0.28-0.41,0.43-1.02,0.43-1.84V8.23h1.73V17.97z"/>
	<path class="st1" d="M18.79,20.03c0.78,1.1,1.8,1.64,3.13,1.64c1.02,0,1.76-0.3,2.29-0.92c0.53-0.62,0.79-1.56,0.79-2.78V8.45
		h-1.28v9.37c0,0.87-0.15,1.52-0.47,1.97c-0.33,0.47-0.82,0.71-1.47,0.71c-0.77,0-1.47-0.41-2.06-1.23L18.79,20.03z"/>
	<path class="st1" d="M36.5,21.89c-1.51,0-2.73-0.45-3.65-1.36c-0.93-0.9-1.39-2.13-1.39-3.66V8.23h1.74v8.57
		c0,1.15,0.32,2,0.95,2.56c0.63,0.56,1.42,0.84,2.35,0.84c0.99,0,1.8-0.3,2.41-0.89c0.61-0.59,0.91-1.43,0.91-2.51V8.23h1.74v8.64
		c0,1.51-0.46,2.73-1.37,3.65C39.27,21.43,38.04,21.89,36.5,21.89"/>
	<path class="st1" d="M31.68,8.45v8.42c0,1.47,0.44,2.65,1.32,3.5c0.88,0.86,2.05,1.29,3.49,1.29c1.48,0,2.66-0.44,3.53-1.31
		c0.87-0.87,1.3-2.04,1.3-3.49V8.45h-1.29v8.34c0,1.14-0.33,2.04-0.98,2.67c-0.65,0.63-1.51,0.95-2.56,0.95
		c-0.98,0-1.83-0.3-2.5-0.9c-0.68-0.6-1.03-1.52-1.03-2.73V8.45H31.68z"/>
	<polygon class="st1" points="58.7,21.6 57.45,21.6 49.57,11.47 49.57,21.6 47.9,21.6 47.9,8.23 49.13,8.23 57.03,18.35 57.03,8.23 
		58.7,8.23 	"/>
	<polygon class="st1" points="57.56,21.38 58.47,21.38 58.47,8.45 57.25,8.45 57.25,19.01 49.02,8.45 48.12,8.45 48.12,21.38 
		49.34,21.38 49.34,10.82 	"/>
	<polygon class="st1" points="72.99,9.86 69.3,9.86 69.3,21.6 67.57,21.6 67.57,9.86 63.89,9.86 63.89,8.23 72.99,8.23 	"/>
	<polygon class="st1" points="67.8,21.38 69.08,21.38 69.08,9.64 72.76,9.64 72.76,8.45 64.11,8.45 64.11,9.64 67.8,9.64 	"/>
	<path class="st1" d="M83.27,7.94c1.93,0,3.58,0.68,4.93,2.05c1.36,1.36,2.03,3.01,2.03,4.93c0,1.25-0.31,2.42-0.93,3.5
		c-0.62,1.08-1.47,1.93-2.54,2.55c-1.07,0.62-2.24,0.93-3.5,0.93c-1.93,0-3.57-0.68-4.92-2.05c-1.36-1.36-2.03-3.01-2.03-4.94
		c0-1.25,0.31-2.41,0.93-3.49c0.62-1.08,1.46-1.93,2.54-2.55C80.86,8.25,82.02,7.94,83.27,7.94 M83.27,20.22
		c1.46,0,2.68-0.51,3.67-1.54c0.99-1.03,1.48-2.29,1.48-3.77c0-1.48-0.49-2.74-1.47-3.76c-0.98-1.03-2.21-1.54-3.68-1.54
		c-1.45,0-2.67,0.51-3.66,1.54c-0.99,1.03-1.49,2.28-1.49,3.76c0,1.48,0.5,2.74,1.49,3.77C80.6,19.71,81.82,20.22,83.27,20.22"/>
	<path class="st1" d="M83.27,8.16c-1.21,0-2.34,0.3-3.38,0.9c-1.04,0.6-1.86,1.43-2.46,2.47c-0.59,1.04-0.9,2.18-0.9,3.38
		c0,1.86,0.66,3.46,1.97,4.78c1.3,1.31,2.91,1.98,4.76,1.98c1.21,0,2.35-0.3,3.38-0.9c1.03-0.6,1.86-1.43,2.46-2.47
		c0.6-1.04,0.9-2.18,0.9-3.38c0-1.85-0.66-3.45-1.97-4.77C86.74,8.83,85.13,8.16,83.27,8.16 M83.27,20.45
		c-1.51,0-2.8-0.54-3.83-1.61c-1.03-1.07-1.55-2.39-1.55-3.92c0-1.54,0.52-2.85,1.55-3.92c1.03-1.07,2.32-1.61,3.83-1.61
		c1.53,0,2.82,0.54,3.84,1.61c1.02,1.06,1.54,2.38,1.54,3.92c0,1.54-0.52,2.86-1.55,3.92C86.08,19.9,84.79,20.45,83.27,20.45"/>
	<path class="st1" d="M99.35,21.89c-0.78,0-1.58-0.16-2.41-0.49c-0.82-0.33-1.52-0.76-2.11-1.28l1.1-1.34
		c1.1,0.99,2.25,1.48,3.44,1.48c0.78,0,1.4-0.19,1.86-0.58c0.46-0.39,0.69-0.91,0.69-1.58c0-0.49-0.2-0.92-0.59-1.29
		c-0.39-0.36-1.08-0.74-2.07-1.12c-1.67-0.65-2.74-1.3-3.21-1.95c-0.47-0.65-0.71-1.4-0.71-2.26c0-1.01,0.41-1.86,1.22-2.54
		c0.82-0.68,1.83-1.02,3.05-1.02c1.33,0,2.59,0.38,3.78,1.15l-0.86,1.47c-1.03-0.66-2.02-0.99-2.99-0.99
		c-0.71,0-1.28,0.18-1.73,0.53c-0.45,0.35-0.67,0.81-0.67,1.37s0.18,1.02,0.54,1.38c0.36,0.35,0.98,0.7,1.84,1.05
		c1.81,0.73,2.95,1.4,3.44,2.01c0.48,0.62,0.73,1.34,0.73,2.17c0,1.15-0.42,2.07-1.25,2.77C101.58,21.55,100.56,21.89,99.35,21.89"
		/>
	<path class="st1" d="M95.14,20.09c0.53,0.44,1.16,0.81,1.88,1.1c0.79,0.32,1.57,0.48,2.32,0.48c1.15,0,2.14-0.33,2.93-0.99
		c0.79-0.66,1.17-1.5,1.17-2.6c0-0.78-0.23-1.46-0.68-2.03c-0.46-0.58-1.58-1.24-3.35-1.94c-0.9-0.36-1.53-0.72-1.91-1.09
		c-0.41-0.4-0.61-0.91-0.61-1.54c0-0.63,0.25-1.15,0.76-1.55c0.48-0.38,1.11-0.58,1.87-0.58c0.95,0,1.93,0.3,2.92,0.91l0.64-1.09
		c-1.09-0.67-2.26-1-3.48-1c-1.15,0-2.13,0.32-2.9,0.97c-0.77,0.64-1.14,1.41-1.14,2.37c0,0.8,0.22,1.52,0.67,2.12
		c0.44,0.61,1.49,1.24,3.11,1.87c1.02,0.4,1.72,0.78,2.14,1.16c0.44,0.41,0.66,0.89,0.66,1.45c0,0.73-0.26,1.32-0.76,1.75
		c-0.5,0.42-1.17,0.64-2,0.64c-1.18,0-2.32-0.47-3.41-1.39L95.14,20.09z"/>
	<path class="st2" d="M125.34,66.84h-0.6c-0.11,0-0.19-0.09-0.19-0.19v-8.02c0-0.11,0.09-0.19,0.19-0.19h0.6
		c0.11,0,0.19,0.09,0.19,0.19v8.02C125.53,66.75,125.44,66.84,125.34,66.84"/>
	<g>
		<path class="st2" d="M125.34,66.95h-0.6c-0.17,0-0.31-0.14-0.31-0.31v-8.02c0-0.17,0.14-0.31,0.31-0.31h0.6
			c0.17,0,0.31,0.14,0.31,0.31v8.02C125.64,66.81,125.51,66.95,125.34,66.95z M124.74,58.54c-0.05,0-0.08,0.04-0.08,0.08v8.02
			c0,0.05,0.04,0.08,0.08,0.08h0.6c0.05,0,0.08-0.04,0.08-0.08v-8.02c0-0.05-0.04-0.08-0.08-0.08H124.74z"/>
	</g>
	<path class="st1" d="M4.63,37.8h-0.6c-0.11,0-0.19-0.09-0.19-0.19v-8.02c0-0.11,0.09-0.19,0.19-0.19h0.6
		c0.11,0,0.19,0.09,0.19,0.19v8.02C4.83,37.71,4.74,37.8,4.63,37.8"/>
	<path class="st1" d="M125.26,43.74h-2.41c-0.94,0-1.7,0.76-1.7,1.7v6.09h-4.6v0.18h4.78l0-6.27c0-0.84,0.68-1.52,1.52-1.52h4.93
		c0.84,0,1.52,0.68,1.52,1.52v11.27c0,0.84-0.68,1.52-1.52,1.52h-3.17v0.18h3.17c0.94,0,1.7-0.76,1.7-1.7V45.45
		c0-0.94-0.76-1.7-1.7-1.7H125.26z"/>
	<path class="st0" d="M1.66,14.68c-0.94,0-1.7,0.76-1.7,1.7v11.27c0,0.94,0.76,1.7,1.7,1.7h2.86v-0.18H1.66
		c-0.84,0-1.52-0.68-1.52-1.52V16.39c0-0.84,0.68-1.52,1.52-1.52h4.93c0.84,0,1.52,0.68,1.52,1.52l0,6.27h4.78v-0.18h-4.6v-6.09
		c0-0.94-0.76-1.7-1.7-1.7H4.18H1.66z"/>
	<g>
		<path class="st1" d="M4.52,29.59H1.66c-1.06,0-1.93-0.86-1.93-1.93V16.39c0-1.06,0.86-1.93,1.93-1.93h4.93
			c1.06,0,1.93,0.86,1.93,1.93v5.86h4.38c0.12,0,0.22,0.1,0.22,0.22v0.18c0,0.12-0.1,0.22-0.22,0.22H8.11
			c-0.12,0-0.22-0.1-0.22-0.22l0-6.27c0-0.72-0.58-1.3-1.3-1.3H1.66c-0.71,0-1.3,0.58-1.3,1.3v11.27c0,0.71,0.58,1.3,1.3,1.3h2.86
			c0.12,0,0.22,0.1,0.22,0.22v0.18C4.74,29.49,4.64,29.59,4.52,29.59z"/>
	</g>
</g>
</svg>
