<svg xmlns="http://www.w3.org/2000/svg" xmlns:xlink="http://www.w3.org/1999/xlink" width="116" height="56" viewBox="0 0 116 56"><defs><style>.a{fill:#fff;}.b{clip-path:url(#a);}</style><clipPath id="a"><rect class="a" width="116" height="56" transform="translate(128 148)"/></clipPath></defs><g class="b" transform="translate(-128 -148)"><g transform="translate(128 169.798)"><g transform="translate(94.098 0)"><path class="a" d="M98.537,17.344a99.034,99.034,0,0,1,16.358-5.159,194.209,194.209,0,0,0-21.212,2.309Z" transform="translate(-93.683 -12.185)"/></g><g transform="translate(83.409 6.537)"><path class="a" d="M84.413,23.106h6.533a13.889,13.889,0,0,1,4.081-3.98c-1.135-.438-2.275-.862-3.435-1.272A18.551,18.551,0,0,0,84.413,23.106Z" transform="translate(-84.413 -17.854)"/></g><g transform="translate(73.446 4.656)"><path class="a" d="M87.027,16.223c-5.824,2.083-9.067,4.345-11.254,7.133H82.99A19.616,19.616,0,0,1,91.4,17.591C90.014,17.123,87.6,16.369,87.027,16.223Z" transform="translate(-75.773 -16.223)"/></g><g transform="translate(71.732 0.268)"><path class="a" d="M90.246,12.418H74.286C90.377,15.327,98.13,19.065,110.6,24.352,109.532,23.555,92.348,13.432,90.246,12.418Z" transform="translate(-74.286 -12.418)"/></g><g transform="translate(47.563 2.657)"><path class="a" d="M58.656,14.49c-3.188,0-5.33,1.9-5.33,4.721,0,2.693,2.291,4.724,5.33,4.724,3.141,0,5.334-1.943,5.334-4.724C63.99,16.387,61.846,14.49,58.656,14.49Zm0,7.119a2.408,2.408,0,1,1,2.407-2.418A2.419,2.419,0,0,1,58.655,21.609Z" transform="translate(-53.326 -14.49)"/></g><g transform="translate(36.257 0.268)"><path class="a" d="M49.412,14.95H47.494v2.438l1.3,0a1.982,1.982,0,0,1,1.917,2.036A2.011,2.011,0,0,1,48.846,21.5H46.468v-9.08H43.522V23.941h5.3c2.345,0,4.856-1.772,4.856-4.41A4.383,4.383,0,0,0,49.412,14.95Z" transform="translate(-43.522 -12.418)"/></g><g transform="translate(12.716 2.807)"><path class="a" d="M25.97,19.11a2.061,2.061,0,0,1,2.048-2.068h2.334l-1.884,3.144h2.815l1.895-2.962v-2.6l-5.623.006a4.489,4.489,0,0,0,0,8.978h5.641V21.177H28.018A2.06,2.06,0,0,1,25.97,19.11Z" transform="translate(-23.106 -14.62)"/></g><g transform="translate(0 0.268)"><path class="a" d="M19.27,12.418H12.078V23.941h2.857V14.932l3.707,0a1.938,1.938,0,0,1,2.1,2.057,1.943,1.943,0,0,1-1.961,2.037l-2.857,0v2.4h2a2.243,2.243,0,0,1,2.492,2.558v2.464h3V23.172A2.948,2.948,0,0,0,21,20.252a3.848,3.848,0,0,0,2.778-3.831C23.78,13.949,21.439,12.418,19.27,12.418Z" transform="translate(-12.078 -12.418)"/></g><g transform="translate(59.506 0.268)"><path class="a" d="M70.365,19.142c1.983-.622,2.549-1.709,2.556-3.87V14.94H70.008v.488c0,1.448-.615,2.485-1.98,2.485H66.641v-5.5H63.683V23.941h2.958V20.348H67.7a2.118,2.118,0,0,1,2.37,2.183v1.41h2.94V22.627A3.284,3.284,0,0,0,70.365,19.142Z" transform="translate(-63.683 -12.418)"/></g><g transform="translate(24.205 2.807)"><path class="a" d="M35.933,19.11a2.06,2.06,0,0,1,2.048-2.068h2.333l-1.883,3.144h2.815l1.894-2.962v-2.6l-5.623.006a4.489,4.489,0,0,0,0,8.978h5.641V21.177H37.981A2.06,2.06,0,0,1,35.933,19.11Z" transform="translate(-33.069 -14.62)"/></g></g></g></svg>