<svg xmlns="http://www.w3.org/2000/svg" xmlns:xlink="http://www.w3.org/1999/xlink" width="82" height="39" viewBox="0 0 82 39"><defs><style>.a,.c{fill:#fff;}.a{stroke:#707070;}.b{clip-path:url(#a);}</style><clipPath id="a"><rect class="a" width="82" height="39" transform="translate(232 152)"/></clipPath></defs><g class="b" transform="translate(-232 -152)"><path class="c" d="M29.2,34.259A2.84,2.84,0,1,1,32.041,37.1,2.832,2.832,0,0,1,29.2,34.259m11.556,0A2.84,2.84,0,1,1,43.6,37.1a2.832,2.832,0,0,1-2.841-2.841m-26.788,0A2.84,2.84,0,1,1,16.809,37.1a2.831,2.831,0,0,1-2.841-2.841m-11.556,0A2.84,2.84,0,1,1,5.252,37.1a2.831,2.831,0,0,1-2.84-2.841M25.777,29.24H23.306v9.941h2.471Zm-17.7,9.941h2.471V29.24H8.074v.8a5.136,5.136,0,1,0,0,8.443Zm38.344,0h2.471V29.24H46.418v.8a5.136,5.136,0,1,0,0,8.443Zm3.385-3.23c.078,2,1.79,3.424,4.649,3.424,2.334,0,4.26-1.012,4.26-3.249,0-1.556-.875-2.471-2.9-2.86l-1.576-.311c-1.012-.194-1.712-.389-1.712-.992,0-.661.681-.953,1.537-.953,1.245,0,1.751.622,1.79,1.362h2.491c-.136-1.946-1.693-3.249-4.2-3.249-2.587,0-4.125,1.42-4.125,3.268,0,2.257,1.829,2.626,3.4,2.918l1.3.234c.934.175,1.342.447,1.342.992,0,.486-.467.972-1.576.972-1.615,0-2.14-.836-2.159-1.556Zm-30.174-10.1v4.183a5.136,5.136,0,1,0,0,8.443v.7H22.1V25.855Zm15.232,0v4.183a5.136,5.136,0,1,0,0,8.443v.7h2.471V25.855ZM6.42,22.917l1.673,2.937H19.629l-4.572-7.9Zm19.357,5.408V25.855h9.085L25.174,9.085l-8.657,4.961,6.79,11.809v2.471Zm12.762-2.471H50.095L35.154,0,26.516,4.98Z" transform="translate(243.68 152)"/></g></svg>