<svg xmlns="http://www.w3.org/2000/svg" xmlns:xlink="http://www.w3.org/1999/xlink" width="24" height="24" viewBox="0 0 24 24"><defs><style>.a{fill:#fff;stroke:#707070;}.b{clip-path:url(#a);}.c{fill:#313131;}</style><clipPath id="a"><rect class="a" width="24" height="24" transform="translate(260 1852)"/></clipPath></defs><g class="b" transform="translate(-260 -1852)"><g transform="translate(257.039 1849.039)"><path class="c" d="M6.782,4.557a.4.4,0,0,0,.4-.4v-.8a.4.4,0,0,0-.8,0v.8A.4.4,0,0,0,6.782,4.557Z"/><path d="M6.782,5.355a.4.4,0,0,0-.4.4v.8a.4.4,0,0,0,.8,0v-.8a.4.4,0,0,0-.4-.4Z"/><path class="c" d="M5.187,5.355h.8a.4.4,0,0,0,0-.8h-.8a.4.4,0,1,0,0,.8Z"/><path class="c" d="M7.58,5.355h.8a.4.4,0,1,0,0-.8h-.8a.4.4,0,0,0,0,.8Z"/><path class="c" d="M25.965,20.726a.427.427,0,1,0,.427.427A.427.427,0,0,0,25.965,20.726Z"/><path class="c" d="M12.8,5.621a.427.427,0,1,0-.426-.426A.427.427,0,0,0,12.8,5.621Z"/><path class="c" d="M20.554,9.743h1.389a.4.4,0,0,0,.4-.4V6.552a1.995,1.995,0,1,0-3.99,0v.99A2.2,2.2,0,0,0,20.554,9.743Zm-1.4-3.192a1.2,1.2,0,0,1,2.394,0V8.946h-.99a1.405,1.405,0,0,1-1.4-1.4Z"/><path class="c" d="M25.929,14.47l-4.438-.443-.667-1.667a5.755,5.755,0,0,0-1.745-2.353L18.4,9.468A5.774,5.774,0,0,0,14.911,8.21l-3.086-.051a2.175,2.175,0,0,0-1.407.481l-2.97,2.376a.82.82,0,0,0,.94,1.34l3.3-2.019,3.1.517L10.1,18.34l-4.071.3a3.829,3.829,0,0,0-1.752.576l-.9.564a.4.4,0,0,0,.186.736l7.266.477a2.149,2.149,0,0,0,1.6-.574l1.76-1.652,2.861,2.259-1.5,3a2.314,2.314,0,0,0-.135,1.747l.291.912a.4.4,0,0,0,.325.273.384.384,0,0,0,.055,0,.4.4,0,0,0,.332-.178L19.611,22a1.835,1.835,0,0,0-.229-2.31L16.6,16.91l1.958-2.938.595,1.487a1.861,1.861,0,0,0,1.89,1.172l4.866-.389a.89.89,0,0,0,.017-1.772Zm-6.982,7.086-2.73,4.1-.039-.122a1.518,1.518,0,0,1,.089-1.148l1.644-3.289a.4.4,0,0,0-.11-.492l-3.385-2.674a.4.4,0,0,0-.52.022l-2.011,1.887a1.341,1.341,0,0,1-1,.359l-6.029-.4a3.035,3.035,0,0,1,1.231-.364l4.272-.314a.4.4,0,0,0,.309-.186l1.291-2.058,3.982.5,2.879,2.879a1.036,1.036,0,0,1,.129,1.3Zm6.9-6.11-4.866.389a1.073,1.073,0,0,1-1.085-.673l-.876-2.191a.4.4,0,0,0-.7-.073l-2.442,3.664-3.45-.431,3.362-5.36a.4.4,0,0,0-.272-.606l-3.841-.64a.4.4,0,0,0-.274.053l-3.43,2.1-.026-.037,2.97-2.376a1.357,1.357,0,0,1,.9-.306l3.086.051a4.974,4.974,0,0,1,3.009,1.083l.674.539a4.956,4.956,0,0,1,1.5,2.026l.757,1.892a.4.4,0,0,0,.331.249l4.679.468a.092.092,0,0,1,0,.183Z"/></g></g></svg>