<svg xmlns="http://www.w3.org/2000/svg" xmlns:xlink="http://www.w3.org/1999/xlink" width="24" height="24" viewBox="0 0 24 24"><defs><style>.a{fill:#fff;stroke:#707070;}.b{clip-path:url(#a);}.c{fill:#313131;}</style><clipPath id="a"><rect class="a" width="24" height="24" transform="translate(136 1852)"/></clipPath></defs><g class="b" transform="translate(-136 -1852)"><g transform="translate(132.742 1848.742)"><path class="c" d="M25.223,5.3a.407.407,0,0,0,.407-.407V4.077a.407.407,0,0,0-.814,0V4.89A.407.407,0,0,0,25.223,5.3Z"/><path class="c" d="M25.223,6.111a.407.407,0,0,0-.407.407v.814a.407.407,0,0,0,.814,0V6.518a.407.407,0,0,0-.407-.407Z"/><path class="c" d="M23.6,6.111h.814a.407.407,0,0,0,0-.814H23.6a.407.407,0,1,0,0,.814Z"/><path class="c" d="M26.851,5.3h-.814a.407.407,0,0,0,0,.814h.814a.407.407,0,0,0,0-.814Z"/><path class="c" d="M6.711,6.111A1.424,1.424,0,1,0,5.287,4.687,1.426,1.426,0,0,0,6.711,6.111Zm0-2.034a.61.61,0,1,1-.61.61A.611.611,0,0,1,6.711,4.077Z"/><path class="c" d="M3.693,7.547a.435.435,0,1,0,.435.435A.435.435,0,0,0,3.693,7.547Z"/><path class="c" d="M26.477,9.581a.435.435,0,1,0,.435.435A.435.435,0,0,0,26.477,9.581Z"/><path class="c" d="M14.645,6.127A10.563,10.563,0,1,0,25.208,16.689,10.575,10.575,0,0,0,14.645,6.127Zm7.748,4.6-.5,3.7-2.63.877L17.7,14.268a.407.407,0,1,0-.451.677l1.473.982-1.354,4.515L12.5,20.356l-1.446-4.338,3.58-2.82,1.486.991a.407.407,0,1,0,.451-.677l-1.55-1.034V9.387l3.542-1.635c.007,0,.012-.01.019-.014a9.836,9.836,0,0,1,3.812,2.992Zm.515,11.182-3.526.542-1.26-1.68,1.41-4.7,2.636-.879,2.245,2a9.714,9.714,0,0,1-1.505,4.721Zm-.213-7.337.383-2.833A9.711,9.711,0,0,1,24.405,16.1ZM10.4,22.36l-4.066-.52a9.714,9.714,0,0,1-1.46-4.7l2.186-1.943L10.256,16.2l1.492,4.475Zm-3.87-7.784L4.889,16.036a9.708,9.708,0,0,1,1.272-4.2ZM17.515,7.339l-2.9,1.339L11.736,7.351a9.792,9.792,0,0,1,5.779-.011Zm-6.843.416,3.535,1.631V12.5l-3.713,2.924-3.161-1L6.842,10.8a9.839,9.839,0,0,1,3.829-3.044ZM6.97,22.742l3.242.414,1.575,2.887A9.811,9.811,0,0,1,6.97,22.742ZM12.856,26.3,11,22.908l1.392-1.74,5.07.09,1.253,1.671L16.938,26.2a9.7,9.7,0,0,1-4.081.107Zm5.193-.446,1.414-2.592,2.78-.428a9.821,9.821,0,0,1-4.194,3.019Z"/></g></g></svg>