<svg xmlns="http://www.w3.org/2000/svg" xmlns:xlink="http://www.w3.org/1999/xlink" width="24" height="24" viewBox="0 0 24 24"><defs><style>.a,.c{fill:#313131;}.a{stroke:#707070;}.b{clip-path:url(#a);}</style><clipPath id="a"><rect class="a" width="24" height="24" transform="translate(536 1852)"/></clipPath></defs><g class="b" transform="translate(-536 -1852)"><g transform="translate(532.746 1848.746)"><path class="c" d="M6.274,4.881a.407.407,0,0,0,.407-.407V3.661a.407.407,0,0,0-.814,0v.814a.407.407,0,0,0,.407.407Z"/><path class="c" d="M6.274,5.695a.407.407,0,0,0-.407.407v.814a.407.407,0,1,0,.814,0V6.1a.407.407,0,0,0-.407-.407Z"/><path class="c" d="M5.461,5.695a.407.407,0,1,0,0-.814H4.647a.407.407,0,1,0,0,.814Z"/><path class="c" d="M7.088,5.695H7.9a.407.407,0,0,0,0-.814H7.088a.407.407,0,0,0,0,.814Z"/><path class="c" d="M24.783,24.407a1.424,1.424,0,1,0,1.424,1.424A1.425,1.425,0,0,0,24.783,24.407Zm0,2.034a.61.61,0,1,1,.61-.61A.611.611,0,0,1,24.783,26.441Z"/><path class="c" d="M25.833,21.368a.435.435,0,1,0,.435.435.435.435,0,0,0-.435-.435Z"/><path class="c" d="M11.189,5.559a.435.435,0,1,0-.435-.435A.435.435,0,0,0,11.189,5.559Z"/><path class="c" d="M25.213,12.923a.407.407,0,0,0,0-.575l-.552-.552,1.48-1.48a.407.407,0,0,0,0-.575L24.794,8.392,25.92,7.266a.407.407,0,0,0,0-.575L24.152,4.923a.407.407,0,0,0-.575,0L22.451,6.05l-.928-.928a.407.407,0,0,0-.575,0L19.467,6.6,18.5,5.63a.407.407,0,0,0-.575,0L16.153,7.4a.407.407,0,0,0,0,.575L18.34,10.16,9.723,18.777,7.536,16.59a.419.419,0,0,0-.575,0L5.193,18.358a.407.407,0,0,0,0,.575l.972.972-1.48,1.48a.407.407,0,0,0,0,.575l.928.928L4.486,24.015a.407.407,0,0,0,0,.575l1.768,1.768a.407.407,0,0,0,.575,0l1.126-1.127L9.3,26.579a.407.407,0,0,0,.575,0l1.48-1.48.552.552a.407.407,0,0,0,.575,0l1.768-1.768a.407.407,0,0,0,0-.575l-2.187-2.187L20.683,12.5l2.187,2.187a.407.407,0,0,0,.575,0ZM23.865,5.786l1.193,1.193-.839.839L23.026,6.625Zm-2.629.2,4.043,4.043-1.193,1.193L20.043,7.177Zm-6.722,9.153,1.177-1.177-.124,2.509L14.39,17.646ZM13.533,18.5,12.356,19.68l.124-2.509,1.177-1.177Zm3.014-5.4,1.177-1.177L17.6,14.435l-1.177,1.177Zm-4.925,4.925L11.5,20.537l-.008.008L10.3,19.353ZM6.541,25.5,5.348,24.3l.839-.839L7.38,24.656Zm3.049.221L5.547,21.673,6.74,20.48l4.043,4.043Zm2.608-.928L6.056,18.646l1.193-1.193L13.39,23.6Zm6.26-11.21.124-2.509.334-.334,1.193,1.193ZM17.015,7.685l1.193-1.193,6.142,6.142-1.193,1.193Z"/></g></g></svg>