<svg xmlns="http://www.w3.org/2000/svg" xmlns:xlink="http://www.w3.org/1999/xlink" width="24" height="24" viewBox="0 0 24 24"><defs><style>.a{fill:#fff;stroke:#707070;}.b{clip-path:url(#a);}</style><clipPath id="a"><rect class="a" width="24" height="24" transform="translate(772 1852)"/></clipPath></defs><g class="b" transform="translate(-772 -1852)"><g transform="translate(768.751 1848.751)"><path d="M23.581,5.083a.407.407,0,0,0,.407-.407V3.863a.407.407,0,1,0-.813,0v.813A.407.407,0,0,0,23.581,5.083Z"/><path d="M23.581,5.9a.407.407,0,0,0-.407.407v.813a.407.407,0,1,0,.813,0V6.3A.407.407,0,0,0,23.581,5.9Z"/><path d="M21.954,5.9h.813a.407.407,0,1,0,0-.813h-.813a.407.407,0,0,0,0,.813Z"/><path d="M24.394,5.9h.813a.407.407,0,1,0,0-.813h-.813a.407.407,0,0,0,0,.813Z"/><path d="M14.025,13.622A1.423,1.423,0,1,0,12.6,12.2,1.425,1.425,0,0,0,14.025,13.622Zm0-2.033a.61.61,0,1,1-.61.61A.611.611,0,0,1,14.025,11.589Z"/><path d="M25.213,13.865a.435.435,0,1,0,.435-.435A.435.435,0,0,0,25.213,13.865Z"/><path d="M13.042,5.354a.435.435,0,1,0-.435-.435A.435.435,0,0,0,13.042,5.354Z"/><path d="M19.227,18.383a.407.407,0,1,0,.575-.575l-1.017-1.017a.407.407,0,1,0-.575.575Z"/><path d="M20.072,17.7a.407.407,0,0,0,.4.32.4.4,0,0,0,.087-.009.407.407,0,0,0,.311-.484l-.305-1.4a.407.407,0,0,0-.795.173Z"/><path d="M23.1,24.195H18.034a1.5,1.5,0,0,1-.983-.66L5.109,7.93a.407.407,0,0,0-.3-.159A.4.4,0,0,0,4.5,7.89L3.368,9.02a.406.406,0,0,0-.041.527L15.5,26.215a2.04,2.04,0,0,0,1.641.826h3.63a2.12,2.12,0,0,0,1.8-.984l.859-1.222a.407.407,0,0,0-.333-.64ZM4.745,8.793l2.43,3.175-.619.619L4.189,9.349ZM21.891,25.611a1.314,1.314,0,0,1-1.116.617h-3.63a1.223,1.223,0,0,1-.984-.493L7.041,13.252l.632-.632,8.733,11.411a2.283,2.283,0,0,0,1.629.978h4.28Z"/><path d="M27.242,19.283c-.07-1.018-1.828-1.484-3.467-1.484s-3.4.466-3.468,1.484c0,.011-.007.021-.007.033v1.837c0,1.062,1.8,1.545,3.474,1.545s3.474-.483,3.474-1.545V19.315C27.249,19.3,27.243,19.294,27.242,19.283Zm-3.467-.654c1.735,0,2.644.532,2.644.716s-.909.716-2.644.716-2.644-.532-2.644-.716S22.04,18.628,23.775,18.628Zm0,3.24c-1.735,0-2.644-.532-2.644-.716v-.762a6.335,6.335,0,0,0,2.644.5,6.334,6.334,0,0,0,2.644-.5v.762C26.419,21.336,25.51,21.868,23.775,21.868Z"/></g></g></svg>