<svg xmlns="http://www.w3.org/2000/svg" xmlns:xlink="http://www.w3.org/1999/xlink" width="24" height="24" viewBox="0 0 24 24"><defs><style>.a{fill:#fff;stroke:#707070;}.b{clip-path:url(#a);}</style><clipPath id="a"><rect class="a" width="24" height="24" transform="translate(668 1852)"/></clipPath></defs><g class="b" transform="translate(-668 -1852)"><g transform="translate(664.482 1848.482)"><path d="M25.8,10.765A5.259,5.259,0,0,0,24.39,6.358a5.262,5.262,0,0,0-4.407-1.412,8,8,0,0,0-4.708,2.359c-2.41,2.41-3.045,5.812-1.694,8.14L3.916,25.11a1.363,1.363,0,0,0,1.927,1.928l9.724-9.724a5.467,5.467,0,0,0,2.452.554,7.824,7.824,0,0,0,5.423-2.394A8,8,0,0,0,25.8,10.765Zm-.822-.091a6.831,6.831,0,0,1-1.2,3.1l-2.3-.328-.341-2.375.863.115a.431.431,0,0,0,.055,0,.414.414,0,0,0,.054-.824l-1.094-.146-.238-1.661,4.15.6a5.26,5.26,0,0,1,.046,1.517Zm-6.08,2.4-.337-2.349,1.728.23.339,2.366Zm1.853,1.1.3,2.061a6.912,6.912,0,0,1-1.605.626l-.421-2.934Zm-4.5-2.972a.414.414,0,0,0-.82.117l.184,1.286-1.9-.271a6.423,6.423,0,0,1,.567-2.179l3.42.456.336,2.341-1.571-.224Zm-1.344,4.635a4.213,4.213,0,0,1-1.188-2.667l2.019.288L16.2,16.7A3.979,3.979,0,0,1,14.912,15.836ZM17.943,6.4a6.7,6.7,0,0,1,1.616-.549l.248,1.726-1.731-.251Zm-.721.8-.482-.07c.14-.1.284-.2.429-.3Zm2.707,1.229.24,1.671-1.728-.23L18.2,8.181Zm.772-2.7a4.3,4.3,0,0,1,3.1,1.209,3.991,3.991,0,0,1,.876,1.34L20.661,7.7l-.28-1.949C20.488,5.746,20.6,5.734,20.7,5.734ZM15.86,7.891c.015-.015.031-.028.046-.042l1.438.208.244,1.7-2.894-.386A7.856,7.856,0,0,1,15.86,7.891ZM6.6,25.109,5.2,25l.843-.843,1.4.114Zm.21-1.724.753-.753.757.757-.109.109ZM4.5,26.453a.53.53,0,0,1-.046-.687l1.379.112-.575.575A.536.536,0,0,1,4.5,26.453ZM8.907,22.8l-.757-.757,5.919-5.919c.084.1.166.2.259.293a4.715,4.715,0,0,0,.52.442Zm8.163-5.85a.4.4,0,0,0,0-.042L16.6,13.58l1.572.225.46,3.206A5.236,5.236,0,0,1,17.07,16.954Zm4.747-1.193-.21-1.466,1.59.227c-.11.124-.22.248-.339.366a7.919,7.919,0,0,1-1.041.873Z"/><path d="M25.449,21.487a.414.414,0,0,0-.414.414v.828a.414.414,0,0,0,.828,0V21.9A.414.414,0,0,0,25.449,21.487Z"/><path d="M25.449,23.97a.414.414,0,0,0-.414.414v.828a.414.414,0,0,0,.828,0v-.828A.414.414,0,0,0,25.449,23.97Z"/><path d="M24.621,23.142h-.828a.414.414,0,0,0,0,.828h.828a.414.414,0,0,0,0-.828Z"/><path d="M27.1,23.142h-.828a.414.414,0,1,0,0,.828H27.1a.414.414,0,1,0,0-.828Z"/><path d="M16.138,23.556A1.448,1.448,0,1,0,17.586,25,1.45,1.45,0,0,0,16.138,23.556Zm0,2.069A.621.621,0,1,1,16.759,25,.621.621,0,0,1,16.138,25.625Z"/><path d="M20.1,20.05a.442.442,0,1,0,.442.442A.442.442,0,0,0,20.1,20.05Z"/><path d="M5.591,13.458a.442.442,0,1,0,.442-.442A.442.442,0,0,0,5.591,13.458Z"/><path d="M8.437,10.17a3.285,3.285,0,1,0,0-6.571H8.425A3.3,3.3,0,0,0,5.162,6.664c-.005.073-.01.145-.01.22A3.289,3.289,0,0,0,8.437,10.17ZM5.988,6.708A2.465,2.465,0,0,1,8.427,4.427h.021A2.458,2.458,0,1,1,5.979,6.884c0-.054,0-.107.009-.176Z"/><path d="M7.176,7.264H7.2A2.456,2.456,0,0,0,9.273,5.87a.414.414,0,1,0-.747-.357,1.628,1.628,0,0,1-1.374.924.414.414,0,0,0,.023.827Z"/></g></g></svg>