<svg xmlns="http://www.w3.org/2000/svg" xmlns:xlink="http://www.w3.org/1999/xlink" width="24" height="24" viewBox="0 0 24 24"><defs><style>.a,.c{fill:#313131;}.a{stroke:#707070;}.b{clip-path:url(#a);}</style><clipPath id="a"><rect class="a" width="24" height="24" transform="translate(392 1852)"/></clipPath></defs><g class="b" transform="translate(-392 -1852)"><g transform="translate(388.746 1848.746)"><path class="c" d="M27.155,19.977l-1.042-1.206a2.133,2.133,0,0,0-2.986-.019,1.072,1.072,0,0,1-1.5-.011l-.035-.035A2.089,2.089,0,0,0,20.1,18.09c-.032,0-.062.008-.093.009l-5.1-8.654,7.719-.7a1.056,1.056,0,0,0-.06-2.107l-9.257-.309A1.968,1.968,0,0,0,11.4,8.975l1.946,5.28-5.7,4.7a1.275,1.275,0,0,1-.261-.2,2.105,2.105,0,0,0-2.975,0L3.373,19.793a.407.407,0,0,0-.119.288v6.1a.407.407,0,0,0,.407.407H26.847a.407.407,0,0,0,.407-.407v-5.94a.407.407,0,0,0-.1-.266ZM14.212,14.245,12.167,8.694a1.154,1.154,0,0,1,1.122-1.553l9.257.309a.242.242,0,0,1,.014.483l-8.359.76a.407.407,0,0,0-.314.611l5.3,9a2.1,2.1,0,0,0-.573.4l-.049.049a1.291,1.291,0,0,1-1.824,0,2.105,2.105,0,0,0-2.975,0,1.043,1.043,0,0,1-.742.307h0a1.043,1.043,0,0,1-.744-.314l-.043-.043a2.1,2.1,0,0,0-2.975,0l-.049.049a1.273,1.273,0,0,1-.324.229l5.2-4.285a.407.407,0,0,0,.123-.454ZM4.986,19.331a1.291,1.291,0,0,1,1.824,0,2.1,2.1,0,0,0,2.975,0l.049-.049a1.322,1.322,0,0,1,1.823,0l.04.041a1.849,1.849,0,0,0,1.32.556h.008a1.849,1.849,0,0,0,1.317-.546,1.291,1.291,0,0,1,1.824,0,2.105,2.105,0,0,0,2.975,0l.049-.049a1.32,1.32,0,0,1,1.825,0l.035.035a1.889,1.889,0,0,0,2.643.017,1.313,1.313,0,0,1,1.823-.01l.923,1.07v2.523l-.481-.484a2.113,2.113,0,0,0-2.972-.019A1.055,1.055,0,0,1,21.5,22.4l-.036-.036a2.084,2.084,0,0,0-2.96,0l-.05.05a1.3,1.3,0,0,1-1.805,0,2.084,2.084,0,0,0-2.96,0,1.027,1.027,0,0,1-.734.307h0a1.029,1.029,0,0,1-.736-.313l-.043-.043a2.084,2.084,0,0,0-2.96,0l-.049.049a1.3,1.3,0,0,1-1.806,0,2.083,2.083,0,0,0-2.96,0l-.335.337V20.249Zm-.918,6.445V23.91l.912-.919a1.3,1.3,0,0,1,1.805,0,2.084,2.084,0,0,0,2.96,0l.049-.049a1.3,1.3,0,0,1,1.8,0l.04.041a1.834,1.834,0,0,0,1.314.557h.007a1.834,1.834,0,0,0,1.311-.547,1.3,1.3,0,0,1,1.806,0,2.083,2.083,0,0,0,2.96,0l.05-.05a1.3,1.3,0,0,1,1.806,0l.036.036a1.87,1.87,0,0,0,2.631.017,1.3,1.3,0,0,1,1.825.012l1.058,1.065v1.7Z"/><path class="c" d="M4.095,12.3a.435.435,0,1,0,.435-.435A.435.435,0,0,0,4.095,12.3Z"/><path class="c" d="M6.123,5.546a.407.407,0,0,0,.407-.407V4.326a.407.407,0,0,0-.814,0v.814a.407.407,0,0,0,.407.407Z"/><path class="c" d="M6.123,6.36a.407.407,0,0,0-.407.407V7.58a.407.407,0,1,0,.814,0V6.766a.407.407,0,0,0-.407-.407Z"/><path class="c" d="M4.5,6.36H5.31a.407.407,0,1,0,0-.814H4.5a.407.407,0,1,0,0,.814Z"/><path class="c" d="M6.937,6.36H7.75a.407.407,0,0,0,0-.814H6.937a.407.407,0,1,0,0,.814Z"/><path class="c" d="M21.356,10.42a2.647,2.647,0,0,0-2.644,2.644v.777A2.988,2.988,0,0,0,21.7,16.827h1.9A.407.407,0,0,0,24,16.42V13.064A2.647,2.647,0,0,0,21.356,10.42Zm1.831,5.593H21.7a2.174,2.174,0,0,1-2.172-2.172v-.777a1.831,1.831,0,1,1,3.661,0Z"/></g></g></svg>