<svg xmlns="http://www.w3.org/2000/svg" width="93" height="45.143" viewBox="0 0 93 45.143"><defs><style>.a{fill:#e10713;}</style></defs><path class="a" d="M83.321,243.3l-.12-.7-.074-.046-.093-.167-.046-.361-.195-.195-.028-.167V241.5l.148-.917.167-1.519.361-.843.093-.222L84,237.32l.213-.482.463-.435.167-.148.12-.093.046-.046H85.2l.074-.074.361-.028.676.148.334-.046.222-.12.63-.093.12-.12.093-.093.213-.241.148-.074.528-.028.028.046.148.046.148.028.12.046.12.028.12.046h.269l.12-.028.51-.167.287.093.167.046.167.074.167.093.195.093.167.148.195.12.167.148.195.148.167.287.074.148.093.333.269.917.148.213.028.093.528.63.046.093.028.074.046.093.028.093.028.093v.259l.148.287.195.167.12.074.12.074.12.074.12.074.12.074.148.074.148.074.167.046.074.074.046.074.028.093-.028.074-.333.63.074.213.028.046.167.435-.093.75.334.241.093.51.046.167.074.148.046.167.074.148.028.269-.046.213-.12.12-.195.074-.046.213.12.454.028.148.12.148.046.269.287.482.287.509.269.482.287.482.287.509.269.482.287.482.269.482.287.482.269.482.269.482.269.482.241.454.269.482.241.454.241.454.213.6.028.093.028.093.028.093.028.093v.12l.028.093.028.093.028.093.093.195.12.12.148.074.148.046.213.093.213.093.213.093.241.093.213.074.241.074.241.046.241.046.12-.028.12-.046.093-.046.148-.046.454-.287.148-.046.12-.074.12-.046.12-.046.12-.046.12-.074.148-.028.148-.046.213-.074.213-.028h.51l.241.028h.241l.241-.028.213-.093.241-.287.046-.287.093-.148.167-.028.315.028.361.269.241.213.167.195.12.213.028.269v.315l-.028.408-.046.509-.389,1.566-.185.547.287.435.528.7.51.695.51.695.482.7.482.723.482.695.454.7.463.723.482.7.463.695.482.695.482.695.51.676.51.7.528.648.528.676.074.093.093.12.093.12.12.148.093.12.093.12.093.12.093.12.12.148.148.167.148.148.167.148.148.167.167.12.195.148.167.12.333.241.343.213.315.167.334.148.343.148.333.167.361.195.343.241.843.648,1.834,1.353.148.074.12.074.148.074.148.074.12.074.148.074.12.046.148.074.148.093.167.074.167.074.167.074.195.046.213.028.213.028h.241l.333.213.093.463-.222.195-.315.167-.333.12-.408.093-.454.074-.482.046-.51.028h-1.038l-.528-.028-.482-.028-.482-.028-.435-.046-.389-.028-.333-.046-.269-.028-.463-.093-.454-.074-.463-.046-.435-.028h-.852l-.408.028h-1.158l-.333-.028-.334-.028-.287-.074-.269-.12-.241-.12-.213-.195-.093-.167-.074-.148-.046-.12-.028-.12-.028-.12v-.509l-.028-.12.028-.167v-.167l.028-.195v-.176l.028-.167.028-.148.046-.167.046-.148-.028-.361-.074-.12-.074-.12-.046-.093-.074-.093-.074-.093-.074-.093-.093-.093-.093-.093-.213-.315-.315-.361-.408-.408-.454-.435-.482-.408-.454-.389-.389-.361-.287-.269-.482-.287-.435-.315-.435-.315-.408-.315-.389-.333-.361-.333-.333-.333-.333-.361-.315-.361-.315-.361-.315-.389-.287-.389-.269-.408-.287-.408-.287-.435-.269-.435-.046-.241-.195-.334-.093-.167-.213-.046-.074.093-.482.824-.51.843-.51.824-.482.843-.51.843-.528.815-.51.843-.556.824-.528.815-.556.8-.574.8-.6.769-.6.75-.63.75-.63.723-.676.676-.408.361-.408.287-.454.241-.482.213-.51.167-.51.12-.556.093-.556.074-.584.046-.6.028h-.6l-.63-.028h-.648l-.648-.028-.676-.028-.676-.028-.463-.074-.435-.148-.361-.167-.315-.241-.269-.269-.241-.287-.195-.333-.167-.389-.148-.389L83,276.1l-.093-.435-.074-.454-.074-.482-.074-.482-.046-.482-.074-.509-.028-.046-.046-.148-.093-.213-.074-.269-.12-.334-.12-.361-.148-.408-.12-.435-.148-.435-.148-.435-.12-.435-.12-.408-.12-.361-.093-.343-.074-.287-.046-.213-.12-.528-.148-.389-.093-.241-.12-.093-.093.028-.074.148-.074.269-.046.389-.148.389-.167.408-.148.389-.148.408-.167.389-.167.408-.167.389-.195.389-.213.334-.213.389-.241.389-.241.435-.269.435-.269.463-.287.454-.269.463-.315.454-.287.463-.287.435-.287.435-.315.408-.287.389-.315.343-.287.315-.241.213-.148.195-.167.195-.213.148-.315.12-.343.093-.408.074-.454.074-.482.028-.51.028H69.62l-.51-.028-.51-.028H68.11l-.463-.028h-.408l-.361-.028-.334-.074-.361-.148-.315-.148-.315-.195-.287-.195-.241-.241-.195-.213-.51-.648-.528-.723-.528-.769-.528-.815-.556-.843-.556-.889-.556-.889-.528-.917-.528-.917-.482-.945-.482-.889-.454-.889-.408-.871-.361-.843-.333-.8-.287-.75-.046-.093-.046-.148-.093-.12-.093-.074-.148-.046-.148.046-.195.148-.213.287-.482.843-.408.584-.482.574-.556.6-.574.584-.6.574-.648.6-.648.574-.63.584-.63.574-.6.574-.584.556-.51.556-.454.556-.361.556-.287.528-.195.51.167,1.881.046.12.028.148.028.12v.445l-.028.12v.148l-.046.333-.148.269-.195.213-.269.167-.287.093-.361.074-.389.028H45.71l-.435-.028-.435-.046-.463-.046-.435-.046-.435-.046-.408-.046-.389-.028h-.361l-1.251.12-.454.12-.435.093-.408.074-.408.074-.389.046-.408.028-.361.028h-.778l-.389-.046-.389-.028-.389-.074-.389-.046-.408-.093-.435-.093-.435-.093-.454-.148-.148-.148-.093-.148-.074-.12v-.12l.028-.093.074-.12.093-.12.167-.12.213-.167-.028-.093-.574-.093-.167-.046-.12-.046-.12-.046-.167-.093-.074-.074-.074-.093-.046-.093-.028-.093L33,275.672l.028-.12.046-.093.093-.12.408-.213.695-.167.75-.241.769-.287.815-.361.871-.435.871-.482.889-.528.889-.574.889-.63.889-.676.871-.695.843-.769.815-.769.769-.824.75-.871.676-.871.148-.269.167-.269.167-.269.167-.269.148-.269.167-.269.167-.269.167-.269.167-.269.167-.269.167-.269.167-.269.148-.269.167-.269.148-.269.148-.269.148-.269.148-.269.148-.269.167-.269.148-.269.148-.287.167-.287.148-.269.167-.287.148-.269.167-.287.167-.269.148-.269.167-.241.167-.269.167-.241.093-.343-.139-.361-.167-.408-.148-.435-.167-.454-.093-.435-.074-.454.028-.435.093-.389.046-.167.389-.676.046-.074.093-.093.074-.074.074-.074.148-.028h.148l.148.074.093.195.167-.046.167-.046.148-.074.167-.074.148-.093.167-.093.148-.074.167-.093.12-.028.148-.028.12-.046.12-.028.12-.028h.269l.12.028.12.093.148.074.148.046.167.046.167.046.195.028.195.028.213.028.269-.028.269-.028.287-.074.287-.074.315-.093.315-.093.315-.093.315-.12.287-.12.287-.12.269-.148.269-.12.213-.12.213-.12.167-.12.12-.093.12-.435.12-.408.167-.435.148-.408.167-.435.167-.408.167-.435.167-.408.148-.408.167-.435.148-.408.12-.435.12-.408.074-.435.074-.408.046-.435-.195-.269v-.723l-.074-.167-.556-.389-.12-.148-.093-.093-.028-.12.028-.12.046-.12.074-.12.093-.093.074-.093.074-.093.093-.093.093-.093.093-.12.093-.093.093-.093.093-.12.074-.093.093-.093.408-.389-.028-.389-.046-.148-.093-.195.482-1.427-.195-.12-.167-.167-.12-.167-.028-.195.028-.648.046-.167.12-.213.936-.963.213-.093.287-.287.12-.12.213-.12.167-.093.167-.241.213-.287.148-.046.148-.046.148-.028.148-.028h.75l.435-.028.213-.12.074-.046.6.195.408.046.556-.287.51-.093.241.028.584.12.213.148.167.093.046.093.769.074.528.408.389.093.528.51.093.213.12.093.213.334.046.093.12.148.028.046.019.148.195.528.028,1.112v.269l.093.334.093.389.046.074-.148.269v.528l.167.63-.074.361v1.5l.046.6-.093.148-.074-.074-.093-.12-.213-.028-.028.361.12.195.463.63.028.046.046.046-.195.51v.287l.389.046.195.195-.195.269-.12.12.028.213.389.167.074.195v.093l-.12.213L74.2,247l-.046.046v.074l.195.12,1.232,1.112.269.334.074.195.213.269.167.287.12.167.213.389.195.389.241.389.213.408.213.389.241.408.213.408.213.408.213.435.213.408.195.408.213.408.167.408.167.408.167.408.148.389v.046l.148.12h.074l.046-.046.093-.389.093-.389.148-.361.148-.389.167-.389.167-.389.195-.361.213-.389.213-.389.241-.389.241-.389.241-.361.241-.389.269-.389.241-.389.269-.389.213-.148.074-.167.028-.148v-.167l-.028-.167-.046-.167-.046-.167-.074-.167-.046-.148-.028-.148.074-.093.093-.074.074-.074.093-.074.093-.074.093-.074.093-.074.093-.093-.028-.148.046-.046-.046-.148-.074-.12-.093-.148-.074-.12-.074-.12-.074-.12.148-.241.723-.361.028-.195.028-.195v-.167l-.028-.148-.046-.167-.074-.148-.074-.148-.12-.148-.435-.945Zm-18.833,5.6.213-.093.213-.074.213-.093.213-.12.213-.093.195-.093.213-.093.213-.093.167-.093.12-.12.074-.093.028-.093-.028-.093-.028-.093-.046-.074-.046-.074-.093-.12-.093-.148L66.137,247l-.12-.148-.12-.12-.148-.093-.148-.093-.167-.046-.213-.028-.167-.028h-.12l-.074.028-.046.046-.046.074-.019.093-.046.148-.074.213-.093.241-.074.269-.074.269-.093.241-.074.241-.046.195-.046.167v.167l.074.093.148.046Zm25.9,17.073.074.389.148.213.167.074.213-.028.213-.093.213-.148.213-.167.167-.167,5.79-5.79.195-.213.12-.167.093-.12v-.093l-.046-.093-.12-.093-.213-.093-.269-.093-5.067-1.853.12.676.167.574.148.509.167.435.167.361.12.333.12.269.074.241.028.241-.028.195-.12.195-.167.195-.287.222-.361.241-.482.269-.6.287h-.167l-.241.241-.213.315-.148.408-.093.482-.074.482-.028.51v.852Zm1.038-15.647.287.213.408.315.51.389.584.389.574.389.556.361.482.269.361.195.195.046.093-.028.046-.093.046-.195-.148-.315-.148-.315-.148-.333-.148-.334-.148-.333-.12-.315-.148-.333-.148-.334-.148-.315-.148-.315-.148-.287-.148-.269-.148-.269-.148-.269-.148-.213-.148-.195-.093-.167-.12-.148-.12-.12-.148-.046-.148-.028-.167.028-.195.074-.13.1-.195.167-.148.213-.12.241-.12.287-.093.287-.12.287-.093.315-.148.269-.046.12-.028.093v.074l.028.074.074.074.074.074.12.093ZM68.258,266.334l.241.195h.195l.167-.167.093-.287.046-.195.046-.213.046-.213.028-.241.028-.269.019-.269v-.287l.028-.287v-1.64l.028-.241V262l.12-.315.074-.241.028-.241v-.195l-.046-.195-.074-.195-.074-.167-.093-.195-.12-.269-.12-.269-.093-.287-.074-.287-.074-.269-.074-.287-.046-.287-.046-.287-.046-.269-.046-.287-.028-.269-.028-.241-.028-.241-.028-.241-.028-.213-.019-.213-.028-.167-.028-.148-.046-.12-.046-.093-.074-.046h-.093l-.148.046-.167.074-.195.12-.241.12-.269.148-.287.148-.315.167-.315.167-.334.167-.315.167-.333.167-.315.167-.287.148-.287.148-.241.12-.213.093-.195.093-.148.046-.148.12.028.195.093.195.074.12Z" transform="translate(-33 -233.8)"/></svg>