<svg xmlns="http://www.w3.org/2000/svg" width="48.387" height="39.441" viewBox="0 0 48.387 39.441">
  <g id="hotsale_date" transform="translate(-0.003 -0.024)">
    <g id="hotsale" transform="translate(0.003 0.024)">
      <g id="Grupo_3351" data-name="Grupo 3351">
        <g id="Grupo_3347" data-name="Grupo 3347">
          <path id="Trazado_2875" data-name="Trazado 2875" d="M40.906.08,11.042,9.121l-.148.074a5.144,5.144,0,0,0-3.261,2.3L.371,22.311a2,2,0,0,0-.3,1.7l2.52,8.67A2.1,2.1,0,0,0,3.78,34.02l11.931,5.039a5.572,5.572,0,0,0,4.15,0s13.487-4.076,22.6-6.818l5.928-11.782L42.907,1.192A1.591,1.591,0,0,0,40.906.08ZM8.226,27.5a1.425,1.425,0,1,1-.593-1.927A1.376,1.376,0,0,1,8.226,27.5Z" transform="translate(-0.003 -0.024)" fill="#191919"/>
        </g>
        <path id="Trazado_2876" data-name="Trazado 2876" d="M49.168,13.158a1.334,1.334,0,1,1-2.668,0,1.336,1.336,0,0,1,2.668,0Zm-2.371,0A1.013,1.013,0,0,0,47.834,14.2a1.06,1.06,0,0,0,1.037-1.037,1,1,0,0,0-.963-1.037A1.033,1.033,0,0,0,46.8,13.158Zm.815.667h-.3V12.491h.519a2.62,2.62,0,0,1,.445.074.385.385,0,0,1,.148.3.319.319,0,0,1-.3.3h0c.148.074.222.148.222.3a1.169,1.169,0,0,1,.074.3h-.3c-.074-.074-.074-.148-.074-.3s-.074-.222-.3-.222h-.148Zm0-.741h.148c.148,0,.3-.074.3-.222s-.074-.222-.3-.222h-.148Z" transform="translate(-12.044 -3.097)" fill="#fff"/>
        <g id="Grupo_3350" data-name="Grupo 3350" transform="translate(11.261 9.394)">
          <g id="Grupo_3348" data-name="Grupo 3348" transform="translate(0.445)">
            <path id="Trazado_2877" data-name="Trazado 2877" d="M25.151,18.554v4.965h-2.52v-4.3a1.344,1.344,0,0,0-1.408-1.482,1.7,1.7,0,0,0-1.63,1.853v3.927H17V13.441l2.52-.741v4.224a2.9,2.9,0,0,1,2.668-1.408A2.821,2.821,0,0,1,25.151,18.554Z" transform="translate(-16.111 -12.7)" fill="#fff"/>
            <path id="Trazado_2878" data-name="Trazado 2878" d="M36.57,20.576a3.952,3.952,0,0,1-4.3,4.076c-2.594,0-4.372-1.63-4.372-4.076S29.6,16.5,32.272,16.5C34.866,16.574,36.57,18.13,36.57,20.576Zm-6.077.074a1.8,1.8,0,1,0,3.557,0,1.885,1.885,0,0,0-1.778-2.075A1.844,1.844,0,0,0,30.494,20.65Z" transform="translate(-18.933 -13.684)" fill="#fff"/>
            <path id="Trazado_2879" data-name="Trazado 2879" d="M44.728,23.537a4.021,4.021,0,0,1-2.149.519,2.414,2.414,0,0,1-2.668-2.52V18.053H38.8v-1.63h1.112V14.2h2.52v2.223h2.075v1.7H42.431V21.24c0,.593.3.889.741.889a1.794,1.794,0,0,0,.963-.3Z" transform="translate(-21.756 -13.088)" fill="#fff"/>
            <path id="Trazado_2880" data-name="Trazado 2880" d="M22.766,30.589l-.889,1.7a5.8,5.8,0,0,0-2.52-.815c-.445,0-.815.148-.815.519,0,1.112,4.15.593,4.15,3.335,0,1.63-1.408,2.52-3.335,2.52A5.81,5.81,0,0,1,15.8,36.74l.889-1.63a4.784,4.784,0,0,0,2.816.963c.519,0,.889-.148.889-.519,0-1.186-4.076-.593-4.076-3.335,0-1.63,1.408-2.52,3.186-2.52A7.419,7.419,0,0,1,22.766,30.589Z" transform="translate(-15.8 -17.102)" fill="#fff"/>
            <path id="Trazado_2881" data-name="Trazado 2881" d="M32.507,32.59v5.187h-2.52v-.889a2.924,2.924,0,0,1-2.445,1.037,2.477,2.477,0,0,1-2.742-2.52c0-1.482,1.037-2.371,3.038-2.371h2.075v-.148c0-.815-.519-1.26-1.556-1.26a5.255,5.255,0,0,0-2.371.667l-.741-1.7A8.261,8.261,0,0,1,28.95,29.7C31.173,29.7,32.507,30.812,32.507,32.59Zm-2.52,2.445v-.741h-1.63q-1.112,0-1.112.889a.979.979,0,0,0,1.112.963A1.569,1.569,0,0,0,29.987,35.035Z" transform="translate(-18.131 -17.102)" fill="#fff"/>
            <path id="Trazado_2882" data-name="Trazado 2882" d="M48.451,34.568H42.894a1.772,1.772,0,0,0,1.853,1.482,2.969,2.969,0,0,0,1.927-.815l1.334,1.334a4.567,4.567,0,0,1-3.483,1.408A4.041,4.041,0,1,1,44.45,29.9C47.266,29.825,48.6,31.6,48.451,34.568ZM46.006,33.16a1.5,1.5,0,0,0-1.556-1.63,1.693,1.693,0,0,0-1.63,1.63Z" transform="translate(-22.145 -17.153)" fill="#fff"/>
            <path id="Trazado_2883" data-name="Trazado 2883" d="M36.3,36.845V27.878A4.673,4.673,0,0,0,38.82,26.1V36.845Z" transform="translate(-21.109 -16.17)" fill="#fff"/>
          </g>
          <g id="Grupo_3349" data-name="Grupo 3349" transform="translate(0 22.231)">
            <path id="Trazado_2884" data-name="Trazado 2884" d="M15.941,45.671a.371.371,0,1,1-.371-.371A.35.35,0,0,1,15.941,45.671Z" transform="translate(-15.2 -43.373)" fill="#fff"/>
            <path id="Trazado_2885" data-name="Trazado 2885" d="M18.645,43.293l-.519.371a.915.915,0,0,0-.593-.3.605.605,0,0,0-.593.667c0,.445.222.667.593.667a.6.6,0,0,0,.593-.3l.519.371a1.219,1.219,0,0,1-1.112.593,1.334,1.334,0,1,1,0-2.668A1.219,1.219,0,0,1,18.645,43.293Z" transform="translate(-15.459 -42.7)" fill="#fff"/>
            <path id="Trazado_2886" data-name="Trazado 2886" d="M22.016,44.034a1.3,1.3,0,0,1-1.408,1.334,1.336,1.336,0,1,1,0-2.668A1.267,1.267,0,0,1,22.016,44.034Zm-2,0c0,.445.222.741.667.741a.745.745,0,0,0,0-1.482A.788.788,0,0,0,20.015,44.034Z" transform="translate(-16.236 -42.7)" fill="#fff"/>
            <path id="Trazado_2887" data-name="Trazado 2887" d="M27.546,43.761v1.63h-.741V43.983a.507.507,0,0,0-.519-.519.605.605,0,0,0-.593.667v1.26h-.741V43.983a.507.507,0,0,0-.519-.519.605.605,0,0,0-.593.667v1.26H23.1V42.8h.741v.445a.97.97,0,0,1,.889-.445.894.894,0,0,1,.889.593.993.993,0,0,1,.963-.593C27.176,42.723,27.546,43.168,27.546,43.761Z" transform="translate(-17.246 -42.723)" fill="#fff"/>
            <path id="Trazado_2888" data-name="Trazado 2888" d="M30.041,45.671a.371.371,0,1,1-.371-.371A.35.35,0,0,1,30.041,45.671Z" transform="translate(-18.851 -43.373)" fill="#fff"/>
            <path id="Trazado_2889" data-name="Trazado 2889" d="M32,45.1a.956.956,0,0,1-.815.371.841.841,0,0,1-.889-.815c0-.519.371-.741.963-.741H32v-.074c0-.3-.148-.445-.519-.445a1.43,1.43,0,0,0-.741.222l-.222-.519a2.174,2.174,0,0,1,1.186-.3c.667,0,1.112.371,1.112.889v1.7h-.741L32,45.1Zm0-.593v-.222h-.593c-.3,0-.445.074-.445.3s.148.3.371.3C31.708,44.875,31.93,44.727,32,44.5Z" transform="translate(-19.11 -42.726)" fill="#fff"/>
            <path id="Trazado_2890" data-name="Trazado 2890" d="M34.741,43.219a.943.943,0,0,1,.889-.519v.667c-.593,0-.889.3-.889.741v1.26H34V42.774h.741Z" transform="translate(-20.069 -42.7)" fill="#fff"/>
          </g>
        </g>
        <path id="Trazado_2891" data-name="Trazado 2891" d="M52.729,32.853A16.383,16.383,0,0,1,54.359,31l1.7,9.263-3.186-5.484A1.836,1.836,0,0,1,52.729,32.853Z" transform="translate(-13.605 -8.045)" opacity="0.15"/>
        <path id="Trazado_2892" data-name="Trazado 2892" d="M62.451,27.5c-.593.148-4.15,1.26-6.818,2.075a1.919,1.919,0,0,0-1.26,2.371l2.149,7.41Z" transform="translate(-14.063 -7.139)" fill="#b8b8b8"/>
      </g>
    </g>
  </g>
</svg>
