<svg xmlns="http://www.w3.org/2000/svg" width="20.06" height="20.02" viewBox="0 0 20.06 20.02"><defs><style>.a{fill:#313131;}</style></defs><g transform="translate(-932.59 -2684.041)"><path class="a" d="M111.539,235.9a3.766,3.766,0,0,1-3.76,3.75H98.8a3.766,3.766,0,0,1-3.76-3.75v-8.98a3.758,3.758,0,0,1,3.76-3.74h8.98a3.758,3.758,0,0,1,3.76,3.74v8.98Zm-3.76-14.5H98.8a5.542,5.542,0,0,0-5.54,5.52v8.98a5.542,5.542,0,0,0,5.54,5.52h8.98a5.542,5.542,0,0,0,5.54-5.52v-8.98A5.542,5.542,0,0,0,107.779,221.4Z" transform="translate(839.331 2462.636)"/><path class="a" d="M98.915,230.429a3.38,3.38,0,1,1,3.39-3.38A3.384,3.384,0,0,1,98.915,230.429Zm0-8.54a5.16,5.16,0,1,0,5.17,5.16A5.175,5.175,0,0,0,98.915,221.889Z" transform="translate(843.705 2467.001)"/><path class="a" d="M95.97,221.739a1.277,1.277,0,0,0-.92.38,1.3,1.3,0,0,0-.38.92,1.3,1.3,0,0,0,1.3,1.3,1.342,1.342,0,0,0,.93-.38,1.319,1.319,0,0,0,.38-.92,1.3,1.3,0,0,0-.38-.92A1.283,1.283,0,0,0,95.97,221.739Z" transform="translate(852.03 2465.651)"/></g></svg>