<svg width="7" height="11" viewBox="0 0 7 11" fill="none" xmlns="http://www.w3.org/2000/svg">
<path d="M0.840609 5.13861L5.36095 0.552262C5.64849 0.260364 6.1147 0.260364 6.40211 0.552262C6.68954 0.843901 6.68954 1.31691 6.40211 1.60852L2.40231 5.66675L6.402 9.72483C6.68943 10.0166 6.68943 10.4895 6.402 10.7812C6.11456 11.0729 5.64838 11.0729 5.36083 10.7812L0.840493 6.19476C0.696777 6.04887 0.625 5.85787 0.625 5.66677C0.625 5.47558 0.696916 5.28443 0.840609 5.13861Z" fill="#272727"/>
<path d="M0.847923 5.13861L5.36826 0.552255C5.65581 0.260357 6.12202 0.260357 6.40943 0.552255C6.69686 0.843894 6.69686 1.3169 6.40943 1.60852L2.40963 5.66674L6.40931 9.72482C6.69674 10.0166 6.69674 10.4895 6.40931 10.7812C6.12188 11.0729 5.65569 11.0729 5.36814 10.7812L0.847806 6.19475C0.704091 6.04886 0.632314 5.85786 0.632314 5.66676C0.632314 5.47557 0.70423 5.28443 0.847923 5.13861Z" fill="#272727"/>
</svg>
