<svg xmlns="http://www.w3.org/2000/svg" width="49.487" height="13.789" viewBox="0 0 49.487 13.789">
  <g id="Grupo_3314" data-name="Grupo 3314" transform="translate(-0.1)">
    <path id="Trazado_2733" data-name="Trazado 2733" d="M15.359,0a6.895,6.895,0,1,0,0,13.789,7.215,7.215,0,0,0,4.511-1.675v1.675h2.449V6.959A7.1,7.1,0,0,0,15.359,0Zm0,11.47a4.566,4.566,0,0,1-4.511-4.511,4.511,4.511,0,1,1,9.021,0A4.655,4.655,0,0,1,15.359,11.47Z" transform="translate(2.396)" fill="#191919" fill-rule="evenodd"/>
    <path id="Trazado_2734" data-name="Trazado 2734" d="M7.059,13.789a6.406,6.406,0,0,0,4.253-1.546,11.129,11.129,0,0,1-1.289-2.062A3.916,3.916,0,0,1,7.059,11.47,4.566,4.566,0,0,1,2.549,6.959,4.566,4.566,0,0,1,7.059,2.449a4.693,4.693,0,0,1,2.964,1.16,11.129,11.129,0,0,1,1.289-2.062A6.406,6.406,0,0,0,7.059,0a6.895,6.895,0,1,0,0,13.789Z" fill="#191919" fill-rule="evenodd"/>
    <path id="Trazado_2735" data-name="Trazado 2735" d="M41.46,8.119a4.384,4.384,0,0,0,.129-1.289A6.793,6.793,0,0,0,34.759,0a6.895,6.895,0,1,0,5.155,11.47l-1.546-1.8h-.129a4.279,4.279,0,0,1-3.48,1.8,4.717,4.717,0,0,1-4.511-3.351H41.46Zm-6.83-5.8A4.68,4.68,0,0,1,39.012,5.8H30.12A4.963,4.963,0,0,1,34.63,2.32Z" transform="translate(7.998)" fill="#191919" fill-rule="evenodd"/>
    <path id="Trazado_2736" data-name="Trazado 2736" d="M26.659,13.789a6.406,6.406,0,0,0,4.253-1.546,11.129,11.129,0,0,1-1.289-2.062,4.083,4.083,0,0,1-2.964,1.16A4.566,4.566,0,0,1,22.149,6.83,4.566,4.566,0,0,1,26.659,2.32a4.693,4.693,0,0,1,2.964,1.16,11.129,11.129,0,0,1,1.289-2.062A7.031,7.031,0,0,0,26.659,0a6.895,6.895,0,1,0,0,13.789Z" transform="translate(5.659)" fill="#191919" fill-rule="evenodd"/>
  </g>
</svg>
