<?xml version="1.0" encoding="utf-8"?>
<!-- Generator: Adobe Illustrator 26.3.1, SVG Export Plug-In . SVG Version: 6.00 Build 0)  -->
<svg version="1.1" id="Capa_1" xmlns="http://www.w3.org/2000/svg" xmlns:xlink="http://www.w3.org/1999/xlink" x="0px" y="0px"
	 viewBox="0 0 70 57" style="enable-background:new 0 0 70 57;" xml:space="preserve">
<style type="text/css">
	.st0{fill:#E95430;}
	.st1{fill:#FFFFFF;}
	.st2{opacity:0.15;}
	.st3{fill:#2E334C;}
</style>
<g>
	<g>
		<path class="st0" d="M59.2,0.3l-42.9,13c0,0-0.2,0.1-0.2,0.1c-1.3,0.4-3.2,1-4.7,3.3L0.9,32.2c-0.5,0.7-0.6,1.6-0.4,2.4l3.6,12.4
			C4.4,47.9,5,48.6,5.8,49L23,56.2c2.6,1.1,4.7,0.4,5.9,0c0,0,19.4-5.9,32.5-9.8l8.6-17L62.1,1.8C61.7,0.6,60.5-0.1,59.2,0.3z
			 M12.2,39.6c-0.5,1-1.7,1.3-2.7,0.8c-1-0.5-1.3-1.7-0.8-2.7c0.5-1,1.7-1.3,2.7-0.8C12.4,37.4,12.8,38.7,12.2,39.6z"/>
	</g>
	<g>
		<path class="st1" d="M54.2,14.9c0,1-0.8,1.8-1.9,1.8c-1.1,0-1.9-0.8-1.9-1.9c0-1,0.9-1.8,1.9-1.8C53.3,13.1,54.2,13.9,54.2,14.9z
			 M50.8,14.9c0,0.8,0.6,1.5,1.4,1.5c0.8,0,1.4-0.6,1.4-1.4c0-0.8-0.6-1.5-1.4-1.5C51.5,13.4,50.8,14.1,50.8,14.9z M52,15.9l-0.4,0
			l0-1.8c0.2,0,0.4-0.1,0.7-0.1c0.3,0,0.5,0.1,0.6,0.2c0.1,0.1,0.2,0.2,0.2,0.4c0,0.2-0.2,0.4-0.4,0.4l0,0c0.2,0.1,0.3,0.2,0.3,0.5
			c0.1,0.3,0.1,0.4,0.1,0.5l-0.5,0c-0.1-0.1-0.1-0.2-0.1-0.5c0-0.2-0.1-0.3-0.4-0.3l-0.2,0L52,15.9z M52,14.8l0.2,0
			c0.2,0,0.4-0.1,0.4-0.3c0-0.2-0.1-0.3-0.4-0.3c-0.1,0-0.2,0-0.2,0L52,14.8z"/>
		<g>
			<g>
				<path class="st1" d="M29.5,23.9v7.5h-3.8v-6.5c0-1.4-0.8-2.3-2.1-2.3c-1.5,0-2.4,1.2-2.4,2.8v5.9h-3.8V16.2l3.8-1.1v6.4
					c0.8-1.4,2.2-2.1,4-2.1C27.8,19.3,29.5,21.1,29.5,23.9z"/>
				<path class="st1" d="M42.5,25.4c0,3.7-2.6,6.1-6.5,6.1c-3.9,0-6.5-2.4-6.5-6.1s2.6-6.1,6.5-6.1C39.9,19.3,42.5,21.7,42.5,25.4z
					 M33.3,25.4c0,1.9,1.1,3.1,2.7,3.1c1.6,0,2.7-1.2,2.7-3.1c0-1.8-1.1-3.1-2.7-3.1C34.4,22.4,33.3,23.6,33.3,25.4z"/>
				<path class="st1" d="M50.5,30.7c-0.9,0.5-2,0.8-3.2,0.8c-2.3,0-4-1.3-4-3.8v-5.3h-1.7V20h1.7v-3.3h3.8V20h3.1v2.5h-3.1v4.7
					c0,0.9,0.4,1.3,1.1,1.3c0.4,0,0.9-0.2,1.5-0.4L50.5,30.7z"/>
			</g>
		</g>
		<g>
			<path class="st1" d="M27,43.6l-1.8-6.1l-1.8,6.1h-2.9L17.1,34h3l1.9,6.6l1.8-6.6h2.8l1.9,6.6l1.9-6.6h2.9l-3.4,9.6H27z"/>
			<path class="st1" d="M41.3,39.6h-6.7c0.3,1.1,1.1,1.8,2.3,1.8c0.8,0,1.6-0.3,2.3-1l1.6,1.6c-1,1.1-2.4,1.7-4.2,1.7
				c-3.1,0-5.1-2-5.1-4.9c0-3,2-4.9,5-4.9C39.9,33.9,41.5,36.1,41.3,39.6z M38.4,38c0-1.2-0.7-1.9-1.8-1.9c-1.1,0-1.8,0.8-2,1.9
				H38.4z"/>
			<path class="st1" d="M50,39.6h-6.7c0.3,1.1,1.1,1.8,2.3,1.8c0.8,0,1.6-0.3,2.3-1l1.6,1.6c-1,1.1-2.4,1.7-4.2,1.7
				c-3.1,0-5.1-2-5.1-4.9c0-3,2-4.9,5-4.9C48.6,33.9,50.2,36.1,50,39.6z M47.1,38c0-1.2-0.7-1.9-1.8-1.9c-1.1,0-1.8,0.8-2,1.9H47.1z
				"/>
			<path class="st1" d="M52.8,41v2.6h-3.1V32.1c0.8-0.1,2-0.7,2.2-1.2l-0.2-0.5h1v7l3.2-3.4h3.5l-3.5,3.7l3.6,5.9h-3.6l-2.1-3.7
				L52.8,41z"/>
		</g>
	</g>
	<path class="st2" d="M56.7,35.8c0.5-0.8,2.3-2.7,2.3-2.7l2.4,13.3l-4.6-7.8C56.1,37.4,56.4,36.3,56.7,35.8z"/>
	<path class="st3" d="M70,29.4c-0.8,0.2-5.9,1.8-9.8,2.9c-1.4,0.4-2.2,1.9-1.8,3.4l3.1,10.7L70,29.4z"/>
</g>
</svg>
