<svg xmlns="http://www.w3.org/2000/svg" width="33.902" height="22.434" viewBox="0 0 33.902 22.434"><defs><style>.a{fill:#101010;}</style></defs><path class="a" d="M498.594,109.8a1.994,1.994,0,1,0,1.994,1.994A1.994,1.994,0,0,0,498.594,109.8Z" transform="translate(-492.088 -108.802)"/><path class="a" d="M3.731,13.847a1.828,1.828,0,0,1-.741-1.48V5.485h0V0L.271,1.134A.441.441,0,0,0,0,1.54V11.967a5.482,5.482,0,0,0,5.482,5.482c.169,0,.336-.009.5-.024V14.409A2.831,2.831,0,0,1,3.731,13.847Z" transform="translate(0)"/><path class="a" d="M2414.4,1442.3" transform="translate(-2392.465 -1429.197)"/><g transform="translate(31.909 15.456)"><path class="a" d="M3513.3,1701.537a.76.76,0,1,1-.76.76.761.761,0,0,1,.76-.76m0-.237a1,1,0,1,0,1,1,1,1,0,0,0-1-1Z" transform="translate(-3512.3 -1701.3)"/><path class="a" d="M3582.6,1761.732a.029.029,0,0,0-.026-.016h-.135v.263a.03.03,0,0,1-.03.03h-.183a.03.03,0,0,1-.03-.03v-.849a.03.03,0,0,1,.03-.03h.4a.282.282,0,0,1,.324.308.3.3,0,0,1-.107.248.03.03,0,0,0-.01.039l.155.269a.029.029,0,0,1-.025.044h-.206a.029.029,0,0,1-.026-.016Zm.018-.415h-.151a.03.03,0,0,0-.03.03v.137a.03.03,0,0,0,.03.03h.151c.074,0,.088-.055.088-.1C3582.71,1761.357,3582.682,1761.317,3582.623,1761.317Z" transform="translate(-3581.565 -1760.557)"/></g><path class="a" d="M774.531,548.8a6.231,6.231,0,1,0,6.231,6.231A6.231,6.231,0,0,0,774.531,548.8Zm0,9.471a3.239,3.239,0,1,1,3.239-3.239A3.239,3.239,0,0,1,774.531,558.271Z" transform="translate(-761.32 -543.814)"/><path class="a" d="M2256.227,548.761a6.231,6.231,0,0,0-6.526,6.225V566.2l2.686-1.124a.5.5,0,0,0,.306-.461V560.31a6.232,6.232,0,1,0,3.535-11.549Zm-.292,9.465a3.239,3.239,0,1,1,3.239-3.239A3.239,3.239,0,0,1,2255.935,558.226Z" transform="translate(-2229.262 -543.769)"/></svg>