<svg xmlns="http://www.w3.org/2000/svg" width="28.662" height="15.65" viewBox="0 0 28.662 15.65"><defs><style>.a{fill:#fff;}</style></defs><g transform="translate(-249.34 -2505.998)"><path class="a" d="M138.624,242.97a5.589,5.589,0,0,0-1.65-1.45,5.268,5.268,0,0,0-4.25-.42,5.343,5.343,0,0,0-1.89,1.09l-.48-.36a5.229,5.229,0,0,0-8.29,3.67c-.13,1.94-.16,3.89-.1,5.84a1.84,1.84,0,0,0,.12.73,1.916,1.916,0,0,0,.39.62,1.683,1.683,0,0,0,.61.41,1.729,1.729,0,0,0,.71.14,1.693,1.693,0,0,0,.7-.15,1.726,1.726,0,0,0,.58-.42,1.612,1.612,0,0,0,.38-.61,1.94,1.94,0,0,0,.11-.72v-4.21a7.386,7.386,0,0,1,.09-1.24,1.639,1.639,0,0,1,.64-1.05,1.7,1.7,0,0,1,2.25.19,1.705,1.705,0,0,1,.48,1.11c.02.51,0,1.03,0,1.54v3.77a1.845,1.845,0,0,0,.3,1.02,1.759,1.759,0,0,0,.83.65,1.807,1.807,0,0,0,2.48-1.81c0-1.66,0-3.32.05-4.98a2.261,2.261,0,0,1,.34-1.13,1.7,1.7,0,0,1,.84-.63,1.582,1.582,0,0,1,1.03.02,1.671,1.671,0,0,1,.94.67,1.772,1.772,0,0,1,.32,1.12v5.03a1.849,1.849,0,0,0,.13.7,2.137,2.137,0,0,0,.39.6,1.784,1.784,0,0,0,.59.39,1.758,1.758,0,0,0,.68.14,1.807,1.807,0,0,0,.69-.14,1.647,1.647,0,0,0,.58-.39,1.939,1.939,0,0,0,.39-.6,1.86,1.86,0,0,0,.14-.7v-5.15A5.362,5.362,0,0,0,138.624,242.97Z" transform="translate(127.406 2268.38)"/><path class="a" d="M130.939,246.822l-.56-.23c.56-.45,1.09-.83,1.57-1.27a4.981,4.981,0,0,0,1.08-1.21,2.469,2.469,0,0,0-2.27-3.58c-1.77-.03-3.54-.03-5.32-.03a1.592,1.592,0,0,0-.64.1,1.366,1.366,0,0,0-.54.35,1.463,1.463,0,0,0-.36.55,1.585,1.585,0,0,0-.1.65,1.539,1.539,0,0,0,.07.67,1.868,1.868,0,0,0,.35.57,1.671,1.671,0,0,0,.55.37,1.626,1.626,0,0,0,.66.1h2.6a1.806,1.806,0,0,0,.58.05c-1.17.97-2.26,1.89-3.33,2.81a1.681,1.681,0,0,0-.66,1.94,1.779,1.779,0,0,0,.68.87,1.738,1.738,0,0,0,1.06.27h2.77a1.3,1.3,0,0,1,.62.02,1.329,1.329,0,0,1,.55.29,1.545,1.545,0,0,1,.38.5,1.443,1.443,0,0,1,0,1.24,1.545,1.545,0,0,1-.38.5,1.332,1.332,0,0,1-.55.29,1.3,1.3,0,0,1-.62.02h-3.58a1.632,1.632,0,0,0-1.09.52,1.694,1.694,0,0,0,0,2.3,1.633,1.633,0,0,0,1.09.52h3.74a4.738,4.738,0,0,0,2.98-1.17,4.684,4.684,0,0,0,1.02-5.92A4.781,4.781,0,0,0,130.939,246.822Z" transform="translate(144.091 2265.498)"/></g></svg>