<svg xmlns="http://www.w3.org/2000/svg" xmlns:xlink="http://www.w3.org/1999/xlink" width="25" height="22" viewBox="0 0 25 22"><defs><style>.a,.c{fill:#fff;}.a{stroke:#707070;}.b{clip-path:url(#a);}</style><clipPath id="a"><rect class="a" width="25" height="22"/></clipPath></defs><g class="b"><g transform="translate(1 1.042)"><path class="c" d="M7.316,13.306H19.382a.665.665,0,0,0,.64-.483l2.661-9.314a.665.665,0,0,0-.64-.848H5.782L5.306.521A.665.665,0,0,0,4.657,0H.665a.665.665,0,1,0,0,1.331H4.123l2.4,10.809a2,2,0,0,0,.793,3.827H19.382a.665.665,0,1,0,0-1.331H7.318a.665.665,0,0,1,0-1.33ZM21.161,3.992,18.88,11.975H7.852L6.078,3.992Zm0,0" transform="translate(0 0)"/><path class="c" d="M14.648,37.152a2,2,0,1,0,2-2A2,2,0,0,0,14.648,37.152Zm2-.665a.665.665,0,1,1-.665.665A.666.666,0,0,1,16.644,36.487Zm0,0" transform="translate(-7.996 -19.189)"/><path class="c" d="M35.352,37.152a2,2,0,1,0,2-2A2,2,0,0,0,35.352,37.152Zm2-.665a.665.665,0,1,1-.665.665A.666.666,0,0,1,37.347,36.487Zm0,0" transform="translate(-19.296 -19.189)"/></g></g></svg>