<svg width="80" height="80" viewBox="0 0 80 80" fill="none" xmlns="http://www.w3.org/2000/svg">
<g clip-path="url(#clip0)">
<path d="M79.4944 11.6353C79.0564 11.088 78.3934 10.7694 77.6923 10.7694H16.2738L14.5563 3.3272C14.3145 2.28017 13.3822 1.53845 12.3077 1.53845H2.30766C1.03328 1.53845 0 2.57173 0 3.84626C0 5.1208 1.03328 6.15392 2.30766 6.15392H10.4719L22.13 56.6728C22.3716 57.7198 23.3041 58.4616 24.3786 58.4616H70.6153C71.8898 58.4616 72.923 57.4283 72.923 56.1539C72.923 54.8794 71.8897 53.8463 70.6153 53.8463H26.2145L24.4395 46.1539H70.7694C71.8488 46.1539 72.7839 45.4058 73.0208 44.3528L79.9438 13.5836C80.0977 12.8995 79.9323 12.1828 79.4944 11.6353Z" fill="#D8821A"/>
<path d="M33.8463 61.5385C29.1807 61.5385 25.3848 65.3342 25.3848 70C25.3848 74.6658 29.1805 78.4616 33.8463 78.4616C38.512 78.4616 42.3079 74.6658 42.3079 70C42.3079 65.3342 38.5121 61.5385 33.8463 61.5385Z" fill="#D8821A"/>
<path d="M61.538 61.5385C56.8724 61.5385 53.0764 65.3342 53.0764 70C53.0764 74.6658 56.8722 78.4616 61.538 78.4616C66.2036 78.4616 69.9995 74.6658 69.9995 70C69.9995 65.3342 66.2038 61.5385 61.538 61.5385Z" fill="#D8821A"/>
</g>
<defs>
<clipPath id="clip0">
<rect width="80" height="80" fill="white"/>
</clipPath>
</defs>
</svg>
