<svg xmlns="http://www.w3.org/2000/svg" xmlns:xlink="http://www.w3.org/1999/xlink" width="20" height="20" viewBox="0 0 20 20"><defs><style>.a,.c{fill:#313131;}.a{stroke:#707070;}.b{clip-path:url(#a);}</style><clipPath id="a"><rect class="a" width="20" height="20"/></clipPath></defs><g class="b"><g transform="translate(0)"><g transform="translate(0)"><path class="c" d="M19.811,18.912l-5.164-5.081a8.167,8.167,0,0,0,2.183-5.55A8.349,8.349,0,0,0,8.415,0,8.348,8.348,0,0,0,0,8.281a8.348,8.348,0,0,0,8.414,8.281,8.462,8.462,0,0,0,5.3-1.849l5.184,5.1a.654.654,0,0,0,.915,0A.63.63,0,0,0,19.811,18.912Zm-11.4-3.625A7.064,7.064,0,0,1,1.3,8.281a7.064,7.064,0,0,1,7.12-7.007,7.064,7.064,0,0,1,7.12,7.007A7.064,7.064,0,0,1,8.415,15.287Z" transform="translate(0)"/></g></g></g></svg>