<svg xmlns="http://www.w3.org/2000/svg" width="40" height="28.332" viewBox="0 0 40 28.332"><path d="M0,71.207a.833.833,0,0,1,.834-.832H22.5a.831.831,0,0,1,.832.832V89.54a.834.834,0,1,0,1.668,0v-15a.833.833,0,0,1,.834-.832h5.833a.834.834,0,0,1,.729.427l4.111,7.4,3.249,3.251a.841.841,0,0,1,.244.59V94.54a.833.833,0,0,1-.834.832H37.434a5.828,5.828,0,1,0-11.534,0H14.1a5.828,5.828,0,1,0-11.534,0H.834A.834.834,0,0,1,0,94.54Zm27.5,7.5h1.985l2.269,4.538a.833.833,0,0,0,1.492-.742l-2.5-5A.836.836,0,0,0,30,77.04H27.5a.833.833,0,1,0,0,1.666" transform="translate(0 -70.375)" fill="#0f58d6"/><path d="M6.44,81.288a4.166,4.166,0,1,0,4.167,4.167A4.167,4.167,0,0,0,6.44,81.288" transform="translate(25.227 -61.289)" fill="#0f58d6"/><path d="M19.173,81.288a4.166,4.166,0,1,0,4.167,4.167,4.167,4.167,0,0,0-4.167-4.167" transform="translate(-10.841 -61.289)" fill="#0f58d6"/></svg>