<svg xmlns="http://www.w3.org/2000/svg" xmlns:xlink="http://www.w3.org/1999/xlink" width="82.585" height="75.706" viewBox="0 0 82.585 75.706"><defs><clipPath id="a"><rect width="82.585" height="75.706" fill="#485a64"/></clipPath></defs><g transform="translate(0 0)" clip-path="url(#a)"><path d="M80.867,7.276H1.718A1.72,1.72,0,0,0,0,9V15.88A1.717,1.717,0,0,0,1.718,17.6H3.723L10.349,54.04a1.721,1.721,0,0,0,1.7,1.411h58.5a1.72,1.72,0,0,0,1.691-1.411L78.858,17.6h2.009a1.719,1.719,0,0,0,1.718-1.718V9a1.722,1.722,0,0,0-1.718-1.722M24.088,43.408a1.722,1.722,0,1,1-3.443,0V22.759a1.722,1.722,0,0,1,3.443,0Zm13.765,0a1.722,1.722,0,1,1-3.443,0V22.759a1.722,1.722,0,0,1,3.443,0Zm10.322,0a1.722,1.722,0,1,1-3.443,0V22.759a1.722,1.722,0,0,1,3.443,0Zm13.765,0a1.722,1.722,0,1,1-3.443,0V22.759a1.722,1.722,0,0,1,3.443,0Zm17.2-29.249H3.439V10.719H79.146Z" transform="translate(0 20.255)" fill="#485a64"/><path d="M5.664,23.584,26.312,2.936A1.72,1.72,0,0,0,23.879.5L3.231,21.151a1.72,1.72,0,0,0,2.433,2.433" transform="translate(7.595 0.001)" fill="#485a64"/><path d="M33.882,23.584a1.72,1.72,0,1,0,2.433-2.433L15.667.5a1.72,1.72,0,1,0-2.433,2.433Z" transform="translate(35.441 0.001)" fill="#485a64"/></g></svg>