<svg xmlns="http://www.w3.org/2000/svg" xmlns:xlink="http://www.w3.org/1999/xlink" width="40" height="32.367" viewBox="0 0 40 32.367"><defs><clipPath id="a"><rect width="40" height="32.367" fill="#0f58d6"/></clipPath></defs><g transform="translate(0 0)" clip-path="url(#a)"><path d="M24.756,16.347a2.555,2.555,0,1,1,5.109,0,3.291,3.291,0,0,0,.8,2.118V12.557a8.494,8.494,0,0,1-5.523-5.586H0V19.748A4.264,4.264,0,0,0,4.26,24.007h25.4a8.471,8.471,0,0,1-4.906-7.66m-13.682-.858H5.962a.851.851,0,1,1,0-1.7h5.111a.851.851,0,1,1,0,1.7m8.518-3.407H5.962a.852.852,0,0,1,0-1.7H19.591a.852.852,0,0,1,0,1.7" transform="translate(0.001 5.804)" fill="#0f58d6"/><path d="M24.756,8.382a8.433,8.433,0,0,1,2.571-6.059H4.259A4.264,4.264,0,0,0,0,6.582V9.138H24.819c-.022-.253-.062-.5-.062-.757" transform="translate(0 1.934)" fill="#0f58d6"/><path d="M22.055,15.471l0-10.132a5.063,5.063,0,0,1,4.215,4.977.852.852,0,0,0,1.7,0,6.757,6.757,0,0,0-5.919-6.682l0-2.784a.852.852,0,0,0-1.7,0l0,2.784a6.734,6.734,0,0,0,0,13.367l0,10.131a5.065,5.065,0,0,1-4.206-4.981.851.851,0,1,0-1.7,0,6.759,6.759,0,0,0,5.906,6.685v2.679a.852.852,0,0,0,1.7,0V28.84a6.733,6.733,0,0,0,.005-13.369m-5.914-5.155a5.063,5.063,0,0,1,4.213-4.977l0,9.958a5.066,5.066,0,0,1-4.209-4.981m5.91,16.82,0-9.96a5.048,5.048,0,0,1,0,9.96" transform="translate(12.022 0)" fill="#0f58d6"/></g></svg>