<svg xmlns="http://www.w3.org/2000/svg" xmlns:xlink="http://www.w3.org/1999/xlink" width="30" height="30.001" viewBox="0 0 30 30.001"><defs><clipPath id="a"><rect width="30" height="30.001" fill="#485a64"/></clipPath></defs><g transform="translate(0 0)" clip-path="url(#a)"><path d="M15.42,6.524a1.3,1.3,0,1,0-2.609,0,1.3,1.3,0,1,0,2.609,0" transform="translate(4.798 1.955)" fill="#485a64"/><path d="M29.655,11.821c-.124.191-.286.433-.5.73a.653.653,0,0,1-1.064-.756c.44-.619.687-1.031.694-1.041a.632.632,0,0,1,.5-.3A15,15,0,1,0,2.125,22.668c.045-.186.1-.393.172-.634a.652.652,0,1,1,1.251.367,12.217,12.217,0,0,0-.3,1.2.644.644,0,0,1-.241.392,14.986,14.986,0,0,0,26.645-12.17M5.563,18.215a10.072,10.072,0,0,0-1.188,1.977.653.653,0,0,1-1.183-.553A11.508,11.508,0,0,1,4.537,17.41a.652.652,0,0,1,1.025.805m3.7-1.979c-.228.01-.459.03-.694.063a3.963,3.963,0,0,0-1.37.466.644.644,0,0,1-.318.082.653.653,0,0,1-.318-1.223,5.261,5.261,0,0,1,1.82-.617,7.835,7.835,0,0,1,.827-.074h.026a.652.652,0,0,1,.026,1.3m5.347.643a.651.651,0,0,1-.606.412.631.631,0,0,1-.242-.047,17.658,17.658,0,0,0-2.246-.755.652.652,0,0,1,.313-1.266,18.862,18.862,0,0,1,2.415.808.652.652,0,0,1,.366.847m4.3-11.661a3.2,3.2,0,0,1,3.26,3.262c0,2.36-3.26,7.174-3.26,7.174s-3.26-4.814-3.26-7.174a3.194,3.194,0,0,1,3.26-3.262m-.257,13.656a.74.74,0,0,1-.11-.008,13.609,13.609,0,0,1-2.481-.7.652.652,0,1,1,.455-1.222,12.325,12.325,0,0,0,2.245.636.653.653,0,0,1-.109,1.3m5.055-.973a7.81,7.81,0,0,1-2.488.966.917.917,0,0,1-.122.01.652.652,0,0,1-.118-1.293,6.579,6.579,0,0,0,2.074-.81.652.652,0,1,1,.654,1.127m3.871-3.34A19.918,19.918,0,0,1,25.8,16.37a.652.652,0,1,1-.866-.976A18.381,18.381,0,0,0,26.6,13.7a.653.653,0,1,1,.984.858" transform="translate(0 0)" fill="#485a64"/></g></svg>