<svg xmlns="http://www.w3.org/2000/svg" width="25.396" height="20.626" viewBox="0 0 25.396 20.626"><path d="M22.786,8.521c.016.226.016.451.016.677A14.708,14.708,0,0,1,7.993,24.007,14.709,14.709,0,0,1,0,21.67a10.767,10.767,0,0,0,1.257.064,10.424,10.424,0,0,0,6.462-2.224A5.214,5.214,0,0,1,2.852,15.9a6.564,6.564,0,0,0,.983.081A5.5,5.5,0,0,0,5.2,15.8,5.206,5.206,0,0,1,1.031,10.7v-.064a5.242,5.242,0,0,0,2.353.661A5.213,5.213,0,0,1,1.773,4.331,14.8,14.8,0,0,0,12.5,9.778a5.876,5.876,0,0,1-.129-1.192,5.21,5.21,0,0,1,9.008-3.561,10.248,10.248,0,0,0,3.3-1.257A5.191,5.191,0,0,1,22.4,6.636a10.434,10.434,0,0,0,3-.806,11.188,11.188,0,0,1-2.61,2.691Z" transform="translate(0 -3.381)" fill="#fff"/></svg>