<svg xmlns="http://www.w3.org/2000/svg" xmlns:xlink="http://www.w3.org/1999/xlink" width="36.667" height="40" viewBox="0 0 36.667 40"><defs><clipPath id="a"><rect width="36.667" height="40" fill="#0f58d6"/></clipPath></defs><g transform="translate(0 0)"><g transform="translate(0 0)" clip-path="url(#a)"><path d="M29.877,17.792l-.145-.365H5.4l2.666-6.667H15V9.1H7.5a.831.831,0,0,0-.775.522L3.456,17.791.244,21.005A.831.831,0,0,0,0,21.593v2.5H8.335a.833.833,0,0,1,0,1.666H0v2.5a.835.835,0,0,0,.834.834h.834v2.5a.833.833,0,0,0,.832.834h5a.834.834,0,0,0,.834-.834v-2.5H25v2.5a.834.834,0,0,0,.834.834h5a.834.834,0,0,0,.834-.834v-2.5H32.5a.834.834,0,0,0,.832-.834v-2.5H25a.833.833,0,1,1,0-1.666h8.333v-2.5a.831.831,0,0,0-.244-.588Z" transform="translate(0 7.572)" fill="#0f58d6"/><path d="M28.26,0H9.927A.833.833,0,0,0,9.1.834V22.5a.833.833,0,0,0,.832.834H28.26a.835.835,0,0,0,.834-.834V.834A.835.835,0,0,0,28.26,0m-2.5,19.167a.835.835,0,0,1-.834.834H13.26a.835.835,0,0,1-.834-.834v-15a.835.835,0,0,1,.834-.834H24.927a.835.835,0,0,1,.834.834Z" transform="translate(7.572 0)" fill="#0f58d6"/><path d="M14.122,8.2l-1.25-1.875A.833.833,0,0,1,14.26,5.4l.718,1.079,2.965-2.63A.834.834,0,0,1,19.05,5.1L15.37,8.36A.837.837,0,0,1,14.122,8.2" transform="translate(10.601 3.029)" fill="#0f58d6"/><path d="M14.122,10.908l-1.25-1.873a.833.833,0,0,1,1.387-.924l.718,1.076,2.965-2.628a.833.833,0,1,1,1.105,1.248l-3.682,3.262a.832.832,0,0,1-1.244-.161" transform="translate(10.601 5.285)" fill="#0f58d6"/></g></g></svg>