<?xml version="1.0" encoding="utf-8"?>
<!-- Generator: Adobe Illustrator 26.3.1, SVG Export Plug-In . SVG Version: 6.00 Build 0)  -->
<svg version="1.1" id="Capa_1" xmlns="http://www.w3.org/2000/svg" xmlns:xlink="http://www.w3.org/1999/xlink" x="0px" y="0px"
	 viewBox="0 0 40 32.4" style="enable-background:new 0 0 40 32.4;" xml:space="preserve">
<style type="text/css">
	.st0{clip-path:url(#SVGID_00000135654312463043480580000008639539260214295476_);}
	.st1{fill:#485A64;}
</style>
<g>
	<defs>
		<rect id="SVGID_1_" width="40" height="32.4"/>
	</defs>
	<clipPath id="SVGID_00000168820405097934363170000008616545427878540687_">
		<use xlink:href="#SVGID_1_"  style="overflow:visible;"/>
	</clipPath>
	<g transform="translate(0 0)" style="clip-path:url(#SVGID_00000168820405097934363170000008616545427878540687_);">
		<path class="st1" d="M24.8,22.2c0-1.4,1.1-2.6,2.5-2.6c1.4,0,2.6,1.1,2.6,2.5c0,0,0,0.1,0,0.1c0,0.8,0.3,1.5,0.8,2.1v-5.9
			c-2.6-0.8-4.7-2.9-5.5-5.6H0v12.8c0,2.4,1.9,4.3,4.3,4.3h25.4C26.7,28.4,24.8,25.4,24.8,22.2 M11.1,21.3H6c-0.5,0-0.9-0.3-0.9-0.8
			c0-0.5,0.3-0.9,0.8-0.9c0,0,0.1,0,0.1,0h5.1c0.5,0,0.9,0.3,0.9,0.8C12,20.9,11.6,21.3,11.1,21.3C11.1,21.3,11.1,21.3,11.1,21.3
			 M19.6,17.9H6c-0.5,0-0.8-0.4-0.8-0.9c0-0.4,0.4-0.8,0.8-0.8h13.6c0.5,0,0.8,0.4,0.8,0.9C20.4,17.5,20,17.9,19.6,17.9"/>
		<path class="st1" d="M24.8,10.3c0-2.3,0.9-4.5,2.6-6.1H4.3C1.9,4.3,0,6.2,0,8.5v2.6h24.8C24.8,10.8,24.8,10.6,24.8,10.3"/>
		<path class="st1" d="M34.1,15.5V5.3c2.4,0.4,4.2,2.5,4.2,5c0,0.5,0.4,0.8,0.9,0.8c0.4,0,0.8-0.4,0.8-0.8c0-3.4-2.5-6.3-5.9-6.7
			V0.8c0-0.5-0.4-0.8-0.9-0.8c-0.4,0-0.8,0.4-0.8,0.8v2.8c-3.7,0.5-6.3,3.8-5.9,7.5c0.4,3.1,2.8,5.5,5.9,5.9v10.1
			c-2.4-0.4-4.2-2.5-4.2-5c0-0.5-0.3-0.9-0.8-0.9c-0.5,0-0.9,0.3-0.9,0.8c0,0,0,0.1,0,0.1c0,3.4,2.5,6.3,5.9,6.7v2.7
			c0,0.5,0.4,0.8,0.9,0.8c0.4,0,0.8-0.4,0.8-0.8v-2.7c3.7-0.4,6.3-3.8,5.9-7.5C39.6,18.3,37.2,15.8,34.1,15.5 M28.2,10.3
			c0-2.5,1.8-4.6,4.2-5v10C29.9,14.9,28.2,12.8,28.2,10.3 M34.1,27.1v-10c2.8,0.5,4.6,3.1,4.2,5.8C37.9,25.1,36.2,26.8,34.1,27.1"/>
	</g>
</g>
</svg>
