<svg xmlns="http://www.w3.org/2000/svg" width="20.624" height="20.624" viewBox="0 0 20.624 20.624"><g transform="translate(0 0)"><path d="M20.562,6.06a7.571,7.571,0,0,0-.479-2.5,5.054,5.054,0,0,0-1.189-1.827A5.055,5.055,0,0,0,17.066.541a7.569,7.569,0,0,0-2.5-.479C13.464.012,13.112,0,10.312,0S7.16.012,6.06.062a7.571,7.571,0,0,0-2.5.479A5.054,5.054,0,0,0,1.731,1.731,5.055,5.055,0,0,0,.541,3.557a7.57,7.57,0,0,0-.479,2.5C.012,7.16,0,7.511,0,10.312s.012,3.152.062,4.252a7.569,7.569,0,0,0,.479,2.5,5.053,5.053,0,0,0,1.189,1.826,5.053,5.053,0,0,0,1.827,1.189,7.566,7.566,0,0,0,2.5.479c1.1.05,1.451.062,4.252.062s3.152-.012,4.252-.062a7.567,7.567,0,0,0,2.5-.479,5.272,5.272,0,0,0,3.016-3.016,7.568,7.568,0,0,0,.479-2.5c.05-1.1.062-1.451.062-4.252s-.012-3.152-.062-4.252Zm-1.856,8.419a5.706,5.706,0,0,1-.355,1.915,3.415,3.415,0,0,1-1.957,1.957,5.705,5.705,0,0,1-1.915.355c-1.087.05-1.413.06-4.167.06s-3.08-.01-4.167-.06a5.707,5.707,0,0,1-1.915-.355,3.2,3.2,0,0,1-1.186-.771,3.194,3.194,0,0,1-.771-1.186,5.705,5.705,0,0,1-.355-1.915c-.05-1.087-.06-1.413-.06-4.167s.011-3.08.06-4.167A5.71,5.71,0,0,1,2.273,4.23a3.2,3.2,0,0,1,.771-1.186A3.193,3.193,0,0,1,4.23,2.273a5.7,5.7,0,0,1,1.915-.355c1.087-.05,1.413-.06,4.167-.06h0c2.753,0,3.08.011,4.167.06a5.706,5.706,0,0,1,1.915.355,3.2,3.2,0,0,1,1.186.771A3.193,3.193,0,0,1,18.35,4.23a5.7,5.7,0,0,1,.355,1.915c.05,1.087.06,1.413.06,4.167s-.01,3.08-.06,4.167Zm0,0" transform="translate(0 0)" fill="#fff"/><path d="M129.834,124.539a5.3,5.3,0,1,0,5.3,5.3A5.3,5.3,0,0,0,129.834,124.539Zm0,8.733a3.437,3.437,0,1,1,3.437-3.437A3.437,3.437,0,0,1,129.834,133.272Zm0,0" transform="translate(-119.522 -119.522)" fill="#fff"/><path d="M364.4,89.863a1.237,1.237,0,1,1-1.237-1.238A1.237,1.237,0,0,1,364.4,89.863Zm0,0" transform="translate(-347.351 -85.055)" fill="#fff"/></g></svg>