<svg xmlns="http://www.w3.org/2000/svg" xmlns:xlink="http://www.w3.org/1999/xlink" width="40" height="33.333" viewBox="0 0 40 33.333"><defs><clipPath id="a"><rect width="40" height="33.333" transform="translate(0 0)" fill="#0f58d6"/></clipPath></defs><g transform="translate(0 0)"><g clip-path="url(#a)"><path d="M37.5,0H2.5A2.5,2.5,0,0,0,0,2.5V24.166a2.5,2.5,0,0,0,2.5,2.5H16.666v2.654A26.389,26.389,0,0,0,7.113,31.76a.833.833,0,1,0,.773,1.475c2.87-1.506,7.4-2.4,12.114-2.4s9.242.9,12.112,2.4a.833.833,0,0,0,.775-1.475,26.375,26.375,0,0,0-9.554-2.439V26.664H37.5a2.5,2.5,0,0,0,2.5-2.5V2.5A2.5,2.5,0,0,0,37.5,0m-.832,23.332H3.334v-20H36.666Z" transform="translate(0 0)" fill="#0f58d6"/><path d="M-54.114-792.616c.065.258.323.322.581.258a.428.428,0,0,0,.258-.322l.258-.968,2.194,2.193a.431.431,0,0,0,.645,0h0l.581-.581a.431.431,0,0,0,0-.645h0l-2.194-2.193.968-.258a.461.461,0,0,0,.323-.581.643.643,0,0,0-.258-.323l-4.387-1.677c-.258-.065-.516,0-.581.258a.292.292,0,0,0,0,.322Z" transform="translate(72.614 807.976)" fill="#0f58d6"/></g></g></svg>