<?xml version="1.0" encoding="utf-8"?>
<!-- Generator: Adobe Illustrator 26.3.1, SVG Export Plug-In . SVG Version: 6.00 Build 0)  -->
<svg version="1.1" id="Capa_1" xmlns="http://www.w3.org/2000/svg" xmlns:xlink="http://www.w3.org/1999/xlink" x="0px" y="0px"
	 viewBox="0 0 40 28.3" style="enable-background:new 0 0 40 28.3;" xml:space="preserve">
<style type="text/css">
	.st0{fill:#485A64;}
</style>
<path class="st0" d="M0,0.8C0,0.4,0.4,0,0.8,0c0,0,0,0,0,0h21.7c0.5,0,0.8,0.4,0.8,0.8c0,0,0,0,0,0v18.3c0,0.5,0.4,0.8,0.8,0.8
	s0.8-0.4,0.8-0.8c0,0,0,0,0,0v-15c0-0.5,0.4-0.8,0.8-0.8h0h5.8c0.3,0,0.6,0.2,0.7,0.4l4.1,7.4l3.2,3.3c0.2,0.2,0.2,0.4,0.2,0.6v9.2
	c0,0.5-0.4,0.8-0.8,0.8l0,0h-1.7c0.5-3.2-1.7-6.1-4.9-6.6c-3.2-0.5-6.1,1.7-6.6,4.9c-0.1,0.6-0.1,1.1,0,1.7H14.1
	c0.5-3.2-1.7-6.1-4.9-6.6C6,17.9,3,20.1,2.6,23.3c-0.1,0.6-0.1,1.1,0,1.7H0.8C0.4,25,0,24.6,0,24.2V0.8z M27.5,8.3h2l2.3,4.5
	c0.2,0.4,0.7,0.6,1.1,0.4c0.4-0.2,0.6-0.7,0.4-1.1l0,0l-2.5-5c-0.1-0.3-0.4-0.5-0.7-0.5h-2.5c-0.5,0-0.8,0.4-0.8,0.8
	S27,8.3,27.5,8.3"/>
<path class="st0" d="M31.7,20c-2.3,0-4.2,1.9-4.2,4.2c0,2.3,1.9,4.2,4.2,4.2c2.3,0,4.2-1.9,4.2-4.2C35.8,21.9,34,20,31.7,20L31.7,20
	"/>
<path class="st0" d="M8.3,20c-2.3,0-4.2,1.9-4.2,4.2s1.9,4.2,4.2,4.2c2.3,0,4.2-1.9,4.2-4.2C12.5,21.9,10.6,20,8.3,20"/>
</svg>
