<svg xmlns="http://www.w3.org/2000/svg" xmlns:xlink="http://www.w3.org/1999/xlink" width="56.595" height="59.19" viewBox="0 0 56.595 59.19">
  <defs>
    <clipPath id="clip-path">
      <rect id="Rectángulo_5315" data-name="Rectángulo 5315" width="20" height="22.262" fill="#fff"/>
    </clipPath>
    <clipPath id="clip-path-2">
      <rect id="Rectángulo_5316" data-name="Rectángulo 5316" width="38.445" height="18.44" fill="#0f58d6"/>
    </clipPath>
  </defs>
  <g id="Grupo_4449" data-name="Grupo 4449" transform="translate(-729.405 -1360.81)">
    <circle id="Elipse_216" data-name="Elipse 216" cx="21" cy="21" r="21" transform="translate(744 1378)" fill="#0f58d6"/>
    <g id="Grupo_4428" data-name="Grupo 4428" transform="translate(755 1387.122)" clip-path="url(#clip-path)">
      <path id="Trazado_4853" data-name="Trazado 4853" d="M14.565,0c0,.012.006.029.015.035s.025,0,.038,0c.1.018.21.032.314.055a2.136,2.136,0,0,1,.264.08c.056.021.106.057.16.081s.089.027.13.047.083.053.126.077.073.032.107.051a1.03,1.03,0,0,1,.225.138c.1.1.214.16.307.257s.172.176.251.271c.058.07.1.151.154.227.033.049.068.1.1.146s.044.077.069.112a1.475,1.475,0,0,1,.138.288.943.943,0,0,1,.085.238.807.807,0,0,0,.073.182.055.055,0,0,1,0,.012c.016.1.034.2.047.306a2.1,2.1,0,0,1,.042.459c-.006.058,0,.118,0,.176-.012.126-.022.252-.044.376-.014.08-.05.157-.072.236s-.035.156-.056.233A.615.615,0,0,1,17,4.182c-.024.052-.048.1-.073.156s-.034.075-.054.111-.053.085-.079.128-.033.064-.05.1a.966.966,0,0,1-.211.29c-.015.013-.013.046-.021.08H20V8.777H12.519V6.309l-1.3.054v15.9H8.783V6.363l-1.3-.053V8.776H0V5.044H3.474l.016-.018L3.438,4.95c-.062-.093-.128-.184-.186-.28-.049-.081-.087-.167-.132-.25S3.038,4.28,3,4.208a.748.748,0,0,1-.044-.137c-.017-.064-.03-.13-.048-.194-.026-.094-.054-.187-.08-.281a.063.063,0,0,1,0-.013,3.26,3.26,0,0,1-.034-.757c.014-.094.024-.189.035-.283a1.3,1.3,0,0,1,.039-.2,1.82,1.82,0,0,1,.071-.179c0-.01.01-.019.013-.029a2.9,2.9,0,0,1,.1-.305,2.929,2.929,0,0,1,.156-.268c.018-.031.03-.065.046-.1a2.112,2.112,0,0,1,.207-.3A2.261,2.261,0,0,1,3.646.943c.065-.069.132-.136.2-.2a2.324,2.324,0,0,1,.2-.171c.054-.039.116-.065.174-.1.019-.011.032-.031.051-.041C4.337.4,4.4.375,4.459.343S4.6.26,4.671.227,4.8.189,4.859.168s.134-.049.2-.073l.013,0C5.184.074,5.3.057,5.406.036A.244.244,0,0,0,5.473,0h.783c.007.012.014.033.021.033a.951.951,0,0,1,.3.052c.072.027.153.026.225.052.088.032.171.08.257.119s.149.058.22.094A2.354,2.354,0,0,1,7.5.478a2.267,2.267,0,0,1,.223.159,2.794,2.794,0,0,1,.268.247c.1.107.186.224.277.338.029.036.051.077.08.112s.057.05.077.081c.05.076.093.157.143.233.073.111.148.22.224.329.018.026.041.048.058.074.036.059.07.119.1.179.021.037.038.075.061.111.035.056.076.109.11.167s.062.126.1.186.085.123.121.188c.049.091.091.185.137.278.016.032.035.063.053.094s.051.08.073.122.041.09.064.133c.034.063.074.123.106.187s.062.144.1.214.068.113.106.177l.049,0c.038-.084.071-.165.111-.242.067-.132.139-.262.209-.393.019-.035.037-.072.057-.106.037-.063.076-.126.112-.189s.059-.106.086-.16c.018-.035.032-.071.048-.106s.028-.066.046-.1c.04-.069.082-.137.124-.2l.124-.2c.031-.049.065-.1.093-.145s.064-.127.1-.187.078-.11.116-.166.07-.108.106-.161.071-.1.106-.153.08-.122.124-.18c.029-.039.079-.068.094-.111.031-.089.107-.139.161-.207.076-.1.156-.188.24-.277a1.105,1.105,0,0,1,.17-.151.921.921,0,0,1,.2-.141c.06-.022.1-.082.162-.115s.149-.068.223-.1.145-.082.221-.112a1.38,1.38,0,0,1,.2-.049c.008,0,.018,0,.026,0,.085-.027.168-.06.254-.081a1.4,1.4,0,0,1,.149-.01c.018,0,.033-.023.049-.035ZM11.026,5.043c.045,0,.067,0,.088,0,.21-.012.42-.022.629-.038a8.076,8.076,0,0,0,.964-.043c.167-.033.342.012.514-.037a1.7,1.7,0,0,1,.3-.014c.076-.007.15-.031.226-.042A1.38,1.38,0,0,0,14,4.836a2.351,2.351,0,0,1,.352-.054A2.5,2.5,0,0,0,14.6,4.73c.077-.021.152-.049.228-.075.054-.019.106-.039.159-.059a.357.357,0,0,0,.093-.039c.087-.068.175-.137.255-.213a1.962,1.962,0,0,0,.182-.2,1.094,1.094,0,0,0,.123-.182.641.641,0,0,0,.1-.209.514.514,0,0,1,.047-.142.709.709,0,0,0,.078-.266c0-.05,0-.1,0-.15a.576.576,0,0,1,.019-.085.736.736,0,0,1-.018-.1c0-.08,0-.161,0-.241a.187.187,0,0,0-.005-.058,1.684,1.684,0,0,1-.079-.214.787.787,0,0,0-.082-.2,1.152,1.152,0,0,0-.134-.232c-.052-.061-.089-.136-.146-.191-.09-.088-.19-.166-.287-.247a.482.482,0,0,0-.09-.057.7.7,0,0,1-.12-.054.306.306,0,0,0-.185-.08.085.085,0,0,1-.032-.006,1.326,1.326,0,0,0-.17-.074,1,1,0,0,0-.243-.043,1.415,1.415,0,0,0-.385.022,3.2,3.2,0,0,0-.376.1c-.069.027-.133.059-.2.089a.921.921,0,0,0-.225.143,2.08,2.08,0,0,0-.236.226c-.085.1-.156.215-.234.322-.055.075-.111.149-.166.224-.02.027-.036.057-.055.085l-.113.169-.12.184c-.033.051-.067.1-.1.153s-.057.1-.085.156c-.016.029-.033.058-.048.088-.034.068-.064.138-.1.2s-.078.117-.113.178-.065.132-.1.2c-.051.091-.106.18-.157.271s-.088.169-.132.254l-.048.1c-.026.051-.053.1-.078.153s-.035.081-.055.12-.049.089-.071.135-.046.1-.076.172m-2.053,0c-.031-.068-.054-.122-.081-.174s-.046-.078-.065-.118-.034-.09-.056-.133c-.036-.069-.079-.135-.115-.2-.022-.041-.036-.087-.056-.129s-.033-.072-.052-.107S8.5,4.1,8.476,4.053a.639.639,0,0,0-.05-.123.942.942,0,0,1-.13-.223,1.824,1.824,0,0,0-.156-.242.988.988,0,0,1-.055-.105c-.02-.041-.035-.084-.056-.123-.052-.093-.108-.185-.161-.277-.032-.056-.061-.114-.095-.169s-.081-.117-.122-.176l-.124-.178c-.03-.043-.062-.084-.091-.128-.049-.073-.093-.149-.145-.22s-.106-.135-.163-.2A1.833,1.833,0,0,0,6.938,1.7a2.2,2.2,0,0,0-.235-.16,1.044,1.044,0,0,0-.18-.1,1.911,1.911,0,0,0-.293-.088,1.61,1.61,0,0,0-.337-.042c-.142,0-.284.026-.426.041a.085.085,0,0,0-.025.006.518.518,0,0,1-.169.07c-.1,0-.167.084-.259.1a.227.227,0,0,0-.09.043c-.064.05-.121.112-.188.157a1.89,1.89,0,0,0-.342.367.95.95,0,0,0-.128.231,1.124,1.124,0,0,0-.086.239,1.006,1.006,0,0,0-.053.35.555.555,0,0,1,0,.13c0,.022-.021.044-.02.065.007.1.018.191.027.286a.144.144,0,0,0,.008.038.854.854,0,0,1,.075.193,1.246,1.246,0,0,0,.146.341.34.34,0,0,0,.042.074c.053.067.105.135.163.2a2.019,2.019,0,0,0,.157.149c.049.044.1.084.153.125a.412.412,0,0,0,.073.047c.049.024.1.045.15.065a1.346,1.346,0,0,0,.168.064c.079.021.162.029.241.048.1.024.2.059.3.08.079.016.159.015.24.035.121.03.25.016.376.049.144.037.3.007.448.042a4.06,4.06,0,0,0,.545.038c.455.04.914.042,1.372.058.054,0,.107,0,.182,0" transform="translate(0 0.001)" fill="#fff"/>
      <rect id="Rectángulo_5313" data-name="Rectángulo 5313" width="6.771" height="12.167" transform="translate(0.704 10.092)" fill="#fff"/>
      <rect id="Rectángulo_5314" data-name="Rectángulo 5314" width="6.776" height="12.165" transform="translate(12.521 10.091)" fill="#fff"/>
    </g>
    <g id="Grupo_4432" data-name="Grupo 4432" transform="translate(729.404 1394.104) rotate(-60)">
      <g id="Grupo_4431" data-name="Grupo 4431" transform="translate(0 0)" clip-path="url(#clip-path-2)">
        <path id="Trazado_4854" data-name="Trazado 4854" d="M7.489,9.3a.6.6,0,0,1-.657-.1A27.708,27.708,0,0,0,4.108,7.24l-1.133.535L4.121,10.2a.619.619,0,0,1-.3.833.626.626,0,0,1-.833-.3l-2.93-6.2a.632.632,0,0,1,.3-.833l1.888-.893c1.57-.742,2.66-.309,3.219.874l.2.417A1.954,1.954,0,0,1,5.2,6.468,27.257,27.257,0,0,1,7.644,8.243.624.624,0,0,1,7.489,9.3M4.333,4.217c-.245-.517-.771-.73-1.605-.336l-1.3.615L2.486,6.742l1.272-.6c.785-.371,1.025-.97.771-1.507Z" transform="translate(0 -0.206)" fill="#0f58d6"/>
        <path id="Trazado_4855" data-name="Trazado 4855" d="M13.89,7.909l-3.664.556a.591.591,0,0,1-.676-.5L8.528,1.226a.6.6,0,0,1,.5-.687L12.536.006a.6.6,0,0,1,.678.509.592.592,0,0,1-.5.676l-2.859.434.334,2.206,2.6-.394a.583.583,0,0,1,.174,1.152l-2.6.395L10.7,7.192l3.011-.457a.594.594,0,0,1,.179,1.174" transform="translate(-0.717 0)" fill="#0f58d6"/>
        <path id="Trazado_4856" data-name="Trazado 4856" d="M18.565,8.329c-2.057-.29-2.633-1.793-2.344-3.839L16.4,3.238c.278-1.97,1.28-3.327,3.37-3.032a2.738,2.738,0,0,1,1.7.851.664.664,0,0,1,.184.5.549.549,0,0,1-.643.464.805.805,0,0,1-.45-.275,1.77,1.77,0,0,0-.951-.422c-1.11-.158-1.749.507-1.974,2.108l-.172,1.219c-.237,1.676.182,2.4,1.26,2.554,1.045.147,1.506-.443,1.638-1.378l.064-.458-1-.141a.577.577,0,1,1,.162-1.143l1.611.227a.581.581,0,0,1,.5.7l-.135.947a2.466,2.466,0,0,1-3,2.364" transform="translate(-1.36 -0.014)" fill="#0f58d6"/>
        <path id="Trazado_4857" data-name="Trazado 4857" d="M26.76,11.219a.593.593,0,0,1-.329-.7c.1-.464.173-.94.253-1.4l-2.59-1.209c-.31.352-.615.72-.911,1.092a.587.587,0,0,1-.736.2.6.6,0,0,1-.227-.943A45.924,45.924,0,0,1,27.078,3.03c.446-.411.752-.389,1.011-.268s.477.356.453.952A45.854,45.854,0,0,1,27.65,10.8a.613.613,0,0,1-.889.422m.477-6.659c-.816.784-1.621,1.6-2.389,2.464l2.032.95c.161-1.151.278-2.286.357-3.414" transform="translate(-1.859 -0.227)" fill="#0f58d6"/>
        <path id="Trazado_4858" data-name="Trazado 4858" d="M31.543,14.873l-2.787-2.389a.591.591,0,0,1-.064-.837l4.486-5.231a.634.634,0,0,1,.884-.068.627.627,0,0,1,.068.884l-4.1,4.78,2.286,1.961a.594.594,0,0,1-.773.9" transform="translate(-2.404 -0.522)" fill="#0f58d6"/>
        <path id="Trazado_4859" data-name="Trazado 4859" d="M33.852,18.158a2.658,2.658,0,0,1,.919-3.987l1.892-1.264a2.647,2.647,0,0,1,4.024.682,2.657,2.657,0,0,1-.9,3.988l-1.892,1.264a2.665,2.665,0,0,1-4.04-.684m5.236-1.622c.859-.574,1.316-1.315.65-2.311s-1.51-.855-2.378-.275l-1.892,1.264c-.867.58-1.324,1.322-.665,2.309s1.525.858,2.394.277Z" transform="translate(-2.803 -1.034)" fill="#0f58d6"/>
      </g>
    </g>
  </g>
</svg>
