<?xml version="1.0" encoding="utf-8"?>
<!-- Generator: Adobe Illustrator 26.3.1, SVG Export Plug-In . SVG Version: 6.00 Build 0)  -->
<svg version="1.1" id="Capa_1" xmlns="http://www.w3.org/2000/svg" xmlns:xlink="http://www.w3.org/1999/xlink" x="0px" y="0px"
	 viewBox="0 0 36.7 40" style="enable-background:new 0 0 36.7 40;" xml:space="preserve">
<style type="text/css">
	.st0{clip-path:url(#SVGID_00000090993621726785410370000011717731327700465581_);}
	.st1{fill:#485A64;}
</style>
<g transform="translate(0 0)">
	<g>
		<defs>
			<rect id="SVGID_1_" width="36.7" height="40"/>
		</defs>
		<clipPath id="SVGID_00000143581456551782489350000006623078383512164998_">
			<use xlink:href="#SVGID_1_"  style="overflow:visible;"/>
		</clipPath>
		<g transform="translate(0 0)" style="clip-path:url(#SVGID_00000143581456551782489350000006623078383512164998_);">
			<path class="st1" d="M29.9,25.4L29.7,25H5.4l2.7-6.7H15v-1.7H7.5c-0.3,0-0.6,0.2-0.8,0.5l-3.3,8.2l-3.2,3.2
				C0.1,28.7,0,28.9,0,29.2v2.5h8.3c0.5,0,0.8,0.4,0.8,0.8s-0.4,0.8-0.8,0.8H0v2.5c0,0.5,0.4,0.8,0.8,0.8h0.8v2.5
				C1.7,39.6,2,40,2.5,40c0,0,0,0,0,0h5c0.5,0,0.8-0.4,0.8-0.8v-2.5H25v2.5c0,0.5,0.4,0.8,0.8,0.8h5c0.5,0,0.8-0.4,0.8-0.8v-2.5h0.8
				c0.5,0,0.8-0.4,0.8-0.8v-2.5H25c-0.5,0-0.8-0.4-0.8-0.8s0.4-0.8,0.8-0.8h8.3v-2.5c0-0.2-0.1-0.4-0.2-0.6L29.9,25.4z"/>
			<path class="st1" d="M35.8,0H17.5c-0.5,0-0.8,0.4-0.8,0.8v21.7c0,0.5,0.4,0.8,0.8,0.8c0,0,0,0,0,0h18.3c0.5,0,0.8-0.4,0.8-0.8
				V0.8C36.7,0.4,36.3,0,35.8,0 M33.3,19.2c0,0.5-0.4,0.8-0.8,0.8H20.8c-0.5,0-0.8-0.4-0.8-0.8v-15c0-0.5,0.4-0.8,0.8-0.8h11.7
				c0.5,0,0.8,0.4,0.8,0.8L33.3,19.2z"/>
			<path class="st1" d="M24.7,11.2l-1.2-1.9c-0.3-0.4-0.2-0.9,0.2-1.2c0.4-0.3,0.9-0.2,1.2,0.2l0.7,1.1l3-2.6
				c0.3-0.3,0.9-0.3,1.2,0.1s0.3,0.9-0.1,1.2l0,0L26,11.4C25.6,11.7,25.1,11.7,24.7,11.2C24.8,11.3,24.7,11.3,24.7,11.2"/>
			<path class="st1" d="M24.7,16.2l-1.2-1.9c-0.3-0.4-0.2-0.9,0.2-1.2s0.9-0.2,1.2,0.2l0.7,1.1l3-2.6c0.3-0.3,0.9-0.3,1.2,0.1
				c0.3,0.3,0.3,0.9-0.1,1.2L26,16.4C25.6,16.7,25.1,16.6,24.7,16.2C24.8,16.3,24.7,16.2,24.7,16.2"/>
		</g>
	</g>
</g>
</svg>
