<svg xmlns="http://www.w3.org/2000/svg" xmlns:xlink="http://www.w3.org/1999/xlink" width="120" height="28.237" viewBox="0 0 120 28.237"><defs><clipPath id="a"><rect width="120" height="28.237" fill="#fff"/></clipPath></defs><g transform="translate(0 -1.702)"><g transform="translate(0 1.702)" clip-path="url(#a)"><path d="M34.235,28.235a1.059,1.059,0,0,0,1.058-1.059V11.647a1.058,1.058,0,0,0-1.059-1.058H14.823a.706.706,0,0,1-.706-.706V4.235a.706.706,0,0,1,.706-.706H20.47a.706.706,0,0,1,.706.706V6a1.059,1.059,0,0,0,1.059,1.059h8.47A1.059,1.059,0,0,0,31.765,6V1.059A1.059,1.059,0,0,0,30.706,0H4.586A1.059,1.059,0,0,0,3.527,1.059v12a1.058,1.058,0,0,0,1.059,1.058H24a.707.707,0,0,1,.706.706V24a.706.706,0,0,1-.706.706H11.294A.706.706,0,0,1,10.588,24V18.705a1.059,1.059,0,0,0-1.059-1.058H1.059A1.058,1.058,0,0,0,0,18.705v8.471a1.059,1.059,0,0,0,1.059,1.059Z" transform="translate(0 0)" fill="#fff"/><path d="M108.236,18.095a.177.177,0,0,1,.3-.127l9.882,9.882a1.056,1.056,0,0,0,.817.386h12.647a1.058,1.058,0,0,0,1.059-1.058V18.711a1.059,1.059,0,0,0-1.059-1.059h-9.126a1.056,1.056,0,0,1-.817-.385l-6.554-6.554a.174.174,0,0,1,0-.248l3.016-3.02a1.056,1.056,0,0,1,.817-.385h9.136A1.059,1.059,0,0,0,129.412,6V1.059A1.059,1.059,0,0,0,128.354,0h-9.119a1.056,1.056,0,0,0-.817.386l-9.882,9.882a.177.177,0,0,1-.3-.127V1.059A1.059,1.059,0,0,0,107.176,0H96.945a1.059,1.059,0,0,0-1.058,1.059V9.53a1.059,1.059,0,0,0,1.058,1.059.706.706,0,0,1,.706.705v5.647a.706.706,0,0,1-.706.706,1.058,1.058,0,0,0-1.058,1.058v8.471a1.059,1.059,0,0,0,1.058,1.059h10.231a1.06,1.06,0,0,0,1.059-1.059Z" transform="translate(-55.295 0)" fill="#fff"/><path d="M207.211,28.235a1.06,1.06,0,0,0,1.059-1.059V18.705a1.059,1.059,0,0,0-1.059-1.058.707.707,0,0,1-.706-.706V14.823a.706.706,0,0,1,.706-.706h3.877a.706.706,0,0,1,.705.706,1.059,1.059,0,0,0,1.059,1.058h8.481a1.059,1.059,0,0,0,1.059-1.058V9.882a1.059,1.059,0,0,0-1.059-1.058h-8.481a1.059,1.059,0,0,0-1.059,1.058.705.705,0,0,1-.705.705h-3.877a.707.707,0,0,1-.706-.706V4.235a.706.706,0,0,1,.706-.706h10.945a.705.705,0,0,1,.705.706V6a1.06,1.06,0,0,0,1.06,1.059h12A1.059,1.059,0,0,0,232.982,6V1.059A1.059,1.059,0,0,0,231.923,0H196.98a1.059,1.059,0,0,0-1.058,1.059v8.47a1.059,1.059,0,0,0,1.058,1.059.706.706,0,0,1,.706.705v5.647a.706.706,0,0,1-.706.706,1.058,1.058,0,0,0-1.058,1.058v8.471a1.059,1.059,0,0,0,1.058,1.059Z" transform="translate(-112.982 0)" fill="#fff"/><path d="M269.682,53.514V52.42h.729c.373,0,.771.081.771.519,0,.543-.405.575-.86.575Zm0,.454h.616l.933,1.532h.6l-1.005-1.557a.919.919,0,0,0,.916-.972c0-.7-.414-1.005-1.248-1.005h-1.345V55.5h.535Zm.627,3.247a3.483,3.483,0,1,0-3.537-3.491,3.477,3.477,0,0,0,3.537,3.491m-2.837-3.491a2.829,2.829,0,1,1,2.837,2.911,2.817,2.817,0,0,1-2.837-2.911" transform="translate(-153.839 -28.978)" fill="#fff"/></g></g></svg>