<svg xmlns="http://www.w3.org/2000/svg" xmlns:xlink="http://www.w3.org/1999/xlink" width="27.5" height="37.626" viewBox="0 0 27.5 37.626"><defs><clipPath id="a"><rect width="27.5" height="37.626" fill="none"/></clipPath><clipPath id="b"><rect width="23.72" height="23.72" fill="none"/></clipPath></defs><rect width="27.5" height="37.626" fill="#00abed"/><g clip-path="url(#a)"><g transform="translate(1.899 2.523)" style="isolation:isolate"><g clip-path="url(#b)"><rect width="23.72" height="23.72" transform="translate(0)" fill="#fff"/></g></g></g><path d="M276.076,309.129h-6.634v6.652h6.634Zm-21.594,6.644h6.6v-6.65h-6.6Zm-.013,14.979h6.588v-6.63h-6.588Zm15.5-11.568h2.946v-2.926h-2.946Zm-6.652-1.955h-2.924v2.923h2.924Zm.231,11.961h2.926v-2.9h-2.926Zm2.312-16.522h2.9v-2.94h-2.9Zm-1.1-.722h-2.922v2.932h2.922Zm3.8,6.245h-2.915V321.1h2.915Zm4.638,3.8h2.93v-2.9H273.2ZM255.588,323.5h2.936V320.58h-2.936Zm17.265,7.84h2.922v-2.931h-2.922ZM255.06,319.534h2.9v-2.892h-2.9Zm7.24,4.891h2.922V321.56H262.3ZM268.295,328H273.5v-5.15h-5.206Z" transform="translate(-251.555 -305.582)" fill="#fff"/><path d="M1568.548,316.352h-6.634V309.7h6.634Zm-6.1-.562h5.592v-5.572h-5.592Z" transform="translate(-1544.027 -306.153)" fill="#161615"/><path d="M255.6,309.123h6.6v6.65h-6.6Zm.508,6.108h5.556v-5.573h-5.556Z" transform="translate(-252.67 -305.583)" fill="#161615"/><path d="M254.469,1618.919h6.588v6.63h-6.588Zm6.074.563h-5.552v5.582h5.552Z" transform="translate(-251.555 -1600.379)" fill="#161615"/><rect width="2.946" height="2.926" transform="translate(18.416 10.676)" fill="#161615"/><rect width="2.924" height="2.923" transform="translate(8.839 11.647)" fill="#161615"/><rect width="2.926" height="2.903" transform="translate(11.994 20.705)" fill="#161615"/><rect width="2.899" height="2.94" transform="translate(14.306 4.145)" fill="#161615"/><rect width="2.922" height="2.932" transform="translate(10.281 6.363)" fill="#161615"/><rect width="2.915" height="2.913" transform="translate(14.092 12.608)" fill="#161615"/><rect width="2.93" height="2.897" transform="translate(21.644 13.509)" fill="#161615"/><rect width="2.936" height="2.922" transform="translate(4.033 14.998)" fill="#161615"/><rect width="2.922" height="2.931" transform="translate(21.298 22.829)" fill="#161615"/><rect width="2.903" height="2.892" transform="translate(3.505 11.061)" fill="#161615"/><rect width="2.922" height="2.866" transform="translate(10.745 15.978)" fill="#161615"/><path d="M1461.768,1508.039h5.206v5.15h-5.206Zm4.789.4h-4.365v4.372h4.365Z" transform="translate(-1445.028 -1490.769)" fill="#161615"/><path d="M1608.26,355.022h5.592v5.572h-5.592Zm.84,4.781h3.952v-3.989H1609.1Z" transform="translate(-1589.842 -350.956)" fill="#fff"/><path d="M299.99,355.848h5.556v5.573H299.99Zm4.771.783h-3.979v3.979h3.979Z" transform="translate(-296.555 -351.773)" fill="#fff"/><path d="M305.637,1673.707h-5.552v-5.582h5.552Zm-4.744-.844h3.937v-3.978h-3.937Z" transform="translate(-296.648 -1649.022)" fill="#fff"/><path d="M1503.12,1547.365h-4.365v-4.372h4.365Zm-2.969-1.382h1.556v-1.635h-1.556Z" transform="translate(-1481.591 -1525.323)" fill="#fff"/><rect width="3.952" height="3.989" transform="translate(19.258 4.857)" fill="#161615"/><rect width="3.979" height="3.979" transform="translate(4.228 4.858)" fill="#161615"/><rect width="3.937" height="3.978" transform="translate(4.245 19.863)" fill="#161615"/><rect width="1.556" height="1.635" transform="translate(18.56 19.025)" fill="#161615"/><g clip-path="url(#a)"><path d="M466.737,2455.7h2.4a1.071,1.071,0,0,0,1.07-1.07v-.66a1.072,1.072,0,0,0-1.068-1.07l-2.4-.006h0a.451.451,0,0,0-.45.45v1.906a.451.451,0,0,0,.45.45m.088-2.268,2.311.006a.533.533,0,0,1,.531.532v.66a.533.533,0,0,1-.532.532h-2.31Z" transform="translate(-460.947 -2424.801)" fill="#fff"/><path d="M852.405,2455.571a.269.269,0,0,0,.455-.12l.24-.932h2.423l.274.935a.282.282,0,0,0,.264.2.272.272,0,0,0,.076-.011.269.269,0,0,0,.183-.334l-.641-2.187a.4.4,0,0,0-.374-.282h-2.037a.384.384,0,0,0-.372.288l-.563,2.183a.269.269,0,0,0,.073.26m2.785-2.187.173.59h-2.123l.152-.59Z" transform="translate(-842.564 -2424.75)" fill="#fff"/><path d="M1620.015,2456.15a.269.269,0,0,0,.328-.193l.24-.933h2.427l.276.941a.269.269,0,0,0,.258.194.264.264,0,0,0,.076-.011.269.269,0,0,0,.182-.334l-.641-2.187a.386.386,0,0,0-.368-.276h-2.037a.383.383,0,0,0-.371.288l-.563,2.183a.269.269,0,0,0,.193.328m.86-2.26h1.8l.175.6h-2.13Z" transform="translate(-1601.263 -2425.255)" fill="#fff"/><path d="M1477.119,2820.775a.386.386,0,0,0-.368-.276h-2.038a.384.384,0,0,0-.371.288l-.563,2.183a.269.269,0,1,0,.521.134l.24-.932h2.427l.276.941a.269.269,0,0,0,.258.194.272.272,0,0,0,.076-.011.269.269,0,0,0,.182-.334Zm-2.439.859.154-.6h1.8l.175.6Z" transform="translate(-1456.893 -2788.199)" fill="#fff"/><path d="M1240.108,2453.378a.269.269,0,0,0,0-.538H1236.6a.269.269,0,0,0,0,.538h1.427v2a.269.269,0,1,0,.538,0v-2Z" transform="translate(-1222.172 -2424.75)" fill="#fff"/><path d="M235.08,2820.5h-3.247a.439.439,0,0,0-.439.439v2.1a.269.269,0,0,0,.538,0v-.842h2.491a.269.269,0,1,0,0-.538h-2.491v-.62h3.147a.269.269,0,0,0,0-.538" transform="translate(-228.744 -2788.199)" fill="#fff"/><path d="M622.811,2820.5a.269.269,0,0,0-.269.269v2.269a.269.269,0,0,0,.538,0v-2.269a.269.269,0,0,0-.269-.269" transform="translate(-615.413 -2788.199)" fill="#fff"/><path d="M714.457,2821.657h-2.24a.287.287,0,0,1-.286-.286v-.047a.287.287,0,0,1,.286-.286H715a.269.269,0,0,0,0-.538h-2.784a.825.825,0,0,0-.825.825v.047a.825.825,0,0,0,.825.824h2.24a.286.286,0,0,1,0,.573h-2.8a.269.269,0,1,0,0,.538h2.8a.824.824,0,1,0,0-1.649" transform="translate(-703.246 -2788.199)" fill="#fff"/><path d="M1097.409,2821.037h2.5a.269.269,0,1,0,0-.538h-2.5a1,1,0,0,0-.994.994v.819a1,1,0,0,0,.994.994h2.5a.269.269,0,1,0,0-.538h-2.5a.457.457,0,0,1-.456-.456v-.819a.457.457,0,0,1,.456-.456" transform="translate(-1083.859 -2788.199)" fill="#fff"/><path d="M1866.01,2822.265a.269.269,0,0,0-.269.269v.234h-2.83v-2a.269.269,0,1,0-.538,0v2.082a.457.457,0,0,0,.456.456h2.994a.457.457,0,0,0,.456-.456v-.316a.269.269,0,0,0-.269-.269" transform="translate(-1841.044 -2788.199)" fill="#fff"/></g></svg>