<svg xmlns="http://www.w3.org/2000/svg" xmlns:xlink="http://www.w3.org/1999/xlink" width="18.604" height="20" viewBox="0 0 18.604 20"><defs><clipPath id="a"><rect width="18.604" height="20" fill="#fff"/></clipPath></defs><g transform="translate(-964 -1492)"><g transform="translate(964 1492)"><g transform="translate(0 0)" clip-path="url(#a)"><path d="M6.795,5.116A3.843,3.843,0,0,0,9.885,3.572a.464.464,0,0,1,.4-.25.451.451,0,0,1,.413.235c.793,1.389,1.633,1.829,2.982,1.569l1.034-.256C14.254,2.1,12.181,0,9.7,0A5.351,5.351,0,0,0,4.765,4.483a3.606,3.606,0,0,0,2.03.633" transform="translate(-0.399 0)" fill="#fff"/><path d="M4.211,5.884a6.451,6.451,0,0,0,2.3,5.645v2.052L2.16,15.135A3.265,3.265,0,0,0,0,18.2v1.755a.466.466,0,0,0,.465.465H18.139a.465.465,0,0,0,.465-.465V18.2a3.264,3.264,0,0,0-2.161-3.066l-4.35-1.553V11.53a6.478,6.478,0,0,0,2.315-5.305,6.018,6.018,0,0,1-1.812.323A3.2,3.2,0,0,1,9.869,5.027,5.11,5.11,0,0,1,6.4,6.468a4.252,4.252,0,0,1-2.184-.585" transform="translate(0 -0.421)" fill="#fff"/></g></g></g></svg>