<?xml version="1.0" encoding="utf-8"?>
<!-- Generator: Adobe Illustrator 26.3.1, SVG Export Plug-In . SVG Version: 6.00 Build 0)  -->
<svg version="1.1" id="Capa_1" xmlns="http://www.w3.org/2000/svg" xmlns:xlink="http://www.w3.org/1999/xlink" x="0px" y="0px"
	 viewBox="0 0 30 30" style="enable-background:new 0 0 30 30;" xml:space="preserve">
<style type="text/css">
	.st0{clip-path:url(#SVGID_00000136369271945924052680000017767944736111428739_);}
	.st1{fill:#0F58D6;}
</style>
<g>
	<defs>
		<rect id="SVGID_1_" width="30" height="30"/>
	</defs>
	<clipPath id="SVGID_00000128461776939785374010000017599040960969744816_">
		<use xlink:href="#SVGID_1_"  style="overflow:visible;"/>
	</clipPath>
	<g transform="translate(0 0)" style="clip-path:url(#SVGID_00000128461776939785374010000017599040960969744816_);">
		<path class="st1" d="M20.2,8.5c0-0.7-0.6-1.3-1.3-1.3s-1.3,0.6-1.3,1.3s0.6,1.3,1.3,1.3S20.2,9.2,20.2,8.5"/>
		<path class="st1" d="M29.7,11.8c-0.1,0.2-0.3,0.4-0.5,0.7c-0.2,0.3-0.6,0.3-0.9,0.1c-0.3-0.2-0.3-0.6-0.1-0.9c0.4-0.6,0.7-1,0.7-1
			c0.1-0.2,0.3-0.3,0.5-0.3C26.8,2.5,18.4-1.9,10.5,0.6S-1.8,11.4,0.6,19.4c0.4,1.2,0.9,2.3,1.5,3.3c0-0.2,0.1-0.4,0.2-0.6
			c0.1-0.3,0.5-0.6,0.8-0.5s0.6,0.5,0.5,0.8c0,0,0,0,0,0c-0.1,0.4-0.2,0.8-0.3,1.2c0,0.2-0.1,0.3-0.2,0.4c5,6.6,14.3,8,21,3
			C28.7,23.5,30.9,17.6,29.7,11.8 M5.6,18.2c-0.5,0.6-0.9,1.3-1.2,2c-0.2,0.3-0.5,0.5-0.9,0.3C3.2,20.3,3,20,3.2,19.6
			c0.4-0.8,0.8-1.5,1.3-2.2c0.2-0.3,0.6-0.3,0.9-0.1C5.7,17.6,5.8,17.9,5.6,18.2 M9.3,16.2c-0.2,0-0.5,0-0.7,0.1
			c-0.5,0.1-0.9,0.2-1.4,0.5c-0.1,0.1-0.2,0.1-0.3,0.1c-0.4,0-0.7-0.3-0.7-0.7c0-0.2,0.1-0.5,0.3-0.6c0.6-0.3,1.2-0.5,1.8-0.6
			c0.3,0,0.6-0.1,0.8-0.1h0c0.4,0,0.6,0.3,0.6,0.7C9.8,15.9,9.6,16.2,9.3,16.2 M14.6,16.9c-0.1,0.2-0.3,0.4-0.6,0.4
			c-0.1,0-0.2,0-0.2,0c-0.7-0.3-1.5-0.6-2.2-0.8C11.2,16.4,11,16,11,15.7c0.1-0.3,0.4-0.6,0.8-0.5c0.8,0.2,1.6,0.5,2.4,0.8
			C14.6,16.2,14.7,16.5,14.6,16.9C14.6,16.9,14.6,16.9,14.6,16.9 M18.9,5.2c1.8,0,3.2,1.4,3.3,3.1c0,0,0,0.1,0,0.1
			c0,2.4-3.3,7.2-3.3,7.2s-3.3-4.8-3.3-7.2c0-1.8,1.4-3.2,3.1-3.3C18.8,5.2,18.9,5.2,18.9,5.2 M18.7,18.9c0,0-0.1,0-0.1,0
			c-0.8-0.2-1.7-0.4-2.5-0.7c-0.3-0.1-0.5-0.5-0.4-0.8c0.1-0.3,0.5-0.5,0.8-0.4c0,0,0,0,0,0c0.7,0.3,1.5,0.5,2.2,0.6
			c0.4,0,0.6,0.4,0.6,0.7C19.3,18.6,19,18.9,18.7,18.9 M23.7,17.9c-0.8,0.5-1.6,0.8-2.5,1c0,0-0.1,0-0.1,0c-0.4,0-0.7-0.3-0.7-0.7
			c0-0.3,0.2-0.6,0.5-0.6c0.7-0.2,1.4-0.4,2.1-0.8c0.3-0.2,0.7-0.1,0.9,0.2C24.1,17.3,24.1,17.7,23.7,17.9
			C23.7,17.9,23.7,17.9,23.7,17.9 M27.6,14.6c-0.6,0.6-1.1,1.2-1.8,1.8c-0.3,0.2-0.7,0.2-0.9-0.1s-0.2-0.7,0.1-0.9l0,0
			c0.6-0.5,1.1-1.1,1.7-1.7c0.2-0.3,0.6-0.3,0.9-0.1S27.8,14.3,27.6,14.6C27.6,14.5,27.6,14.5,27.6,14.6"/>
	</g>
</g>
</svg>
