<svg xmlns="http://www.w3.org/2000/svg" width="29.335" height="20.626" viewBox="0 0 29.335 20.626"><path d="M29.772,7.727a3.686,3.686,0,0,0-2.594-2.61C24.891,4.5,15.718,4.5,15.718,4.5s-9.173,0-11.461.617a3.686,3.686,0,0,0-2.594,2.61,38.667,38.667,0,0,0-.613,7.107,38.667,38.667,0,0,0,.613,7.107,3.631,3.631,0,0,0,2.594,2.569c2.288.617,11.461.617,11.461.617s9.173,0,11.461-.617a3.631,3.631,0,0,0,2.594-2.569,38.667,38.667,0,0,0,.613-7.107,38.667,38.667,0,0,0-.613-7.107ZM12.717,19.2V10.472l7.667,4.362L12.717,19.2Z" transform="translate(-1.05 -4.5)" fill="#fff"/></svg>