<svg xmlns="http://www.w3.org/2000/svg" xmlns:xlink="http://www.w3.org/1999/xlink" width="40" height="39.998" viewBox="0 0 40 39.998"><defs><clipPath id="a"><rect width="40" height="39.998" fill="#485a64"/></clipPath></defs><g transform="translate(0 0)" clip-path="url(#a)"><path d="M39.166,38.332h-.834V9.167a.832.832,0,0,0-.832-.834H34.167a.833.833,0,0,0-.834.834v9.165H30V16.666h.834a.835.835,0,0,0,.834-.834v-2.5h-5a.833.833,0,0,1,0-1.666h5v-.834a.838.838,0,0,0-.244-.588l-3.17-3.17L26.644.632A.836.836,0,0,0,25.834,0H14.166a.831.831,0,0,0-.808.63L11.749,7.072l-3.17,3.172a.832.832,0,0,0-.246.588v.834h5a.833.833,0,0,1,0,1.666h-5v2.5a.835.835,0,0,0,.834.834H10v1.666H6.667V9.167a.833.833,0,0,0-.834-.834H2.5a.832.832,0,0,0-.832.834V38.332H.834A.833.833,0,1,0,.834,40H7.5a.833.833,0,0,0,0-1.666H6.667V20H33.333V38.332H32.5A.833.833,0,0,0,32.5,40h6.667a.833.833,0,1,0,0-1.666M15,16.666H25v1.666H15Zm-.181-15H25.183l1.25,5H13.569Z" transform="translate(0 0)" fill="#485a64"/><path d="M22.366,21.741,21.2,21.065a4.608,4.608,0,0,0,0-1.82l1.169-.674a.838.838,0,0,0,.306-1.14L21,14.544a.832.832,0,0,0-1.138-.306l-1.169.676a6.542,6.542,0,0,0-1.574-.931V12.657a.835.835,0,0,0-.834-.834H12.955a.835.835,0,0,0-.834.834v1.327a6.682,6.682,0,0,0-1.576.933l-1.167-.674a.835.835,0,0,0-1.14.3L6.571,17.433a.834.834,0,0,0,.308,1.14l1.167.674a4.565,4.565,0,0,0,0,1.818l-1.167.674a.84.84,0,0,0-.31,1.14l1.669,2.886a.836.836,0,0,0,1.14.308l1.166-.676a6.572,6.572,0,0,0,1.578.933v1.327a.833.833,0,0,0,.834.832h3.332a.833.833,0,0,0,.834-.832V26.328A6.6,6.6,0,0,0,18.7,25.4l1.167.674A.833.833,0,0,0,21,25.762l1.668-2.886a.828.828,0,0,0-.306-1.134m-7.745,1.748a3.333,3.333,0,1,1,3.333-3.333,3.335,3.335,0,0,1-3.333,3.333" transform="translate(5.378 9.844)" fill="#485a64"/></g></svg>