<svg xmlns="http://www.w3.org/2000/svg" xmlns:xlink="http://www.w3.org/1999/xlink" width="21.817" height="20" viewBox="0 0 21.817 20"><defs><clipPath id="a"><rect width="21.817" height="20" fill="#fff"/></clipPath></defs><g transform="translate(-1125 -1239)"><g transform="translate(1125 1239)"><g transform="translate(0 0)" clip-path="url(#a)"><path d="M21.363,7.276H.454A.454.454,0,0,0,0,7.731V9.549A.453.453,0,0,0,.454,10h.53l1.75,9.627A.455.455,0,0,0,3.182,20H18.635a.454.454,0,0,0,.447-.373L20.833,10h.531a.454.454,0,0,0,.454-.454V7.731a.455.455,0,0,0-.454-.455m-15,9.545a.455.455,0,0,1-.91,0V11.366a.455.455,0,0,1,.91,0Zm3.637,0a.455.455,0,0,1-.91,0V11.366a.455.455,0,0,1,.91,0Zm2.727,0a.455.455,0,0,1-.91,0V11.366a.455.455,0,0,1,.91,0Zm3.637,0a.455.455,0,0,1-.91,0V11.366a.455.455,0,0,1,.91,0Zm4.545-7.727h-20V8.186h20Z" transform="translate(0 -0.003)" fill="#fff"/><path d="M3.5,6.23,8.958.776A.454.454,0,1,0,8.316.133L2.861,5.588A.454.454,0,0,0,3.5,6.23" transform="translate(-0.001 0)" fill="#fff"/><path d="M18.319,6.23a.454.454,0,0,0,.643-.643L13.507.133a.454.454,0,1,0-.643.643Z" transform="translate(-0.005 0)" fill="#fff"/></g></g></g></svg>