<svg xmlns="http://www.w3.org/2000/svg" xmlns:xlink="http://www.w3.org/1999/xlink" width="39.998" height="40" viewBox="0 0 39.998 40"><defs><clipPath id="a"><rect width="39.998" height="40" fill="#485a64"/></clipPath></defs><g transform="translate(0 0)" clip-path="url(#a)"><path d="M15.461,10.152h8.333V1.819H15.461Zm1.666-5.833a.835.835,0,0,1,.834-.834h3.333a.833.833,0,0,1,.832.834V7.652a.833.833,0,0,1-.832.834H17.961a.835.835,0,0,1-.834-.834Z" transform="translate(12.873 1.514)" fill="#485a64"/><path d="M.832,0A.833.833,0,0,0,0,.834V39.166A.833.833,0,0,0,.832,40H39.166A.833.833,0,0,0,40,39.166V.834A.833.833,0,0,0,39.166,0ZM19.818,1.668h4.349a.833.833,0,0,1,0,1.666H19.818a.833.833,0,1,1,0-1.666m3.515,10V6.722a.833.833,0,1,1,1.666,0v5.8a.834.834,0,0,1-.832.834H20.833A.835.835,0,0,1,20,12.518v-2.9a.834.834,0,0,1,1.668,0v2.045Zm4.675,11.666a.834.834,0,1,1,0,1.668H23.661a.834.834,0,0,1,0-1.668H25V21.269a.834.834,0,1,1,1.668,0v2.063Zm-3.552,3.333a.834.834,0,0,1,0,1.668H21.667v2.683a.834.834,0,1,1-1.668,0V27.5a.835.835,0,0,1,.834-.834Zm-1.123,3.88a.833.833,0,1,1,1.666,0v2.787h5.87a.834.834,0,0,1,0,1.668h-6.7a.835.835,0,0,1-.834-.834Zm7.536,1.122H27.5a.781.781,0,0,1-.834-.8V27.5a.835.835,0,0,1,.834-.834h3.368a.784.784,0,0,1,.8.834v3.37a.735.735,0,0,1-.8.8m-.037-7.321A.83.83,0,0,1,30,23.514V19.167a.833.833,0,1,1,1.666,0v4.347a.832.832,0,0,1-.834.832m.581-7.679H25v2.063a.833.833,0,1,1-1.666,0v-2.9A.833.833,0,0,1,24.166,15h7.246a.834.834,0,1,1,0,1.668M15,2.936a.833.833,0,1,1,1.666,0V5h2.063a.834.834,0,1,1,0,1.668h-2.9A.833.833,0,0,1,15,5.833ZM15,9.13a.833.833,0,1,1,1.666,0v4.347a.833.833,0,1,1-1.666,0ZM16.376,15h5.071a.834.834,0,1,1,0,1.668H16.376a.834.834,0,1,1,0-1.668M22.5,19.167a.834.834,0,0,1-.832.834H18.333a.834.834,0,1,1,0-1.668h3.333a.834.834,0,0,1,.832.834m-7.5.652a.833.833,0,0,1,1.666,0v3.513H20.9A.834.834,0,1,1,20.9,25H15.832A.832.832,0,0,1,15,24.166Zm-13.35-.667a.835.835,0,0,1,.834-.834.862.862,0,0,1,.85.834v4.18H5.379a.834.834,0,1,1,0,1.668h-2.9a.833.833,0,0,1-.834-.834Zm2.9,1.68A.833.833,0,0,1,5.379,20H9.727a.833.833,0,1,1,0,1.666H5.379a.834.834,0,0,1-.832-.834m8.785,16.812a.833.833,0,0,1-.832.834H2.5a.835.835,0,0,1-.834-.834V27.5a.835.835,0,0,1,.834-.834h10a.833.833,0,0,1,.832.834ZM12.5,25H9.6a.834.834,0,0,1,0-1.668h2.9A.834.834,0,0,1,12.5,25m.832-6.269a.833.833,0,1,1-1.666,0V16.667H2.5A.834.834,0,1,1,2.5,15h10a.832.832,0,0,1,.832.834Zm0-6.231a.833.833,0,0,1-.832.834H2.5a.835.835,0,0,1-.834-.834V2.5A.833.833,0,0,1,2.5,1.668h9.856a.967.967,0,0,1,.977.832ZM15,34.167v-5.8a.833.833,0,1,1,1.666,0v4.963h3.513a.834.834,0,0,1,0,1.668H15.832A.833.833,0,0,1,15,34.167m23.333-3.3a.833.833,0,1,1-1.666,0V28.334H35V37.5a.833.833,0,0,1-.834.832H20.725a.833.833,0,1,1,0-1.666H33.333V27.5a.834.834,0,0,1,.832-.834H37.5a.836.836,0,0,1,.834.834Zm-1.976-14.2H35v6.647a.808.808,0,0,1-.816.834.86.86,0,0,1-.85-.834V15.834a.858.858,0,0,1,.85-.834h2.175a.834.834,0,1,1,0,1.668M38.332,12.5a.836.836,0,0,1-.834.834h-10a.835.835,0,0,1-.834-.834V2.5a.833.833,0,0,1,.834-.832h10a.834.834,0,0,1,.834.832Z" transform="translate(0 0)" fill="#485a64"/><rect width="1.666" height="1.666" transform="translate(31.665 6.667)" fill="#485a64"/><rect width="1.666" height="1.666" transform="translate(28.332 28.334)" fill="#485a64"/><rect width="1.666" height="1.666" transform="translate(6.665 6.667)" fill="#485a64"/><path d="M1.819,10.152h8.333V1.819H1.819ZM3.485,4.319a.836.836,0,0,1,.834-.834H7.652a.834.834,0,0,1,.832.834V7.652a.834.834,0,0,1-.832.834H4.319a.836.836,0,0,1-.834-.834Z" transform="translate(1.514 1.514)" fill="#485a64"/><path d="M1.819,23.794h8.333V15.461H1.819Zm1.666-5.833a.836.836,0,0,1,.834-.834H7.652a.834.834,0,0,1,.832.834v3.333a.834.834,0,0,1-.832.834H4.319a.836.836,0,0,1-.834-.834Z" transform="translate(1.514 12.873)" fill="#485a64"/><rect width="1.666" height="1.666" transform="translate(6.665 31.667)" fill="#485a64"/></g></svg>