<svg id="LOGO_VECTORIZADO-01" data-name="LOGO VECTORIZADO-01" xmlns="http://www.w3.org/2000/svg" width="200.048" height="62.8" viewBox="0 0 200.048 62.8">
  <path id="Trazado_2528" data-name="Trazado 2528" d="M15.085,42.64V15.934H30.418v5.879H22.026v4.465H29.64v5.879H22.026V42.641H15.085M62.786,0H0V62.8H62.786V0" fill="#e9a427"/>
  <path id="Trazado_2529" data-name="Trazado 2529" d="M144.433,136.36H129.1v26.706h6.941V152.581h7.614V146.7h-7.614v-4.466h8.392V136.36" transform="translate(-114.015 -120.426)"/>
  <path id="Trazado_2530" data-name="Trazado 2530" d="M321.614,145.532a7.152,7.152,0,0,0-5.784-2.789,6.679,6.679,0,0,0-6.757,7.03,6.576,6.576,0,0,0,6.859,6.9,7.584,7.584,0,0,0,5.682-2.692v7.9a18.734,18.734,0,0,1-5.818,1.176,14.122,14.122,0,0,1-9.516-3.733,12.405,12.405,0,0,1-4.07-9.588,13.282,13.282,0,0,1,3.733-9.283,13.747,13.747,0,0,1,9.652-4.1,15.455,15.455,0,0,1,6.019,1.277Z" transform="translate(-266.897 -120.417)" fill="#fff"/>
  <path id="Trazado_2531" data-name="Trazado 2531" d="M92.667,414.97H70.45v5.878H92.667V414.97" transform="translate(-62.218 -366.481)"/>
  <path id="Trazado_2532" data-name="Trazado 2532" d="M644.07,387.721v1.049a2.263,2.263,0,0,0-.832-.936,2.294,2.294,0,0,0-1.216-.314,2.408,2.408,0,0,0-1.908.814,3.207,3.207,0,0,0-.713,2.192,3.167,3.167,0,0,0,.734,2.185,2.462,2.462,0,0,0,1.936.826,2.191,2.191,0,0,0,1.167-.32,2.422,2.422,0,0,0,.857-.929V393.3h.927v-5.578h-.951Zm-.46,4.332a1.717,1.717,0,0,1-1.338.534,1.735,1.735,0,0,1-1.374-.548,2.285,2.285,0,0,1-.485-1.561,2.124,2.124,0,0,1,.481-1.48,1.906,1.906,0,0,1,2.685.046,2.2,2.2,0,0,1,.515,1.521A2.138,2.138,0,0,1,643.61,392.053Zm-4.784,1.247v-9.45h-.976v9.45Zm-6.036,0v-2.884a4.281,4.281,0,0,1,.076-.976,1.376,1.376,0,0,1,.252-.5,1.534,1.534,0,0,1,.582-.443,1.91,1.91,0,0,1,.777-.155,1.384,1.384,0,0,1,1.1.411,1.889,1.889,0,0,1,.356,1.26V393.3h.976v-3.8a1.911,1.911,0,0,0-.555-1.457,2.159,2.159,0,0,0-1.542-.525,2.506,2.506,0,0,0-1.171.263,2.331,2.331,0,0,0-.866.8v-.86h-.932V393.3h.947Zm-1.385-2.835a3.093,3.093,0,0,0-.722-2.164,2.521,2.521,0,0,0-1.961-.792,2.622,2.622,0,0,0-2.005.834,3.021,3.021,0,0,0-.781,2.147,3.1,3.1,0,0,0,.786,2.206,2.692,2.692,0,0,0,2.061.841,2.8,2.8,0,0,0,2.585-1.524l-.726-.487a2.635,2.635,0,0,1-.8.911,1.78,1.78,0,0,1-1.012.3,1.739,1.739,0,0,1-1.334-.552,2.045,2.045,0,0,1-.512-1.448v-.085h4.419v-.189Zm-4.419-.585a1.631,1.631,0,0,1,1.694-1.537,1.741,1.741,0,0,1,1.211.4,1.607,1.607,0,0,1,.491,1.137Zm-2.647,3.42h.976v-4.791h1.025v-.786h-1.025v-2.249h-.976v2.249h-1.025v.786h1.025Zm-5.159,0v-2.884a4.276,4.276,0,0,1,.076-.976,1.375,1.375,0,0,1,.252-.5,1.534,1.534,0,0,1,.582-.443,1.91,1.91,0,0,1,.777-.155,1.384,1.384,0,0,1,1.1.411,1.889,1.889,0,0,1,.356,1.26V393.3h.976v-3.8a1.911,1.911,0,0,0-.555-1.457,2.159,2.159,0,0,0-1.542-.525,2.506,2.506,0,0,0-1.171.263,2.33,2.33,0,0,0-.866.8v-.86h-.932V393.3h.946Zm-7.274-1.622a3.089,3.089,0,0,0,.659.976,3.035,3.035,0,0,0,2.152.885,2.948,2.948,0,0,0,1.15-.233,3.128,3.128,0,0,0,1-.671,2.881,2.881,0,0,0,.659-.961,3.056,3.056,0,0,0,0-2.3,2.868,2.868,0,0,0-.659-.966,3.139,3.139,0,0,0-.991-.659,3.009,3.009,0,0,0-1.156-.225,3.105,3.105,0,0,0-1.17.222,3,3,0,0,0-.982.65,2.927,2.927,0,0,0-.659.972,3.03,3.03,0,0,0-.226,1.161A2.937,2.937,0,0,0,611.906,391.678Zm1.375-2.649a1.911,1.911,0,0,1,1.435-.612,1.889,1.889,0,0,1,1.421.612,2.206,2.206,0,0,1,0,2.994,1.893,1.893,0,0,1-1.421.612,1.92,1.92,0,0,1-1.433-.612,2.193,2.193,0,0,1,0-2.994Zm-4.875,4.271v-4.408h3.646V387.9h-3.646v-2.56h3.646v-.969h-4.707V393.3h1.061Zm-7.488,2.719,3.743-8.3h-1.049l-1.719,4.006-1.622-4.006h-1.1l2.189,5.029-1.512,3.267h1.074Zm-6.988-2.719h.908v-1.012a2.424,2.424,0,0,0,.86.923,2.2,2.2,0,0,0,1.177.326,2.463,2.463,0,0,0,1.939-.826,3.665,3.665,0,0,0,.015-4.374,2.422,2.422,0,0,0-1.917-.817,2.254,2.254,0,0,0-1.2.314,2.318,2.318,0,0,0-.835.936v-4.919h-.945V393.3Zm1.433-4.264a1.784,1.784,0,0,1,1.378-.57,1.7,1.7,0,0,1,1.317.519,2.036,2.036,0,0,1,.476,1.433,2.45,2.45,0,0,1-.485,1.613,1.644,1.644,0,0,1-1.338.582,1.758,1.758,0,0,1-1.372-.549,2.181,2.181,0,0,1-.5-1.524A2.133,2.133,0,0,1,595.364,389.036Z" transform="translate(-524.529 -338.997)" fill="#92887b"/>
  <g id="Grupo_3100" data-name="Grupo 3100" transform="translate(69.402 15.93)">
    <path id="Trazado_2533" data-name="Trazado 2533" d="M1288.345,153.072a6.463,6.463,0,0,0,1.553,2.164,6.889,6.889,0,0,0,2.359,1.394,8.808,8.808,0,0,0,2.983.488,9.2,9.2,0,0,0,3.044-.488,7.068,7.068,0,0,0,2.408-1.381,6.475,6.475,0,0,0,1.577-2.127,6.4,6.4,0,0,0,.575-2.727,6.5,6.5,0,0,0-.563-2.726,6.27,6.27,0,0,0-1.577-2.128,7.425,7.425,0,0,0-2.4-1.394,8.718,8.718,0,0,0-2.995-.5,8.624,8.624,0,0,0-3.019.513,7.447,7.447,0,0,0-2.384,1.406,6.391,6.391,0,0,0-1.565,2.1,6.1,6.1,0,0,0-.562,2.6A6.787,6.787,0,0,0,1288.345,153.072Zm4.34-3.851a3.148,3.148,0,0,1,.611-.9,2.68,2.68,0,0,1,.9-.611,2.926,2.926,0,0,1,2.225,0,2.679,2.679,0,0,1,.9.611,3.1,3.1,0,0,1,.611.917,2.733,2.733,0,0,1,.233,1.112,2.772,2.772,0,0,1-.233,1.137,3.125,3.125,0,0,1-.611.917,2.708,2.708,0,0,1-.9.611,2.926,2.926,0,0,1-2.225,0,2.7,2.7,0,0,1-.9-.611,3.078,3.078,0,0,1-.611-.917,2.833,2.833,0,0,1-.232-1.161A2.631,2.631,0,0,1,1292.685,149.221Zm-4.977-4.817a6.584,6.584,0,0,0-2.983-.685,7.492,7.492,0,0,0-2.751.5,6.632,6.632,0,0,0-2.212,1.394,6.511,6.511,0,0,0-1.468,2.128,6.758,6.758,0,0,0-.537,2.726,6.34,6.34,0,0,0,.562,2.7,6.519,6.519,0,0,0,3.68,3.41,7.332,7.332,0,0,0,2.6.465,7.833,7.833,0,0,0,3.1-.709v-3.765a3.659,3.659,0,0,1-2.323.855,3.275,3.275,0,0,1-1.2-.22,2.77,2.77,0,0,1-.965-.624,2.953,2.953,0,0,1-.636-.954,3.071,3.071,0,0,1-.233-1.211,3.141,3.141,0,0,1,.233-1.235,2.841,2.841,0,0,1,.649-.953,2.924,2.924,0,0,1,.965-.623,3.153,3.153,0,0,1,1.186-.22,4.09,4.09,0,0,1,2.323.783Zm-10.025,6.725v-.465a8.776,8.776,0,0,0-.465-2.947,6.009,6.009,0,0,0-1.345-2.213,5.791,5.791,0,0,0-2.151-1.381,8.106,8.106,0,0,0-2.86-.477,8.282,8.282,0,0,0-2.9.477,6.181,6.181,0,0,0-2.189,1.357,5.945,5.945,0,0,0-1.394,2.14,7.75,7.75,0,0,0-.488,2.824,7.029,7.029,0,0,0,.513,2.739,6.055,6.055,0,0,0,1.455,2.1,6.49,6.49,0,0,0,2.262,1.357,8.51,8.51,0,0,0,2.91.477q5.183,0,6.479-4.3h-4.279a2.4,2.4,0,0,1-2.176,1.174q-2.691,0-2.69-2.861h9.317Zm-9.194-2.567a2.432,2.432,0,0,1,.819-1.517,2.809,2.809,0,0,1,3.338.025,2.662,2.662,0,0,1,.9,1.492Zm-9.609-3.2a5.112,5.112,0,0,0-3.888-1.638,6.075,6.075,0,0,0-4.548,1.956,6.413,6.413,0,0,0-1.284,2.115,7.5,7.5,0,0,0,.025,5.2,6.488,6.488,0,0,0,1.332,2.128,6.228,6.228,0,0,0,2.005,1.419,6.1,6.1,0,0,0,2.519.514,4.642,4.642,0,0,0,3.839-1.785v1.394h4.451v-20.3h-4.451Zm-5.342,3.9a3.2,3.2,0,0,1,.611-.893,2.679,2.679,0,0,1,.9-.611,2.926,2.926,0,0,1,2.225,0,2.694,2.694,0,0,1,.9.611,3.077,3.077,0,0,1,.611.917,2.731,2.731,0,0,1,.233,1.112,2.63,2.63,0,0,1-.233,1.1,3.152,3.152,0,0,1-.611.9,2.694,2.694,0,0,1-.9.611,2.841,2.841,0,0,1-1.113.22,2.925,2.925,0,0,1-1.137-.22,2.694,2.694,0,0,1-.9-.611,2.923,2.923,0,0,1-.819-2.054A2.547,2.547,0,0,1,1253.539,149.258Z" transform="translate(-1172.2 -136.357)" fill="#92887b"/>
    <path id="Trazado_2534" data-name="Trazado 2534" d="M653.919,156.628h4.426v-5.38a4.068,4.068,0,0,1,.77-2.677,2.848,2.848,0,0,1,2.311-.917,4.19,4.19,0,0,1,1.907.441v-4.23a2.7,2.7,0,0,0-.477-.049h-.379a4.669,4.669,0,0,0-2.4.6,5.1,5.1,0,0,0-1.736,1.724v-2.054h-4.426Zm-5.5-11.3a5.112,5.112,0,0,0-3.888-1.638,6.036,6.036,0,0,0-2.543.526,6.105,6.105,0,0,0-1.981,1.43,6.581,6.581,0,0,0-1.3,2.115,7.075,7.075,0,0,0-.464,2.556,7.276,7.276,0,0,0,.477,2.665,6.488,6.488,0,0,0,1.332,2.128,6.069,6.069,0,0,0,2.005,1.406,6.233,6.233,0,0,0,2.519.5,4.642,4.642,0,0,0,3.839-1.785v1.394h4.451V144.084h-4.451v1.247Zm-5.355,3.9a3.02,3.02,0,0,1,.6-.893,2.679,2.679,0,0,1,.9-.611,2.925,2.925,0,0,1,1.137-.22,2.863,2.863,0,0,1,1.112.22,2.7,2.7,0,0,1,.9.611,3.08,3.08,0,0,1,.611.917,2.731,2.731,0,0,1,.233,1.112,2.632,2.632,0,0,1-.233,1.1,3.154,3.154,0,0,1-.611.9,2.7,2.7,0,0,1-.9.611,2.842,2.842,0,0,1-1.112.22,2.925,2.925,0,0,1-1.137-.22,2.7,2.7,0,0,1-.9-.611,2.923,2.923,0,0,1-.819-2.054A2.686,2.686,0,0,1,643.063,149.231Zm-10.074-5.147v1.32a4.865,4.865,0,0,0-3.74-1.663,6.059,6.059,0,0,0-2.531.526,6.134,6.134,0,0,0-2.005,1.443,6.874,6.874,0,0,0-1.332,2.151,7.206,7.206,0,0,0-.488,2.677,7.061,7.061,0,0,0,.452,2.58,5.7,5.7,0,0,0,3.216,3.288,6.409,6.409,0,0,0,2.469.465,6.822,6.822,0,0,0,1.124-.086,4.34,4.34,0,0,0,.978-.282,5.326,5.326,0,0,0,.917-.5,7.372,7.372,0,0,0,.941-.77v1.2a3.032,3.032,0,0,1-.745,2.177,2.819,2.819,0,0,1-2.14.783,1.99,1.99,0,0,1-2.1-1.247h-4.988a5.015,5.015,0,0,0,.783,1.9,5.9,5.9,0,0,0,1.5,1.516,7.326,7.326,0,0,0,2.14,1.014,9.338,9.338,0,0,0,2.689.367,9.439,9.439,0,0,0,2.408-.293,7.935,7.935,0,0,0,1.992-.807,6.124,6.124,0,0,0,1.5-1.211,4.619,4.619,0,0,0,.917-1.5,8.2,8.2,0,0,0,.342-1.466,12.985,12.985,0,0,0,.123-1.882V144.084Zm-5.269,5.11a2.871,2.871,0,0,1,.624-.893,3.171,3.171,0,0,1,.9-.611,2.629,2.629,0,0,1,1.1-.233,2.865,2.865,0,0,1,2.005.831,3.049,3.049,0,0,1,.624.9,2.808,2.808,0,0,1,0,2.238,3.125,3.125,0,0,1-.611.917,2.7,2.7,0,0,1-.9.611,2.841,2.841,0,0,1-1.112.22,2.926,2.926,0,0,1-1.137-.22,2.694,2.694,0,0,1-.9-.611,2.923,2.923,0,0,1-.819-2.054A2.61,2.61,0,0,1,627.72,149.194Zm-19.427,3.851a6.461,6.461,0,0,0,1.553,2.164A6.89,6.89,0,0,0,612.2,156.6a8.808,8.808,0,0,0,2.983.488,9.2,9.2,0,0,0,3.044-.488,7.067,7.067,0,0,0,2.408-1.381,6.476,6.476,0,0,0,1.578-2.127,6.4,6.4,0,0,0,.575-2.727,6.5,6.5,0,0,0-.563-2.726,6.271,6.271,0,0,0-1.577-2.128,7.424,7.424,0,0,0-2.4-1.394,8.718,8.718,0,0,0-2.995-.5,8.625,8.625,0,0,0-3.019.513,7.446,7.446,0,0,0-2.384,1.406,6.392,6.392,0,0,0-1.565,2.1,6.1,6.1,0,0,0-.562,2.6A6.785,6.785,0,0,0,608.293,153.045Zm4.341-3.851a3.146,3.146,0,0,1,.611-.9,2.677,2.677,0,0,1,.9-.611,2.926,2.926,0,0,1,2.225,0,2.677,2.677,0,0,1,.9.611,3.1,3.1,0,0,1,.611.917,2.732,2.732,0,0,1,.233,1.112,2.772,2.772,0,0,1-.233,1.137,3.126,3.126,0,0,1-.611.917,2.707,2.707,0,0,1-.9.611,2.926,2.926,0,0,1-2.225,0,2.7,2.7,0,0,1-.9-.611,3.079,3.079,0,0,1-.611-.917,2.833,2.833,0,0,1-.233-1.161A2.632,2.632,0,0,1,612.634,149.194Zm-18.694,7.434h4.426v-6.7a2.794,2.794,0,0,1,.6-1.92,2.188,2.188,0,0,1,1.724-.673,2.087,2.087,0,0,1,1.419.513,1.789,1.789,0,0,1,.488.9,6.532,6.532,0,0,1,.147,1.54v6.333h4.426v-7.972a5,5,0,0,0-1.211-3.534,4.644,4.644,0,0,0-3.581-1.309,5.73,5.73,0,0,0-2.177.38,4.833,4.833,0,0,0-1.833,1.479V136.33h-4.426v20.3Z" transform="translate(-593.94 -136.33)" fill="#92887b"/>
    <g id="Grupo_3099" data-name="Grupo 3099" transform="translate(65.171 7.29)">
      <path id="Trazado_2535" data-name="Trazado 2535" d="M1160.7,211.716h4.114l-2.378-2.989.174-.151,1.858-1.713-1.59-1.78a13.25,13.25,0,0,1-1.939,1.8L1159.6,205.2c1.41-.656,2.575-1.461,2.817-3.039.333-2.166-1.418-3.442-3.434-3.442a4.377,4.377,0,0,0-4.464,3.476,3.018,3.018,0,0,0,.569,2.2l.211.369-.323.134c-1.7.7-2.97,1.629-3.262,3.527-.356,2.317,1.324,3.627,3.507,3.627a9.152,9.152,0,0,0,4.564-1.511Zm-2.29-8.043c-.333-.453-.828-1.057-.733-1.679a1.228,1.228,0,0,1,1.218-1.041.935.935,0,0,1,.928,1.176A2.44,2.44,0,0,1,1158.41,203.673Zm-.115,4.9a4.052,4.052,0,0,1-1.843.52c-.672,0-1.366-.4-1.249-1.159.109-.706.835-1.176,1.424-1.511Z" transform="translate(-1151.671 -198.72)" fill="#e9a427"/>
    </g>
  </g>
</svg>
