<svg xmlns="http://www.w3.org/2000/svg" width="24" height="13.714" viewBox="0 0 24 13.714">
  <path id="Icon-send" d="M23.925,10.506l-3.4-3.9a.713.713,0,0,0-.6-.3h-2.3V5.2H6.507a.909.909,0,0,0-.7.3,1.447,1.447,0,0,0-.2.7v1H3.3a.8.8,0,1,0,0,1.6h2.3v1.5H.7c-.4-.1-.7.3-.7.7a.79.79,0,0,0,.8.8H5.706v1.5H2.3a.8.8,0,1,0,0,1.6h3.3v1.2a.79.79,0,0,0,.8.8h2.2a2.794,2.794,0,0,0,2.6,2,2.675,2.675,0,0,0,2.6-2h2a2.794,2.794,0,0,0,2.6,2,2.675,2.675,0,0,0,2.6-2h2.1a.79.79,0,0,0,.8-.8V11.106A.63.63,0,0,0,23.925,10.506ZM11.212,17.313a1.2,1.2,0,1,1,1.2-1.2A1.217,1.217,0,0,1,11.212,17.313Zm8.509-1.2a1.2,1.2,0,1,1-1.2-1.2,1.157,1.157,0,0,1,1.2,1.2Zm-1.4-5.806V7.7h.5a1.843,1.843,0,0,1,1.6.9l1.2,1.5a.1.1,0,0,0,.1.1l-3.4.1Z" transform="translate(0 -5.2)" fill="#191919"/>
</svg>
