<svg xmlns="http://www.w3.org/2000/svg" width="19.808" height="20" viewBox="0 0 19.808 20">
  <g id="Grupo_3387" data-name="Grupo 3387" transform="translate(0.1 0.1)">
    <g id="Grupo_3387-2" data-name="Grupo 3387" transform="translate(-0.1 -0.1)">
      <path id="Trazado_2916" data-name="Trazado 2916" d="M9.913,1.2A8.726,8.726,0,0,0,1.2,9.913a8.853,8.853,0,0,0,1.881,5.446,7.178,7.178,0,0,1,4.455-5.05,3.96,3.96,0,0,0,4.752,0,7.178,7.178,0,0,1,4.455,5.05,8.644,8.644,0,0,0,1.881-5.446A8.663,8.663,0,0,0,9.913,1.2Z" transform="translate(0.087 0.087)" fill="none"/>
      <path id="Trazado_2917" data-name="Trazado 2917" d="M9.9-.1a9.972,9.972,0,0,0-10,10,9.87,9.87,0,0,0,2.871,7.03A10.134,10.134,0,0,0,9.8,19.9a9.724,9.724,0,0,0,7.03-2.97A9.87,9.87,0,0,0,19.7,9.9,9.685,9.685,0,0,0,9.9-.1Zm6.832,15.446a7.178,7.178,0,0,0-4.455-5.05,3.96,3.96,0,0,1-4.752,0,7.178,7.178,0,0,0-4.455,5.05A8.741,8.741,0,0,1,9.9,1.187a8.741,8.741,0,0,1,6.832,14.158Z" transform="translate(0.1 0.1)" fill="#191919"/>
    </g>
    <circle id="Elipse_195" data-name="Elipse 195" cx="3.564" cy="3.564" r="3.564" transform="translate(6.336 2.771)" fill="#191919"/>
  </g>
</svg>
