<svg xmlns="http://www.w3.org/2000/svg" width="21.733" height="20" viewBox="0 0 21.733 20">
  <g id="Icon-cart" transform="translate(-0.3)">
    <path id="Trazado_2909" data-name="Trazado 2909" d="M.3.6a.68.68,0,0,0,.7.7h1.99L4.081,4.776l2.786,8.856a.619.619,0,0,0,.6.4H18.608a.631.631,0,0,0,.6-.5l2.786-8.856a.658.658,0,0,0-.1-.6c0-.1-.2-.2-.4-.2H5.176L4.181.4a.838.838,0,0,0-.7-.4H.9A.642.642,0,0,0,.3.6ZM11.444,8.358l-.3-3.184h3.98l-.3,3.184Zm3.184,1.294-.3,3.184H11.942l-.3-3.184ZM20.6,5.174l-1,3.184H16.021l.3-3.184ZM18.21,12.736H15.623l.3-3.085h3.284ZM6.967,9.652H10.25l.3,3.184H7.962ZM5.574,5.174H9.753l.3,3.184H6.569Z" fill="#191919"/>
    <path id="Trazado_2910" data-name="Trazado 2910" d="M7.1,17.688a2.337,2.337,0,0,0,2.388,2.289,2.388,2.388,0,0,0,0-4.776A2.582,2.582,0,0,0,7.1,17.688Zm1.393,0a1,1,0,0,1,1.99,0,1.07,1.07,0,0,1-1,1A.94.94,0,0,1,8.493,17.688Z" transform="translate(-0.034 -0.076)" fill="#191919"/>
    <path id="Trazado_2911" data-name="Trazado 2911" d="M14.5,17.688A2.388,2.388,0,1,0,16.888,15.3,2.421,2.421,0,0,0,14.5,17.688Zm1.393,0a1,1,0,0,1,1-1,1,1,0,1,1,0,1.99A1,1,0,0,1,15.893,17.688Z" transform="translate(-0.071 -0.076)" fill="#191919"/>
  </g>
</svg>
