<svg id="LOGO_VECTORIZADO-03" data-name="LOGO VECTORIZADO-03" xmlns="http://www.w3.org/2000/svg" width="116.654" height="98.011" viewBox="0 0 116.654 98.011">
  <g id="Grupo_3101" data-name="Grupo 3101" transform="translate(30.297)">
    <path id="Trazado_2540" data-name="Trazado 2540" d="M303.739,38.073V14.227H317.43v5.249h-7.494v3.987h6.8v5.249h-6.8v9.361h-6.2M346.331,0H290.27V56.074h56.061V0" transform="translate(-290.27)" fill="#e9a427"/>
    <path id="Trazado_2541" data-name="Trazado 2541" d="M433.011,136.31H419.32v23.846h6.2v-9.362h6.8v-5.249h-6.8v-3.986h7.493V136.31" transform="translate(-405.851 -122.083)"/>
    <path id="Trazado_2542" data-name="Trazado 2542" d="M609.686,144.509a6.387,6.387,0,0,0-5.164-2.49,5.965,5.965,0,0,0-6.034,6.277,5.872,5.872,0,0,0,6.125,6.157,6.769,6.769,0,0,0,5.074-2.4v7.058a16.728,16.728,0,0,1-5.2,1.05,12.605,12.605,0,0,1-8.5-3.334,11.076,11.076,0,0,1-3.633-8.561,11.86,11.86,0,0,1,3.334-8.288,12.275,12.275,0,0,1,8.618-3.664,13.791,13.791,0,0,1,5.374,1.141Z" transform="translate(-560.83 -122.083)" fill="#fff"/>
    <path id="Trazado_2543" data-name="Trazado 2543" d="M380.527,414.82H360.69v5.248h19.837V414.82" transform="translate(-353.34 -371.524)"/>
  </g>
  <path id="Trazado_2544" data-name="Trazado 2544" d="M385.06,838.4v.936a2.021,2.021,0,0,0-.743-.836,2.048,2.048,0,0,0-1.085-.281,2.154,2.154,0,0,0-1.7.726,2.863,2.863,0,0,0-.637,1.957,2.828,2.828,0,0,0,.655,1.952,2.2,2.2,0,0,0,1.728.738,1.962,1.962,0,0,0,1.043-.286,2.17,2.17,0,0,0,.765-.83v.9h.827V838.4Zm-.411,3.867a1.533,1.533,0,0,1-1.2.476,1.551,1.551,0,0,1-1.227-.49,2.04,2.04,0,0,1-.433-1.393,1.9,1.9,0,0,1,.43-1.322,1.7,1.7,0,0,1,2.4.041,1.961,1.961,0,0,1,.46,1.359A1.9,1.9,0,0,1,384.649,842.264Zm-4.271,1.114V834.94h-.87v8.438Zm-5.39,0V840.8a3.806,3.806,0,0,1,.068-.87,1.228,1.228,0,0,1,.225-.447,1.358,1.358,0,0,1,.52-.395,1.707,1.707,0,0,1,.694-.139,1.233,1.233,0,0,1,.982.367,1.686,1.686,0,0,1,.318,1.124v2.934h.87v-3.391a1.7,1.7,0,0,0-.5-1.3,1.926,1.926,0,0,0-1.377-.469,2.239,2.239,0,0,0-1.046.235,2.082,2.082,0,0,0-.773.713V838.4h-.833v4.981h.846Zm-1.237-2.532a2.76,2.76,0,0,0-.645-1.932,2.251,2.251,0,0,0-1.75-.708,2.342,2.342,0,0,0-1.791.745,2.7,2.7,0,0,0-.7,1.916,2.767,2.767,0,0,0,.7,1.971,2.4,2.4,0,0,0,1.84.751,2.5,2.5,0,0,0,2.308-1.361l-.648-.435a2.364,2.364,0,0,1-.713.814,1.59,1.59,0,0,1-.9.269,1.554,1.554,0,0,1-1.192-.493,1.824,1.824,0,0,1-.457-1.292v-.076h3.946v-.17Zm-3.946-.522a1.457,1.457,0,0,1,1.513-1.372,1.55,1.55,0,0,1,1.08.357,1.435,1.435,0,0,1,.438,1.016Zm-2.363,3.054h.87V839.1h.914v-.7h-.914v-2.008h-.87V838.4h-.914v.7h.914Zm-4.606,0V840.8a3.808,3.808,0,0,1,.068-.87,1.228,1.228,0,0,1,.225-.447,1.358,1.358,0,0,1,.52-.395,1.707,1.707,0,0,1,.694-.139,1.233,1.233,0,0,1,.982.367,1.686,1.686,0,0,1,.318,1.124v2.934h.87v-3.391a1.7,1.7,0,0,0-.5-1.3,1.926,1.926,0,0,0-1.377-.469,2.239,2.239,0,0,0-1.046.235,2.082,2.082,0,0,0-.773.713V838.4h-.833v4.981h.846Zm-6.5-1.449a2.772,2.772,0,0,0,.588.87,2.736,2.736,0,0,0,.88.586,2.7,2.7,0,0,0,1.042.2,2.606,2.606,0,0,0,1.026-.208,2.81,2.81,0,0,0,.89-.6,2.568,2.568,0,0,0,.588-.858,2.727,2.727,0,0,0,0-2.057,2.574,2.574,0,0,0-.588-.863,2.8,2.8,0,0,0-.885-.588,2.683,2.683,0,0,0-1.031-.2,2.772,2.772,0,0,0-1.045.2,2.662,2.662,0,0,0-.877.58,2.612,2.612,0,0,0-.588.868,2.706,2.706,0,0,0-.2,1.037A2.618,2.618,0,0,0,356.341,841.929Zm1.227-2.364a1.707,1.707,0,0,1,1.282-.547,1.686,1.686,0,0,1,1.268.547,1.968,1.968,0,0,1,0,2.672,1.689,1.689,0,0,1-1.268.547,1.715,1.715,0,0,1-1.28-.547,1.957,1.957,0,0,1,0-2.672Zm-4.352,3.813v-3.936h3.255v-.882h-3.255v-2.287h3.255v-.865h-4.2v7.969h.948Zm-6.686,2.428,3.342-7.409h-.936l-1.535,3.577-1.448-3.577h-.985l1.954,4.491-1.35,2.917Zm-6.239-2.428h.811v-.9a2.172,2.172,0,0,0,.768.825,1.966,1.966,0,0,0,1.051.291,2.194,2.194,0,0,0,1.73-.738,3.272,3.272,0,0,0,.014-3.906,2.163,2.163,0,0,0-1.712-.729,2.007,2.007,0,0,0-1.072.281,2.072,2.072,0,0,0-.746.836V834.94h-.843v8.438Zm1.28-3.808a1.593,1.593,0,0,1,1.231-.509,1.513,1.513,0,0,1,1.175.463,1.823,1.823,0,0,1,.425,1.28,2.178,2.178,0,0,1-.433,1.439,1.47,1.47,0,0,1-1.2.52,1.572,1.572,0,0,1-1.225-.491,1.946,1.946,0,0,1-.447-1.36A1.909,1.909,0,0,1,341.57,839.57Z" transform="translate(-304.773 -747.794)" fill="#92887b"/>
  <g id="Grupo_3103" data-name="Grupo 3103" transform="translate(0 61.389)">
    <path id="Trazado_2545" data-name="Trazado 2545" d="M689.921,603.093a5.789,5.789,0,0,0,1.386,1.932,6.143,6.143,0,0,0,2.107,1.244,7.861,7.861,0,0,0,2.664.436,8.218,8.218,0,0,0,2.718-.436,6.3,6.3,0,0,0,2.151-1.234,5.946,5.946,0,0,0,1.419-6.769,5.583,5.583,0,0,0-1.408-1.9,6.614,6.614,0,0,0-2.14-1.244,7.781,7.781,0,0,0-2.674-.448,7.7,7.7,0,0,0-2.7.458,6.652,6.652,0,0,0-2.129,1.256,5.717,5.717,0,0,0-1.4,1.878,5.446,5.446,0,0,0-.5,2.325A6.048,6.048,0,0,0,689.921,603.093Zm3.875-3.439a2.791,2.791,0,0,1,.546-.808,2.408,2.408,0,0,1,.808-.546,2.615,2.615,0,0,1,1.987,0,2.393,2.393,0,0,1,.808.546,2.781,2.781,0,0,1,.546.818,2.441,2.441,0,0,1,.208.994,2.477,2.477,0,0,1-.208,1.016,2.775,2.775,0,0,1-.546.818,2.408,2.408,0,0,1-.808.546,2.615,2.615,0,0,1-1.987,0,2.408,2.408,0,0,1-.808-.546,2.777,2.777,0,0,1-.546-.818,2.529,2.529,0,0,1-.208-1.037A2.345,2.345,0,0,1,693.8,599.654Zm-4.444-4.3a5.877,5.877,0,0,0-2.664-.612,6.7,6.7,0,0,0-2.457.448,5.932,5.932,0,0,0-1.976,1.244,5.82,5.82,0,0,0-1.31,1.9,6.032,6.032,0,0,0-.48,2.434,5.657,5.657,0,0,0,.5,2.413,5.827,5.827,0,0,0,3.286,3.046,6.548,6.548,0,0,0,2.325.415,6.993,6.993,0,0,0,2.772-.634v-3.362a3.268,3.268,0,0,1-2.074.764,2.917,2.917,0,0,1-1.07-.2,2.468,2.468,0,0,1-.862-.557,2.653,2.653,0,0,1-.568-.852,2.743,2.743,0,0,1-.208-1.081,2.8,2.8,0,0,1,.208-1.1,2.551,2.551,0,0,1,.578-.852,2.612,2.612,0,0,1,.862-.556,2.815,2.815,0,0,1,1.058-.2,3.651,3.651,0,0,1,2.074.7v-3.363Zm-8.95,6v-.414a7.833,7.833,0,0,0-.415-2.631,5.361,5.361,0,0,0-1.2-1.976,5.173,5.173,0,0,0-1.922-1.234,7.233,7.233,0,0,0-2.555-.426,7.389,7.389,0,0,0-2.587.426,5.516,5.516,0,0,0-1.954,1.212,5.306,5.306,0,0,0-1.245,1.91,6.918,6.918,0,0,0-.436,2.522,6.273,6.273,0,0,0,.458,2.445,5.406,5.406,0,0,0,1.3,1.878,5.8,5.8,0,0,0,2.02,1.212,7.6,7.6,0,0,0,2.6.425q4.628,0,5.785-3.843h-3.821a2.143,2.143,0,0,1-1.942,1.048q-2.4,0-2.4-2.554h8.32Zm-8.209-2.293a2.169,2.169,0,0,1,.732-1.354,2.506,2.506,0,0,1,2.98.022,2.384,2.384,0,0,1,.808,1.332Zm-8.581-2.86a4.563,4.563,0,0,0-3.471-1.462,5.426,5.426,0,0,0-4.061,1.747,5.721,5.721,0,0,0-1.146,1.888,6.694,6.694,0,0,0,.022,4.639,5.8,5.8,0,0,0,1.19,1.9,5.542,5.542,0,0,0,1.79,1.266,5.448,5.448,0,0,0,2.249.459,4.146,4.146,0,0,0,3.428-1.594v1.244h3.974V588.17h-3.974Zm-4.771,3.482a2.855,2.855,0,0,1,.546-.8,2.4,2.4,0,0,1,.808-.546,2.613,2.613,0,0,1,1.987,0,2.406,2.406,0,0,1,.808.546,2.78,2.78,0,0,1,.546.818,2.441,2.441,0,0,1,.208.994,2.343,2.343,0,0,1-.208.982,2.835,2.835,0,0,1-.546.808,2.407,2.407,0,0,1-.808.546,2.539,2.539,0,0,1-.994.2,2.614,2.614,0,0,1-1.016-.2,2.408,2.408,0,0,1-.808-.546,2.635,2.635,0,0,1-.535-.818,2.594,2.594,0,0,1-.2-1.016A2.3,2.3,0,0,1,658.842,599.687Z" transform="translate(-586.214 -588.169)" fill="#92887b"/>
    <path id="Trazado_2546" data-name="Trazado 2546" d="M53.555,606.282h3.952v-4.8a3.628,3.628,0,0,1,.688-2.39,2.541,2.541,0,0,1,2.063-.818,3.738,3.738,0,0,1,1.7.393v-3.778a2.4,2.4,0,0,0-.426-.044H61.2a4.167,4.167,0,0,0-2.14.535,4.532,4.532,0,0,0-1.55,1.54v-1.834H53.555v11.2ZM48.643,596.2a4.563,4.563,0,0,0-3.471-1.462,5.387,5.387,0,0,0-2.27.47,5.455,5.455,0,0,0-1.769,1.277,5.873,5.873,0,0,0-1.158,1.888,6.31,6.31,0,0,0-.414,2.282,6.494,6.494,0,0,0,.426,2.38,5.8,5.8,0,0,0,1.19,1.9,5.418,5.418,0,0,0,1.79,1.256,5.581,5.581,0,0,0,2.249.448,4.146,4.146,0,0,0,3.428-1.594v1.244h3.974v-11.2H48.643V596.2Zm-4.781,3.482a2.7,2.7,0,0,1,.535-.8,2.408,2.408,0,0,1,.808-.546,2.614,2.614,0,0,1,1.016-.2,2.557,2.557,0,0,1,.994.2,2.408,2.408,0,0,1,.808.546,2.778,2.778,0,0,1,.546.818,2.44,2.44,0,0,1,.208.994,2.342,2.342,0,0,1-.208.982,2.833,2.833,0,0,1-.546.808,2.408,2.408,0,0,1-.808.546,2.539,2.539,0,0,1-.994.2,2.612,2.612,0,0,1-1.016-.2,2.408,2.408,0,0,1-.808-.546,2.635,2.635,0,0,1-.535-.818,2.594,2.594,0,0,1-.2-1.016A2.38,2.38,0,0,1,43.862,599.678Zm-8.995-4.6v1.179a4.342,4.342,0,0,0-3.34-1.484,5.428,5.428,0,0,0-4.05,1.758,6.161,6.161,0,0,0-1.19,1.922,6.433,6.433,0,0,0-.436,2.391,6.3,6.3,0,0,0,.4,2.3,5.092,5.092,0,0,0,2.871,2.936,5.716,5.716,0,0,0,2.205.415,6.1,6.1,0,0,0,1-.076,3.932,3.932,0,0,0,.874-.25,4.723,4.723,0,0,0,.819-.448,6.591,6.591,0,0,0,.84-.688v1.07a2.706,2.706,0,0,1-.666,1.943,2.517,2.517,0,0,1-1.91.7,1.775,1.775,0,0,1-1.878-1.114H25.962a4.473,4.473,0,0,0,.7,1.692A5.253,5.253,0,0,0,28,610.684a6.535,6.535,0,0,0,1.91.906,8.336,8.336,0,0,0,2.4.328,8.436,8.436,0,0,0,2.151-.262,7.088,7.088,0,0,0,1.78-.72,5.53,5.53,0,0,0,1.343-1.08,4.126,4.126,0,0,0,.819-1.343,7.327,7.327,0,0,0,.306-1.31,11.6,11.6,0,0,0,.11-1.681V595.084H34.867Zm-4.705,4.563a2.565,2.565,0,0,1,.557-.8,2.832,2.832,0,0,1,.808-.546,2.365,2.365,0,0,1,.982-.208,2.559,2.559,0,0,1,1.791.742,2.725,2.725,0,0,1,.557.808,2.505,2.505,0,0,1,0,2,2.786,2.786,0,0,1-.546.818,2.407,2.407,0,0,1-.808.546,2.539,2.539,0,0,1-.994.2,2.614,2.614,0,0,1-1.016-.2,2.407,2.407,0,0,1-.808-.546,2.634,2.634,0,0,1-.535-.818,2.594,2.594,0,0,1-.2-1.016A2.36,2.36,0,0,1,30.162,599.645Zm-17.346,3.439a5.789,5.789,0,0,0,1.386,1.932,6.151,6.151,0,0,0,2.107,1.244,7.86,7.86,0,0,0,2.664.436,8.216,8.216,0,0,0,2.718-.436,6.294,6.294,0,0,0,2.151-1.234,5.946,5.946,0,0,0,1.419-6.769,5.584,5.584,0,0,0-1.408-1.9,6.614,6.614,0,0,0-2.14-1.244,7.782,7.782,0,0,0-2.674-.448,7.7,7.7,0,0,0-2.7.458,6.651,6.651,0,0,0-2.129,1.256,5.716,5.716,0,0,0-1.4,1.878,5.446,5.446,0,0,0-.5,2.326A6.047,6.047,0,0,0,12.816,603.084Zm3.875-3.439a2.791,2.791,0,0,1,.546-.808,2.407,2.407,0,0,1,.808-.546,2.615,2.615,0,0,1,1.987,0,2.392,2.392,0,0,1,.808.546,2.778,2.778,0,0,1,.546.818,2.44,2.44,0,0,1,.208.994,2.475,2.475,0,0,1-.208,1.016,2.772,2.772,0,0,1-.546.818,2.408,2.408,0,0,1-.808.546,2.614,2.614,0,0,1-1.987,0,2.408,2.408,0,0,1-.808-.546,2.779,2.779,0,0,1-.546-.818,2.53,2.53,0,0,1-.208-1.037A2.345,2.345,0,0,1,16.691,599.645ZM0,606.282H3.952V600.3a2.492,2.492,0,0,1,.535-1.714,1.955,1.955,0,0,1,1.54-.6,1.864,1.864,0,0,1,1.267.458,1.6,1.6,0,0,1,.436.808,5.837,5.837,0,0,1,.132,1.376v5.655h3.952v-7.117a4.467,4.467,0,0,0-1.08-3.155,4.146,4.146,0,0,0-3.2-1.168,5.128,5.128,0,0,0-1.943.338,4.327,4.327,0,0,0-1.638,1.32V588.16H0Z" transform="translate(0 -588.16)" fill="#92887b"/>
    <g id="Grupo_3102" data-name="Grupo 3102" transform="translate(58.193 6.508)">
      <path id="Trazado_2547" data-name="Trazado 2547" d="M565.6,662.114h3.674l-2.124-2.669.156-.135,1.66-1.529-1.421-1.59a11.761,11.761,0,0,1-1.731,1.6l-1.194-1.5c1.26-.584,2.3-1.3,2.516-2.714.3-1.934-1.267-3.074-3.067-3.074a3.908,3.908,0,0,0-3.985,3.1,2.7,2.7,0,0,0,.507,1.964l.189.33-.288.12c-1.521.629-2.652,1.454-2.912,3.149-.318,2.069,1.182,3.239,3.131,3.239a8.175,8.175,0,0,0,4.076-1.35Zm-2.045-7.182c-.3-.4-.739-.945-.654-1.5a1.1,1.1,0,0,1,1.088-.93.836.836,0,0,1,.829,1.05A2.18,2.18,0,0,1,563.557,654.932Zm-.1,4.378a3.616,3.616,0,0,1-1.646.464c-.6,0-1.219-.36-1.116-1.034.1-.629.746-1.05,1.272-1.35Z" transform="translate(-557.54 -650.51)" fill="#e9a427"/>
    </g>
  </g>
</svg>
