<svg xmlns="http://www.w3.org/2000/svg" width="32" height="32" viewBox="0 0 32 32">
  <g id="Grupo_1565" data-name="Grupo 1565" transform="translate(-209 -665)">
    <circle id="Elipse_110" data-name="Elipse 110" cx="16" cy="16" r="16" transform="translate(209 665)" fill="#d4d4d4"/>
    <path id="Trazado_1058" data-name="Trazado 1058" d="M114.135,1268.174c-1.189-.091-1.688-.681-2.62-1.247-.512,2.688-1.138,5.265-2.993,6.611-.573-4.063.841-7.114,1.5-10.352-1.118-1.883.135-5.674,2.495-4.74,2.9,1.149-2.514,7,1.123,7.734,3.8.763,5.348-6.59,2.993-8.982-3.4-3.453-9.905-.078-9.105,4.865.195,1.209,1.443,1.575.5,3.242-2.178-.481-2.828-2.2-2.744-4.489a7.33,7.33,0,0,1,6.612-6.737c4.1-.459,7.95,1.506,8.481,5.365C120.969,1263.8,118.52,1268.513,114.135,1268.174Z" transform="translate(111.729 -583.013)" fill="#191919" opacity="0.5"/>
  </g>
</svg>
