<svg id="LOGO_VECTORIZADO-01" data-name="LOGO VECTORIZADO-01" xmlns="http://www.w3.org/2000/svg" width="142.936" height="44.871" viewBox="0 0 142.936 44.871">
  <path id="Trazado_2528" data-name="Trazado 2528" d="M10.779,30.467V11.385H21.734v4.2h-6v3.19h5.44v4.2h-5.44v7.492H10.779M44.861,0H0V44.871H44.861V0" fill="#e9a427"/>
  <path id="Trazado_2529" data-name="Trazado 2529" d="M140.056,136.36H129.1v19.082h4.959V147.95h5.44v-4.2h-5.44V140.56h6v-4.2" transform="translate(-118.321 -124.975)"/>
  <path id="Trazado_2530" data-name="Trazado 2530" d="M316.075,142.911a5.11,5.11,0,0,0-4.133-1.993,4.772,4.772,0,0,0-4.828,5.023,4.7,4.7,0,0,0,4.9,4.927,5.419,5.419,0,0,0,4.06-1.924v5.648a13.386,13.386,0,0,1-4.157.84,10.09,10.09,0,0,1-6.8-2.668,8.863,8.863,0,0,1-2.908-6.85,9.49,9.49,0,0,1,2.668-6.633,9.822,9.822,0,0,1,6.9-2.931,11.043,11.043,0,0,1,4.3.913Z" transform="translate(-276.978 -124.966)" fill="#fff"/>
  <path id="Trazado_2531" data-name="Trazado 2531" d="M86.324,414.97H70.45v4.2H86.324v-4.2" transform="translate(-64.568 -380.324)"/>
  <path id="Trazado_2532" data-name="Trazado 2532" d="M629.756,386.616v.75a1.616,1.616,0,0,0-.594-.669,1.639,1.639,0,0,0-.869-.225,1.72,1.72,0,0,0-1.363.582,2.292,2.292,0,0,0-.509,1.566,2.263,2.263,0,0,0,.524,1.561,1.759,1.759,0,0,0,1.383.59,1.565,1.565,0,0,0,.834-.229,1.731,1.731,0,0,0,.612-.664v.723h.662v-3.986h-.68Zm-.329,3.1a1.227,1.227,0,0,1-.956.382,1.239,1.239,0,0,1-.982-.392,1.633,1.633,0,0,1-.346-1.115,1.518,1.518,0,0,1,.344-1.058,1.362,1.362,0,0,1,1.919.033,1.57,1.57,0,0,1,.368,1.087A1.528,1.528,0,0,1,629.427,389.711Zm-3.418.891V383.85h-.7V390.6Zm-4.313,0v-2.061a3.06,3.06,0,0,1,.054-.7.983.983,0,0,1,.18-.357,1.1,1.1,0,0,1,.416-.316,1.364,1.364,0,0,1,.555-.111.989.989,0,0,1,.786.294,1.35,1.35,0,0,1,.255.9V390.6h.7v-2.713a1.365,1.365,0,0,0-.4-1.041,1.543,1.543,0,0,0-1.1-.375,1.791,1.791,0,0,0-.837.188,1.665,1.665,0,0,0-.619.57v-.615h-.666V390.6h.676Zm-.989-2.025a2.21,2.21,0,0,0-.516-1.546,1.8,1.8,0,0,0-1.4-.566,1.874,1.874,0,0,0-1.433.6,2.159,2.159,0,0,0-.558,1.534,2.212,2.212,0,0,0,.562,1.576,1.923,1.923,0,0,0,1.473.6,2,2,0,0,0,1.847-1.089l-.518-.348a1.883,1.883,0,0,1-.57.651,1.272,1.272,0,0,1-.723.215,1.243,1.243,0,0,1-.953-.394,1.461,1.461,0,0,1-.366-1.034v-.061h3.158v-.135Zm-3.158-.418a1.166,1.166,0,0,1,1.211-1.1,1.244,1.244,0,0,1,.865.286,1.148,1.148,0,0,1,.351.812Zm-1.891,2.444h.7v-3.423h.732v-.562h-.732V385.01h-.7v1.607h-.732v.562h.732Zm-3.686,0v-2.061a3.055,3.055,0,0,1,.054-.7.982.982,0,0,1,.18-.357,1.1,1.1,0,0,1,.416-.316,1.365,1.365,0,0,1,.555-.111.989.989,0,0,1,.786.294,1.35,1.35,0,0,1,.255.9V390.6h.7v-2.713a1.365,1.365,0,0,0-.4-1.041,1.543,1.543,0,0,0-1.1-.375,1.79,1.79,0,0,0-.837.188,1.665,1.665,0,0,0-.619.57v-.615H611.3V390.6h.676Zm-5.2-1.159a2.206,2.206,0,0,0,.471.7,2.168,2.168,0,0,0,1.538.632,2.106,2.106,0,0,0,.822-.166,2.235,2.235,0,0,0,.712-.479,2.059,2.059,0,0,0,.471-.686,2.183,2.183,0,0,0,0-1.646,2.05,2.05,0,0,0-.471-.69,2.243,2.243,0,0,0-.708-.471,2.15,2.15,0,0,0-.826-.161,2.219,2.219,0,0,0-.836.159,2.143,2.143,0,0,0-.7.464,2.09,2.09,0,0,0-.471.695,2.165,2.165,0,0,0-.161.83A2.1,2.1,0,0,0,606.774,389.443Zm.983-1.893a1.365,1.365,0,0,1,1.025-.437,1.35,1.35,0,0,1,1.015.438,1.576,1.576,0,0,1,0,2.139,1.353,1.353,0,0,1-1.015.438,1.372,1.372,0,0,1-1.024-.437,1.567,1.567,0,0,1,0-2.139Zm-3.483,3.052v-3.149h2.6v-.706h-2.6v-1.829h2.6v-.692h-3.363V390.6h.758Zm-5.35,1.943,2.674-5.929h-.75l-1.228,2.862-1.159-2.862h-.788l1.564,3.593-1.08,2.334h.767Zm-4.993-1.943h.649v-.723a1.732,1.732,0,0,0,.614.66,1.574,1.574,0,0,0,.841.233,1.76,1.76,0,0,0,1.385-.59,2.619,2.619,0,0,0,.011-3.125,1.731,1.731,0,0,0-1.37-.584,1.61,1.61,0,0,0-.858.225,1.656,1.656,0,0,0-.6.669v-3.515h-.675V390.6Zm1.024-3.047a1.275,1.275,0,0,1,.984-.407,1.212,1.212,0,0,1,.941.371,1.455,1.455,0,0,1,.34,1.024,1.751,1.751,0,0,1-.346,1.152,1.175,1.175,0,0,1-.956.416,1.256,1.256,0,0,1-.98-.392,1.558,1.558,0,0,1-.357-1.089A1.524,1.524,0,0,1,594.954,387.555Z" transform="translate(-544.342 -351.802)" fill="#92887b"/>
  <g id="Grupo_3100" data-name="Grupo 3100" transform="translate(49.589 11.382)">
    <path id="Trazado_2533" data-name="Trazado 2533" d="M1277.03,148.3a4.617,4.617,0,0,0,1.11,1.546,4.922,4.922,0,0,0,1.686,1,6.294,6.294,0,0,0,2.132.349,6.574,6.574,0,0,0,2.175-.349,5.05,5.05,0,0,0,1.721-.987,4.627,4.627,0,0,0,1.127-1.52,4.574,4.574,0,0,0,.411-1.949,4.64,4.64,0,0,0-.4-1.948,4.48,4.48,0,0,0-1.127-1.52,5.3,5.3,0,0,0-1.712-1,6.228,6.228,0,0,0-2.14-.358,6.163,6.163,0,0,0-2.157.367,5.322,5.322,0,0,0-1.7,1,4.566,4.566,0,0,0-1.118,1.5,4.361,4.361,0,0,0-.4,1.861A4.849,4.849,0,0,0,1277.03,148.3Zm3.1-2.752a2.248,2.248,0,0,1,.437-.646,1.915,1.915,0,0,1,.646-.437,2.091,2.091,0,0,1,1.59,0,1.915,1.915,0,0,1,.646.437,2.218,2.218,0,0,1,.437.655,1.953,1.953,0,0,1,.166.795,1.982,1.982,0,0,1-.166.812,2.234,2.234,0,0,1-.437.655,1.936,1.936,0,0,1-.646.437,2.091,2.091,0,0,1-1.59,0,1.927,1.927,0,0,1-.646-.437,2.2,2.2,0,0,1-.437-.655,2.023,2.023,0,0,1-.166-.83A1.879,1.879,0,0,1,1280.131,145.549Zm-3.556-3.441a4.7,4.7,0,0,0-2.131-.489,5.353,5.353,0,0,0-1.965.358,4.738,4.738,0,0,0-1.581,1,4.65,4.65,0,0,0-1.049,1.52,4.827,4.827,0,0,0-.384,1.948,4.53,4.53,0,0,0,.4,1.931,4.658,4.658,0,0,0,2.629,2.436,5.239,5.239,0,0,0,1.861.332,5.6,5.6,0,0,0,2.218-.507v-2.69a2.615,2.615,0,0,1-1.66.611,2.34,2.34,0,0,1-.857-.157,1.979,1.979,0,0,1-.69-.446,2.109,2.109,0,0,1-.454-.681,2.194,2.194,0,0,1-.166-.865,2.243,2.243,0,0,1,.166-.882,2.029,2.029,0,0,1,.463-.681,2.09,2.09,0,0,1,.69-.445,2.253,2.253,0,0,1,.848-.157,2.922,2.922,0,0,1,1.66.559Zm-7.163,4.8v-.332a6.269,6.269,0,0,0-.332-2.106,4.292,4.292,0,0,0-.961-1.581,4.138,4.138,0,0,0-1.537-.987,5.792,5.792,0,0,0-2.044-.341,5.917,5.917,0,0,0-2.071.341,4.416,4.416,0,0,0-1.564.969,4.246,4.246,0,0,0-1,1.529,5.536,5.536,0,0,0-.349,2.018,5.022,5.022,0,0,0,.367,1.957,4.326,4.326,0,0,0,1.039,1.5,4.638,4.638,0,0,0,1.616.969,6.081,6.081,0,0,0,2.079.341q3.7,0,4.63-3.075h-3.057a1.716,1.716,0,0,1-1.555.839q-1.922,0-1.922-2.044h6.657Zm-6.569-1.834a1.737,1.737,0,0,1,.585-1.084,2.007,2.007,0,0,1,2.385.018,1.9,1.9,0,0,1,.646,1.066Zm-6.865-2.289a3.652,3.652,0,0,0-2.778-1.171,4.341,4.341,0,0,0-3.25,1.4,4.584,4.584,0,0,0-.917,1.511,5.359,5.359,0,0,0,.017,3.713,4.637,4.637,0,0,0,.952,1.52,4.45,4.45,0,0,0,1.433,1.014,4.362,4.362,0,0,0,1.8.367,3.317,3.317,0,0,0,2.743-1.276v1h3.18v-14.5h-3.18Zm-3.817,2.787a2.286,2.286,0,0,1,.437-.638,1.915,1.915,0,0,1,.646-.437,2.091,2.091,0,0,1,1.59,0,1.925,1.925,0,0,1,.646.437,2.2,2.2,0,0,1,.437.655,1.951,1.951,0,0,1,.166.795,1.879,1.879,0,0,1-.166.786,2.254,2.254,0,0,1-.437.646,1.925,1.925,0,0,1-.646.437,2.03,2.03,0,0,1-.795.157,2.09,2.09,0,0,1-.812-.157,1.924,1.924,0,0,1-.646-.437,2.089,2.089,0,0,1-.585-1.468A1.819,1.819,0,0,1,1252.161,145.576Z" transform="translate(-1194.043 -136.357)" fill="#92887b"/>
    <path id="Trazado_2534" data-name="Trazado 2534" d="M636.8,150.833h3.163v-3.844a2.906,2.906,0,0,1,.55-1.913,2.035,2.035,0,0,1,1.651-.655,2.994,2.994,0,0,1,1.363.315v-3.022a1.933,1.933,0,0,0-.341-.035h-.271a3.336,3.336,0,0,0-1.712.428,3.641,3.641,0,0,0-1.241,1.231V141.87H636.8Zm-3.931-8.072a3.652,3.652,0,0,0-2.778-1.171,4.313,4.313,0,0,0-1.817.376,4.362,4.362,0,0,0-1.415,1.022,4.7,4.7,0,0,0-.926,1.511,5.056,5.056,0,0,0-.331,1.826,5.2,5.2,0,0,0,.341,1.9,4.636,4.636,0,0,0,.952,1.52,4.337,4.337,0,0,0,1.433,1,4.454,4.454,0,0,0,1.8.358,3.317,3.317,0,0,0,2.743-1.276v1h3.18V141.87h-3.18v.891Zm-3.826,2.787a2.157,2.157,0,0,1,.428-.638,1.914,1.914,0,0,1,.646-.437,2.09,2.09,0,0,1,.812-.157,2.045,2.045,0,0,1,.795.157,1.926,1.926,0,0,1,.646.437,2.2,2.2,0,0,1,.437.655,1.952,1.952,0,0,1,.166.795,1.88,1.88,0,0,1-.166.786,2.252,2.252,0,0,1-.437.646,1.926,1.926,0,0,1-.646.437,2.03,2.03,0,0,1-.795.157,2.09,2.09,0,0,1-.812-.157,1.926,1.926,0,0,1-.646-.437,2.088,2.088,0,0,1-.585-1.468A1.92,1.92,0,0,1,629.039,145.548Zm-7.2-3.678v.943a3.476,3.476,0,0,0-2.672-1.188,4.329,4.329,0,0,0-1.808.376,4.383,4.383,0,0,0-1.433,1.031,4.912,4.912,0,0,0-.952,1.537,5.149,5.149,0,0,0-.349,1.913,5.045,5.045,0,0,0,.323,1.843,4.076,4.076,0,0,0,2.3,2.349,4.579,4.579,0,0,0,1.764.332,4.875,4.875,0,0,0,.8-.062,3.1,3.1,0,0,0,.7-.2,3.806,3.806,0,0,0,.655-.358,5.266,5.266,0,0,0,.672-.55v.856a2.166,2.166,0,0,1-.533,1.555,2.014,2.014,0,0,1-1.529.559,1.422,1.422,0,0,1-1.5-.891h-3.564a3.583,3.583,0,0,0,.559,1.354,4.215,4.215,0,0,0,1.075,1.083,5.234,5.234,0,0,0,1.529.725,6.672,6.672,0,0,0,1.921.262,6.744,6.744,0,0,0,1.721-.21,5.67,5.67,0,0,0,1.424-.577,4.375,4.375,0,0,0,1.075-.865,3.3,3.3,0,0,0,.655-1.075,5.857,5.857,0,0,0,.245-1.048,9.282,9.282,0,0,0,.088-1.345V141.87Zm-3.765,3.651a2.052,2.052,0,0,1,.446-.638,2.265,2.265,0,0,1,.646-.437,1.879,1.879,0,0,1,.786-.166,2.047,2.047,0,0,1,1.433.594,2.179,2.179,0,0,1,.446.646,2.006,2.006,0,0,1,0,1.6,2.233,2.233,0,0,1-.437.655,1.926,1.926,0,0,1-.646.437,2.03,2.03,0,0,1-.795.157,2.091,2.091,0,0,1-.812-.157,1.926,1.926,0,0,1-.646-.437,2.088,2.088,0,0,1-.585-1.468A1.866,1.866,0,0,1,618.076,145.522ZM604.2,148.273a4.617,4.617,0,0,0,1.11,1.546,4.923,4.923,0,0,0,1.686,1,6.294,6.294,0,0,0,2.132.349,6.575,6.575,0,0,0,2.175-.349,5.05,5.05,0,0,0,1.721-.987,4.626,4.626,0,0,0,1.127-1.52,4.573,4.573,0,0,0,.411-1.949,4.641,4.641,0,0,0-.4-1.948,4.48,4.48,0,0,0-1.127-1.52,5.3,5.3,0,0,0-1.712-1,6.229,6.229,0,0,0-2.14-.358,6.163,6.163,0,0,0-2.157.367,5.32,5.32,0,0,0-1.7,1,4.567,4.567,0,0,0-1.118,1.5,4.361,4.361,0,0,0-.4,1.861A4.848,4.848,0,0,0,604.2,148.273Zm3.1-2.752a2.248,2.248,0,0,1,.437-.646,1.912,1.912,0,0,1,.646-.437,2.091,2.091,0,0,1,1.59,0,1.913,1.913,0,0,1,.646.437,2.217,2.217,0,0,1,.437.655,1.952,1.952,0,0,1,.166.795,1.981,1.981,0,0,1-.166.812,2.233,2.233,0,0,1-.437.655,1.934,1.934,0,0,1-.646.437,2.091,2.091,0,0,1-1.59,0,1.925,1.925,0,0,1-.646-.437,2.2,2.2,0,0,1-.437-.655,2.024,2.024,0,0,1-.166-.83A1.88,1.88,0,0,1,607.3,145.522Zm-13.357,5.312H597.1v-4.787a2,2,0,0,1,.428-1.372,1.563,1.563,0,0,1,1.232-.481,1.491,1.491,0,0,1,1.014.367,1.278,1.278,0,0,1,.349.646,4.667,4.667,0,0,1,.105,1.1v4.525h3.163v-5.7a3.572,3.572,0,0,0-.865-2.525,3.319,3.319,0,0,0-2.559-.935,4.094,4.094,0,0,0-1.555.271A3.453,3.453,0,0,0,597.1,143V136.33h-3.163v14.5Z" transform="translate(-593.94 -136.33)" fill="#92887b"/>
    <g id="Grupo_3099" data-name="Grupo 3099" transform="translate(46.565 5.209)">
      <path id="Trazado_2535" data-name="Trazado 2535" d="M1158.123,208.006h2.94l-1.7-2.136.124-.108,1.328-1.224-1.136-1.272a9.465,9.465,0,0,1-1.385,1.284l-.955-1.2a2.953,2.953,0,0,0,2.013-2.172c.238-1.548-1.014-2.46-2.454-2.46a3.127,3.127,0,0,0-3.189,2.484,2.157,2.157,0,0,0,.407,1.572l.151.264-.23.1a3.224,3.224,0,0,0-2.331,2.52c-.255,1.656.946,2.592,2.505,2.592a6.539,6.539,0,0,0,3.261-1.08Zm-1.636-5.747c-.238-.324-.592-.756-.523-1.2a.878.878,0,0,1,.87-.744.668.668,0,0,1,.663.84A1.743,1.743,0,0,1,1156.486,202.259Zm-.082,3.5a2.9,2.9,0,0,1-1.317.372c-.48,0-.976-.288-.893-.828.078-.5.6-.84,1.018-1.08Z" transform="translate(-1151.671 -198.72)" fill="#e9a427"/>
    </g>
  </g>
</svg>
