<svg xmlns="http://www.w3.org/2000/svg" width="15.783" height="16" viewBox="0 0 15.783 16">
  <path id="Trazado_2962" data-name="Trazado 2962" d="M75.822,111.689a8.2,8.2,0,0,0-7.843,5.625h1.162a6.694,6.694,0,0,1,.432-.93H71.81a9.421,9.421,0,0,0-.244.93H72.7a8.76,8.76,0,0,1,.286-.93h2.158v.93h1.094v-.93h2.332a8.16,8.16,0,0,1,.32.93h1.133a9.169,9.169,0,0,0-.273-.93H82.07a6.7,6.7,0,0,1,.432.93h1.16A8.2,8.2,0,0,0,75.822,111.689Zm1.651,1.287a7.126,7.126,0,0,1,3.836,2.315H79.279A7.672,7.672,0,0,0,77.472,112.975Zm-3.621.081a7.264,7.264,0,0,0-1.611,2.234h-1.9A7.116,7.116,0,0,1,73.851,113.056Zm2.385.352A6.3,6.3,0,0,1,78,115.29H76.237Zm-1.094.007v1.875H73.495A5.791,5.791,0,0,1,75.143,113.415Zm-6.837,4.956a.467.467,0,0,0-.273.076.225.225,0,0,0-.11.188.722.722,0,0,0,.051.23l.581,1.67c.018.05.038.106.061.166a.57.57,0,0,0,.093.159.381.381,0,0,0,.154.107.647.647,0,0,0,.244.039.559.559,0,0,0,.291-.066.4.4,0,0,0,.154-.144,2.62,2.62,0,0,0,.107-.247l.52-1.465.518,1.472c.043.109.077.19.1.242a.387.387,0,0,0,.151.144.574.574,0,0,0,.293.063.566.566,0,0,0,.3-.066.394.394,0,0,0,.149-.151,2.434,2.434,0,0,0,.1-.254l.581-1.67a.8.8,0,0,0,.054-.23.223.223,0,0,0-.112-.188.471.471,0,0,0-.271-.076.431.431,0,0,0-.247.059.335.335,0,0,0-.117.129,1.344,1.344,0,0,0-.066.183l-.41,1.421-.459-1.331a2.483,2.483,0,0,0-.1-.244.42.42,0,0,0-.154-.149.585.585,0,0,0-.31-.068.615.615,0,0,0-.31.066.425.425,0,0,0-.164.154,1.777,1.777,0,0,0-.1.242l-.457,1.331-.413-1.431a.811.811,0,0,0-.125-.261A.361.361,0,0,0,68.306,118.371Zm5.623,0a.467.467,0,0,0-.273.076.225.225,0,0,0-.11.188.74.74,0,0,0,.054.23l.581,1.67c.018.05.038.106.061.166a.564.564,0,0,0,.09.159.381.381,0,0,0,.154.107.647.647,0,0,0,.244.039.568.568,0,0,0,.293-.066.389.389,0,0,0,.151-.144,2.62,2.62,0,0,0,.107-.247l.52-1.465.518,1.472c.043.109.077.19.1.242a.387.387,0,0,0,.151.144.575.575,0,0,0,.293.063.566.566,0,0,0,.3-.066.393.393,0,0,0,.149-.151,2.406,2.406,0,0,0,.1-.254l.581-1.67a.8.8,0,0,0,.054-.23.223.223,0,0,0-.112-.188.471.471,0,0,0-.271-.076.431.431,0,0,0-.247.059.335.335,0,0,0-.117.129,1.377,1.377,0,0,0-.066.183l-.41,1.421-.459-1.331a2.483,2.483,0,0,0-.1-.244.41.41,0,0,0-.151-.149.585.585,0,0,0-.31-.068.625.625,0,0,0-.312.066.424.424,0,0,0-.164.154,1.793,1.793,0,0,0-.1.242l-.457,1.331-.413-1.431a.816.816,0,0,0-.122-.261A.367.367,0,0,0,73.929,118.371Zm5.623,0a.467.467,0,0,0-.274.076.225.225,0,0,0-.11.188.74.74,0,0,0,.054.23l.581,1.67c.018.05.038.106.061.166a.564.564,0,0,0,.09.159.382.382,0,0,0,.154.107.647.647,0,0,0,.244.039.568.568,0,0,0,.293-.066.39.39,0,0,0,.151-.144,2.53,2.53,0,0,0,.11-.247l.518-1.465.518,1.472c.043.109.078.19.1.242a.387.387,0,0,0,.151.144.574.574,0,0,0,.293.063.566.566,0,0,0,.3-.066.393.393,0,0,0,.149-.151,2.406,2.406,0,0,0,.1-.254l.581-1.67a.8.8,0,0,0,.054-.23.22.22,0,0,0-.11-.188.479.479,0,0,0-.274-.076.431.431,0,0,0-.247.059.335.335,0,0,0-.117.129,1.377,1.377,0,0,0-.066.183l-.408,1.421-.462-1.331a2.453,2.453,0,0,0-.1-.244.409.409,0,0,0-.151-.149.585.585,0,0,0-.31-.068.625.625,0,0,0-.312.066.424.424,0,0,0-.164.154,1.762,1.762,0,0,0-.1.242l-.457,1.331-.41-1.431a.814.814,0,0,0-.125-.261A.367.367,0,0,0,79.553,118.371Zm-11.615,3.548a8.272,8.272,0,0,0,15.768,0H82.551a6.754,6.754,0,0,1-.4.911H79.811a9.325,9.325,0,0,0,.251-.911H78.947a7.66,7.66,0,0,1-.286.911H76.237v-.911H75.143v.911H72.928a9.258,9.258,0,0,1-.259-.911H71.546c.063.308.14.613.227.911H69.488a6.751,6.751,0,0,1-.4-.911Zm2.268,2h1.961A6.945,6.945,0,0,0,73.78,126.3,7.1,7.1,0,0,1,70.206,123.924Zm3.179,0h1.758v2.044A5.211,5.211,0,0,1,73.385,123.924Zm2.852,0h1.88a5.992,5.992,0,0,1-1.88,1.992Zm3.137,0h2.063a7.114,7.114,0,0,1-4.019,2.493A7.362,7.362,0,0,0,79.374,123.924Z" transform="translate(-67.923 -111.689)" fill="#757575"/>
</svg>
