<svg id="LOGO_VECTORIZADO-01" data-name="LOGO VECTORIZADO-01" xmlns="http://www.w3.org/2000/svg" width="169.909" height="53.339" viewBox="0 0 169.909 53.339">
  <path id="Trazado_2528" data-name="Trazado 2528" d="M12.813,36.216V13.533H25.836v4.993H18.708v3.792h6.467v4.993H18.708v8.905h-5.9M53.327,0H0V53.339H53.327V0" fill="#e9a427"/>
  <path id="Trazado_2529" data-name="Trazado 2529" d="M142.123,136.36H129.1v22.683H135v-8.905h6.467v-4.992H135v-3.793h7.128V136.36" transform="translate(-116.287 -122.827)"/>
  <path id="Trazado_2530" data-name="Trazado 2530" d="M318.691,144.149a6.074,6.074,0,0,0-4.913-2.369,5.673,5.673,0,0,0-5.739,5.971,5.585,5.585,0,0,0,5.826,5.856,6.442,6.442,0,0,0,4.826-2.287v6.714a15.911,15.911,0,0,1-4.941,1,11.994,11.994,0,0,1-8.083-3.171,10.536,10.536,0,0,1-3.457-8.143,11.281,11.281,0,0,1,3.171-7.884,11.676,11.676,0,0,1,8.2-3.485,13.127,13.127,0,0,1,5.112,1.085Z" transform="translate(-272.217 -122.818)" fill="#fff"/>
  <path id="Trazado_2531" data-name="Trazado 2531" d="M89.32,414.97H70.45v4.992H89.32V414.97" transform="translate(-63.458 -373.786)"/>
  <path id="Trazado_2532" data-name="Trazado 2532" d="M636.516,387.138v.891a1.921,1.921,0,0,0-.707-.8,1.948,1.948,0,0,0-1.033-.267,2.045,2.045,0,0,0-1.621.692,2.724,2.724,0,0,0-.605,1.862,2.69,2.69,0,0,0,.623,1.856,2.091,2.091,0,0,0,1.644.7,1.861,1.861,0,0,0,.992-.272,2.057,2.057,0,0,0,.727-.789v.859h.787v-4.738h-.808Zm-.391,3.679a1.673,1.673,0,0,1-2.3-.012,1.94,1.94,0,0,1-.412-1.326,1.8,1.8,0,0,1,.409-1.257,1.619,1.619,0,0,1,2.281.039,1.867,1.867,0,0,1,.438,1.292A1.816,1.816,0,0,1,636.125,390.817Zm-4.063,1.059V383.85h-.829v8.026Zm-5.127,0v-2.449A3.636,3.636,0,0,1,627,388.6a1.168,1.168,0,0,1,.214-.425,1.3,1.3,0,0,1,.494-.376,1.621,1.621,0,0,1,.66-.132,1.176,1.176,0,0,1,.935.349,1.6,1.6,0,0,1,.3,1.07v2.791h.829V388.65a1.623,1.623,0,0,0-.471-1.238,1.834,1.834,0,0,0-1.31-.446,2.128,2.128,0,0,0-.994.223,1.979,1.979,0,0,0-.735.678v-.73h-.792v4.738h.8Zm-1.176-2.408a2.627,2.627,0,0,0-.613-1.838,2.141,2.141,0,0,0-1.665-.673,2.227,2.227,0,0,0-1.7.709,2.566,2.566,0,0,0-.663,1.823,2.63,2.63,0,0,0,.668,1.874,2.286,2.286,0,0,0,1.751.715,2.374,2.374,0,0,0,2.2-1.294l-.616-.414a2.238,2.238,0,0,1-.678.774,1.512,1.512,0,0,1-.859.256,1.478,1.478,0,0,1-1.133-.468,1.737,1.737,0,0,1-.435-1.23v-.072h3.754v-.161Zm-3.753-.5a1.386,1.386,0,0,1,1.439-1.305,1.479,1.479,0,0,1,1.028.339,1.365,1.365,0,0,1,.417.966Zm-2.248,2.9h.829v-4.069h.87v-.668h-.87v-1.911h-.829v1.911h-.87v.668h.87Zm-4.382,0v-2.449a3.631,3.631,0,0,1,.065-.829,1.167,1.167,0,0,1,.214-.425,1.3,1.3,0,0,1,.494-.376,1.621,1.621,0,0,1,.66-.132,1.176,1.176,0,0,1,.935.349,1.6,1.6,0,0,1,.3,1.07v2.791h.829V388.65a1.623,1.623,0,0,0-.471-1.238,1.834,1.834,0,0,0-1.31-.446,2.128,2.128,0,0,0-.994.223,1.979,1.979,0,0,0-.735.678v-.73h-.792v4.738h.8ZM609.2,390.5a2.624,2.624,0,0,0,.56.829,2.578,2.578,0,0,0,1.828.751,2.5,2.5,0,0,0,.977-.2,2.656,2.656,0,0,0,.847-.57,2.447,2.447,0,0,0,.56-.816,2.6,2.6,0,0,0,0-1.957,2.437,2.437,0,0,0-.56-.821,2.667,2.667,0,0,0-.842-.56,2.556,2.556,0,0,0-.982-.192,2.638,2.638,0,0,0-.993.189,2.547,2.547,0,0,0-.834.552,2.485,2.485,0,0,0-.56.826,2.574,2.574,0,0,0-.192.987A2.5,2.5,0,0,0,609.2,390.5Zm1.168-2.25a1.623,1.623,0,0,1,1.219-.52,1.6,1.6,0,0,1,1.207.52,1.874,1.874,0,0,1,0,2.543,1.608,1.608,0,0,1-1.207.52,1.631,1.631,0,0,1-1.217-.52,1.863,1.863,0,0,1,0-2.543Zm-4.141,3.627v-3.744h3.1v-.839h-3.1v-2.174h3.1V384.3h-4v7.58h.9Zm-6.36,2.31,3.179-7.047h-.891l-1.46,3.4-1.378-3.4h-.937l1.859,4.272-1.284,2.775h.912Zm-5.935-2.31h.771v-.859a2.059,2.059,0,0,0,.73.784,1.871,1.871,0,0,0,1,.277,2.092,2.092,0,0,0,1.647-.7,3.113,3.113,0,0,0,.013-3.715,2.057,2.057,0,0,0-1.629-.694,1.915,1.915,0,0,0-1.02.267,1.969,1.969,0,0,0-.71.8v-4.178h-.8v8.025Zm1.217-3.621a1.515,1.515,0,0,1,1.17-.484,1.441,1.441,0,0,1,1.119.441,1.729,1.729,0,0,1,.4,1.217,2.082,2.082,0,0,1-.412,1.37,1.4,1.4,0,0,1-1.136.494,1.493,1.493,0,0,1-1.165-.466,1.852,1.852,0,0,1-.425-1.294A1.812,1.812,0,0,1,595.148,388.255Z" transform="translate(-534.985 -345.754)" fill="#92887b"/>
  <g id="Grupo_3100" data-name="Grupo 3100" transform="translate(58.946 13.53)">
    <path id="Trazado_2533" data-name="Trazado 2533" d="M1282.374,150.554a5.488,5.488,0,0,0,1.319,1.838,5.852,5.852,0,0,0,2,1.184,7.481,7.481,0,0,0,2.534.415,7.815,7.815,0,0,0,2.585-.415,6,6,0,0,0,2.046-1.173,5.5,5.5,0,0,0,1.34-1.806,5.437,5.437,0,0,0,.488-2.316,5.515,5.515,0,0,0-.479-2.315,5.326,5.326,0,0,0-1.34-1.807,6.3,6.3,0,0,0-2.036-1.184,7.4,7.4,0,0,0-2.544-.426,7.326,7.326,0,0,0-2.565.436,6.325,6.325,0,0,0-2.025,1.194,5.428,5.428,0,0,0-1.329,1.786,5.184,5.184,0,0,0-.477,2.212A5.765,5.765,0,0,0,1282.374,150.554Zm3.686-3.271a2.671,2.671,0,0,1,.519-.768,2.274,2.274,0,0,1,.768-.519,2.485,2.485,0,0,1,1.89,0,2.277,2.277,0,0,1,.768.519,2.635,2.635,0,0,1,.519.779,2.322,2.322,0,0,1,.2.945,2.357,2.357,0,0,1-.2.966,2.656,2.656,0,0,1-.519.779,2.3,2.3,0,0,1-.768.519,2.485,2.485,0,0,1-1.89,0,2.288,2.288,0,0,1-.768-.519,2.611,2.611,0,0,1-.519-.779,2.4,2.4,0,0,1-.2-.987A2.233,2.233,0,0,1,1286.06,147.283Zm-4.227-4.091a5.592,5.592,0,0,0-2.534-.582,6.362,6.362,0,0,0-2.336.426,5.633,5.633,0,0,0-1.879,1.184,5.528,5.528,0,0,0-1.246,1.807,5.739,5.739,0,0,0-.456,2.315,5.385,5.385,0,0,0,.477,2.3,5.537,5.537,0,0,0,3.125,2.9,6.227,6.227,0,0,0,2.212.4,6.653,6.653,0,0,0,2.637-.6v-3.2a3.108,3.108,0,0,1-1.973.726,2.781,2.781,0,0,1-1.018-.187,2.351,2.351,0,0,1-.82-.53,2.506,2.506,0,0,1-.54-.81,2.607,2.607,0,0,1-.2-1.028,2.666,2.666,0,0,1,.2-1.049,2.411,2.411,0,0,1,.551-.81,2.485,2.485,0,0,1,.82-.529,2.678,2.678,0,0,1,1.007-.187,3.474,3.474,0,0,1,1.973.665Zm-8.514,5.712v-.395a7.453,7.453,0,0,0-.4-2.5,5.1,5.1,0,0,0-1.142-1.88,4.918,4.918,0,0,0-1.827-1.173,6.885,6.885,0,0,0-2.429-.4,7.034,7.034,0,0,0-2.461.4,5.248,5.248,0,0,0-1.859,1.152,5.046,5.046,0,0,0-1.184,1.817,6.578,6.578,0,0,0-.415,2.4,5.969,5.969,0,0,0,.436,2.326,5.143,5.143,0,0,0,1.236,1.786,5.513,5.513,0,0,0,1.921,1.152,7.228,7.228,0,0,0,2.471.4q4.4,0,5.5-3.655h-3.634a2.039,2.039,0,0,1-1.848,1q-2.285,0-2.285-2.43h7.913Zm-7.809-2.18a2.065,2.065,0,0,1,.7-1.288,2.386,2.386,0,0,1,2.835.021,2.261,2.261,0,0,1,.768,1.267ZM1257.349,144a4.342,4.342,0,0,0-3.3-1.391,5.16,5.16,0,0,0-3.863,1.661,5.45,5.45,0,0,0-1.091,1.8,6.372,6.372,0,0,0,.021,4.413,5.513,5.513,0,0,0,1.131,1.807,5.291,5.291,0,0,0,1.7,1.2,5.186,5.186,0,0,0,2.14.437,3.942,3.942,0,0,0,3.26-1.516V153.6h3.78V136.36h-3.78Zm-4.537,3.313a2.717,2.717,0,0,1,.519-.758,2.277,2.277,0,0,1,.768-.519,2.486,2.486,0,0,1,1.89,0,2.288,2.288,0,0,1,.768.519,2.614,2.614,0,0,1,.519.779,2.318,2.318,0,0,1,.2.945,2.234,2.234,0,0,1-.2.935,2.677,2.677,0,0,1-.519.768,2.288,2.288,0,0,1-.768.519,2.413,2.413,0,0,1-.945.187,2.484,2.484,0,0,1-.966-.187,2.287,2.287,0,0,1-.768-.519,2.484,2.484,0,0,1-.7-1.745A2.162,2.162,0,0,1,1252.812,147.315Z" transform="translate(-1183.727 -136.357)" fill="#92887b"/>
    <path id="Trazado_2534" data-name="Trazado 2534" d="M644.883,153.57h3.759V149a3.455,3.455,0,0,1,.654-2.274,2.419,2.419,0,0,1,1.963-.779,3.558,3.558,0,0,1,1.62.374v-3.593a2.3,2.3,0,0,0-.4-.042h-.322a3.966,3.966,0,0,0-2.036.509,4.328,4.328,0,0,0-1.475,1.464v-1.745h-3.759Zm-4.672-9.6a4.342,4.342,0,0,0-3.3-1.391,5.126,5.126,0,0,0-2.159.447,5.185,5.185,0,0,0-1.682,1.215,5.59,5.59,0,0,0-1.1,1.8,6.01,6.01,0,0,0-.394,2.171,6.18,6.18,0,0,0,.4,2.264,5.51,5.51,0,0,0,1.131,1.807,5.155,5.155,0,0,0,1.7,1.194,5.3,5.3,0,0,0,2.14.426,3.943,3.943,0,0,0,3.26-1.516v1.184h3.78V142.916h-3.78v1.059Zm-4.548,3.313a2.565,2.565,0,0,1,.509-.758,2.274,2.274,0,0,1,.768-.519,2.484,2.484,0,0,1,.966-.187,2.431,2.431,0,0,1,.945.187,2.288,2.288,0,0,1,.768.519,2.616,2.616,0,0,1,.519.779,2.32,2.32,0,0,1,.2.945,2.234,2.234,0,0,1-.2.935,2.677,2.677,0,0,1-.519.768,2.288,2.288,0,0,1-.768.519,2.413,2.413,0,0,1-.945.187,2.484,2.484,0,0,1-.966-.187,2.288,2.288,0,0,1-.768-.519,2.482,2.482,0,0,1-.7-1.745A2.282,2.282,0,0,1,635.662,147.288Zm-8.556-4.372v1.121a4.132,4.132,0,0,0-3.177-1.412,5.146,5.146,0,0,0-2.15.447,5.21,5.21,0,0,0-1.7,1.226,5.839,5.839,0,0,0-1.131,1.827,6.121,6.121,0,0,0-.415,2.274,6,6,0,0,0,.384,2.191,4.845,4.845,0,0,0,2.731,2.793,5.443,5.443,0,0,0,2.1.4,5.794,5.794,0,0,0,.955-.073,3.687,3.687,0,0,0,.831-.239,4.524,4.524,0,0,0,.779-.426,6.26,6.26,0,0,0,.8-.654V153.4a2.575,2.575,0,0,1-.633,1.849,2.394,2.394,0,0,1-1.817.665,1.69,1.69,0,0,1-1.786-1.059h-4.237a4.259,4.259,0,0,0,.665,1.61,5.011,5.011,0,0,0,1.277,1.287,6.221,6.221,0,0,0,1.817.861,7.931,7.931,0,0,0,2.284.312,8.016,8.016,0,0,0,2.045-.249,6.74,6.74,0,0,0,1.692-.686,5.2,5.2,0,0,0,1.277-1.028,3.923,3.923,0,0,0,.779-1.277,6.958,6.958,0,0,0,.291-1.246,11.029,11.029,0,0,0,.1-1.6v-9.927Zm-4.475,4.34a2.439,2.439,0,0,1,.53-.758,2.692,2.692,0,0,1,.768-.519,2.233,2.233,0,0,1,.934-.2,2.433,2.433,0,0,1,1.7.706,2.589,2.589,0,0,1,.53.768,2.385,2.385,0,0,1,0,1.9,2.653,2.653,0,0,1-.519.779,2.289,2.289,0,0,1-.768.519,2.413,2.413,0,0,1-.945.187,2.485,2.485,0,0,1-.966-.187,2.289,2.289,0,0,1-.768-.519,2.482,2.482,0,0,1-.7-1.745A2.218,2.218,0,0,1,622.631,147.256Zm-16.5,3.271a5.488,5.488,0,0,0,1.319,1.838,5.852,5.852,0,0,0,2,1.184,7.481,7.481,0,0,0,2.534.415,7.816,7.816,0,0,0,2.585-.415,6,6,0,0,0,2.045-1.173,5.5,5.5,0,0,0,1.34-1.806,5.436,5.436,0,0,0,.488-2.316,5.517,5.517,0,0,0-.478-2.315,5.326,5.326,0,0,0-1.34-1.807,6.305,6.305,0,0,0-2.036-1.184,7.4,7.4,0,0,0-2.544-.426,7.326,7.326,0,0,0-2.565.436,6.324,6.324,0,0,0-2.025,1.194,5.429,5.429,0,0,0-1.329,1.786,5.183,5.183,0,0,0-.477,2.212A5.763,5.763,0,0,0,606.13,150.527Zm3.687-3.271a2.673,2.673,0,0,1,.519-.768,2.274,2.274,0,0,1,.768-.519,2.485,2.485,0,0,1,1.89,0,2.274,2.274,0,0,1,.768.519,2.636,2.636,0,0,1,.519.779,2.321,2.321,0,0,1,.2.945,2.355,2.355,0,0,1-.2.966,2.655,2.655,0,0,1-.519.779,2.3,2.3,0,0,1-.768.519,2.486,2.486,0,0,1-1.89,0,2.288,2.288,0,0,1-.768-.519,2.616,2.616,0,0,1-.519-.779,2.406,2.406,0,0,1-.2-.986A2.236,2.236,0,0,1,609.817,147.256ZM593.94,153.57H597.7v-5.691a2.373,2.373,0,0,1,.509-1.631,1.858,1.858,0,0,1,1.464-.572,1.772,1.772,0,0,1,1.2.436,1.519,1.519,0,0,1,.415.768,5.547,5.547,0,0,1,.125,1.308v5.379h3.759V146.8a4.246,4.246,0,0,0-1.028-3,3.945,3.945,0,0,0-3.042-1.112,4.866,4.866,0,0,0-1.849.323,4.105,4.105,0,0,0-1.557,1.256V136.33h-3.759v17.24Z" transform="translate(-593.94 -136.33)" fill="#92887b"/>
    <g id="Grupo_3099" data-name="Grupo 3099" transform="translate(55.352 6.192)">
      <path id="Trazado_2535" data-name="Trazado 2535" d="M1159.34,209.758h3.494l-2.02-2.539.148-.128,1.578-1.455-1.351-1.512a11.258,11.258,0,0,1-1.646,1.526l-1.135-1.426c1.2-.557,2.188-1.241,2.393-2.581.283-1.84-1.2-2.924-2.917-2.924a3.717,3.717,0,0,0-3.791,2.953,2.565,2.565,0,0,0,.483,1.869l.18.314-.274.114c-1.447.6-2.523,1.383-2.771,3-.3,1.968,1.125,3.081,2.978,3.081a7.773,7.773,0,0,0,3.877-1.283Zm-1.945-6.831c-.283-.385-.7-.9-.622-1.426a1.043,1.043,0,0,1,1.034-.884.794.794,0,0,1,.788,1A2.072,2.072,0,0,1,1157.4,202.927Zm-.1,4.164a3.442,3.442,0,0,1-1.565.442c-.571,0-1.16-.342-1.061-.984.093-.6.709-1,1.21-1.283Z" transform="translate(-1151.671 -198.72)" fill="#e9a427"/>
    </g>
  </g>
</svg>
