<svg id="LOGO_VECTORIZADO-02" data-name="LOGO VECTORIZADO-02" xmlns="http://www.w3.org/2000/svg" width="33.243" height="33.25" viewBox="0 0 33.243 33.25">
  <path id="Trazado_2536" data-name="Trazado 2536" d="M7.988,22.576V8.436h8.118v3.112H11.662v2.364h4.031v3.112H11.662v5.551H7.988M33.243,0H0V33.25H33.243V0" fill="#e9a427"/>
  <path id="Trazado_2537" data-name="Trazado 2537" d="M137.178,136.31H129.06v14.14h3.674V144.9h4.032v-3.112h-4.032v-2.364h4.444V136.31" transform="translate(-121.072 -127.874)"/>
  <path id="Trazado_2538" data-name="Trazado 2538" d="M312.374,141.172a3.788,3.788,0,0,0-3.062-1.477,3.537,3.537,0,0,0-3.578,3.722,3.482,3.482,0,0,0,3.632,3.651,4.014,4.014,0,0,0,3.009-1.425v4.185a9.919,9.919,0,0,1-3.081.623,7.475,7.475,0,0,1-5.039-1.977A6.568,6.568,0,0,1,302.1,143.4a7.032,7.032,0,0,1,1.977-4.915,7.279,7.279,0,0,1,5.11-2.172,8.178,8.178,0,0,1,3.187.676Z" transform="translate(-283.403 -127.874)" fill="#fff"/>
  <path id="Trazado_2539" data-name="Trazado 2539" d="M82.184,414.82H70.42v3.112H82.184V414.82" transform="translate(-66.062 -389.147)"/>
</svg>
