<svg xmlns="http://www.w3.org/2000/svg" width="24" height="23.7" viewBox="0 0 24 23.7">
  <g id="Glyph" transform="translate(0 -0.1)">
    <path id="Trazado_2913" data-name="Trazado 2913" d="M21,9.5V3.1a.945.945,0,0,0-1-1H10.6L9.9.7A.961.961,0,0,0,9,.1H5a.961.961,0,0,0-.9.6l-1,2a.6.6,0,0,0-.1.4V9.4a5.723,5.723,0,0,0-3,4.7c0,3.7,4.7,6.6,10.8,7L9.5,22.4,11,23.8l2.8-3a.967.967,0,0,0,0-1.4l-3-3L9.4,17.8l1.3,1.3c-4.8-.4-8.6-2.5-8.6-5a2.989,2.989,0,0,1,1-2.1v2.1a.945.945,0,0,0,1,1H20a.945.945,0,0,0,1-1V12a3.409,3.409,0,0,1,1,2.1c0,1.9-2.6,3.8-6.2,4.6l.4,2c4.8-1,7.8-3.6,7.8-6.6A5.707,5.707,0,0,0,21,9.5Zm-9,3.7a4,4,0,1,1,4-4A4.012,4.012,0,0,1,12,13.2Z" fill="#191919"/>
    <circle id="Elipse_194" data-name="Elipse 194" cx="2" cy="2" r="2" transform="translate(10 7.2)" fill="#191919"/>
  </g>
</svg>
