<svg xmlns="http://www.w3.org/2000/svg" xmlns:xlink="http://www.w3.org/1999/xlink" width="24" height="24" viewBox="0 0 24 24"><defs><style>.a,.c{fill:#313131;}.a{stroke:#707070;}.b{clip-path:url(#a);}</style><clipPath id="a"><rect class="a" width="24" height="24"/></clipPath></defs><g class="b"><g transform="translate(0 3.59)"><path class="c" d="M23.185,11.086l-1.634-.707-1.388-2.7A2.185,2.185,0,0,0,18.2,6.484h-2.39V5.809a2.2,2.2,0,0,0-2.2-2.218H2.186A2.2,2.2,0,0,0,0,5.809V16.15a1.347,1.347,0,0,0,1.329,1.366h.305c0,.054-.005.075-.005.107a2.776,2.776,0,0,0,5.551.021v-.027a.833.833,0,0,0-.005-.107h9.232v.107a2.776,2.776,0,1,0,5.551.021v-.134h.691A1.351,1.351,0,0,0,24,16.155V12.33A1.344,1.344,0,0,0,23.185,11.086ZM4.41,19.343a1.7,1.7,0,1,1,1.7-1.7A1.7,1.7,0,0,1,4.41,19.343Zm10.325-2.888H6.923a2.772,2.772,0,0,0-5.026,0H1.35a.277.277,0,0,1-.279-.295V13.4H14.735Zm0-10.641V12.33H1.072V5.814A1.128,1.128,0,0,1,2.186,4.667H13.61a1.135,1.135,0,0,1,1.125,1.141Zm1.072,1.747H18.2a1.131,1.131,0,0,1,1.018.605l1.072,2.074H15.807Zm3.381,11.783a1.7,1.7,0,1,1,1.7-1.7A1.7,1.7,0,0,1,19.188,19.343Zm3.745-3.183a.277.277,0,0,1-.279.295H21.7a2.773,2.773,0,0,0-5.026,0h-.868V11.311h5.251l1.7.75a.315.315,0,0,1,.171.289Z" transform="translate(0 -3.59)"/></g></g></svg>