<svg xmlns="http://www.w3.org/2000/svg" xmlns:xlink="http://www.w3.org/1999/xlink" width="24" height="24" viewBox="0 0 24 24"><defs><style>.a{fill:#fff;stroke:#313131;}.b{clip-path:url(#a);}.c{fill:#313131;}</style><clipPath id="a"><rect class="a" width="24" height="24"/></clipPath></defs><g class="b"><g transform="translate(0 2.254)"><path class="c" d="M22.9,21.042h-.4V10.612A3.263,3.263,0,0,0,24,7.867a.352.352,0,0,0-.046-.174L21.164,2.81a1.106,1.106,0,0,0-.958-.556H3.794a1.106,1.106,0,0,0-.958.556L.046,7.692A.352.352,0,0,0,0,7.867a3.263,3.263,0,0,0,1.5,2.746v10.43H1.1a.352.352,0,0,0,0,.7H22.9a.352.352,0,1,0,0-.7ZM.727,8.218H1.854a.352.352,0,0,0,0-.7h-.9L3.446,3.159a.4.4,0,0,1,.347-.2H20.206a.4.4,0,0,1,.347.2l2.489,4.356h-.9a.352.352,0,0,0,0,.7h1.127a2.56,2.56,0,0,1-5.072,0h2.442a.352.352,0,0,0,0-.7H3.358a.352.352,0,1,0,0,.7H5.8a2.56,2.56,0,0,1-5.072,0Zm16.721,0a2.56,2.56,0,0,1-5.072,0Zm-5.824,0a2.56,2.56,0,0,1-5.072,0Zm8.291,12.824H16.109V19.867h3.806Zm0-1.879H16.109V12.727h3.806Zm1.879,1.879H20.618V12.376a.352.352,0,0,0-.352-.352H15.758a.352.352,0,0,0-.352.352v8.667H2.206V10.953a3.26,3.26,0,0,0,3.97-1.614,3.263,3.263,0,0,0,5.824,0,3.263,3.263,0,0,0,5.824,0,3.26,3.26,0,0,0,3.97,1.614Z" transform="translate(0 -2.254)"/><g transform="translate(3.382 9.77)"><path d="M13.879,12.024H3.733a.352.352,0,0,0-.352.352v7.139a.352.352,0,0,0,.352.352H13.879a.352.352,0,0,0,.352-.352V12.376A.352.352,0,0,0,13.879,12.024Zm-.352,7.139H4.085V12.727h9.442Z" transform="translate(-3.382 -12.024)"/></g></g></g></svg>