<svg xmlns="http://www.w3.org/2000/svg" xmlns:xlink="http://www.w3.org/1999/xlink" width="19" height="19" viewBox="0 0 19 19"><defs><style>.a,.c{fill:#313131;}.a{stroke:#707070;}.b{clip-path:url(#a);}</style><clipPath id="a"><rect class="a" width="19" height="19"/></clipPath></defs><g class="b"><g transform="translate(0.493 1.116)"><path class="c" d="M1.487,8.435a.382.382,0,0,0,.305-.008L4.809,7.056a.388.388,0,0,0,.182-.518.381.381,0,0,0-.5-.185l-2.113.962a7.461,7.461,0,0,1,14.254.471.386.386,0,1,0,.746-.2A8.237,8.237,0,0,0,1.641,7.064L.753,4.842A.388.388,0,0,0,.266,4.6a.388.388,0,0,0-.247.487.238.238,0,0,0,.019.046L1.27,8.219A.384.384,0,0,0,1.487,8.435Z" transform="translate(0 -1.509)"/><path class="c" d="M18.877,16.856a.055.055,0,0,1-.008-.023l-1.232-3.09a.384.384,0,0,0-.216-.216.4.4,0,0,0-.305.008L14.1,14.905a.387.387,0,1,0,.3.715l.023-.012,2.113-.962A7.466,7.466,0,0,1,2.27,14.175a.386.386,0,0,0-.746.2,8.237,8.237,0,0,0,15.738.525l.888,2.221a.386.386,0,0,0,.726-.263Z" transform="translate(-0.343 -4.228)"/></g></g></svg>