<svg xmlns="http://www.w3.org/2000/svg" xmlns:xlink="http://www.w3.org/1999/xlink" width="19" height="19" viewBox="0 0 19 19"><defs><style>.a,.c{fill:#313131;}.a{stroke:#707070;}.b{clip-path:url(#a);}</style><clipPath id="a"><rect class="a" width="19" height="19"/></clipPath></defs><g class="b"><path class="c" d="M16.852,4.515c0-.011,0-.019,0-.03s0-.007,0-.011,0-.019-.007-.03,0-.007,0-.011-.008-.019-.011-.026,0,0,0-.007L14.758.218a.38.38,0,0,0-.338-.21H2.435A.38.38,0,0,0,2.1.218L.038,4.4s0,0,0,.007-.007.019-.011.026,0,.008,0,.011a.072.072,0,0,0-.007.03s0,.007,0,.011a.08.08,0,0,0,0,.03v.011c0,.015,0,.026,0,.041v11.2a.376.376,0,0,0,.375.375H16.485a.376.376,0,0,0,.375-.375V4.564a.156.156,0,0,0,0-.041.012.012,0,0,0,0-.007Zm-.972-.327H10.995L10.376.759h3.813Zm-9.328.75H10.3V8.785l-.09-.094a.372.372,0,0,0-.27-.116.383.383,0,0,0-.27.113l-.492.5-.484-.5a.381.381,0,0,0-.54,0l-.484.5-.492-.5a.383.383,0,0,0-.27-.113.372.372,0,0,0-.27.116l-.09.094ZM9.614.759l.619,3.43H6.627L7.242.759Zm-6.946,0H6.48l-.619,3.43H.976ZM.75,15.393V4.939H5.8V9.727a.376.376,0,0,0,.649.259l.469-.5.488.5a.384.384,0,0,0,.27.113.369.369,0,0,0,.266-.113l.484-.5.484.5a.382.382,0,0,0,.266.113.369.369,0,0,0,.266-.113l.488-.5.469.5a.38.38,0,0,0,.274.116.363.363,0,0,0,.139-.026.375.375,0,0,0,.236-.349V4.939h5.054V15.393Zm0,0" transform="translate(0.716 1.07)"/></g></svg>