<svg xmlns="http://www.w3.org/2000/svg" width="44.919" height="16" viewBox="0 0 44.919 16">
  <g id="Grupo_954" data-name="Grupo 954" transform="translate(-75.931 -2506)">
    <g id="Grupo_1627" data-name="Grupo 1627">
      <path id="Trazado_513" data-name="Trazado 513" d="M116.875,242.284h-1.61v5.47a.19.19,0,0,1-.19.19h-1.24a.2.2,0,0,1-.19-.19v-5.47h-1.62l-.13-.04a.2.2,0,0,1-.06-.13v-.97a.147.147,0,0,1,.06-.13.131.131,0,0,1,.13-.04h4.85a.18.18,0,0,1,.19.17v.97A.18.18,0,0,1,116.875,242.284Z" transform="translate(-8.485 2269.706)" fill="#191919"/>
      <path id="Trazado_514" data-name="Trazado 514" d="M116.655,247.973a12.476,12.476,0,0,1-1.92.12c-1.22,0-2.3-.31-2.3-2.02v-3.11c0-1.71,1.09-2,2.31-2a12.259,12.259,0,0,1,1.91.11c.13.02.19.08.19.19v.88a.2.2,0,0,1-.19.19h-1.99c-.45,0-.61.15-.61.64v.85h2.52a.19.19,0,0,1,.19.19v.89a.184.184,0,0,1-.19.19h-2.52v1c0,.48.16.64.61.64h1.99a.2.2,0,0,1,.19.19v.88C116.845,247.9,116.785,247.963,116.655,247.973Z" transform="translate(-3.085 2269.627)" fill="#191919"/>
      <path id="Trazado_515" data-name="Trazado 515" d="M119.024,247.941h-1.5a.25.25,0,0,1-.25-.15l-1.31-2.05-1.18,2.01c-.06.11-.14.19-.24.19h-1.4l-.1-.03-.05-.11.02-.05,2.05-3.39-2.08-3.22-.02-.06a.123.123,0,0,1,.15-.11h1.55a.286.286,0,0,1,.23.17l1.21,1.9,1.18-1.9a.3.3,0,0,1,.24-.17h1.4c.07,0,.15.04.15.11l-.02.06-2.06,3.24,2.15,3.37.03.08A.144.144,0,0,1,119.024,247.941Z" transform="translate(1.676 2269.708)" fill="#191919"/>
      <path id="Trazado_516" data-name="Trazado 516" d="M115.936,240.969a.149.149,0,0,0-.15.12l-1.37,5.04c-.01.1-.04.14-.13.14s-.12-.04-.13-.14l-1.37-5.04a.149.149,0,0,0-.15-.12h-1.36a.157.157,0,0,0-.12.06.123.123,0,0,0-.02.12s1.68,5.78,1.69,5.84a1.423,1.423,0,0,0,1.46,1.02,1.457,1.457,0,0,0,1.46-1.02c.03-.07,1.67-5.84,1.67-5.84a.125.125,0,0,0-.03-.12.2.2,0,0,0-.12-.06Z" transform="translate(-14.847 2269.721)" fill="#191919"/>
      <path id="Trazado_517" data-name="Trazado 517" d="M120.272,246.07l-3.09,5.75a.6.6,0,0,1-.55.33.624.624,0,0,1-.54-.33l-3.06-5.69a.615.615,0,0,1,.02-.56.554.554,0,0,1,.49-.28h6.25a.493.493,0,0,1,.45.25A.487.487,0,0,1,120.272,246.07Zm6.32-5.57h-14.12a1.455,1.455,0,0,0-1.28,2.12l1.42,2.66h-2.57a.963.963,0,0,0-.81.44.916.916,0,0,0-.03.92l4.54,8.5a.941.941,0,0,0,.83.5.925.925,0,0,0,.82-.5l1.24-2.31,1.55,2.91a1.453,1.453,0,0,0,1.28.76,1.469,1.469,0,0,0,1.29-.76l7.07-13.19a1.4,1.4,0,0,0-1.23-2.05Z" transform="translate(-33.162 2265.5)" fill="#191919"/>
    </g>
  </g>
</svg>
