<svg xmlns="http://www.w3.org/2000/svg" width="202.072" height="16.064" viewBox="0 0 202.072 16.064"><defs><style>.a{fill:#fff;}</style></defs><g transform="translate(-75.931 -2506)"><path class="a" d="M116.875,242.284h-1.61v5.47a.19.19,0,0,1-.19.19h-1.24a.2.2,0,0,1-.19-.19v-5.47h-1.62l-.13-.04a.2.2,0,0,1-.06-.13v-.97a.147.147,0,0,1,.06-.13.131.131,0,0,1,.13-.04h4.85a.18.18,0,0,1,.19.17v.97A.18.18,0,0,1,116.875,242.284Z" transform="translate(-8.485 2269.706)"/><path class="a" d="M116.655,247.973a12.476,12.476,0,0,1-1.92.12c-1.22,0-2.3-.31-2.3-2.02v-3.11c0-1.71,1.09-2,2.31-2a12.259,12.259,0,0,1,1.91.11c.13.02.19.08.19.19v.88a.2.2,0,0,1-.19.19h-1.99c-.45,0-.61.15-.61.64v.85h2.52a.19.19,0,0,1,.19.19v.89a.184.184,0,0,1-.19.19h-2.52v1c0,.48.16.64.61.64h1.99a.2.2,0,0,1,.19.19v.88C116.845,247.9,116.785,247.963,116.655,247.973Z" transform="translate(-3.085 2269.627)"/><path class="a" d="M119.024,247.941h-1.5a.25.25,0,0,1-.25-.15l-1.31-2.05-1.18,2.01c-.06.11-.14.19-.24.19h-1.4l-.1-.03-.05-.11.02-.05,2.05-3.39-2.08-3.22-.02-.06a.123.123,0,0,1,.15-.11h1.55a.286.286,0,0,1,.23.17l1.21,1.9,1.18-1.9a.3.3,0,0,1,.24-.17h1.4c.07,0,.15.04.15.11l-.02.06-2.06,3.24,2.15,3.37.03.08A.144.144,0,0,1,119.024,247.941Z" transform="translate(1.676 2269.708)"/><path class="a" d="M115.936,240.969a.149.149,0,0,0-.15.12l-1.37,5.04c-.01.1-.04.14-.13.14s-.12-.04-.13-.14l-1.37-5.04a.149.149,0,0,0-.15-.12h-1.36a.157.157,0,0,0-.12.06.123.123,0,0,0-.02.12s1.68,5.78,1.69,5.84a1.423,1.423,0,0,0,1.46,1.02,1.457,1.457,0,0,0,1.46-1.02c.03-.07,1.67-5.84,1.67-5.84a.125.125,0,0,0-.03-.12.2.2,0,0,0-.12-.06Z" transform="translate(-14.847 2269.721)"/><path class="a" d="M120.272,246.07l-3.09,5.75a.6.6,0,0,1-.55.33.624.624,0,0,1-.54-.33l-3.06-5.69a.615.615,0,0,1,.02-.56.554.554,0,0,1,.49-.28h6.25a.493.493,0,0,1,.45.25A.487.487,0,0,1,120.272,246.07Zm6.32-5.57h-14.12a1.455,1.455,0,0,0-1.28,2.12l1.42,2.66h-2.57a.963.963,0,0,0-.81.44.916.916,0,0,0-.03.92l4.54,8.5a.941.941,0,0,0,.83.5.925.925,0,0,0,.82-.5l1.24-2.31,1.55,2.91a1.453,1.453,0,0,0,1.28.76,1.469,1.469,0,0,0,1.29-.76l7.07-13.19a1.4,1.4,0,0,0-1.23-2.05Z" transform="translate(-33.162 2265.5)"/><g transform="translate(0 0.416)"><path class="a" d="M138.624,242.97a5.589,5.589,0,0,0-1.65-1.45,5.268,5.268,0,0,0-4.25-.42,5.343,5.343,0,0,0-1.89,1.09l-.48-.36a5.229,5.229,0,0,0-8.29,3.67c-.13,1.94-.16,3.89-.1,5.84a1.84,1.84,0,0,0,.12.73,1.916,1.916,0,0,0,.39.62,1.683,1.683,0,0,0,.61.41,1.729,1.729,0,0,0,.71.14,1.693,1.693,0,0,0,.7-.15,1.726,1.726,0,0,0,.58-.42,1.612,1.612,0,0,0,.38-.61,1.94,1.94,0,0,0,.11-.72v-4.21a7.386,7.386,0,0,1,.09-1.24,1.639,1.639,0,0,1,.64-1.05,1.7,1.7,0,0,1,2.25.19,1.705,1.705,0,0,1,.48,1.11c.02.51,0,1.03,0,1.54v3.77a1.845,1.845,0,0,0,.3,1.02,1.759,1.759,0,0,0,.83.65,1.807,1.807,0,0,0,2.48-1.81c0-1.66,0-3.32.05-4.98a2.261,2.261,0,0,1,.34-1.13,1.7,1.7,0,0,1,.84-.63,1.582,1.582,0,0,1,1.03.02,1.671,1.671,0,0,1,.94.67,1.772,1.772,0,0,1,.32,1.12v5.03a1.849,1.849,0,0,0,.13.7,2.137,2.137,0,0,0,.39.6,1.784,1.784,0,0,0,.59.39,1.758,1.758,0,0,0,.68.14,1.807,1.807,0,0,0,.69-.14,1.647,1.647,0,0,0,.58-.39,1.939,1.939,0,0,0,.39-.6,1.86,1.86,0,0,0,.14-.7v-5.15A5.362,5.362,0,0,0,138.624,242.97Z" transform="translate(127.406 2268.38)"/><path class="a" d="M130.939,246.822l-.56-.23c.56-.45,1.09-.83,1.57-1.27a4.981,4.981,0,0,0,1.08-1.21,2.469,2.469,0,0,0-2.27-3.58c-1.77-.03-3.54-.03-5.32-.03a1.592,1.592,0,0,0-.64.1,1.366,1.366,0,0,0-.54.35,1.463,1.463,0,0,0-.36.55,1.585,1.585,0,0,0-.1.65,1.539,1.539,0,0,0,.07.67,1.868,1.868,0,0,0,.35.57,1.671,1.671,0,0,0,.55.37,1.626,1.626,0,0,0,.66.1h2.6a1.806,1.806,0,0,0,.58.05c-1.17.97-2.26,1.89-3.33,2.81a1.681,1.681,0,0,0-.66,1.94,1.779,1.779,0,0,0,.68.87,1.738,1.738,0,0,0,1.06.27h2.77a1.3,1.3,0,0,1,.62.02,1.329,1.329,0,0,1,.55.29,1.545,1.545,0,0,1,.38.5,1.443,1.443,0,0,1,0,1.24,1.545,1.545,0,0,1-.38.5,1.332,1.332,0,0,1-.55.29,1.3,1.3,0,0,1-.62.02h-3.58a1.632,1.632,0,0,0-1.09.52,1.694,1.694,0,0,0,0,2.3,1.633,1.633,0,0,0,1.09.52h3.74a4.738,4.738,0,0,0,2.98-1.17,4.684,4.684,0,0,0,1.02-5.92A4.781,4.781,0,0,0,130.939,246.822Z" transform="translate(144.091 2265.498)"/></g></g></svg>