<svg xmlns="http://www.w3.org/2000/svg" width="32" height="32" viewBox="0 0 32 32"><defs><style>.a{fill:#313131;}.b{fill:#fff;}</style></defs><g transform="translate(-129 -665)"><circle class="a" cx="16" cy="16" r="16" transform="translate(129 665)"/><path class="b" d="M37.244,1264.735l-.007.059c-1.728-.862-1.909-.977-2.132-.642-.155.232-.606.758-.743.914s-.274.165-.507.059a6.376,6.376,0,0,1-1.889-1.167,7.153,7.153,0,0,1-1.3-1.627c-.23-.4.252-.455.691-1.284a.434.434,0,0,0-.02-.413c-.059-.118-.529-1.273-.725-1.733s-.382-.4-.528-.4a1.17,1.17,0,0,0-1.076.27c-1.268,1.394-.948,2.833.137,4.362,2.134,2.792,3.27,3.305,5.348,4.02a3.262,3.262,0,0,0,1.478.1,2.418,2.418,0,0,0,1.585-1.121,1.946,1.946,0,0,0,.141-1.12C37.634,1264.9,37.48,1264.841,37.244,1264.735Z" transform="translate(111.805 -582.348)"/><path class="b" d="M40.694,1262.727a7.825,7.825,0,0,1-11.8,6.684l-.283-.168-2.948.766.79-2.865-.188-.295a7.8,7.8,0,0,1,12.142-9.617A7.693,7.693,0,0,1,40.694,1262.727Zm-1.164-6.616a9.435,9.435,0,0,0-16.05,6.637,9.3,9.3,0,0,0,1.254,4.673l-1.333,4.843,4.98-1.3a9.409,9.409,0,0,0,13.886-8.213,9.269,9.269,0,0,0-2.747-6.611Z" transform="translate(111.888 -581.821)"/></g></svg>